<svg xmlns="http://www.w3.org/2000/svg" width="20" height="20" viewBox="0 0 20 20" fill="none">
  <path d="M7.60313 4.40039H6.00313C5.5613 4.40039 5.20312 4.75856 5.20312 5.20039V14.8004C5.20312 15.2422 5.5613 15.6004 6.00313 15.6004H7.60313C8.04495 15.6004 8.40313 15.2422 8.40313 14.8004V5.20039C8.40313 4.75856 8.04495 4.40039 7.60313 4.40039Z" stroke="currentColor" stroke-width="1.2" stroke-linecap="round" stroke-linejoin="round"/>
  <path d="M14.0031 4.40039H12.4031C11.9613 4.40039 11.6031 4.75856 11.6031 5.20039V14.8004C11.6031 15.2422 11.9613 15.6004 12.4031 15.6004H14.0031C14.445 15.6004 14.8031 15.2422 14.8031 14.8004V5.20039C14.8031 4.75856 14.445 4.40039 14.0031 4.40039Z" stroke="currentColor" stroke-width="1.2" stroke-linecap="round" stroke-linejoin="round"/>
</svg>