<svg xmlns="http://www.w3.org/2000/svg" width="25" height="24" viewBox="0 0 25 24" fill="none">
  <path d="M9.43439 10.7L16.0344 7.29999M9.43439 13.3L16.0344 16.7M9.73438 12C9.73438 13.6569 8.39123 15 6.73438 15C5.07752 15 3.73438 13.6569 3.73438 12C3.73438 10.3431 5.07752 9 6.73438 9C8.39123 9 9.73438 10.3431 9.73438 12ZM21.7344 6C21.7344 7.65685 20.3912 9 18.7344 9C17.0775 9 15.7344 7.65685 15.7344 6C15.7344 4.34315 17.0775 3 18.7344 3C20.3912 3 21.7344 4.34315 21.7344 6ZM21.7344 18C21.7344 19.6569 20.3912 21 18.7344 21C17.0775 21 15.7344 19.6569 15.7344 18C15.7344 16.3431 17.0775 15 18.7344 15C20.3912 15 21.7344 16.3431 21.7344 18Z" stroke="currentColor" stroke-width="2" stroke-linecap="round" stroke-linejoin="round"/>
</svg>