<svg width="512" height="512" viewBox="0 0 512 512" fill="none" xmlns="http://www.w3.org/2000/svg">
<path d="M449.045 153.514C477.947 204.377 492.397 229.809 492.206 257.624C492.015 285.44 477.216 310.67 447.618 361.131L441.278 371.939C411.68 422.4 396.881 447.63 372.696 461.373C348.512 475.115 319.262 474.913 260.763 474.511L248.232 474.425C189.733 474.023 160.483 473.822 136.49 459.748C112.497 445.675 98.0465 420.243 69.1451 369.38L62.9546 358.486C34.0533 307.622 19.6026 282.191 19.7939 254.376C19.9852 226.56 34.7842 201.33 64.3823 150.869L70.722 140.061C100.32 89.5997 115.119 64.3693 139.304 50.6273C163.488 36.8853 192.738 37.0864 251.237 37.4887L263.768 37.5748C322.267 37.9771 351.517 38.1783 375.51 52.2516C399.503 66.3249 413.954 91.7564 442.855 142.62L449.045 153.514Z" fill="#84CC16"/>
<path d="M282.813 125.285H244.61H182.9C182.437 125.285 182.001 125.499 181.717 125.864L161.302 152.126C151.475 164.655 137.853 182.034 131.03 190.746L118.943 206.179C118.737 206.443 118.625 206.768 118.625 207.103L118.638 253.689L118.651 300.273C118.651 300.609 118.764 300.935 118.972 301.199L138.474 325.969C149.058 339.412 164.171 360.497 165.043 361.715C165.071 361.755 165.098 361.789 165.13 361.825L187.414 387.334C187.698 387.66 188.11 387.847 188.542 387.847H244.672H282.703H320.104C320.507 387.847 320.892 387.685 321.174 387.397L322.35 386.198C324.16 384.352 383.056 309.064 394.321 294.66C395.084 293.684 394.391 292.27 393.151 292.257C386.147 292.181 367.751 292.014 346.308 292.08L297.166 292.231C296.709 292.233 296.277 292.443 295.994 292.802L270.776 324.765C259.177 339.467 245.129 358.937 240.488 365.413C239.801 366.372 240.451 367.687 241.629 367.731C243.76 367.811 246.952 367.901 250.505 367.901H261.334C261.811 367.901 262.259 367.674 262.541 367.289L286.821 334.24C297.014 321.241 305.895 310.455 306.554 310.27C308.164 309.819 345.287 309.952 352.21 310.434L354.885 310.62C356.084 310.704 356.701 312.094 355.96 313.04L335.853 338.677C323.835 354 313.426 367.151 312.721 367.901L311.884 368.791C311.601 369.093 311.206 369.264 310.792 369.264H255.196H199.664C199.213 369.264 198.786 369.061 198.502 368.711L138.81 295.344C138.592 295.077 138.474 294.743 138.474 294.399V212.428C138.474 212.09 138.588 211.762 138.797 211.498L191.908 144.436C192.192 144.077 192.625 143.868 193.082 143.868H255.495H311.309C311.769 143.868 312.204 144.08 312.488 144.443L334.45 172.492C346.777 188.235 357.075 201.206 357.335 201.316C359.855 202.382 354.783 202.609 331.605 202.472L306.123 202.319C305.668 202.317 305.239 202.108 304.957 201.751L287.846 180.135C278.19 167.936 261.791 147.922 260.995 147.015L259.997 145.877C259.713 145.553 259.302 145.367 258.871 145.367H248.056C244.62 145.367 241.583 145.51 239.526 145.64C238.337 145.716 237.744 147.072 238.491 148.001C243.603 154.365 259.031 173.585 270.772 188.413L296.284 220.63C296.568 220.989 297.001 221.198 297.459 221.198H346.825H393.772C395.033 221.198 395.73 219.735 394.935 218.756L394.85 218.65C393.713 217.249 377.321 196.41 358.423 172.342C339.524 148.274 323.377 127.84 322.539 126.933L321.462 125.767C321.178 125.46 320.779 125.285 320.361 125.285H282.813Z" fill="white" stroke="white" stroke-width="18.3167"/>
</svg>
