<svg width="180" height="180" viewBox="0 0 180 180" fill="none" xmlns="http://www.w3.org/2000/svg">
<g clip-path="url(#clip0_6540_7447)">
<path d="M158.042 51.5809C168.453 69.9037 173.659 79.065 173.59 89.0851C173.521 99.1052 168.19 108.194 157.528 126.372L155.244 130.266C144.582 148.443 139.25 157.532 130.538 162.483C121.826 167.433 111.289 167.361 90.2157 167.216L85.7019 167.185C64.6283 167.04 54.0915 166.967 45.4483 161.897C36.8051 156.828 31.5994 147.666 21.1881 129.344L18.9581 125.419C8.54676 107.096 3.34111 97.9349 3.41001 87.9148C3.47892 77.8948 8.81007 68.8059 19.4724 50.628L21.7562 46.7344C32.4185 28.5566 37.7496 19.4677 46.4617 14.5173C55.1739 9.56696 65.7106 9.63941 86.7842 9.78433L91.2981 9.81537C112.372 9.96029 122.909 10.0327 131.552 15.1025C140.195 20.1722 145.401 29.3335 155.812 47.6563L158.042 51.5809Z" fill="#84CC16"/>
<path d="M98.1592 41.4117H84.3969H62.1668C62.0002 41.4117 61.8429 41.4887 61.7406 41.6202L54.3865 51.0809C50.8465 55.5942 45.9391 61.8547 43.4812 64.9932L39.1273 70.5527C39.0529 70.6478 39.0125 70.765 39.0125 70.8857L39.0172 87.6676L39.0219 104.449C39.0219 104.57 39.0627 104.687 39.1376 104.782L46.1629 113.705C49.9758 118.548 55.4198 126.144 55.734 126.582C55.7442 126.597 55.754 126.609 55.7655 126.622L63.7929 135.811C63.8954 135.929 64.0436 135.996 64.1994 135.996H84.4194H98.1194H111.593C111.738 135.996 111.877 135.938 111.978 135.834L112.402 135.402C113.054 134.737 134.27 107.616 138.328 102.427C138.603 102.075 138.353 101.566 137.907 101.561C135.384 101.534 128.757 101.474 121.032 101.497L103.33 101.552C103.165 101.552 103.009 101.628 102.907 101.757L93.823 113.272C89.6444 118.568 84.5838 125.582 82.912 127.915C82.6645 128.26 82.8986 128.734 83.3233 128.75C84.0906 128.778 85.2407 128.811 86.5205 128.811H90.4215C90.5933 128.811 90.7548 128.729 90.8566 128.59L99.6028 116.685C103.275 112.002 106.474 108.117 106.711 108.05C107.292 107.887 120.665 107.936 123.159 108.109L124.122 108.176C124.554 108.206 124.776 108.707 124.509 109.048L117.266 118.283C112.937 123.803 109.187 128.541 108.933 128.811L108.632 129.132C108.53 129.24 108.387 129.302 108.238 129.302H88.2105H68.2059C68.0435 129.302 67.8897 129.229 67.7872 129.103L46.2839 102.673C46.2056 102.577 46.1629 102.457 46.1629 102.333V72.8038C46.1629 72.6821 46.2039 72.564 46.2795 72.4687L65.4117 48.3107C65.5141 48.1814 65.67 48.1061 65.8349 48.1061H88.3181H108.424C108.59 48.1061 108.747 48.1824 108.849 48.3131L116.761 58.4175C121.201 64.0886 124.911 68.7613 125.005 68.8008C125.913 69.1848 124.085 69.2668 115.736 69.2171L106.556 69.1623C106.392 69.1614 106.238 69.086 106.136 68.9576L99.9722 61.1708C96.4938 56.7763 90.5862 49.5665 90.2996 49.2398L89.94 48.8298C89.8375 48.7129 89.6896 48.6459 89.5342 48.6459H85.6384C84.4006 48.6459 83.3065 48.6975 82.5655 48.7445C82.1371 48.7717 81.9237 49.2603 82.1925 49.5949C84.0343 51.8873 89.5918 58.8113 93.8215 64.1526L103.012 75.7584C103.114 75.8877 103.27 75.9631 103.435 75.9631H121.219H138.13C138.585 75.9631 138.836 75.4361 138.55 75.0832L138.519 75.0453C138.109 74.5404 132.204 67.0337 125.396 58.3635C118.589 49.6933 112.772 42.3321 112.47 42.0056L112.082 41.5853C111.98 41.4747 111.836 41.4117 111.685 41.4117H98.1592Z" fill="white" stroke="white" stroke-width="6.59835"/>
</g>
<defs>
<clipPath id="clip0_6540_7447">
<rect width="180" height="180" fill="white"/>
</clipPath>
</defs>
</svg>
