<svg width="64" height="64" viewBox="0 0 64 64" fill="none" xmlns="http://www.w3.org/2000/svg">
<g clip-path="url(#clip0_6542_7462)">
<path d="M57.0807 17.6849C60.8356 24.2931 62.713 27.5972 62.6882 31.211C62.6633 34.8248 60.7406 38.1028 56.8952 44.6587L56.0715 46.063C52.2261 52.6189 50.3034 55.8969 47.1613 57.6823C44.0193 59.4676 40.2191 59.4415 32.6188 59.3892L30.9908 59.378C23.3905 59.3258 19.5904 59.2996 16.4731 57.4712C13.3559 55.6428 11.4785 52.3387 7.72358 45.7305L6.91929 44.3151C3.1644 37.7069 1.28695 34.4028 1.31181 30.789C1.33666 27.1752 3.25937 23.8972 7.10479 17.3413L7.92846 15.937C11.7739 9.38106 13.6966 6.1031 16.8387 4.31772C19.9807 2.53234 23.7809 2.55847 31.3812 2.61073L33.0092 2.62193C40.6095 2.67419 44.4096 2.70033 47.5269 4.52875C50.6441 6.35717 52.5215 9.66127 56.2764 16.2695L57.0807 17.6849Z" fill="#84CC16"/>
<path d="M35.4835 14.0173H30.52H22.5026C22.4425 14.0173 22.3858 14.0451 22.3489 14.0925L19.6966 17.5046C18.4199 19.1323 16.65 21.3902 15.7635 22.5221L14.1933 24.5272C14.1664 24.5615 14.1519 24.6038 14.1519 24.6473L14.1536 30.6998L14.1553 36.7519C14.1553 36.7956 14.17 36.838 14.197 36.8723L16.7307 40.0904C18.1058 41.837 20.0693 44.5764 20.1826 44.7347C20.1862 44.7398 20.1898 44.7442 20.1939 44.7489L23.0891 48.0631C23.126 48.1054 23.1795 48.1297 23.2357 48.1297H30.5281H35.4691H40.3284C40.3807 48.1297 40.4308 48.1087 40.4674 48.0713L40.6201 47.9155C40.8552 47.6756 48.5071 37.8941 49.9707 36.0227C50.0699 35.8959 49.9798 35.7122 49.8187 35.7105C48.9087 35.7007 46.5187 35.679 43.7327 35.6876L37.3482 35.7072C37.2888 35.7074 37.2327 35.7347 37.196 35.7813L33.9196 39.934C32.4126 41.8442 30.5874 44.3738 29.9845 45.2151C29.8952 45.3397 29.9797 45.5106 30.1328 45.5163C30.4096 45.5266 30.8244 45.5383 31.2859 45.5383H32.6928C32.7548 45.5383 32.813 45.5088 32.8497 45.4588L36.0041 41.165C37.3285 39.4762 38.4822 38.0748 38.5679 38.0508C38.7771 37.9922 43.6002 38.0095 44.4996 38.0722L44.8471 38.0964C45.0029 38.1072 45.0831 38.2878 44.9867 38.4107L42.3744 41.7415C40.813 43.7322 39.4607 45.4408 39.3692 45.5383L39.2604 45.654C39.2236 45.6932 39.1722 45.7154 39.1185 45.7154H31.8954H24.6806C24.6221 45.7154 24.5666 45.689 24.5296 45.6435L16.7744 36.1116C16.7461 36.0769 16.7307 36.0335 16.7307 35.9888V25.339C16.7307 25.2952 16.7455 25.2526 16.7728 25.2182L23.6729 16.5055C23.7098 16.4589 23.766 16.4317 23.8255 16.4317H31.9342H39.1856C39.2455 16.4317 39.302 16.4592 39.3389 16.5063L42.1922 20.1506C43.7937 22.1959 45.1317 23.8811 45.1655 23.8954C45.4929 24.0338 44.8338 24.0634 41.8226 24.0455L38.5118 24.0257C38.4528 24.0254 38.397 23.9982 38.3604 23.9519L36.1374 21.1435C34.8828 19.5586 32.7522 16.9584 32.6489 16.8406L32.5192 16.6927C32.4822 16.6505 32.4289 16.6264 32.3728 16.6264H30.9678C30.5214 16.6264 30.1268 16.645 29.8595 16.6619C29.705 16.6718 29.628 16.848 29.725 16.9687C30.3892 17.7954 32.3936 20.2926 33.919 22.2189L37.2336 26.4047C37.2705 26.4513 37.3267 26.4785 37.3862 26.4785H43.7999H49.8993C50.0632 26.4785 50.1537 26.2884 50.0505 26.1611L50.0394 26.1475C49.8917 25.9654 47.762 23.258 45.3067 20.1311C42.8514 17.0041 40.7536 14.3493 40.6447 14.2315L40.5047 14.0799C40.4678 14.04 40.416 14.0173 40.3617 14.0173H35.4835Z" fill="white" stroke="white" stroke-width="2.37973"/>
</g>
<defs>
<clipPath id="clip0_6542_7462">
<rect width="64" height="64" fill="white"/>
</clipPath>
</defs>
</svg>
