<svg width="192" height="192" viewBox="0 0 192 192" fill="none" xmlns="http://www.w3.org/2000/svg">
<g clip-path="url(#clip0_6540_7453)">
<path d="M168.962 57.2653C179.885 76.4891 185.347 86.101 185.275 96.6139C185.202 107.127 179.609 116.663 168.422 135.734L166.026 139.82C154.84 158.891 149.246 168.427 140.106 173.621C130.965 178.815 119.91 178.739 97.8001 178.587L93.0642 178.554C70.9542 178.402 59.8992 178.326 50.831 173.007C41.7627 167.688 36.301 158.076 25.3777 138.852L23.0379 134.735C12.1146 115.511 6.65296 105.899 6.72526 95.3861C6.79755 84.8732 12.3909 75.3373 23.5776 56.2655L25.9737 52.1804C37.1604 33.1086 42.7537 23.5727 51.8943 18.3788C61.0349 13.185 72.0899 13.261 94.1999 13.4131L98.9358 13.4456C121.046 13.5977 132.101 13.6737 141.169 18.9927C150.237 24.3118 155.699 33.9237 166.622 53.1476L168.962 57.2653Z" fill="#84CC16"/>
<path d="M106.134 46.5959H91.6951H68.3717C68.1969 46.5959 68.0319 46.6767 67.9246 46.8147L60.2088 56.7407C56.4947 61.4759 51.346 68.0443 48.7672 71.3372L44.1991 77.1701C44.121 77.2698 44.0786 77.3928 44.0787 77.5194L44.0836 95.1266L44.0885 112.733C44.0886 112.86 44.1313 112.983 44.2099 113.083L51.5807 122.445C55.5811 127.526 61.2929 135.495 61.6225 135.955C61.6332 135.97 61.6435 135.983 61.6556 135.997L70.0778 145.638C70.1853 145.761 70.3408 145.832 70.5043 145.832H91.7187H106.092H120.228C120.381 145.832 120.526 145.771 120.633 145.662L121.077 145.209C121.761 144.511 144.021 116.056 148.279 110.612C148.567 110.243 148.305 109.708 147.837 109.703C145.189 109.675 138.237 109.612 130.132 109.637L111.559 109.694C111.386 109.694 111.223 109.774 111.116 109.909L101.585 121.99C97.2006 127.547 91.8912 134.906 90.1372 137.353C89.8775 137.715 90.1231 138.213 90.5687 138.229C91.3738 138.259 92.5804 138.293 93.9232 138.293H98.016C98.1963 138.293 98.3657 138.207 98.4724 138.062L107.649 125.571C111.502 120.658 114.858 116.581 115.107 116.512C115.716 116.341 129.746 116.391 132.363 116.574L133.374 116.644C133.827 116.676 134.06 117.201 133.78 117.558L126.181 127.248C121.638 133.039 117.704 138.01 117.438 138.293L117.122 138.63C117.015 138.744 116.865 138.808 116.709 138.808H95.6963H74.7078C74.5374 138.808 74.3761 138.732 74.2685 138.599L51.7077 110.87C51.6255 110.769 51.5807 110.643 51.5807 110.513V79.5319C51.5807 79.4042 51.6238 79.2803 51.703 79.1803L71.7762 53.8342C71.8836 53.6986 72.0471 53.6195 72.2202 53.6195H95.8091H116.904C117.078 53.6195 117.243 53.6996 117.35 53.8367L125.651 64.438C130.309 70.3881 134.202 75.2906 134.3 75.332C135.252 75.7349 133.335 75.8209 124.575 75.7688L114.944 75.7113C114.772 75.7103 114.61 75.6313 114.503 75.4965L108.036 67.3268C104.387 62.7161 98.1887 55.1518 97.8881 54.809L97.5108 54.3788C97.4032 54.2562 97.2481 54.1859 97.085 54.1859H92.9976C91.699 54.1859 90.551 54.24 89.7736 54.2894C89.3242 54.3179 89.1002 54.8305 89.3823 55.1816C91.3146 57.5867 97.1455 64.8512 101.583 70.4552L111.225 82.6318C111.333 82.7674 111.496 82.8465 111.669 82.8465H130.328H148.071C148.548 82.8465 148.811 82.2936 148.511 81.9234L148.479 81.8836C148.049 81.3539 141.853 73.478 134.711 64.3814C127.568 55.2848 121.465 47.5616 121.149 47.219L120.741 46.778C120.634 46.662 120.483 46.5959 120.325 46.5959H106.134Z" fill="white" stroke="white" stroke-width="6.92286"/>
</g>
<defs>
<clipPath id="clip0_6540_7453">
<rect width="192" height="192" fill="white"/>
</clipPath>
</defs>
</svg>
