<svg width="42" height="42" viewBox="0 0 42 42" fill="none" xmlns="http://www.w3.org/2000/svg">
<rect width="41.4545" height="41.4545" rx="20.7273" fill="#1E293B"/>
<path d="M22.1345 20.7272L28.4345 14.4372C28.6229 14.2489 28.7286 13.9935 28.7286 13.7272C28.7286 13.4609 28.6229 13.2055 28.4345 13.0172C28.2462 12.8289 27.9909 12.7231 27.7245 12.7231C27.4582 12.7231 27.2029 12.8289 27.0145 13.0172L20.7245 19.3172L14.4345 13.0172C14.2462 12.8289 13.9908 12.7231 13.7245 12.7231C13.4582 12.7231 13.2029 12.8289 13.0145 13.0172C12.8262 13.2055 12.7205 13.4609 12.7205 13.7272C12.7205 13.9935 12.8262 14.2489 13.0145 14.4372L19.3145 20.7272L13.0145 27.0172C12.9208 27.1102 12.8464 27.2208 12.7957 27.3427C12.7449 27.4645 12.7188 27.5952 12.7188 27.7272C12.7188 27.8592 12.7449 27.99 12.7957 28.1118C12.8464 28.2337 12.9208 28.3443 13.0145 28.4372C13.1075 28.531 13.2181 28.6054 13.34 28.6561C13.4618 28.7069 13.5925 28.733 13.7245 28.733C13.8566 28.733 13.9873 28.7069 14.1091 28.6561C14.231 28.6054 14.3416 28.531 14.4345 28.4372L20.7245 22.1372L27.0145 28.4372C27.1075 28.531 27.2181 28.6054 27.34 28.6561C27.4618 28.7069 27.5925 28.733 27.7245 28.733C27.8566 28.733 27.9873 28.7069 28.1091 28.6561C28.231 28.6054 28.3416 28.531 28.4345 28.4372C28.5283 28.3443 28.6027 28.2337 28.6534 28.1118C28.7042 27.99 28.7303 27.8592 28.7303 27.7272C28.7303 27.5952 28.7042 27.4645 28.6534 27.3427C28.6027 27.2208 28.5283 27.1102 28.4345 27.0172L22.1345 20.7272Z" fill="#F8FAFC"/>
</svg>
