<svg xmlns="http://www.w3.org/2000/svg" width="32" height="33" viewBox="0 0 32 33" fill="none">
  <path d="M10.6667 17.8333V17.8467M16 23.1667V23.18M16 16.5V16.5133M21.3333 19.1667V19.18M14.6667 11.1667V11.18M17.5307 5.13453L21.0867 6.60653C20.3819 7.53376 20 8.66619 19.9994 9.83085C19.9987 10.9955 20.3793 12.1284 21.083 13.0564C21.7868 13.9844 22.7749 14.6566 23.8965 14.9702C25.0182 15.2838 26.2117 15.2216 27.2947 14.7932L27.3653 14.9692C27.7713 15.9493 27.7713 17.0505 27.3653 18.0305C26.7027 19.0785 26.248 19.9025 26 20.4999C25.748 21.1079 25.4547 22.0919 25.12 23.4545C24.7137 24.4345 23.9348 25.2129 22.9547 25.6185C21.5573 25.9692 20.572 26.2625 20 26.4999C19.3667 26.7625 18.544 27.2172 17.5307 27.8652C16.5506 28.2711 15.4494 28.2711 14.4693 27.8652C13.4 27.1945 12.5773 26.7399 12 26.4999C11.372 26.2399 10.3867 25.9465 9.04532 25.6199C8.0654 25.2136 7.28699 24.4347 6.88132 23.4545C6.52799 22.0519 6.23465 21.0679 5.99999 20.4999C5.73599 19.8612 5.27999 19.0385 4.63465 18.0305C4.22872 17.0505 4.22872 15.9493 4.63465 14.9692C5.27465 13.9772 5.72799 13.1545 5.99999 12.4999C6.22799 11.9492 6.52132 10.9639 6.87999 9.5452C7.28626 8.56528 8.06515 7.78687 9.04532 7.3812C10.4213 7.03987 11.4053 6.74653 12 6.49987C12.6107 6.24653 13.4333 5.79187 14.4693 5.13453C15.4494 4.72859 16.5506 4.72859 17.5307 5.13453Z" stroke="currentColor" stroke-width="2" stroke-linecap="round" stroke-linejoin="round"/>
</svg>