<svg width="20" height="20" viewBox="0 0 20 20" fill="none" xmlns="http://www.w3.org/2000/svg">
<path d="M13.332 6.66659V4.99992C13.332 4.55789 13.1564 4.13397 12.8439 3.82141C12.5313 3.50885 12.1074 3.33325 11.6654 3.33325H4.9987C4.55667 3.33325 4.13275 3.50885 3.82019 3.82141C3.50763 4.13397 3.33203 4.55789 3.33203 4.99992V11.6666C3.33203 12.1086 3.50763 12.5325 3.82019 12.8451C4.13275 13.1577 4.55667 13.3333 4.9987 13.3333H6.66536M8.33203 6.66659H14.9987C15.9192 6.66659 16.6654 7.41278 16.6654 8.33325V14.9999C16.6654 15.9204 15.9192 16.6666 14.9987 16.6666H8.33203C7.41156 16.6666 6.66536 15.9204 6.66536 14.9999V8.33325C6.66536 7.41278 7.41156 6.66659 8.33203 6.66659Z" stroke="currentColor" stroke-width="1.5" stroke-linecap="round" stroke-linejoin="round"/>
</svg>
