<svg xmlns="http://www.w3.org/2000/svg" width="120" height="120" viewBox="0 0 120 120" fill="none">
  <path d="M51.4518 19.3L9.10181 90C8.22865 91.5122 7.76665 93.2265 7.76176 94.9726C7.75687 96.7187 8.20927 98.4357 9.07395 99.9527C9.93862 101.47 11.1854 102.734 12.6904 103.619C14.1953 104.505 15.9058 104.981 17.6518 105H102.352C104.098 104.981 105.808 104.505 107.313 103.619C108.818 102.734 110.065 101.47 110.93 99.9527C111.794 98.4357 112.247 96.7187 112.242 94.9726C112.237 93.2265 111.775 91.5122 110.902 90L68.5518 19.3C67.6605 17.8306 66.4054 16.6156 64.9078 15.7725C63.4102 14.9293 61.7205 14.4863 60.0018 14.4863C58.2831 14.4863 56.5935 14.9293 55.0958 15.7725C53.5982 16.6156 52.3432 17.8306 51.4518 19.3V19.3Z" stroke="#EF4444" stroke-width="10" stroke-linecap="round" stroke-linejoin="round"/>
  <path d="M60 45V65" stroke="#EF4444" stroke-width="10" stroke-linecap="round" stroke-linejoin="round"/>
  <path d="M60 85H60.05" stroke="#EF4444" stroke-width="10" stroke-linecap="round" stroke-linejoin="round"/>
</svg>