<svg xmlns="http://www.w3.org/2000/svg" width="120" height="120" viewBox="0 0 120 120" fill="none">
  <path d="M114.159 60C117.385 60 120.029 57.3785 119.716 54.1679C118.542 42.1415 113.756 30.699 105.92 21.3817C96.8258 10.5683 84.2075 3.31112 70.2876 0.888543C56.3678 -1.53404 42.0396 1.03345 29.8271 8.1387C17.6146 15.2439 8.30126 26.4311 3.52786 39.7294C-1.24555 53.0277 -1.17282 67.584 3.73324 80.8339C8.6393 94.0838 18.0639 105.177 30.3468 112.16C42.6298 119.143 56.9829 121.567 70.8778 119.006C82.8503 116.799 93.8207 111.012 102.375 102.478C104.659 100.199 104.285 96.4944 101.796 94.4428C99.3063 92.3913 95.6471 92.7769 93.3103 95.0009C86.5458 101.439 78.0255 105.809 68.7599 107.517C57.5703 109.58 46.0117 107.628 36.1203 102.005C26.2289 96.3813 18.6392 87.4477 14.6884 76.7775C10.7375 66.1074 10.679 54.3852 14.523 43.6761C18.367 32.967 25.867 23.9579 35.7017 18.2361C45.5365 12.5142 57.075 10.4466 68.2846 12.3975C79.4943 14.3484 89.6558 20.1927 96.9792 28.9007C103.043 36.1114 106.839 44.9027 107.965 54.1729C108.354 57.3753 110.933 60 114.159 60Z" fill="url(#paint0_linear_4370_165259)"/>
  <defs>
    <linearGradient id="paint0_linear_4370_165259" x1="33" y1="3" x2="96.3333" y2="109" gradientUnits="userSpaceOnUse">
      <stop stop-color="#22C55E"/>
      <stop offset="0.802083" stop-color="#22C55E" stop-opacity="0"/>
    </linearGradient>
  </defs>
</svg>