<svg xmlns="http://www.w3.org/2000/svg" width="24" height="24" viewBox="0 0 24 24" fill="none">
  <path d="M13.408 11.9997L19.708 5.7097C19.8963 5.52139 20.0021 5.266 20.0021 4.9997C20.0021 4.7334 19.8963 4.478 19.708 4.2897C19.5197 4.10139 19.2643 3.99561 18.998 3.99561C18.7317 3.99561 18.4763 4.10139 18.288 4.2897L11.998 10.5897L5.70799 4.2897C5.51968 4.10139 5.26429 3.99561 4.99799 3.99561C4.73168 3.99561 4.47629 4.10139 4.28799 4.2897C4.09968 4.478 3.99389 4.7334 3.99389 4.9997C3.99389 5.266 4.09968 5.52139 4.28799 5.7097L10.588 11.9997L4.28799 18.2897C4.19426 18.3827 4.11986 18.4933 4.06909 18.6151C4.01833 18.737 3.99219 18.8677 3.99219 18.9997C3.99219 19.1317 4.01833 19.2624 4.06909 19.3843C4.11986 19.5061 4.19426 19.6167 4.28799 19.7097C4.38095 19.8034 4.49155 19.8778 4.61341 19.9286C4.73527 19.9794 4.86597 20.0055 4.99799 20.0055C5.13 20.0055 5.2607 19.9794 5.38256 19.9286C5.50442 19.8778 5.61502 19.8034 5.70799 19.7097L11.998 13.4097L18.288 19.7097C18.3809 19.8034 18.4915 19.8778 18.6134 19.9286C18.7353 19.9794 18.866 20.0055 18.998 20.0055C19.13 20.0055 19.2607 19.9794 19.3826 19.9286C19.5044 19.8778 19.615 19.8034 19.708 19.7097C19.8017 19.6167 19.8761 19.5061 19.9269 19.3843C19.9776 19.2624 20.0038 19.1317 20.0038 18.9997C20.0038 18.8677 19.9776 18.737 19.9269 18.6151C19.8761 18.4933 19.8017 18.3827 19.708 18.2897L13.408 11.9997Z" fill="#EF4444"/>
</svg>