<svg xmlns="http://www.w3.org/2000/svg" width="21" height="21" viewBox="0 0 21 21" fill="none">
  <g clip-path="url(#clip0_2851_75501)">
    <path d="M10.2734 13.0603C11.6541 13.0603 12.7734 11.941 12.7734 10.5603C12.7734 9.17959 11.6541 8.0603 10.2734 8.0603C8.89273 8.0603 7.77344 9.17959 7.77344 10.5603C7.77344 11.941 8.89273 13.0603 10.2734 13.0603Z" stroke="currentColor" stroke-width="1.5" stroke-linecap="round" stroke-linejoin="round"/>
    <path d="M16.4388 13.0603C16.3279 13.3117 16.2948 13.5905 16.3438 13.8608C16.3928 14.1312 16.5217 14.3806 16.7138 14.577L16.7638 14.627C16.9188 14.7818 17.0417 14.9656 17.1256 15.1679C17.2094 15.3703 17.2526 15.5871 17.2526 15.8062C17.2526 16.0252 17.2094 16.2421 17.1256 16.4444C17.0417 16.6467 16.9188 16.8306 16.7638 16.9853C16.609 17.1403 16.4252 17.2632 16.2229 17.3471C16.0205 17.431 15.8037 17.4742 15.5846 17.4742C15.3656 17.4742 15.1487 17.431 14.9464 17.3471C14.7441 17.2632 14.5603 17.1403 14.4055 16.9853L14.3555 16.9353C14.1591 16.7432 13.9096 16.6144 13.6393 16.5653C13.369 16.5163 13.0901 16.5494 12.8388 16.6603C12.5923 16.766 12.3821 16.9414 12.2341 17.165C12.086 17.3885 12.0065 17.6505 12.0055 17.9187V18.0603C12.0055 18.5024 11.8299 18.9263 11.5173 19.2389C11.2048 19.5514 10.7808 19.727 10.3388 19.727C9.89677 19.727 9.47285 19.5514 9.16029 19.2389C8.84773 18.9263 8.67213 18.5024 8.67213 18.0603V17.9853C8.66568 17.7095 8.5764 17.442 8.41589 17.2176C8.25539 16.9932 8.03108 16.8222 7.77213 16.727C7.52079 16.6161 7.24197 16.583 6.97164 16.632C6.70132 16.681 6.45187 16.8099 6.25547 17.002L6.20547 17.052C6.05068 17.207 5.86687 17.3299 5.66454 17.4138C5.46221 17.4976 5.24533 17.5408 5.0263 17.5408C4.80728 17.5408 4.5904 17.4976 4.38807 17.4138C4.18574 17.3299 4.00192 17.207 3.84714 17.052C3.69217 16.8972 3.56924 16.7134 3.48537 16.5111C3.4015 16.3087 3.35832 16.0919 3.35832 15.8728C3.35832 15.6538 3.4015 15.4369 3.48537 15.2346C3.56924 15.0323 3.69217 14.8485 3.84714 14.6937L3.89714 14.6437C4.08925 14.4473 4.21812 14.1978 4.26714 13.9275C4.31615 13.6572 4.28306 13.3784 4.17213 13.127C4.0665 12.8805 3.8911 12.6703 3.66752 12.5223C3.44395 12.3742 3.18196 12.2947 2.9138 12.2937H2.77214C2.33011 12.2937 1.90618 12.1181 1.59362 11.8055C1.28106 11.493 1.10547 11.069 1.10547 10.627C1.10547 10.185 1.28106 9.76106 1.59362 9.4485C1.90618 9.13594 2.33011 8.96034 2.77214 8.96034H2.84714C3.12296 8.95389 3.39047 8.86461 3.61488 8.7041C3.8393 8.54359 4.01023 8.31929 4.10547 8.06034C4.2164 7.809 4.24949 7.53018 4.20047 7.25985C4.15146 6.98952 4.02258 6.74008 3.83047 6.54368L3.78047 6.49368C3.62551 6.33889 3.50258 6.15507 3.4187 5.95274C3.33483 5.75041 3.29166 5.53354 3.29166 5.31451C3.29166 5.09548 3.33483 4.87861 3.4187 4.67628C3.50258 4.47395 3.62551 4.29013 3.78047 4.13534C3.93526 3.98038 4.11907 3.85745 4.3214 3.77358C4.52373 3.6897 4.74061 3.64653 4.95964 3.64653C5.17866 3.64653 5.39554 3.6897 5.59787 3.77358C5.8002 3.85745 5.98401 3.98038 6.1388 4.13534L6.1888 4.18534C6.3852 4.37746 6.63465 4.50633 6.90498 4.55535C7.17531 4.60436 7.45412 4.57127 7.70547 4.46034H7.77213C8.01861 4.35471 8.22882 4.17931 8.37688 3.95573C8.52494 3.73216 8.6044 3.47017 8.60547 3.20201V3.06034C8.60547 2.61832 8.78106 2.19439 9.09362 1.88183C9.40618 1.56927 9.83011 1.39368 10.2721 1.39368C10.7142 1.39368 11.1381 1.56927 11.4506 1.88183C11.7632 2.19439 11.9388 2.61832 11.9388 3.06034V3.13534C11.9399 3.4035 12.0193 3.66549 12.1674 3.88906C12.3155 4.11264 12.5257 4.28804 12.7721 4.39368C13.0235 4.50461 13.3023 4.5377 13.5726 4.48868C13.843 4.43966 14.0924 4.31079 14.2888 4.11868L14.3388 4.06868C14.4936 3.91372 14.6774 3.79078 14.8797 3.70691C15.0821 3.62304 15.2989 3.57987 15.518 3.57987C15.737 3.57987 15.9539 3.62304 16.1562 3.70691C16.3585 3.79078 16.5423 3.91372 16.6971 4.06868C16.8521 4.22346 16.975 4.40728 17.0589 4.60961C17.1428 4.81194 17.1859 5.02882 17.1859 5.24784C17.1859 5.46687 17.1428 5.68375 17.0589 5.88608C16.975 6.08841 16.8521 6.27222 16.6971 6.42701L16.6471 6.47701C16.455 6.67341 16.3261 6.92286 16.2771 7.19319C16.2281 7.46351 16.2612 7.74233 16.3721 7.99368V8.06034C16.4778 8.30682 16.6532 8.51702 16.8767 8.66509C17.1003 8.81315 17.3623 8.89261 17.6305 8.89368H17.7721C18.2142 8.89368 18.6381 9.06927 18.9506 9.38183C19.2632 9.69439 19.4388 10.1183 19.4388 10.5603C19.4388 11.0024 19.2632 11.4263 18.9506 11.7389C18.6381 12.0514 18.2142 12.227 17.7721 12.227H17.6971C17.429 12.2281 17.167 12.3075 16.9434 12.4556C16.7198 12.6037 16.5444 12.8139 16.4388 13.0603V13.0603Z" stroke="currentColor" stroke-width="1.5" stroke-linecap="round" stroke-linejoin="round"/>
  </g>
  <defs>
    <clipPath id="clip0_2851_75501">
      <rect width="20" height="20" fill="white" transform="translate(0.273438 0.560303)"/>
    </clipPath>
  </defs>
</svg>