<svg width="120" height="120" viewBox="0 0 120 120" fill="none" xmlns="http://www.w3.org/2000/svg">
<path d="M106.134 21.6381C113.792 30.8476 118.518 42.1382 119.705 54.0567C120.891 65.9751 118.484 77.9759 112.791 88.5143C107.099 99.0527 98.3834 107.646 87.7657 113.189C77.1479 118.732 65.1143 120.97 53.2138 119.615C41.3133 118.26 30.0905 113.375 20.9902 105.588C11.8898 97.8004 5.32841 87.4677 2.15049 75.9196C-1.02743 64.3715 -0.67639 52.1366 3.15843 40.7897C6.99325 29.4428 14.1363 19.5033 23.6682 12.2507L29.118 19.4131C21.0159 25.5778 14.9443 34.0264 11.6847 43.6712C8.42507 53.3161 8.12668 63.7158 10.8279 73.5317C13.5291 83.3475 19.1064 92.1303 26.8417 98.7495C34.5769 105.369 44.1163 109.521 54.2317 110.673C64.3472 111.824 74.5757 109.922 83.6008 105.211C92.6259 100.499 100.034 93.1948 104.873 84.2372C109.711 75.2795 111.758 65.0789 110.749 54.9482C109.741 44.8175 105.723 35.2204 99.2141 27.3924L106.134 21.6381Z" fill="#334155"/>
<path d="M120 60C120 93.1371 93.1371 120 60 120C26.8629 120 0 93.1371 0 60C0 26.8629 26.8629 0 60 0C93.1371 0 120 26.8629 120 60ZM9 60C9 88.1665 31.8335 111 60 111C88.1665 111 111 88.1665 111 60C111 31.8335 88.1665 9 60 9C31.8335 9 9 31.8335 9 60Z" fill="#22C55E"/>
<path d="M48.4992 45.7999L69.7242 38.7249C79.2492 35.5499 84.4242 40.7499 81.2742 50.2749L74.1992 71.4999C69.4492 85.7749 61.6492 85.7749 56.8992 71.4999L54.7992 65.1999L48.4992 63.0999C34.2242 58.3499 34.2242 50.5749 48.4992 45.7999Z" stroke="#22C55E" stroke-width="5" stroke-linecap="round" stroke-linejoin="round"/>
<path d="M55.2734 64.1249L64.2234 55.1499" stroke="#22C55E" stroke-width="5" stroke-linecap="round" stroke-linejoin="round"/>
</svg>
