<svg width="120" height="120" viewBox="0 0 120 120" fill="none" xmlns="http://www.w3.org/2000/svg">
<circle cx="60" cy="60" r="60" fill="#1E293B"/>
<path d="M50 57.5V45C50 42.3478 51.0536 39.8043 52.9289 37.9289C54.8043 36.0536 57.3478 35 60 35C62.6522 35 65.1957 36.0536 67.0711 37.9289C68.9464 39.8043 70 42.3478 70 45M47.5 57.5H72.5C75.2614 57.5 77.5 59.7386 77.5 62.5V77.5C77.5 80.2614 75.2614 82.5 72.5 82.5H47.5C44.7386 82.5 42.5 80.2614 42.5 77.5V62.5C42.5 59.7386 44.7386 57.5 47.5 57.5ZM62.5 70C62.5 71.3807 61.3807 72.5 60 72.5C58.6193 72.5 57.5 71.3807 57.5 70C57.5 68.6193 58.6193 67.5 60 67.5C61.3807 67.5 62.5 68.6193 62.5 70Z" stroke="#64748B" stroke-width="6" stroke-linecap="round" stroke-linejoin="round"/>
</svg>
