<svg xmlns="http://www.w3.org/2000/svg" width="17" height="16" viewBox="0 0 17 16" fill="none">
  <path d="M3.16797 3.99984C3.16797 3.64622 3.30844 3.30708 3.55849 3.05703C3.80854 2.80698 4.14768 2.6665 4.5013 2.6665H11.168C11.3448 2.6665 11.5143 2.73674 11.6394 2.86177C11.7644 2.98679 11.8346 3.15636 11.8346 3.33317V5.33317L13.168 7.99984V5.99984C13.168 5.82303 13.0977 5.65346 12.9727 5.52843C12.8477 5.40341 12.6781 5.33317 12.5013 5.33317H4.5013C4.14768 5.33317 3.80854 5.19269 3.55849 4.94265C3.30844 4.6926 3.16797 4.35346 3.16797 3.99984ZM3.16797 3.99984V11.9998C3.16797 12.3535 3.30844 12.6926 3.55849 12.9426C3.80854 13.1927 4.14768 13.3332 4.5013 13.3332H12.5013C12.6781 13.3332 12.8477 13.2629 12.9727 13.1379C13.0977 13.0129 13.168 12.8433 13.168 12.6665V10.6665M13.8346 7.99984V10.6665H11.168C10.8143 10.6665 10.4752 10.526 10.2252 10.276C9.97511 10.0259 9.83464 9.68679 9.83464 9.33317C9.83464 8.97955 9.97511 8.64041 10.2252 8.39036C10.4752 8.14031 10.8143 7.99984 11.168 7.99984H13.8346Z" stroke="currentColor" stroke-width="1.33333" stroke-linecap="round" stroke-linejoin="round"/>
</svg>