<svg xmlns="http://www.w3.org/2000/svg" width="100" height="100" viewBox="0 0 100 100" fill="none">
  <path d="M50 0C77.7108 0 100 22.2892 100 50C100 77.7108 77.7108 100 50 100C22.2892 100 0 77.7108 0 50C0 22.2892 22.2892 0 50 0ZM26.506 18.6747L81.3253 73.494C86.1446 67.1687 89.1566 59.0361 89.1566 50C89.1566 28.6145 71.6868 10.8434 50 10.8434C41.2651 10.8434 33.1325 13.8554 26.506 18.6747ZM73.494 81.3253L18.6747 26.506C13.8554 33.1325 10.8434 41.2651 10.8434 50C10.8434 71.6868 28.6145 89.1566 50 89.1566C59.0361 89.1566 67.1687 86.1446 73.494 81.3253Z" fill="#EF4444"/>
</svg>