<svg width="31" height="31" viewBox="0 0 31 31" fill="none" xmlns="http://www.w3.org/2000/svg">
<g clip-path="url(#clip0_30_403)">
<path d="M4.07812 4.5C4.07812 3.46289 3.24023 2.625 2.20312 2.625C1.16602 2.625 0.328125 3.46289 0.328125 4.5V24.1875C0.328125 26.7773 2.42578 28.875 5.01562 28.875H28.4531C29.4902 28.875 30.3281 28.0371 30.3281 27C30.3281 25.9629 29.4902 25.125 28.4531 25.125H5.01562C4.5 25.125 4.07812 24.7031 4.07812 24.1875V4.5ZM27.9023 9.57422C28.6348 8.8418 28.6348 7.65234 27.9023 6.91992C27.1699 6.1875 25.9805 6.1875 25.248 6.91992L19.0781 13.0957L15.7148 9.73242C14.9824 9 13.793 9 13.0605 9.73242L6.49805 16.2949C5.76562 17.0273 5.76562 18.2168 6.49805 18.9492C7.23047 19.6816 8.41992 19.6816 9.15234 18.9492L14.3906 13.7168L17.7539 17.0801C18.4863 17.8125 19.6758 17.8125 20.4082 17.0801L27.9082 9.58008L27.9023 9.57422Z" fill="#FACC15"/>
</g>
<defs>
<clipPath id="clip0_30_403">
<path d="M0.328125 0.75H30.3281V30.75H0.328125V0.75Z" fill="white"/>
</clipPath>
</defs>
</svg>
