<svg width="39" height="31" viewBox="0 0 39 31" fill="none" xmlns="http://www.w3.org/2000/svg">
<g clip-path="url(#clip0_30_410)">
<path d="M9.09375 0.75C10.337 0.75 11.5292 1.24386 12.4083 2.12294C13.2874 3.00201 13.7812 4.1943 13.7812 5.4375C13.7812 6.6807 13.2874 7.87299 12.4083 8.75206C11.5292 9.63114 10.337 10.125 9.09375 10.125C7.85055 10.125 6.65826 9.63114 5.77919 8.75206C4.90011 7.87299 4.40625 6.6807 4.40625 5.4375C4.40625 4.1943 4.90011 3.00201 5.77919 2.12294C6.65826 1.24386 7.85055 0.75 9.09375 0.75ZM30.6562 0.75C31.8995 0.75 33.0917 1.24386 33.9708 2.12294C34.8499 3.00201 35.3438 4.1943 35.3438 5.4375C35.3438 6.6807 34.8499 7.87299 33.9708 8.75206C33.0917 9.63114 31.8995 10.125 30.6562 10.125C29.413 10.125 28.2208 9.63114 27.3417 8.75206C26.4626 7.87299 25.9688 6.6807 25.9688 5.4375C25.9688 4.1943 26.4626 3.00201 27.3417 2.12294C28.2208 1.24386 29.413 0.75 30.6562 0.75ZM0.65625 18.252C0.65625 14.8008 3.45703 12 6.9082 12H9.41016C10.3418 12 11.2266 12.2051 12.0234 12.5684C11.9473 12.9902 11.9121 13.4297 11.9121 13.875C11.9121 16.1133 12.8965 18.123 14.4492 19.5C14.4375 19.5 14.4258 19.5 14.4082 19.5H1.9043C1.21875 19.5 0.65625 18.9375 0.65625 18.252ZM24.4043 19.5C24.3926 19.5 24.3809 19.5 24.3633 19.5C25.9219 18.123 26.9004 16.1133 26.9004 13.875C26.9004 13.4297 26.8594 12.9961 26.7891 12.5684C27.5859 12.1992 28.4707 12 29.4023 12H31.9043C35.3555 12 38.1562 14.8008 38.1562 18.252C38.1562 18.9434 37.5938 19.5 36.9082 19.5H24.4043ZM13.7812 13.875C13.7812 12.3832 14.3739 10.9524 15.4288 9.89752C16.4837 8.84263 17.9144 8.25 19.4062 8.25C20.8981 8.25 22.3288 8.84263 23.3837 9.89752C24.4386 10.9524 25.0312 12.3832 25.0312 13.875C25.0312 15.3668 24.4386 16.7976 23.3837 17.8525C22.3288 18.9074 20.8981 19.5 19.4062 19.5C17.9144 19.5 16.4837 18.9074 15.4288 17.8525C14.3739 16.7976 13.7812 15.3668 13.7812 13.875ZM8.15625 29.1855C8.15625 24.873 11.6543 21.375 15.9668 21.375H22.8457C27.1582 21.375 30.6562 24.873 30.6562 29.1855C30.6562 30.0469 29.959 30.75 29.0918 30.75H9.7207C8.85938 30.75 8.15625 30.0527 8.15625 29.1855Z" fill="#FB923C"/>
</g>
<defs>
<clipPath id="clip0_30_410">
<path d="M0.65625 0.75H38.1562V30.75H0.65625V0.75Z" fill="white"/>
</clipPath>
</defs>
</svg>
