<svg width="31" height="31" viewBox="0 0 31 31" fill="none" xmlns="http://www.w3.org/2000/svg">
<g clip-path="url(#clip0_30_389)">
<path d="M15.6563 0.75C15.9258 0.75 16.1953 0.808594 16.4414 0.919922L27.4746 5.60156C28.7637 6.14648 29.7246 7.41797 29.7188 8.95312C29.6895 14.7656 27.2989 25.4004 17.2032 30.2344C16.2246 30.7031 15.0879 30.7031 14.1094 30.2344C4.0137 25.4004 1.62307 14.7656 1.59378 8.95312C1.58792 7.41797 2.54885 6.14648 3.83792 5.60156L14.877 0.919922C15.1172 0.808594 15.3867 0.75 15.6563 0.75ZM15.6563 4.66406V26.8125C23.7422 22.8984 25.916 14.2324 25.9688 9.03516L15.6563 4.66406Z" fill="#22D3EE"/>
</g>
<defs>
<clipPath id="clip0_30_389">
<path d="M0.65625 0.75H30.6562V30.75H0.65625V0.75Z" fill="white"/>
</clipPath>
</defs>
</svg>
