<svg width="38" height="31" viewBox="0 0 38 31" fill="none" xmlns="http://www.w3.org/2000/svg">
<g clip-path="url(#clip0_30_375)">
<path d="M0 8.25C0 6.18164 1.68164 4.5 3.75 4.5H15H17.8125H18.75H33.75C35.8184 4.5 37.5 6.18164 37.5 8.25V23.25C37.5 25.3184 35.8184 27 33.75 27H18.75H17.8125H15H3.75C1.68164 27 0 25.3184 0 23.25V8.25ZM18.75 8.25V23.25H33.75V8.25H18.75ZM10.4473 11.0566C10.2598 10.6348 9.83789 10.3594 9.375 10.3594C8.91211 10.3594 8.49023 10.6348 8.30273 11.0566L4.55273 19.4941C4.28906 20.0859 4.55859 20.7773 5.15039 21.041C5.74219 21.3047 6.43359 21.0352 6.69727 20.4434L7.21875 19.2656H11.5312L12.0527 20.4434C12.3164 21.0352 13.0078 21.2988 13.5996 21.041C14.1914 20.7832 14.4551 20.0859 14.1973 19.4941L10.4473 11.0566ZM9.375 14.4141L10.4883 16.9219H8.26172L9.375 14.4141ZM26.25 10.3594C26.8945 10.3594 27.4219 10.8867 27.4219 11.5312V11.7656H30H30.9375C31.582 11.7656 32.1094 12.293 32.1094 12.9375C32.1094 13.582 31.582 14.1094 30.9375 14.1094H30.8203L30.7266 14.373C30.2051 15.8027 29.4141 17.1035 28.4062 18.2051C28.459 18.2402 28.5117 18.2695 28.5645 18.2988L29.6719 18.9609C30.2285 19.2949 30.4043 20.0156 30.0762 20.5664C29.748 21.1172 29.0215 21.2988 28.4707 20.9707L27.3633 20.3086C27.0996 20.1504 26.8477 19.9863 26.5957 19.8105C25.9746 20.25 25.3125 20.6309 24.6035 20.9473L24.3926 21.041C23.8008 21.3047 23.1094 21.0352 22.8457 20.4434C22.582 19.8516 22.8516 19.1602 23.4434 18.8965L23.6543 18.8027C24.0293 18.6328 24.3926 18.4453 24.7383 18.2285L24.0234 17.5137C23.5664 17.0566 23.5664 16.3125 24.0234 15.8555C24.4805 15.3984 25.2246 15.3984 25.6816 15.8555L26.5371 16.7109L26.5664 16.7402C27.293 15.9727 27.8848 15.082 28.3125 14.1035H26.25H22.0312C21.3867 14.1035 20.8594 13.5762 20.8594 12.9316C20.8594 12.2871 21.3867 11.7598 22.0312 11.7598H25.0781V11.5254C25.0781 10.8809 25.6055 10.3535 26.25 10.3535V10.3594Z" fill="#C084FC"/>
</g>
<defs>
<clipPath id="clip0_30_375">
<path d="M0 0.75H37.5V30.75H0V0.75Z" fill="white"/>
</clipPath>
</defs>
</svg>
