<svg width="27" height="31" viewBox="0 0 27 31" fill="none" xmlns="http://www.w3.org/2000/svg">
<g clip-path="url(#clip0_30_396)">
<path d="M8.4375 9.1875V12H17.8125V9.1875C17.8125 6.59766 15.7148 4.5 13.125 4.5C10.5352 4.5 8.4375 6.59766 8.4375 9.1875ZM4.6875 12V9.1875C4.6875 4.5293 8.4668 0.75 13.125 0.75C17.7832 0.75 21.5625 4.5293 21.5625 9.1875V12H22.5C24.5684 12 26.25 13.6816 26.25 15.75V27C26.25 29.0684 24.5684 30.75 22.5 30.75H3.75C1.68164 30.75 0 29.0684 0 27V15.75C0 13.6816 1.68164 12 3.75 12H4.6875Z" fill="#4ADE80"/>
</g>
<defs>
<clipPath id="clip0_30_396">
<path d="M0 0.75H26.25V30.75H0V0.75Z" fill="white"/>
</clipPath>
</defs>
</svg>
