<?xml version="1.0" encoding="UTF-8"?>
<svg version="1.1" xmlns="http://www.w3.org/2000/svg" width="282" height="258">
<path d="M0 0 C0.98226562 0.59039063 1.96453125 1.18078125 2.9765625 1.7890625 C8.83236199 5.39149105 8.83236199 5.39149105 11 7 C11 7.66 11 8.32 11 9 C12.65 9.66 14.3 10.32 16 11 C15.82421875 12.87109375 15.82421875 12.87109375 15 15 C12.76953125 16.09765625 12.76953125 16.09765625 9.8125 17.0625 C3.50983919 19.45992361 -1.09579459 22.86806698 -6.19018555 27.16625977 C-13.99253897 33.70165151 -21.19068134 33.79818867 -31 33 C-37.23845831 31.53949137 -41.6994877 26.79861755 -46.42944336 22.72314453 C-57.85955666 13.02278958 -70.27137171 11.07681064 -84.77734375 11.80029297 C-93.37858043 12.57311938 -100.34553339 15.67642671 -107 21 C-107.66 21 -108.32 21 -109 21 C-109 21.66 -109 22.32 -109 23 C-114.47619048 28 -114.47619048 28 -117 28 C-117 28.66 -117 29.32 -117 30 C-118.609375 31.65625 -118.609375 31.65625 -120.75 33.5 C-121.79414063 34.41265625 -121.79414063 34.41265625 -122.859375 35.34375 C-124.84460792 36.87976963 -126.71872045 37.9723966 -129 39 C-129 39.66 -129 40.32 -129 41 C-129.66 41 -130.32 41 -131 41 C-131 41.66 -131 42.32 -131 43 C-131.66 43 -132.32 43 -133 43 C-133 43.66 -133 44.32 -133 45 C-133.66 45 -134.32 45 -135 45 C-135 45.66 -135 46.32 -135 47 C-136.29233607 48.37310707 -137.62437146 49.71034824 -139 51 C-137.42306589 54.89702108 -134.88838498 57.2489773 -131.875 60.125 C-130.21276567 61.71189226 -128.57775654 63.32909178 -127 65 C-127 65.66 -127 66.32 -127 67 C-125.68 67 -124.36 67 -123 67 C-123 66.34 -123 65.68 -123 65 C-122.34 65 -121.68 65 -121 65 C-121 64.34 -121 63.68 -121 63 C-120.34 63 -119.68 63 -119 63 C-119 62.34 -119 61.68 -119 61 C-117.49609375 59.51953125 -117.49609375 59.51953125 -115.4375 57.8125 C-112.65156482 55.44837895 -109.99199422 53.05005091 -107.4375 50.4375 C-104.15223425 47.10702417 -100.80394982 43.74004829 -97 41 C-96.34 41 -95.68 41 -95 41 C-95 40.34 -95 39.68 -95 39 C-87.39149341 34.46415954 -79.96771908 33.10418181 -71.1875 34.6875 C-66.10169738 36.78165402 -61.15447784 39.3440595 -57 43 C-57 43.66 -57 44.32 -57 45 C-56.34 45.226875 -55.68 45.45375 -55 45.6875 C-52.42069721 46.81594497 -50.34011383 48.02901632 -48 49.5625 C-45.01156177 51.4868731 -42.60536879 52.66199668 -39 53 C-39 53.66 -39 54.32 -39 55 C-35.20848417 55.08829061 -31.41723835 55.14081946 -27.625 55.1875 C-26.56410156 55.21263672 -25.50320312 55.23777344 -24.41015625 55.26367188 C-10.61935355 55.3905811 0.29918755 50.75276441 11.125 42.375 C18.23900859 36.90758419 23.91752023 34.24312669 33 35 C35.5 36 35.5 36 37 37 C37 37.66 37 38.32 37 39 C37.66 39 38.32 39 39 39 C39 39.66 39 40.32 39 41 C39.66 41 40.32 41 41 41 C52.71070258 60.28996441 59.75999965 79.73503318 59.52148438 102.45361328 C59.50006886 104.86723931 59.52140233 107.2778703 59.546875 109.69140625 C59.57290153 123.64109692 57.69869148 137.90346062 51.625 150.625 C51.32609863 151.2754126 51.02719727 151.9258252 50.71923828 152.59594727 C45.89437188 162.78078305 45.89437188 162.78078305 42 166 C38.97662936 167.06765894 37.52533304 167.19453739 34.5 166.07421875 C33.675 165.61660156 32.85 165.15898437 32 164.6875 C19.32369725 157.77495365 4.76429788 156.99932087 -9.140625 160.9453125 C-14.89167086 163.06659991 -20.32928055 165.93973071 -25.1875 169.6875 C-27 171 -27 171 -29 171 C-29 171.66 -29 172.32 -29 173 C-35.90425363 176.9054364 -42.11053005 178.1492535 -50 177 C-57.57532085 174.73650323 -62.64814415 169.73934656 -68.30078125 164.43359375 C-78.37756751 155.34844493 -91.51348666 151.37524712 -105 152 C-112.46129312 153.24512098 -119.21144549 155.74426467 -126 159 C-127.66194738 159.67834587 -129.32598903 160.35199575 -131 161 C-131 161.66 -131 162.32 -131 163 C-132.86328125 164.62109375 -132.86328125 164.62109375 -135.3125 166.4375 C-138.63908504 168.90976977 -138.63908504 168.90976977 -141.66796875 171.72265625 C-143 173 -143 173 -145 173 C-145 173.66 -145 174.32 -145 175 C-146.66581936 176.58996769 -148.40941388 178.09916096 -150.1875 179.5625 C-151.63189453 180.77099609 -151.63189453 180.77099609 -153.10546875 182.00390625 C-155.91213636 183.93940847 -157.65432676 184.65136495 -161 185 C-175.28289248 165.60571707 -188.73993637 143.99861667 -189 119 C-188.03125 116.58984375 -188.03125 116.58984375 -187 115 C-186.34 115 -185.68 115 -185 115 C-185 114.34 -185 113.68 -185 113 C-183.41925436 112.18247697 -181.83528777 111.37118003 -180.25 110.5625 C-179.36828125 110.11003906 -178.4865625 109.65757812 -177.578125 109.19140625 C-171.39581401 106.3344292 -164.65258543 105.86352981 -158.125 107.89453125 C-155.71254043 108.86431258 -153.34682691 109.88151228 -151 111 C-151 111.66 -151 112.32 -151 113 C-150.195625 113.37125 -150.195625 113.37125 -149.375 113.75 C-146.4176018 115.30652537 -143.70275949 117.03435673 -141 119 C-141 119.66 -141 120.32 -141 121 C-140.0409375 121.3403125 -140.0409375 121.3403125 -139.0625 121.6875 C-136.43677997 122.81280858 -134.14334943 124.05963156 -131.6875 125.5 C-121.31554234 131.24525106 -108.56346585 131.6761842 -97.125 128.8125 C-88.62976825 126.07825625 -81.64326575 122.07623506 -74.8125 116.35546875 C-73 115 -73 115 -71 115 C-71 114.34 -71 113.68 -71 113 C-62.47845918 106.31059045 -53.13675105 100.71259997 -42 101 C-35.10441269 102.10329397 -28.3502674 104.35492544 -23 109 C-23 109.66 -23 110.32 -23 111 C-22.42765625 111.268125 -21.8553125 111.53625 -21.265625 111.8125 C-18.92115366 113.04132636 -16.87595062 114.42522176 -14.75 116 C-14.04359375 116.515625 -13.3371875 117.03125 -12.609375 117.5625 C-12.07828125 118.036875 -11.5471875 118.51125 -11 119 C-11 119.66 -11 120.32 -11 121 C-10.44570312 121.23589844 -9.89140625 121.47179687 -9.3203125 121.71484375 C-6.43552758 123.3126455 -4.28827968 125.31851009 -1.875 127.5625 C1.31507509 130.63719186 1.31507509 130.63719186 5 133 C5 133.66 5 134.32 5 135 C6.32 135 7.64 135 9 135 C9 134.34 9 133.68 9 133 C9.66 133 10.32 133 11 133 C11.268125 132.42765625 11.53625 131.8553125 11.8125 131.265625 C13.04132636 128.92115366 14.42522176 126.87595062 16 124.75 C16.515625 124.04359375 17.03125 123.3371875 17.5625 122.609375 C18.036875 122.07828125 18.51125 121.5471875 19 121 C19.66 121 20.32 121 21 121 C21 119.68 21 118.36 21 117 C20.34 117 19.68 117 19 117 C19 116.34 19 115.68 19 115 C18.34 115 17.68 115 17 115 C17 114.34 17 113.68 17 113 C16.44828125 112.7525 15.8965625 112.505 15.328125 112.25 C12.54863293 110.75765526 10.2185293 108.96327477 7.75 107 C6.85796875 106.29875 5.9659375 105.5975 5.046875 104.875 C4.37140625 104.25625 3.6959375 103.6375 3 103 C3 102.34 3 101.68 3 101 C2.42507812 100.74347656 1.85015625 100.48695312 1.2578125 100.22265625 C-1.21495283 98.88359821 -3.04846254 97.32849133 -5.125 95.4375 C-7.86038045 92.92320784 -7.86038045 92.92320784 -11 91 C-11 90.34 -11 89.68 -11 89 C-11.639375 88.773125 -12.27875 88.54625 -12.9375 88.3125 C-15.57175001 87.18353571 -17.90239228 85.93284447 -20.375 84.5 C-31.78622105 78.15005703 -45.49797893 77.6607505 -58 81 C-61.44340735 82.19653596 -64.8183616 83.48748512 -68.1875 84.87890625 C-70.46987342 85.78868566 -72.60491921 86.48759089 -75 87 C-75 87.66 -75 88.32 -75 89 C-78.19026533 91.32019297 -81.41726669 93.34643078 -85 95 C-85 95.66 -85 96.32 -85 97 C-87.23046875 98.62109375 -87.23046875 98.62109375 -90.1875 100.4375 C-91.15042969 101.03433594 -92.11335938 101.63117188 -93.10546875 102.24609375 C-94.06066406 102.82488281 -95.01585938 103.40367188 -96 104 C-97.29357422 104.82177734 -97.29357422 104.82177734 -98.61328125 105.66015625 C-104.22427047 108.81002417 -110.88719317 108.82864315 -117.11328125 107.57421875 C-123.94397965 105.34294853 -129.11354048 100.45349059 -134.5 95.875 C-144.34147871 88.49389097 -154.55664837 85.76870027 -166.75 85.6875 C-167.79510742 85.67916138 -167.79510742 85.67916138 -168.86132812 85.6706543 C-172.515309 85.72130782 -175.78864105 86.11203598 -179.328125 87.04296875 C-182.84971636 87.96083033 -184.58953796 88.06576939 -188 87 C-187.26701152 64.27735727 -174.26402362 43.5920254 -161 26 C-160.26265625 25.01386719 -159.5253125 24.02773438 -158.765625 23.01171875 C-158.18296875 22.34785156 -157.6003125 21.68398438 -157 21 C-156.34 21 -155.68 21 -155 21 C-155 20.34 -155 19.68 -155 19 C-154.34 19 -153.68 19 -153 19 C-153 18.34 -153 17.68 -153 17 C-152.34 17 -151.68 17 -151 17 C-151 16.34 -151 15.68 -151 15 C-150.34 15 -149.68 15 -149 15 C-149 14.34 -149 13.68 -149 13 C-108.3038797 -24.38866176 -46.36317449 -28.43837841 0 0 Z " fill="#9E1F1B" transform="translate(208,19)"/>
<path d="M0 0 C0 0.66 0 1.32 0 2 C0.86238281 2.38478516 0.86238281 2.38478516 1.7421875 2.77734375 C4.21495283 4.11640179 6.04846254 5.67150867 8.125 7.5625 C10.86038045 10.07679216 10.86038045 10.07679216 14 12 C14 12.66 14 13.32 14 14 C15.2375 14.4021875 15.2375 14.4021875 16.5 14.8125 C20 16 20 16 23.3125 17.5625 C35.15417115 22.0659927 50.3785381 20.91310408 61.73828125 15.9375 C63.81904575 15.07500694 65.80417273 14.48237853 68 14 C68 13.34 68 12.68 68 12 C73.41176471 8 73.41176471 8 76 8 C76 7.34 76 6.68 76 6 C84.63582779 1.54279856 93.65593609 0.15561049 103.1171875 2.90625 C105.47705 3.84217281 107.74506416 4.83616215 110 6 C110 7.98 110 9.96 110 12 C108.68 12.66 107.36 13.32 106 14 C106 14.66 106 15.32 106 16 C105.34 16 104.68 16 104 16 C104 16.66 104 17.32 104 18 C103.34 18 102.68 18 102 18 C102 18.66 102 19.32 102 20 C93.68546609 27.44843663 83.83817777 32.85695688 74 38 C73.05382812 38.495 72.10765625 38.99 71.1328125 39.5 C46.89397807 51.28788301 14.86340725 54.66096186 -11 47 C-12.23234375 46.63648438 -13.4646875 46.27296875 -14.734375 45.8984375 C-27.77258994 41.86173031 -39.67466253 36.60547053 -51 29 C-51.92683594 28.53980469 -52.85367188 28.07960937 -53.80859375 27.60546875 C-56 26 -56 26 -56.5546875 23.55078125 C-55.84454962 20.28514718 -54.69129923 19.28346325 -52.125 17.1875 C-51.40570313 16.58292969 -50.68640625 15.97835937 -49.9453125 15.35546875 C-48 14 -48 14 -46 14 C-46 13.34 -46 12.68 -46 12 C-45.34 12 -44.68 12 -44 12 C-44 11.34 -44 10.68 -44 10 C-42.3203125 8.4921875 -42.3203125 8.4921875 -40.125 6.875 C-39.40570313 6.33617187 -38.68640625 5.79734375 -37.9453125 5.2421875 C-36 4 -36 4 -34 4 C-34 3.34 -34 2.68 -34 2 C-23.30714662 -6.14693591 -11.72995743 -5.81307625 0 0 Z " fill="#9D211C" transform="translate(123,198)"/>
<path d="M0 0 C0.33 0 0.66 0 1 0 C1 2.97 1 5.94 1 9 C0.01 9.33 -0.98 9.66 -2 10 C-3.46293963 12.31869204 -3.46293963 12.31869204 -4.6875 15.0625 C-5.12449219 15.98160156 -5.56148437 16.90070313 -6.01171875 17.84765625 C-6.33785156 18.55792969 -6.66398437 19.26820312 -7 20 C-7.66 20 -8.32 20 -9 20 C-9 22.64 -9 25.28 -9 28 C-9.99 28 -10.98 28 -12 28 C-12 29.65 -12 31.3 -12 33 C-13.485 33.495 -13.485 33.495 -15 34 C-14.90460937 34.83144531 -14.80921875 35.66289063 -14.7109375 36.51953125 C-14.60007812 37.60621094 -14.48921875 38.69289062 -14.375 39.8125 C-14.25898438 40.89144531 -14.14296875 41.97039062 -14.0234375 43.08203125 C-14 46 -14 46 -16 49 C-7.75 49.33 0.5 49.66 9 50 C9 50.66 9 51.32 9 52 C12.3 52 15.6 52 19 52 C19 52.66 19 53.32 19 54 C20.32 54 21.64 54 23 54 C23 54.66 23 55.32 23 56 C13 54 13 54 10.6875 53.4453125 C7.02157524 52.83787729 3.39226149 52.81575837 -0.3125 52.8125 C-1.3943457 52.79413086 -1.3943457 52.79413086 -2.49804688 52.77539062 C-7.65981914 52.76150245 -12.01709665 53.68083909 -17 55 C-20 54.625 -20 54.625 -22 54 C-21.39752017 35.32312526 -11.85736021 14.29757057 0 0 Z " fill="#943531" transform="translate(42,52)"/>
<path d="M0 0 C2.5390148 2.5390148 3.56167027 5.35177822 4.875 8.625 C5.36742187 9.81351563 5.85984375 11.00203125 6.3671875 12.2265625 C10.83889178 24.65767484 12.65980952 36.27814295 12.52148438 49.45361328 C12.50006886 51.86723931 12.52140233 54.2778703 12.546875 56.69140625 C12.57352045 70.82811933 10.603581 85.06493988 4.4375 97.9375 C4.14681641 98.59427734 3.85613281 99.25105469 3.55664062 99.92773438 C2.10165856 103.11437295 0.72909534 105.75202177 -2 108 C-2 106.68 -2 105.36 -2 104 C-1.34 104 -0.68 104 0 104 C0 102.68 0 101.36 0 100 C0.66 100 1.32 100 2 100 C2 98.02 2 96.04 2 94 C2.66 94 3.32 94 4 94 C4 92.68 4 91.36 4 90 C4.66 90 5.32 90 6 90 C5.98839844 89.17757812 5.97679687 88.35515625 5.96484375 87.5078125 C5.90898042 80.59672029 6.13305966 73.85811735 7 67 C7.33 67 7.66 67 8 67 C8 52.15 8 37.3 8 22 C7.34 22 6.68 22 6 22 C6 20.68 6 19.36 6 18 C5.34 18 4.68 18 4 18 C4 16.02 4 14.04 4 12 C3.34 12 2.68 12 2 12 C2 10.68 2 9.36 2 8 C1.34 8 0.68 8 0 8 C0 5.36 0 2.72 0 0 Z " fill="#D49794" transform="translate(255,72)"/>
<path d="M0 0 C-0.32945919 2.9651327 -0.84903155 4.78260543 -2.5625 7.25 C-6.0223361 9.73398489 -8.77692253 9.7184615 -13 10 C-13 10.99 -13 11.98 -13 13 C-15.475 12.505 -15.475 12.505 -18 12 C-18 12.66 -18 13.32 -18 14 C-28.56 14 -39.12 14 -50 14 C-50 13.34 -50 12.68 -50 12 C-51.2375 12.04125 -52.475 12.0825 -53.75 12.125 C-57.01637962 12.13658291 -59.2146947 11.8568702 -62 10 C-62 8.68 -62 7.36 -62 6 C-58.7861475 7.04450206 -55.74908204 8.11835753 -52.6875 9.5625 C-40.84582885 14.0659927 -25.6214619 12.91310408 -14.26171875 7.9375 C-12.18095425 7.07500694 -10.19582727 6.48237853 -8 6 C-8 5.34 -8 4.68 -8 4 C-2.58823529 0 -2.58823529 0 0 0 Z " fill="#B56F70" transform="translate(199,206)"/>
<path d="M0 0 C0.66 0 1.32 0 2 0 C1.67 1.65 1.34 3.3 1 5 C-0.65 5.33 -2.3 5.66 -4 6 C-4 6.66 -4 7.32 -4 8 C-6.64 8 -9.28 8 -12 8 C-12 8.66 -12 9.32 -12 10 C-13.98 10 -15.96 10 -18 10 C-18 10.66 -18 11.32 -18 12 C-25.92 12 -33.84 12 -42 12 C-42 11.34 -42 10.68 -42 10 C-44.97851562 10.04882812 -44.97851562 10.04882812 -47.95703125 10.09765625 C-50 10 -50 10 -53 9 C-53.33 7.35 -53.66 5.7 -54 4 C-53.21625 4.268125 -52.4325 4.53625 -51.625 4.8125 C-50.42875 5.204375 -49.2325 5.59625 -48 6 C-47.319375 6.26425781 -46.63875 6.52851563 -45.9375 6.80078125 C-33.62159951 11.19040119 -19.96306623 10.0039927 -8.140625 4.72265625 C-3.78717095 2.78854958 -3.78717095 2.78854958 0 0 Z " fill="#B46B69" transform="translate(127,140)"/>
<path d="M0 0 C2.66666667 1.33333333 5.33333333 2.66666667 8 4 C8 4.66 8 5.32 8 6 C9.65 6.66 11.3 7.32 13 8 C12.84375 9.85546875 12.84375 9.85546875 12 12 C9.59375 13.23828125 9.59375 13.23828125 6.5 14.3125 C0.42321984 16.63854025 -4.12975069 19.73238255 -9 24 C-9.33 22.68 -9.66 21.36 -10 20 C-8.68 20 -7.36 20 -6 20 C-5.5359375 18.5459375 -5.5359375 18.5459375 -5.0625 17.0625 C-4 14 -4 14 -3 13 C-3.66 12.67 -4.32 12.34 -5 12 C-5 11.34 -5 10.68 -5 10 C-3.68 10 -2.36 10 -1 10 C-1 9.34 -1 8.68 -1 8 C0.32 8.33 1.64 8.66 3 9 C3 9.99 3 10.98 3 12 C3.99 12 4.98 12 6 12 C6 11.34 6 10.68 6 10 C5.34 9.34 4.68 8.68 4 8 C4 6.68 4 5.36 4 4 C3.34 4 2.68 4 2 4 C2 3.34 2 2.68 2 2 C1.34 2 0.68 2 0 2 C0 1.34 0 0.68 0 0 Z " fill="#972C24" transform="translate(211,22)"/>
<path d="M0 0 C0.66 0 1.32 0 2 0 C2.1502991 6.23972476 2.25812111 12.47835601 2.32958984 18.71948242 C2.35943643 20.83457838 2.40012948 22.94955423 2.45263672 25.06420898 C2.87725244 42.62748094 0.68670417 56.95560547 -9 72 C-9.33 70.68 -9.66 69.36 -10 68 C-9.34 68 -8.68 68 -8 68 C-8 66.68 -8 65.36 -8 64 C-7.34 64 -6.68 64 -6 64 C-6 62.02 -6 60.04 -6 58 C-5.34 58 -4.68 58 -4 58 C-4 56.68 -4 55.36 -4 54 C-3.34 54 -2.68 54 -2 54 C-2.01160156 53.17757812 -2.02320313 52.35515625 -2.03515625 51.5078125 C-2.09101958 44.59672029 -1.86694034 37.85811735 -1 31 C-0.67 31 -0.34 31 0 31 C0 20.77 0 10.54 0 0 Z " fill="#8C3734" transform="translate(263,108)"/>
<path d="M0 0 C0.66 0 1.32 0 2 0 C2 0.66 2 1.32 2 2 C2.57234375 2.268125 3.1446875 2.53625 3.734375 2.8125 C6.07884634 4.04132636 8.12404938 5.42522176 10.25 7 C10.95640625 7.515625 11.6628125 8.03125 12.390625 8.5625 C13.18726563 9.2740625 13.18726563 9.2740625 14 10 C14 10.66 14 11.32 14 12 C14.55171875 12.23460937 15.1034375 12.46921875 15.671875 12.7109375 C18.59325764 14.32848158 20.79574497 16.36450195 23.25 18.625 C24.14203125 19.44226563 25.0340625 20.25953125 25.953125 21.1015625 C26.96632812 22.04128906 26.96632812 22.04128906 28 23 C26.68 23.33 25.36 23.66 24 24 C24 23.34 24 22.68 24 22 C23.34 22 22.68 22 22 22 C22 21.34 22 20.68 22 20 C21.34 20 20.68 20 20 20 C20 19.34 20 18.68 20 18 C19.34 18 18.68 18 18 18 C18 17.34 18 16.68 18 16 C17.34 16 16.68 16 16 16 C16 15.34 16 14.68 16 14 C15.443125 14.33 14.88625 14.66 14.3125 15 C11.64736676 16.15249005 9.87606851 16.30274405 7 16 C6.34 15.34 5.68 14.68 5 14 C4.67 14 4.34 14 4 14 C3.34 10.7 2.68 7.4 2 4 C1.34 4 0.68 4 0 4 C0 2.68 0 1.36 0 0 Z " fill="#932822" transform="translate(183,128)"/>
<path d="M0 0 C0 0.66 0 1.32 0 2 C0.53625 2.2475 1.0725 2.495 1.625 2.75 C4.5823982 4.30652537 7.29724051 6.03435673 10 8 C10 8.66 10 9.32 10 10 C11.2065625 10.433125 11.2065625 10.433125 12.4375 10.875 C15 12 15 12 16 14 C14.68 14 13.36 14 12 14 C12 13.34 12 12.68 12 12 C8.7 12 5.4 12 2 12 C1.67 11.01 1.34 10.02 1 9 C1.99 9 2.98 9 4 9 C4 8.01 4 7.02 4 6 C3.34 6 2.68 6 2 6 C2 5.34 2 4.68 2 4 C-0.64 3.67 -3.28 3.34 -6 3 C-6 2.01 -6 1.02 -6 0 C-7.65 0 -9.3 0 -11 0 C-11 -0.66 -11 -1.32 -11 -2 C-13.97 -2 -16.94 -2 -20 -2 C-20 -1.34 -20 -0.68 -20 0 C-22.64 0 -25.28 0 -28 0 C-19.48368113 -6.99554764 -9.19145437 -4.38060804 0 0 Z " fill="#982C2A" transform="translate(57,130)"/>
<path d="M0 0 C-16.5 0 -33 0 -50 0 C-46.3984478 -2.4010348 -43.25354348 -2.68095223 -39.0625 -3.125 C-38.29760254 -3.2084668 -37.53270508 -3.29193359 -36.74462891 -3.37792969 C-9.30019176 -6.20012784 -9.30019176 -6.20012784 0 0 Z " fill="#B87978" transform="translate(167,4)"/>
<path d="M0 0 C0 1.98 0 3.96 0 6 C-1.98 6.99 -1.98 6.99 -4 8 C-4 7.34 -4 6.68 -4 6 C-3.34 6 -2.68 6 -2 6 C-2 4.68 -2 3.36 -2 2 C-4.97 1.67 -7.94 1.34 -11 1 C-11 0.67 -11 0.34 -11 0 C-16.61 0 -22.22 0 -28 0 C-28 0.66 -28 1.32 -28 2 C-29.98 2 -31.96 2 -34 2 C-34 1.34 -34 0.68 -34 0 C-22.71458166 -5.82473205 -11.28541834 -5.82473205 0 0 Z " fill="#A86263" transform="translate(233,204)"/>
<path d="M0 0 C1.32 0.33 2.64 0.66 4 1 C3.52596629 5.50332029 2.10015873 7.39091822 -1.25 10.375 C-2.01828125 11.08398438 -2.7865625 11.79296875 -3.578125 12.5234375 C-6 14 -6 14 -8.62109375 13.94140625 C-11.3396129 12.86560475 -12.22733219 11.98302609 -13.8125 9.5625 C-14.23144531 8.94503906 -14.65039062 8.32757813 -15.08203125 7.69140625 C-16 6 -16 6 -16 4 C-15.34 4 -14.68 4 -14 4 C-14 4.66 -14 5.32 -14 6 C-13.030625 6.12375 -12.06125 6.2475 -11.0625 6.375 C-9.5465625 6.684375 -9.5465625 6.684375 -8 7 C-7.67 7.66 -7.34 8.32 -7 9 C-6.87625 8.360625 -6.7525 7.72125 -6.625 7.0625 C-6.41875 6.381875 -6.2125 5.70125 -6 5 C-5.34 4.67 -4.68 4.34 -4 4 C-4 3.34 -4 2.68 -4 2 C-2.68 2 -1.36 2 0 2 C0 1.34 0 0.68 0 0 Z " fill="#952321" transform="translate(57,190)"/>
<path d="M0 0 C0 0.33 0 0.66 0 1 C-1.6396875 1.2165625 -1.6396875 1.2165625 -3.3125 1.4375 C-6.93122987 1.88288104 -6.93122987 1.88288104 -10 3 C-12.35680213 3.08397157 -14.71594081 3.10728187 -17.07421875 3.09765625 C-18.09996758 3.09553383 -18.09996758 3.09553383 -19.1464386 3.09336853 C-21.32683722 3.08777876 -23.50713251 3.07522822 -25.6875 3.0625 C-27.16731622 3.05748367 -28.64713406 3.052921 -30.12695312 3.04882812 C-33.75133557 3.03781271 -37.3756577 3.02055512 -41 3 C-41 3.66 -41 4.32 -41 5 C-43.97 5 -46.94 5 -50 5 C-43.38479908 0.58986605 -36.8415229 0.59583451 -29.125 0.375 C-27.46609741 0.31807983 -27.46609741 0.31807983 -25.77368164 0.26000977 C-17.18031256 -0.01570328 -8.59701268 -0.11531016 0 0 Z " fill="#9A302F" transform="translate(152,3)"/>
<path d="M0 0 C0.375 2.25 0.375 2.25 0 5 C-3.1319376 7.57514869 -4.89410579 9 -9 9 C-9 9.99 -9 10.98 -9 12 C-12.4352048 14.29013653 -13.985331 14.17842973 -18 14 C-18 14.66 -18 15.32 -18 16 C-19.32 15.67 -20.64 15.34 -22 15 C-16.25 10 -16.25 10 -14 10 C-14 9.34 -14 8.68 -14 8 C-12.09625645 6.55036041 -10.12532841 5.18815677 -8.125 3.875 C-7.03445312 3.15054688 -5.94390625 2.42609375 -4.8203125 1.6796875 C-2 0 -2 0 0 0 Z " fill="#95292B" transform="translate(151,124)"/>
<path d="M0 0 C0 0.66 0 1.32 0 2 C0.66 2 1.32 2 2 2 C2 2.66 2 3.32 2 4 C2.66 4 3.32 4 4 4 C4.66 5.98 5.32 7.96 6 10 C5.34 10 4.68 10 4 10 C4 9.34 4 8.68 4 8 C2.68 7.67 1.36 7.34 0 7 C0 6.01 0 5.02 0 4 C-6.6 3.34 -13.2 2.68 -20 2 C-14.28311883 -2.28766087 -6.46209775 -4.30806517 0 0 Z " fill="#9D5B5B" transform="translate(245,56)"/>
<path d="M0 0 C0 1.32 0 2.64 0 4 C-1.32 4 -2.64 4 -4 4 C-4 4.66 -4 5.32 -4 6 C-4.66 6 -5.32 6 -6 6 C-6 11.94 -6 17.88 -6 24 C-5.34 24 -4.68 24 -4 24 C-4 26.97 -4 29.94 -4 33 C-8.46767231 26.29849153 -9.55430426 16.0225234 -10 8 C-9.0625 5.5 -9.0625 5.5 -8 4 C-7.34 4 -6.68 4 -6 4 C-6 3.34 -6 2.68 -6 2 C-2.25 0 -2.25 0 0 0 Z " fill="#A85B55" transform="translate(29,130)"/>
<path d="M0 0 C0.66 0.99 1.32 1.98 2 3 C0.68 3 -0.64 3 -2 3 C-2 3.66 -2 4.32 -2 5 C-0.68 5 0.64 5 2 5 C2 5.66 2 6.32 2 7 C0.865625 6.83757813 -0.26875 6.67515625 -1.4375 6.5078125 C-5.97202364 5.94299287 -10.435201 5.85163072 -15 5.875 C-16.13308594 5.86919922 -16.13308594 5.86919922 -17.2890625 5.86328125 C-22.27571793 5.87184939 -27.0634292 6.29317282 -32 7 C-31.67 6.01 -31.34 5.02 -31 4 C-28.15464275 2.57732138 -25.63781448 2.78028131 -22.4609375 2.68359375 C-21.15898438 2.64169922 -19.85703125 2.59980469 -18.515625 2.55664062 C-17.13541955 2.51682701 -15.75521117 2.47711478 -14.375 2.4375 C-12.98696585 2.39430593 -11.59894472 2.35069135 -10.2109375 2.30664062 C-6.80739744 2.20028 -3.40378222 2.09825286 0 2 C0 1.34 0 0.68 0 0 Z " fill="#AA5255" transform="translate(145,25)"/>
<path d="M0 0 C5.05255964 0.63156995 9.29593201 2.13459373 14 4 C14 4.66 14 5.32 14 6 C14.61488281 6.06058594 15.22976562 6.12117187 15.86328125 6.18359375 C17.07564453 6.30927734 17.07564453 6.30927734 18.3125 6.4375 C19.11300781 6.51871094 19.91351563 6.59992188 20.73828125 6.68359375 C23 7 23 7 26 8 C26 9.32 26 10.64 26 12 C27.32 12 28.64 12 30 12 C30 12.66 30 13.32 30 14 C19.18507537 12.1278031 9.05732898 7.07085835 0 1 C0 0.67 0 0.34 0 0 Z " fill="#9E4240" transform="translate(75,228)"/>
<path d="M0 0 C0 0.33 0 0.66 0 1 C-8.25 1 -16.5 1 -25 1 C-25 1.66 -25 2.32 -25 3 C-25.66 3 -26.32 3 -27 3 C-27 3.66 -27 4.32 -27 5 C-28.32 5 -29.64 5 -31 5 C-31 4.34 -31 3.68 -31 3 C-21.77690262 -4.02712181 -10.34269987 -5.64147266 0 0 Z " fill="#A25652" transform="translate(120,197)"/>
<path d="M0 0 C0 0.66 0 1.32 0 2 C-0.66 2 -1.32 2 -2 2 C-2 2.66 -2 3.32 -2 4 C-3.98 4 -5.96 4 -8 4 C-8 4.66 -8 5.32 -8 6 C-24.8929385 6.3690205 -24.8929385 6.3690205 -32 4 C-32 3.34 -32 2.68 -32 2 C-31.3702124 2.01047363 -30.7404248 2.02094727 -30.09155273 2.03173828 C-27.20690994 2.0736023 -24.32233134 2.09942201 -21.4375 2.125 C-20.44685547 2.14175781 -19.45621094 2.15851563 -18.43554688 2.17578125 C-12.02422951 2.21838137 -6.15676647 0 0 0 Z " fill="#B67270" transform="translate(203,72)"/>
<path d="M0 0 C0.65742188 0.55494141 0.65742188 0.55494141 1.328125 1.12109375 C1.328125 1.45109375 1.328125 1.78109375 1.328125 2.12109375 C-1.641875 2.12109375 -4.611875 2.12109375 -7.671875 2.12109375 C-8.001875 0.80109375 -8.331875 -0.51890625 -8.671875 -1.87890625 C-15.601875 -1.87890625 -22.531875 -1.87890625 -29.671875 -1.87890625 C-28.671875 -3.87890625 -28.671875 -3.87890625 -26.80859375 -4.58203125 C-17.08013852 -6.75425411 -8.30352243 -5.68757532 0 0 Z " fill="#A96361" transform="translate(181.671875,125.87890625)"/>
<path d="M0 0 C1.32 0.33 2.64 0.66 4 1 C0.25 4 0.25 4 -2 4 C-2 4.66 -2 5.32 -2 6 C-8.92796268 9.91884758 -15.08722795 10.95347807 -23 10 C-25.60059353 9.23383187 -27.6055883 8.30604274 -30 7 C-30 6.67 -30 6.34 -30 6 C-28.02 6 -26.04 6 -24 6 C-24 6.66 -24 7.32 -24 8 C-21.55981573 7.76923811 -19.12129638 7.52930983 -16.68359375 7.2734375 C-15.07382708 7.10941469 -13.46192331 6.96289126 -11.84765625 6.8515625 C-9.79039171 6.71118785 -9.79039171 6.71118785 -7 6 C-5.48705712 4.06402968 -5.48705712 4.06402968 -5 2 C-3.35 2 -1.7 2 0 2 C0 1.34 0 0.68 0 0 Z " fill="#9F4E4B" transform="translate(181,186)"/>
<path d="M0 0 C3.58273331 1.65356922 6.80973467 3.67980703 10 6 C10 6.66 10 7.32 10 8 C10.66 8.226875 11.32 8.45375 12 8.6875 C14.57930279 9.81594497 16.65988617 11.02901632 19 12.5625 C21.98843823 14.4868731 24.39463121 15.66199668 28 16 C28 16.66 28 17.32 28 18 C26.02 18 24.04 18 22 18 C22 17.34 22 16.68 22 16 C19.69 16 17.38 16 15 16 C14.67 14.68 14.34 13.36 14 12 C13.34 12 12.68 12 12 12 C12 11.34 12 10.68 12 10 C10.68 10 9.36 10 8 10 C8 9.34 8 8.68 8 8 C6.02 7.34 4.04 6.68 2 6 C2 4.68 2 3.36 2 2 C1.34 2 0.68 2 0 2 C0 1.34 0 0.68 0 0 Z " fill="#AB6E6C" transform="translate(141,56)"/>
<path d="M0 0 C1.10408203 0.01353516 2.20816406 0.02707031 3.34570312 0.04101562 C6.04349272 0.07605185 8.74022636 0.12517409 11.4375 0.1875 C11.4375 0.8475 11.4375 1.5075 11.4375 2.1875 C10.45523438 2.15269531 10.45523438 2.15269531 9.453125 2.1171875 C-1.13675882 1.90778302 -10.52827248 3.46956038 -20.3828125 7.3828125 C-22.5625 8.1875 -22.5625 8.1875 -24.5625 8.1875 C-24.5625 7.5275 -24.5625 6.8675 -24.5625 6.1875 C-23.9025 6.1875 -23.2425 6.1875 -22.5625 6.1875 C-22.2325 5.1975 -21.9025 4.2075 -21.5625 3.1875 C-15.0039004 -0.61757183 -7.31492867 -0.17196035 0 0 Z " fill="#B2615B" transform="translate(161.5625,95.8125)"/>
<path d="M0 0 C7.59 0 15.18 0 23 0 C23 0.66 23 1.32 23 2 C26.3 2 29.6 2 33 2 C33 2.66 33 3.32 33 4 C34.32 4 35.64 4 37 4 C37 4.66 37 5.32 37 6 C27 4 27 4 24.6953125 3.44140625 C20.98501397 2.83377765 17.31040329 2.85546271 13.5625 2.875 C12.82451172 2.87113281 12.08652344 2.86726563 11.32617188 2.86328125 C7.10791289 2.87078038 3.1547558 3.17036572 -1 4 C-0.67 2.68 -0.34 1.36 0 0 Z " fill="#AC6764" transform="translate(28,102)"/>
<path d="M0 0 C1.36125 0.0928125 1.36125 0.0928125 2.75 0.1875 C-1.15044745 4.90054067 -5.77944163 6.839373 -11.78125 7.44140625 C-16.66038028 7.55162757 -20.69274459 7.10634438 -25.25 5.1875 C-25.25 4.8575 -25.25 4.5275 -25.25 4.1875 C-23.99703125 4.15011719 -22.7440625 4.11273438 -21.453125 4.07421875 C-19.80205379 4.00855115 -18.15101345 3.94210407 -16.5 3.875 C-15.2625 3.84116211 -15.2625 3.84116211 -14 3.80664062 C-8.40633808 3.55853465 -5.03221554 0.29032013 0 0 Z " fill="#A75955" transform="translate(112.25,119.8125)"/>
<path d="M0 0 C0.33 0 0.66 0 1 0 C1 2.97 1 5.94 1 9 C0.01 9.33 -0.98 9.66 -2 10 C-3.46293963 12.31869204 -3.46293963 12.31869204 -4.6875 15.0625 C-5.12449219 15.98160156 -5.56148437 16.90070313 -6.01171875 17.84765625 C-6.50091797 18.91306641 -6.50091797 18.91306641 -7 20 C-7.66 20 -8.32 20 -9 20 C-9.56374639 13.76702938 -8.171874 10.83300797 -4.5625 6.0625 C-4.14162109 5.47404297 -3.72074219 4.88558594 -3.28710938 4.27929688 C-2.23047989 2.8236841 -1.11975442 1.4076308 0 0 Z " fill="#AD5553" transform="translate(42,52)"/>
<path d="M0 0 C0.99 0 1.98 0 3 0 C4.12824155 8.53495014 4.11663729 17.03453548 4.0625 25.625 C4.05747197 27.02473797 4.05291138 28.4244777 4.04882812 29.82421875 C4.03713167 33.21619169 4.02074086 36.60807233 4 40 C3.67 40 3.34 40 3 40 C2.71105222 36.0350371 2.42640631 32.06978953 2.14550781 28.10424805 C2.00285376 26.10254363 1.85692894 24.10107316 1.7109375 22.09960938 C0.93866681 11.14991424 0.93866681 11.14991424 1 5.68359375 C1.27455887 2.17643974 1.27455887 2.17643974 0 0 Z " fill="#912924" transform="translate(260,100)"/>
<path d="M0 0 C0.66 0 1.32 0 2 0 C1.77911933 6.18465865 0.34209732 11.37763492 -1.8125 17.125 C-2.06080566 17.79337891 -2.30911133 18.46175781 -2.56494141 19.15039062 C-4.32697994 23.70409938 -6.49204267 27.81100403 -9 32 C-9.33 30.68 -9.66 29.36 -10 28 C-9.34 28 -8.68 28 -8 28 C-8 26.68 -8 25.36 -8 24 C-7.34 24 -6.68 24 -6 24 C-6 22.02 -6 20.04 -6 18 C-5.34 18 -4.68 18 -4 18 C-4 16.68 -4 15.36 -4 14 C-3.34 14 -2.68 14 -2 14 C-2 12.02 -2 10.04 -2 8 C-1.34 8 -0.68 8 0 8 C0 5.36 0 2.72 0 0 Z " fill="#DC918F" transform="translate(263,148)"/>
<path d="M0 0 C2.66666667 1.33333333 5.33333333 2.66666667 8 4 C8 4.66 8 5.32 8 6 C10.475 6.99 10.475 6.99 13 8 C12.875 9.875 12.875 9.875 12 12 C8.9375 13.25 8.9375 13.25 6 14 C6 12.68 6 11.36 6 10 C5.34 9.34 4.68 8.68 4 8 C4 6.68 4 5.36 4 4 C3.34 4 2.68 4 2 4 C2 3.34 2 2.68 2 2 C1.34 2 0.68 2 0 2 C0 1.34 0 0.68 0 0 Z " fill="#9A4540" transform="translate(211,22)"/>
<path d="M0 0 C6.61277 1.86514026 13.29588014 4.87773616 18 10 C13.83861737 10.08159574 10.0527516 9.98248524 6 9 C5.67 8.01 5.34 7.02 5 6 C4.01 5.34 3.02 4.68 2 4 C2 3.34 2 2.68 2 2 C1.34 2 0.68 2 0 2 C0 1.34 0 0.68 0 0 Z " fill="#A74845" transform="translate(193,12)"/>
<path d="M0 0 C0 0.66 0 1.32 0 2 C-0.66 2 -1.32 2 -2 2 C-2 2.66 -2 3.32 -2 4 C-2.66 4 -3.32 4 -4 4 C-4.15149298 7.62885324 -4.15149298 7.62885324 -3 11 C-3.33 11.99 -3.66 12.98 -4 14 C-3.34 14 -2.68 14 -2 14 C-2 14.66 -2 15.32 -2 16 C-4.66666667 14.66666667 -7.33333333 13.33333333 -10 12 C-10.2421875 9.73828125 -10.2421875 9.73828125 -10 7 C-8.3203125 4.98046875 -8.3203125 4.98046875 -6.125 3.1875 C-5.04605469 2.28064453 -5.04605469 2.28064453 -3.9453125 1.35546875 C-2 0 -2 0 0 0 Z " fill="#9C4547" transform="translate(77,212)"/>
<path d="M0 0 C-2.72301487 2.72301487 -5.59908228 4.17807979 -9 6 C-9.66 6 -10.32 6 -11 6 C-11 6.66 -11 7.32 -11 8 C-12.86328125 9.62109375 -12.86328125 9.62109375 -15.3125 11.4375 C-18.63908504 13.90976977 -18.63908504 13.90976977 -21.66796875 16.72265625 C-23 18 -23 18 -25 18 C-25 17.34 -25 16.68 -25 16 C-24.34 16 -23.68 16 -23 16 C-23 15.34 -23 14.68 -23 14 C-22.34 14 -21.68 14 -21 14 C-21 13.34 -21 12.68 -21 12 C-20.34 12 -19.68 12 -19 12 C-19 11.34 -19 10.68 -19 10 C-17.57421875 8.4921875 -17.57421875 8.4921875 -15.6875 6.875 C-15.07261719 6.33617187 -14.45773438 5.79734375 -13.82421875 5.2421875 C-12 4 -12 4 -9 4 C-8.67 3.01 -8.34 2.02 -8 1 C-5.07175348 0.02391783 -3.04386724 -0.08226668 0 0 Z " fill="#A14B49" transform="translate(88,174)"/>
<path d="M0 0 C2.625 0.375 2.625 0.375 5 1 C3.84826645 3.46800047 2.95216435 5.04783565 1 7 C-4.29576664 6.74782064 -8.44236418 4.48703477 -13 2 C-13 1.67 -13 1.34 -13 1 C-6.46499102 0.87432675 -6.46499102 0.87432675 -3.6875 1.625 C-2.8521875 1.810625 -2.8521875 1.810625 -2 2 C-1.34 1.34 -0.68 0.68 0 0 Z " fill="#A14142" transform="translate(248,179)"/>
<path d="M0 0 C0.83789062 0.28617188 1.67578125 0.57234375 2.5390625 0.8671875 C6.12986823 2.04250766 9.73966889 3.09613271 13.375 4.125 C14.62023437 4.47820312 15.86546875 4.83140625 17.1484375 5.1953125 C18.08945313 5.46085938 19.03046875 5.72640625 20 6 C20 6.66 20 7.32 20 8 C17.36 8 14.72 8 12 8 C12 7.34 12 6.68 12 6 C9.02148438 6.04882812 9.02148438 6.04882812 6.04296875 6.09765625 C4 6 4 6 1 5 C0.67 3.35 0.34 1.7 0 0 Z " fill="#A75754" transform="translate(73,144)"/>
<path d="M0 0 C2.97 0 5.94 0 9 0 C9 0.66 9 1.32 9 2 C7.02 2 5.04 2 3 2 C3 2.99 3 3.98 3 5 C0.24921116 5.91692961 -1.35948913 6.10886083 -4.1875 6.0625 C-6.0746875 6.0315625 -6.0746875 6.0315625 -8 6 C-8 4.68 -8 3.36 -8 2 C-5.36 2 -2.72 2 0 2 C0 1.34 0 0.68 0 0 Z " fill="#912B24" transform="translate(37,128)"/>
<path d="M0 0 C0.33 1.32 0.66 2.64 1 4 C0.34 4 -0.32 4 -1 4 C-1.33 5.65 -1.66 7.3 -2 9 C-3.65 9.33 -5.3 9.66 -7 10 C-7.33 10.99 -7.66 11.98 -8 13 C-9.65 12.67 -11.3 12.34 -13 12 C-13 11.34 -13 10.68 -13 10 C-11.68 10 -10.36 10 -9 10 C-9 9.34 -9 8.68 -9 8 C-8.34 8 -7.68 8 -7 8 C-7 7.34 -7 6.68 -7 6 C-6.34 6 -5.68 6 -5 6 C-5 5.34 -5 4.68 -5 4 C-3.37373596 2.61767557 -1.7074998 1.28062485 0 0 Z " fill="#AA5E5B" transform="translate(94,76)"/>
<path d="M0 0 C3.37497326 1.09686631 6.69752929 2.26691534 10 3.5625 C13.30522541 4.82102814 16.47776094 5.55972012 20 6 C20 6.66 20 7.32 20 8 C17.36 8 14.72 8 12 8 C12 7.34 12 6.68 12 6 C10.7625 6.04125 9.525 6.0825 8.25 6.125 C4.98362038 6.13658291 2.7853053 5.8568702 0 4 C0 2.68 0 1.36 0 0 Z " fill="#A85E5A" transform="translate(137,212)"/>
<path d="M0 0 C0 0.33 0 0.66 0 1 C-2.97 1 -5.94 1 -9 1 C-9 0.34 -9 -0.32 -9 -1 C-11.97 -1 -14.94 -1 -18 -1 C-18 -0.34 -18 0.32 -18 1 C-20.64 1 -23.28 1 -26 1 C-18.27199289 -5.34800584 -8.6113426 -3.82726338 0 0 Z " fill="#BB7A7A" transform="translate(55,129)"/>
<path d="M0 0 C-2.23560002 2.23560002 -3.51030684 2.62379524 -6.5 3.5078125 C-7.386875 3.77207031 -8.27375 4.03632813 -9.1875 4.30859375 C-10.115625 4.57800781 -11.04375 4.84742188 -12 5.125 C-12.928125 5.40214844 -13.85625 5.67929688 -14.8125 5.96484375 C-21.70997537 8 -21.70997537 8 -24 8 C-24 6.68 -24 5.36 -24 4 C-20.04 4 -16.08 4 -12 4 C-12 3.34 -12 2.68 -12 2 C-7.8794254 0.00214565 -4.54805635 -0.17835515 0 0 Z " fill="#A95755" transform="translate(191,238)"/>
<path d="M0 0 C2.01822917 0.06510417 4.03645833 0.13020833 6.0546875 0.1953125 C6.0546875 0.8553125 6.0546875 1.5153125 6.0546875 2.1953125 C7.7046875 2.1953125 9.3546875 2.1953125 11.0546875 2.1953125 C11.0546875 2.8553125 11.0546875 3.5153125 11.0546875 4.1953125 C3.4646875 4.1953125 -4.1253125 4.1953125 -11.9453125 4.1953125 C-11.9453125 3.8653125 -11.9453125 3.5353125 -11.9453125 3.1953125 C-10.6665625 3.0715625 -9.3878125 2.9478125 -8.0703125 2.8203125 C-4.56915336 2.48149065 -3.1324247 0.31450047 0 0 Z " fill="#962926" transform="translate(155.9453125,241.8046875)"/>
<path d="M0 0 C1.32 0 2.64 0 4 0 C4 2.64 4 5.28 4 8 C4.99 8.33 5.98 8.66 7 9 C7.33 11.31 7.66 13.62 8 16 C8.66 16 9.32 16 10 16 C9.67 17.32 9.34 18.64 9 20 C0 6.13114754 0 6.13114754 0 0 Z " fill="#AD605C" transform="translate(27,168)"/>
<path d="M0 0 C0 0.66 0 1.32 0 2 C-0.66 2 -1.32 2 -2 2 C-2 2.66 -2 3.32 -2 4 C-3.98 4 -5.96 4 -8 4 C-8 4.66 -8 5.32 -8 6 C-8.66 6 -9.32 6 -10 6 C-10.33 6.99 -10.66 7.98 -11 9 C-13.95664519 10.4783226 -16.74229737 10.06032783 -20 10 C-17.22270137 6.56797698 -13.35938189 5.08977666 -9.4375 3.3125 C-8.75236328 2.99216797 -8.06722656 2.67183594 -7.36132812 2.34179688 C-2.27328758 0 -2.27328758 0 0 0 Z " fill="#A95653" transform="translate(101,8)"/>
<path d="M0 0 C1.134375 0.020625 2.26875 0.04125 3.4375 0.0625 C2.15687515 1.7699998 0.81982443 3.43623596 -0.5625 5.0625 C-1.2225 5.0625 -1.8825 5.0625 -2.5625 5.0625 C-2.5625 5.7225 -2.5625 6.3825 -2.5625 7.0625 C-4.171875 8.71875 -4.171875 8.71875 -6.3125 10.5625 C-7.00859375 11.1709375 -7.7046875 11.779375 -8.421875 12.40625 C-10.40710792 13.94226963 -12.28122045 15.0348966 -14.5625 16.0625 C-14.5625 15.4025 -14.5625 14.7425 -14.5625 14.0625 C-13.9025 14.0625 -13.2425 14.0625 -12.5625 14.0625 C-12.5625 13.4025 -12.5625 12.7425 -12.5625 12.0625 C-11.9025 12.0625 -11.2425 12.0625 -10.5625 12.0625 C-10.5625 11.4025 -10.5625 10.7425 -10.5625 10.0625 C-9.9025 10.0625 -9.2425 10.0625 -8.5625 10.0625 C-8.5625 9.4025 -8.5625 8.7425 -8.5625 8.0625 C-7.9025 8.0625 -7.2425 8.0625 -6.5625 8.0625 C-6.5625 7.4025 -6.5625 6.7425 -6.5625 6.0625 C-5.5725 6.0625 -4.5825 6.0625 -3.5625 6.0625 C-3.2325 4.7425 -2.9025 3.4225 -2.5625 2.0625 C-3.2225 1.7325 -3.8825 1.4025 -4.5625 1.0625 C-3.5625 0.0625 -3.5625 0.0625 0 0 Z " fill="#AA6260" transform="translate(93.5625,41.9375)"/>
<path d="M0 0 C9.30606525 0.75048913 17.52149633 3.12937876 26 7 C26 7.33 26 7.66 26 8 C24.02 8 22.04 8 20 8 C20 7.34 20 6.68 20 6 C18.02 6 16.04 6 14 6 C14 5.34 14 4.68 14 4 C12.02 4 10.04 4 8 4 C8 3.34 8 2.68 8 2 C5.36 2 2.72 2 0 2 C0 1.34 0 0.68 0 0 Z " fill="#B57270" transform="translate(167,4)"/>
<path d="M0 0 C0.66 0 1.32 0 2 0 C2 0.66 2 1.32 2 2 C2.969375 2.12375 3.93875 2.2475 4.9375 2.375 C6.4534375 2.684375 6.4534375 2.684375 8 3 C8.33 3.66 8.66 4.32 9 5 C11.01669827 6.13350534 11.01669827 6.13350534 13 7 C11.8125 8.5625 11.8125 8.5625 10 10 C7.625 10.125 7.625 10.125 5 9 C0 3.53678474 0 3.53678474 0 0 Z " fill="#A84F4E" transform="translate(41,194)"/>
<path d="M0 0 C0 0.66 0 1.32 0 2 C-0.66 2 -1.32 2 -2 2 C-2 2.66 -2 3.32 -2 4 C-2.66 4 -3.32 4 -4 4 C-4 4.66 -4 5.32 -4 6 C-4.66 6 -5.32 6 -6 6 C-6 6.66 -6 7.32 -6 8 C-6.66 8 -7.32 8 -8 8 C-8 8.66 -8 9.32 -8 10 C-8.66 10 -9.32 10 -10 10 C-10 10.66 -10 11.32 -10 12 C-10.66 12 -11.32 12 -12 12 C-12 12.66 -12 13.32 -12 14 C-12.66 14 -13.32 14 -14 14 C-14 14.66 -14 15.32 -14 16 C-15.32 15.67 -16.64 15.34 -18 15 C-3.3 0 -3.3 0 0 0 Z " fill="#BB7A7A" transform="translate(113,60)"/>
<path d="M0 0 C-0.33 0.99 -0.66 1.98 -1 3 C-1.34820041 4.66362417 -1.68404492 6.32995171 -2 8 C-3.48285242 7.04737966 -4.96118201 6.08771595 -6.4375 5.125 C-7.26121094 4.59132812 -8.08492187 4.05765625 -8.93359375 3.5078125 C-11 2 -11 2 -12 0 C-3.42857143 -1.28571429 -3.42857143 -1.28571429 0 0 Z " fill="#A74444" transform="translate(143,176)"/>
<path d="M0 0 C0 1.65 0 3.3 0 5 C-4.625 7.125 -4.625 7.125 -8 6 C-8 6.66 -8 7.32 -8 8 C-8.66 8 -9.32 8 -10 8 C-10 8.66 -10 9.32 -10 10 C-11.32 10 -12.64 10 -14 10 C-14 9.34 -14 8.68 -14 8 C-12.09625645 6.55036041 -10.12532841 5.18815677 -8.125 3.875 C-6.48917969 2.78832031 -6.48917969 2.78832031 -4.8203125 1.6796875 C-2 0 -2 0 0 0 Z " fill="#A14148" transform="translate(151,124)"/>
<path d="M0 0 C0.99 0.99 1.98 1.98 3 3 C0.03 3 -2.94 3 -6 3 C-6 2.34 -6 1.68 -6 1 C-13.26 1 -20.52 1 -28 1 C-28 0.67 -28 0.34 -28 0 C-5.40520516 -1.59984931 -5.40520516 -1.59984931 0 0 Z " fill="#912A2A" transform="translate(57,101)"/>
<path d="M0 0 C1.32 0.33 2.64 0.66 4 1 C3.34 2.65 2.68 4.3 2 6 C2.86625 6.84304687 3.7325 7.68609375 4.625 8.5546875 C5.75026041 9.66119357 6.87524628 10.76797888 8 11.875 C8.57234375 12.43058594 9.1446875 12.98617187 9.734375 13.55859375 C11.19450782 15.00134404 12.60149298 16.4974374 14 18 C14 18.66 14 19.32 14 20 C13.34 20 12.68 20 12 20 C12 19.34 12 18.68 12 18 C11.34 18 10.68 18 10 18 C10 17.34 10 16.68 10 16 C9.34 16 8.68 16 8 16 C8 15.34 8 14.68 8 14 C7.34 14 6.68 14 6 14 C6 13.34 6 12.68 6 12 C5.34 12 4.68 12 4 12 C4 11.34 4 10.68 4 10 C3.34 10 2.68 10 2 10 C2 9.34 2 8.68 2 8 C1.34 8 0.68 8 0 8 C0 5.36 0 2.72 0 0 Z " fill="#B66A67" transform="translate(67,66)"/>
<path d="M0 0 C0.66 0 1.32 0 2 0 C2 0.66 2 1.32 2 2 C2.57492188 2.25652344 3.14984375 2.51304687 3.7421875 2.77734375 C6.21495283 4.11640179 8.04846254 5.67150867 10.125 7.5625 C12.86038045 10.07679216 12.86038045 10.07679216 16 12 C16 12.66 16 13.32 16 14 C15.34 14 14.68 14 14 14 C14 14.66 14 15.32 14 16 C13.34 16 12.68 16 12 16 C12 14.68 12 13.36 12 12 C11.34 12 10.68 12 10 12 C10 11.34 10 10.68 10 10 C9.34 10 8.68 10 8 10 C8 9.34 8 8.68 8 8 C7.34 8 6.68 8 6 8 C6 7.34 6 6.68 6 6 C5.34 6 4.68 6 4 6 C4 5.34 4 4.68 4 4 C2.68 4 1.36 4 0 4 C0 2.68 0 1.36 0 0 Z " fill="#B16363" transform="translate(121,198)"/>
<path d="M0 0 C4.00985905 8.0197181 4.30266784 16.15537307 4 25 C2 23 2 23 1.8046875 20.1796875 C1.82789062 19.08914062 1.85109375 17.99859375 1.875 16.875 C1.89304687 15.77929688 1.91109375 14.68359375 1.9296875 13.5546875 C1.95289062 12.71164063 1.97609375 11.86859375 2 11 C1.34 11 0.68 11 0 11 C0 7.37 0 3.74 0 0 Z " fill="#9C3E3A" transform="translate(23,143)"/>
<path d="M0 0 C0 0.66 0 1.32 0 2 C-0.66 2 -1.32 2 -2 2 C-2 2.66 -2 3.32 -2 4 C-2.66 4 -3.32 4 -4 4 C-3.979375 4.804375 -3.95875 5.60875 -3.9375 6.4375 C-4 9 -4 9 -5 10 C-7.33297433 10.04092937 -9.66705225 10.04241723 -12 10 C-12 9.34 -12 8.68 -12 8 C-11.34 8 -10.68 8 -10 8 C-10 7.34 -10 6.68 -10 6 C-8.3203125 4.4921875 -8.3203125 4.4921875 -6.125 2.875 C-5.40570313 2.33617187 -4.68640625 1.79734375 -3.9453125 1.2421875 C-2 0 -2 0 0 0 Z " fill="#A6524F" transform="translate(89,202)"/>
<path d="M0 0 C0.66 0 1.32 0 2 0 C2.042721 1.66611905 2.04063832 3.33382885 2 5 C1 6 1 6 -1.5625 6.0625 C-2.7690625 6.0315625 -2.7690625 6.0315625 -4 6 C-4 6.66 -4 7.32 -4 8 C-6.64 8 -9.28 8 -12 8 C-9.91350942 5.91350942 -8.0260206 4.82940113 -5.4375 3.4375 C-2.53070076 1.97704566 -2.53070076 1.97704566 0 0 Z " fill="#A65552" transform="translate(215,64)"/>
<path d="M0 0 C8.58 0 17.16 0 26 0 C26 0.66 26 1.32 26 2 C26.66 2 27.32 2 28 2 C28 2.66 28 3.32 28 4 C26.9790625 3.80083984 26.9790625 3.80083984 25.9375 3.59765625 C17.30192558 2.02441995 8.7501128 1.42195975 0 1 C0 0.67 0 0.34 0 0 Z " fill="#B25D5E" transform="translate(207,176)"/>
<path d="M0 0 C0.66 0 1.32 0 2 0 C2 0.66 2 1.32 2 2 C2.55171875 2.23460937 3.1034375 2.46921875 3.671875 2.7109375 C6.59325764 4.32848158 8.79574497 6.36450195 11.25 8.625 C12.14203125 9.44226563 13.0340625 10.25953125 13.953125 11.1015625 C14.96632812 12.04128906 14.96632812 12.04128906 16 13 C14.68 13.33 13.36 13.66 12 14 C12 13.34 12 12.68 12 12 C11.34 12 10.68 12 10 12 C10 11.34 10 10.68 10 10 C9.34 10 8.68 10 8 10 C8 9.34 8 8.68 8 8 C7.34 8 6.68 8 6 8 C6 7.34 6 6.68 6 6 C5.34 6 4.68 6 4 6 C4 5.34 4 4.68 4 4 C2.68 4 1.36 4 0 4 C0 2.68 0 1.36 0 0 Z " fill="#B96A6B" transform="translate(195,138)"/>
<path d="M0 0 C3.3 0 6.6 0 10 0 C10 2.64 10 5.28 10 8 C6.05205855 6.32971708 3.18203882 3.8204435 0 1 C0 0.67 0 0.34 0 0 Z " fill="#A23D3D" transform="translate(71,112)"/>
<path d="M0 0 C3.43668423 3.43668423 5.6767505 8.30625414 6.2578125 13.1484375 C6.25120248 14.76789326 6.13733072 16.38636406 6 18 C5.34 18 4.68 18 4 18 C4 16.02 4 14.04 4 12 C3.34 12 2.68 12 2 12 C2 10.68 2 9.36 2 8 C1.34 8 0.68 8 0 8 C0 5.36 0 2.72 0 0 Z " fill="#CB7F7C" transform="translate(255,72)"/>
<path d="M0 0 C1.03125 0.144375 2.0625 0.28875 3.125 0.4375 C9.39218196 1.2293822 15.69897659 1.58406166 22 2 C22 2.33 22 2.66 22 3 C18.091312 3.92055082 14.44907765 4.13429682 10.4375 4.125 C9.32246094 4.12757812 8.20742187 4.13015625 7.05859375 4.1328125 C4.50806272 4.02206147 2.42409171 3.7467862 0 3 C0 2.01 0 1.02 0 0 Z " fill="#982A28" transform="translate(171,76)"/>
<path d="M0 0 C2.64 0 5.28 0 8 0 C5.83676753 2.31242092 3.62352196 4.0156396 0.9375 5.6875 C-0.10083984 6.34298828 -0.10083984 6.34298828 -1.16015625 7.01171875 C-3 8 -3 8 -5 8 C-5.33 6.68 -5.66 5.36 -6 4 C-4.35 3.67 -2.7 3.34 -1 3 C-0.67 2.01 -0.34 1.02 0 0 Z " fill="#A84745" transform="translate(208,224)"/>
<path d="M0 0 C-2.22717968 2.22717968 -3.8920142 2.87909391 -6.8125 4 C-8.09060547 4.495 -8.09060547 4.495 -9.39453125 5 C-10.68423828 5.495 -10.68423828 5.495 -12 6 C-13.66761938 6.66427992 -15.33457344 7.33024138 -17 8 C-17 7.34 -17 6.68 -17 6 C-16.34 6 -15.68 6 -15 6 C-15 5.34 -15 4.68 -15 4 C-14.34 4 -13.68 4 -13 4 C-13 3.34 -13 2.68 -13 2 C-8.49646738 0.24252386 -4.82360189 -0.19294408 0 0 Z " fill="#A95250" transform="translate(202,178)"/>
<path d="M0 0 C6.11485027 -0.09706112 11.93303301 0.22959149 18 1 C18.33 1.99 18.66 2.98 19 4 C16.58387104 3.76729906 14.16859109 3.52855769 11.75390625 3.28125 C10.03345127 3.10554396 8.31216824 2.93757119 6.58984375 2.78125 C4.71809442 2.59101776 2.85669742 2.30382321 1 2 C0.67 1.34 0.34 0.68 0 0 Z " fill="#9E403A" transform="translate(102,168)"/>
<path d="M0 0 C0 1.32 0 2.64 0 4 C0.66 4 1.32 4 2 4 C1.67 5.32 1.34 6.64 1 8 C-0.46022163 7.04454634 -1.91811468 6.08553322 -3.375 5.125 C-4.18710938 4.59132813 -4.99921875 4.05765625 -5.8359375 3.5078125 C-8 2 -8 2 -10 0 C-2.25 -1.125 -2.25 -1.125 0 0 Z " fill="#A34545" transform="translate(161,34)"/>
<path d="M0 0 C2 1.4375 2 1.4375 4 4 C4.35442445 7.02824418 4.23347235 9.96485939 4 13 C2.35 13.33 0.7 13.66 -1 14 C-0.01 10.7 0.98 7.4 2 4 C1.34 4 0.68 4 0 4 C0 2.68 0 1.36 0 0 Z " fill="#A74642" transform="translate(251,66)"/>
<path d="M0 0 C-0.35401103 3.18609925 -0.83027036 4.79066678 -2.875 7.3125 C-5 9 -5 9 -8 9 C-8.375 6.75 -8.375 6.75 -8 4 C-3.02702703 0 -3.02702703 0 0 0 Z " fill="#922C30" transform="translate(199,206)"/>
<path d="M0 0 C-0.33 1.65 -0.66 3.3 -1 5 C-2.65 5.33 -4.3 5.66 -6 6 C-6 6.66 -6 7.32 -6 8 C-7.32 8 -8.64 8 -10 8 C-10 7.01 -10 6.02 -10 5 C-8.3203125 3.61328125 -8.3203125 3.61328125 -6.125 2.3125 C-5.40570313 1.87550781 -4.68640625 1.43851563 -3.9453125 0.98828125 C-2 0 -2 0 0 0 Z " fill="#A85654" transform="translate(129,140)"/>
<path d="M0 0 C3.625 -0.1875 3.625 -0.1875 7 0 C7 0.66 7 1.32 7 2 C3.80973467 4.32019297 0.58273331 6.34643078 -3 8 C-2.45276317 4.62537285 -1.9451 2.91765 0 0 Z " fill="#9F4743" transform="translate(126,106)"/>
<path d="M0 0 C5.05255964 0.63156995 9.29593201 2.13459373 14 4 C14 5.32 14 6.64 14 8 C8.76481294 6.56032356 4.36973991 4.18303389 0 1 C0 0.67 0 0.34 0 0 Z " fill="#A85153" transform="translate(75,228)"/>
<path d="M0 0 C0.90105469 0.00902344 1.80210937 0.01804688 2.73046875 0.02734375 C3.41753906 0.03894531 4.10460937 0.05054688 4.8125 0.0625 C-0.29443473 3.97781663 -2.82265636 4.16515877 -9.1875 4.0625 C-8.8575 3.0725 -8.5275 2.0825 -8.1875 1.0625 C-5.17259443 0.05753148 -3.14568308 -0.04085303 0 0 Z " fill="#9A3533" transform="translate(194.1875,233.9375)"/>
<path d="M0 0 C3.59513939 1.6592951 6.86406334 3.57677622 10 6 C10 7.32 10 8.64 10 10 C9.34 10 8.68 10 8 10 C8 9.34 8 8.68 8 8 C6.02 7.34 4.04 6.68 2 6 C2 4.68 2 3.36 2 2 C1.34 2 0.68 2 0 2 C0 1.34 0 0.68 0 0 Z " fill="#904340" transform="translate(141,56)"/>
<path d="M0 0 C0.33 0.99 0.66 1.98 1 3 C1.66 3 2.32 3 3 3 C3 4.98 3 6.96 3 9 C2.34 9 1.68 9 1 9 C1 11.64 1 14.28 1 17 C0.34 17 -0.32 17 -1 17 C-0.67 11.39 -0.34 5.78 0 0 Z " fill="#A64E49" transform="translate(262,139)"/>
<path d="M0 0 C1.98 0 3.96 0 6 0 C6 0.66 6 1.32 6 2 C6.86625 2.37125 6.86625 2.37125 7.75 2.75 C10.3002997 4.16683317 12.01785701 5.87627537 14 8 C12.68 8 11.36 8 10 8 C10 7.34 10 6.68 10 6 C9.34 6 8.68 6 8 6 C8 5.34 8 4.68 8 4 C5.36 3.67 2.72 3.34 0 3 C0 2.01 0 1.02 0 0 Z " fill="#A85A59" transform="translate(51,130)"/>
<path d="M0 0 C-2.06756277 2.7972908 -3.14440371 3.02692273 -6.6875 3.6875 C-7.780625 3.790625 -8.87375 3.89375 -10 4 C-10 4.66 -10 5.32 -10 6 C-10.66 6 -11.32 6 -12 6 C-12 4.68 -12 3.36 -12 2 C-8.09971775 -0.60018816 -4.52565431 -0.15085514 0 0 Z " fill="#9A4440" transform="translate(125,56)"/>
<path d="M0 0 C0.99 0 1.98 0 3 0 C2.9375 1.75 2.9375 1.75 2 4 C-1.2161819 6.44727466 -3.92394904 8 -8 8 C-8 7.34 -8 6.68 -8 6 C-7.34 6 -6.68 6 -6 6 C-6 5.34 -6 4.68 -6 4 C-5.34 4 -4.68 4 -4 4 C-4 3.34 -4 2.68 -4 2 C-2.68 2 -1.36 2 0 2 C0 1.34 0 0.68 0 0 Z " fill="#922928" transform="translate(115,60)"/>
<path d="M0 0 C1.98 0 3.96 0 6 0 C6 0.66 6 1.32 6 2 C7.98 2 9.96 2 12 2 C12 2.66 12 3.32 12 4 C12.66 4 13.32 4 14 4 C14 4.66 14 5.32 14 6 C12.35 6 10.7 6 9 6 C9 5.34 9 4.68 9 4 C7.35 4 5.7 4 4 4 C3.67 3.34 3.34 2.68 3 2 C2.01 1.34 1.02 0.68 0 0 Z " fill="#952E2A" transform="translate(181,10)"/>
<path d="M0 0 C0 0.66 0 1.32 0 2 C-1.75 3.5078125 -1.75 3.5078125 -4 5.125 C-4.7425 5.66382813 -5.485 6.20265625 -6.25 6.7578125 C-6.8275 7.16773438 -7.405 7.57765625 -8 8 C-9 6 -9 6 -8.1875 3.4375 C-6.24264326 -0.55457436 -4.11361355 -0.10825299 0 0 Z " fill="#A54B4D" transform="translate(225,216)"/>
<path d="M0 0 C0.66 0 1.32 0 2 0 C2 3.3 2 6.6 2 10 C1.34 10 0.68 10 0 10 C0 10.66 0 11.32 0 12 C-0.66 11.67 -1.32 11.34 -2 11 C-2 8.03 -2 5.06 -2 2 C-1.34 2 -0.68 2 0 2 C0 1.34 0 0.68 0 0 Z " fill="#992E28" transform="translate(259,152)"/>
<path d="M0 0 C1.37478516 0.01740234 1.37478516 0.01740234 2.77734375 0.03515625 C3.69644531 0.04417969 4.61554688 0.05320313 5.5625 0.0625 C6.27277344 0.07410156 6.98304687 0.08570313 7.71484375 0.09765625 C5.50963412 2.34056177 3.32681271 4.32825792 0.71484375 6.09765625 C0.05484375 6.09765625 -0.60515625 6.09765625 -1.28515625 6.09765625 C-1.28515625 4.77765625 -1.28515625 3.45765625 -1.28515625 2.09765625 C-1.94515625 1.76765625 -2.60515625 1.43765625 -3.28515625 1.09765625 C-2.28515625 0.09765625 -2.28515625 0.09765625 0 0 Z " fill="#A5433F" transform="translate(100.28515625,33.90234375)"/>
<path d="M0 0 C2.97 0 5.94 0 9 0 C9 1.32 9 2.64 9 4 C10.32 4 11.64 4 13 4 C13 4.66 13 5.32 13 6 C13.66 6 14.32 6 15 6 C15 6.66 15 7.32 15 8 C13.35 7.67 11.7 7.34 10 7 C10 6.34 10 5.68 10 5 C9.34 5 8.68 5 8 5 C8 4.01 8 3.02 8 2 C5.69 2 3.38 2 1 2 C0.67 1.34 0.34 0.68 0 0 Z " fill="#932D28" transform="translate(112,198)"/>
<path d="M0 0 C0.99 0 1.98 0 3 0 C3 1.32 3 2.64 3 4 C2.34 4 1.68 4 1 4 C1 5.32 1 6.64 1 8 C0.34 8 -0.32 8 -1 8 C-1 9.32 -1 10.64 -1 12 C-1.66 12 -2.32 12 -3 12 C-2.88601335 10.37419034 -2.75844341 8.74932843 -2.625 7.125 C-2.55539063 6.22007812 -2.48578125 5.31515625 -2.4140625 4.3828125 C-2 2 -2 2 0 0 Z " fill="#A02B2D" transform="translate(254,168)"/>
<path d="M0 0 C0.66 0 1.32 0 2 0 C2 1.32 2 2.64 2 4 C1.34 4 0.68 4 0 4 C0 4.66 0 5.32 0 6 C-0.66 6 -1.32 6 -2 6 C-2 6.66 -2 7.32 -2 8 C-2.66 8 -3.32 8 -4 8 C-4 8.66 -4 9.32 -4 10 C-4.66 10 -5.32 10 -6 10 C-6 10.66 -6 11.32 -6 12 C-6.66 12 -7.32 12 -8 12 C-6.59808647 9.00745382 -4.96632511 6.4045389 -3 3.75 C-2.484375 3.04359375 -1.96875 2.3371875 -1.4375 1.609375 C-0.963125 1.07828125 -0.48875 0.5471875 0 0 Z " fill="#B56D6B" transform="translate(51,40)"/>
<path d="M0 0 C0.66 0.99 1.32 1.98 2 3 C0.68 3 -0.64 3 -2 3 C-2 3.66 -2 4.32 -2 5 C-0.68 5 0.64 5 2 5 C2 5.66 2 6.32 2 7 C-5.75 6.125 -5.75 6.125 -8 5 C-8 4.34 -8 3.68 -8 3 C-5.36 2.67 -2.72 2.34 0 2 C0 1.34 0 0.68 0 0 Z " fill="#A64539" transform="translate(145,25)"/>
<path d="M0 0 C0.66 0 1.32 0 2 0 C2.12375 0.969375 2.2475 1.93875 2.375 2.9375 C2.58125 3.948125 2.7875 4.95875 3 6 C3.66 6.33 4.32 6.66 5 7 C5 7.66 5 8.32 5 9 C2.03 8.505 2.03 8.505 -1 8 C-1 7.34 -1 6.68 -1 6 C-1.66 6 -2.32 6 -3 6 C-3 5.34 -3 4.68 -3 4 C-2.34 4 -1.68 4 -1 4 C-0.67 2.68 -0.34 1.36 0 0 Z " fill="#982826" transform="translate(76,220)"/>
<path d="M0 0 C0.66 0 1.32 0 2 0 C2 0.66 2 1.32 2 2 C2.66 2 3.32 2 4 2 C4 2.66 4 3.32 4 4 C4.66 4 5.32 4 6 4 C6 4.66 6 5.32 6 6 C6.66 6 7.32 6 8 6 C8 6.66 8 7.32 8 8 C8.66 8 9.32 8 10 8 C10 8.66 10 9.32 10 10 C7.25 9.9375 7.25 9.9375 4 9 C1.82922321 6.38191163 0 3.48512002 0 0 Z " fill="#9A2829" transform="translate(197,142)"/>
<path d="M0 0 C0.66 0 1.32 0 2 0 C2 1.32 2 2.64 2 4 C1.34 4 0.68 4 0 4 C0 4.66 0 5.32 0 6 C-0.66 6 -1.32 6 -2 6 C-2 6.66 -2 7.32 -2 8 C-2.66 8 -3.32 8 -4 8 C-4 8.66 -4 9.32 -4 10 C-4.66 10 -5.32 10 -6 10 C-6 10.66 -6 11.32 -6 12 C-6.66 12 -7.32 12 -8 12 C-6.59808647 9.00745382 -4.96632511 6.4045389 -3 3.75 C-2.484375 3.04359375 -1.96875 2.3371875 -1.4375 1.609375 C-0.963125 1.07828125 -0.48875 0.5471875 0 0 Z " fill="#B76C6F" transform="translate(227,140)"/>
<path d="M0 0 C0 0.66 0 1.32 0 2 C-0.66 2 -1.32 2 -2 2 C-2 2.66 -2 3.32 -2 4 C-2.66 4 -3.32 4 -4 4 C-4 4.66 -4 5.32 -4 6 C-4.66 6 -5.32 6 -6 6 C-6 6.66 -6 7.32 -6 8 C-6.66 8 -7.32 8 -8 8 C-8 9.32 -8 10.64 -8 12 C-8.66 12 -9.32 12 -10 12 C-10.2421875 9.73828125 -10.2421875 9.73828125 -10 7 C-8.3203125 4.98046875 -8.3203125 4.98046875 -6.125 3.1875 C-5.04605469 2.28064453 -5.04605469 2.28064453 -3.9453125 1.35546875 C-2 0 -2 0 0 0 Z " fill="#B87A7B" transform="translate(77,212)"/>
<path d="M0 0 C0.66 0 1.32 0 2 0 C2 0.66 2 1.32 2 2 C2.53625 2.226875 3.0725 2.45375 3.625 2.6875 C6.78500863 4.43382056 9.2676983 6.6402849 12 9 C10.68 9.33 9.36 9.66 8 10 C8 9.34 8 8.68 8 8 C7.34 8 6.68 8 6 8 C6 7.34 6 6.68 6 6 C5.34 6 4.68 6 4 6 C4 5.34 4 4.68 4 4 C2.68 4 1.36 4 0 4 C0 2.68 0 1.36 0 0 Z " fill="#AA6261" transform="translate(183,128)"/>
<path d="M0 0 C0.66 0 1.32 0 2 0 C0.8905928 3.48670834 -0.26337666 6.77484237 -2 10 C-2.66 10 -3.32 10 -4 10 C-4 7.69 -4 5.38 -4 3 C-2.68 2.67 -1.36 2.34 0 2 C0 1.34 0 0.68 0 0 Z " fill="#A34646" transform="translate(37,62)"/>
<path d="M0 0 C0.66 0.33 1.32 0.66 2 1 C1.67 1.99 1.34 2.98 1 4 C2.32 4.33 3.64 4.66 5 5 C2.44931155 7.35448165 1.28982642 7.98327924 -2.25 8.1875 C-3.1575 8.125625 -4.065 8.06375 -5 8 C-5 7.34 -5 6.68 -5 6 C-4.360625 5.7525 -3.72125 5.505 -3.0625 5.25 C-0.81258459 4.18437567 -0.81258459 4.18437567 -0.25 1.875 C-0.1675 1.25625 -0.085 0.6375 0 0 Z " fill="#A03A33" transform="translate(196,42)"/>
<path d="M0 0 C0.33 0 0.66 0 1 0 C1 3.96 1 7.92 1 12 C1.66 12.33 2.32 12.66 3 13 C1.35 12.67 -0.3 12.34 -2 12 C-1.85904936 10.3745692 -1.71207913 8.74965949 -1.5625 7.125 C-1.48128906 6.22007813 -1.40007813 5.31515625 -1.31640625 4.3828125 C-1 2 -1 2 0 0 Z " fill="#B87E7C" transform="translate(22,94)"/>
<path d="M0 0 C1.32 0 2.64 0 4 0 C4 0.66 4 1.32 4 2 C6.64 2 9.28 2 12 2 C12 2.66 12 3.32 12 4 C9.3125 5.1875 9.3125 5.1875 6 6 C3.1875 4.8125 3.1875 4.8125 1 3 C0.67 2.01 0.34 1.02 0 0 Z " fill="#963332" transform="translate(159,72)"/>
<path d="M0 0 C0.66 0 1.32 0 2 0 C2 0.66 2 1.32 2 2 C2.66 2 3.32 2 4 2 C4.12375 2.61875 4.2475 3.2375 4.375 3.875 C4.87197356 6.19120832 4.87197356 6.19120832 7 8 C6.67 8.66 6.34 9.32 6 10 C5.01 10 4.02 10 3 10 C1.11608215 6.73454239 0.50712033 3.71888239 0 0 Z " fill="#95251E" transform="translate(211,24)"/>
<path d="M0 0 C4.23429756 1.31061591 8.07407404 2.94356259 12 5 C12 5.33 12 5.66 12 6 C5.375 6.25 5.375 6.25 2 4 C2 3.34 2 2.68 2 2 C1.34 2 0.68 2 0 2 C0 1.34 0 0.68 0 0 Z " fill="#AF625F" transform="translate(193,12)"/>
<path d="M0 0 C0 0.66 0 1.32 0 2 C-1.98 2 -3.96 2 -6 2 C-6 2.66 -6 3.32 -6 4 C-8.97 4 -11.94 4 -15 4 C-10.09731431 0.73154287 -5.86826297 -0.27944109 0 0 Z " fill="#BA7C7C" transform="translate(117,4)"/>
<path d="M0 0 C0.86625 0.495 0.86625 0.495 1.75 1 C4.19883862 2.27075898 4.19883862 2.27075898 8 2 C6.25 6.875 6.25 6.875 4 8 C4 7.34 4 6.68 4 6 C3.34 6 2.68 6 2 6 C2 5.34 2 4.68 2 4 C1.34 4 0.68 4 0 4 C0 2.68 0 1.36 0 0 Z " fill="#94261C" transform="translate(41,190)"/>
<path d="M0 0 C1.65 0 3.3 0 5 0 C5 0.66 5 1.32 5 2 C4.34 2 3.68 2 3 2 C3 3.32 3 4.64 3 6 C2.34 6 1.68 6 1 6 C1 6.66 1 7.32 1 8 C0.34 8 -0.32 8 -1 8 C-0.67 5.36 -0.34 2.72 0 0 Z " fill="#993934" transform="translate(76,54)"/>
<path d="M0 0 C1.98 0 3.96 0 6 0 C4.67613295 2.6477341 3.36742791 2.9407438 0.6875 4.125 C-0.48232422 4.65480469 -0.48232422 4.65480469 -1.67578125 5.1953125 C-4 6 -4 6 -8 6 C-8 5.34 -8 4.68 -8 4 C-6.02 4 -4.04 4 -2 4 C-2 3.34 -2 2.68 -2 2 C-1.34 2 -0.68 2 0 2 C0 1.34 0 0.68 0 0 Z " fill="#9D3838" transform="translate(101,8)"/>
<path d="M0 0 C1.65 0.33 3.3 0.66 5 1 C4.01 1.33 3.02 1.66 2 2 C1.26676204 4.01508358 1.26676204 4.01508358 1 6 C-0.65 6 -2.3 6 -4 6 C-4 5.34 -4 4.68 -4 4 C-3.34 4 -2.68 4 -2 4 C-2 3.34 -2 2.68 -2 2 C-1.34 2 -0.68 2 0 2 C0 1.34 0 0.68 0 0 Z " fill="#9E2E2E" transform="translate(77,212)"/>
<path d="M0 0 C-0.33 3.3 -0.66 6.6 -1 10 C-1.33 9.34 -1.66 8.68 -2 8 C-2.66 8 -3.32 8 -4 8 C-4 5.69 -4 3.38 -4 1 C-2 0 -2 0 0 0 Z " fill="#922C24" transform="translate(31,160)"/>
<path d="M0 0 C0.66 0 1.32 0 2 0 C2 1.98 2 3.96 2 6 C2.66 6 3.32 6 4 6 C4 8.97 4 11.94 4 15 C0.89809455 10.34714182 -0.33846504 5.58467324 0 0 Z " fill="#BC7F79" transform="translate(21,148)"/>
<path d="M0 0 C2.75 -0.25 2.75 -0.25 6 0 C8.375 2 8.375 2 10 4 C7.03 4 4.06 4 1 4 C0.67 2.68 0.34 1.36 0 0 Z " fill="#984845" transform="translate(173,124)"/>
<path d="M0 0 C1.32 0 2.64 0 4 0 C4 0.66 4 1.32 4 2 C4.66 2 5.32 2 6 2 C6 2.66 6 3.32 6 4 C6.66 4 7.32 4 8 4 C8 4.66 8 5.32 8 6 C8.66 6 9.32 6 10 6 C10 6.66 10 7.32 10 8 C10.66 8 11.32 8 12 8 C12 8.66 12 9.32 12 10 C8.78727751 8.56006357 6.3793336 6.76981628 3.75 4.4375 C3.04359375 3.81746094 2.3371875 3.19742188 1.609375 2.55859375 C1.07828125 2.04425781 0.5471875 1.52992187 0 1 C0 0.67 0 0.34 0 0 Z " fill="#AF615E" transform="translate(199,110)"/>
<path d="M0 0 C0.66 0 1.32 0 2 0 C2 1.32 2 2.64 2 4 C1.34 4 0.68 4 0 4 C0 4.66 0 5.32 0 6 C-0.66 6 -1.32 6 -2 6 C-2 6.66 -2 7.32 -2 8 C-3.32 8 -4.64 8 -6 8 C-6 7.34 -6 6.68 -6 6 C-5.34 6 -4.68 6 -4 6 C-4 5.34 -4 4.68 -4 4 C-3.34 4 -2.68 4 -2 4 C-2 3.34 -2 2.68 -2 2 C-1.34 2 -0.68 2 0 2 C0 1.34 0 0.68 0 0 Z " fill="#AA625F" transform="translate(59,32)"/>
<path d="M0 0 C0.99 0.33 1.98 0.66 3 1 C1.38050958 2.50594681 -0.24575974 4.00460668 -1.875 5.5 C-3.23238281 6.75296875 -3.23238281 6.75296875 -4.6171875 8.03125 C-7 10 -7 10 -9 10 C-9 9.34 -9 8.68 -9 8 C-8.34 8 -7.68 8 -7 8 C-7 7.34 -7 6.68 -7 6 C-6.34 6 -5.68 6 -5 6 C-5 5.34 -5 4.68 -5 4 C-4.34 4 -3.68 4 -3 4 C-3 3.34 -3 2.68 -3 2 C-2.01 1.34 -1.02 0.68 0 0 Z " fill="#A75C59" transform="translate(72,182)"/>
<path d="M0 0 C1.09570312 0.00902344 2.19140625 0.01804688 3.3203125 0.02734375 C4.16335937 0.03894531 5.00640625 0.05054688 5.875 0.0625 C5.875 0.3925 5.875 0.7225 5.875 1.0625 C-1.055 2.5475 -1.055 2.5475 -8.125 4.0625 C-8.125 3.0725 -8.125 2.0825 -8.125 1.0625 C-5.36047967 -0.31976016 -3.0788637 -0.03275387 0 0 Z " fill="#A35652" transform="translate(97.125,169.9375)"/>
<path d="M0 0 C2.64 0 5.28 0 8 0 C7.34 1.32 6.68 2.64 6 4 C4.02 4 2.04 4 0 4 C0 2.68 0 1.36 0 0 Z " fill="#8B312A" transform="translate(29,130)"/>
<path d="M0 0 C2.97 0 5.94 0 9 0 C9.33 1.98 9.66 3.96 10 6 C9.34 6 8.68 6 8 6 C8 5.34 8 4.68 8 4 C7.34 4 6.68 4 6 4 C6 3.34 6 2.68 6 2 C4.02 2 2.04 2 0 2 C0 1.34 0 0.68 0 0 Z " fill="#9D322D" transform="translate(197,108)"/>
<path d="M0 0 C-0.33 0.99 -0.66 1.98 -1 3 C-3.06640625 3.94921875 -3.06640625 3.94921875 -5.5625 4.6875 C-6.38878906 4.93886719 -7.21507812 5.19023438 -8.06640625 5.44921875 C-8.70449219 5.63097656 -9.34257812 5.81273438 -10 6 C-10 5.34 -10 4.68 -10 4 C-9.34 4 -8.68 4 -8 4 C-7.67 3.01 -7.34 2.02 -7 1 C-2.25 0 -2.25 0 0 0 Z " fill="#A5584F" transform="translate(147,98)"/>
<path d="M0 0 C2.31 0.33 4.62 0.66 7 1 C7 2.32 7 3.64 7 5 C6.34 5 5.68 5 5 5 C5 6.32 5 7.64 5 9 C4.34 9 3.68 9 3 9 C3.0928125 7.6078125 3.0928125 7.6078125 3.1875 6.1875 C3.30894264 3.01604897 3.30894264 3.01604897 1.5 1.125 C1.005 0.75375 0.51 0.3825 0 0 Z " fill="#993034" transform="translate(224,205)"/>
<path d="M0 0 C1.65 0.33 3.3 0.66 5 1 C2.83312509 3.27521866 0.54379491 5.15794162 -2 7 C-2.66 6.67 -3.32 6.34 -4 6 C-4 5.34 -4 4.68 -4 4 C-3.34 4 -2.68 4 -2 4 C-2 3.34 -2 2.68 -2 2 C-1.34 2 -0.68 2 0 2 C0 1.34 0 0.68 0 0 Z " fill="#972C29" transform="translate(89,202)"/>
<path d="M0 0 C0.66 0 1.32 0 2 0 C1.67 1.32 1.34 2.64 1 4 C-1.64 4.66 -4.28 5.32 -7 6 C-7.33 4.68 -7.66 3.36 -8 2 C-5.36 2 -2.72 2 0 2 C0 1.34 0 0.68 0 0 Z " fill="#942924" transform="translate(123,146)"/>
<path d="M0 0 C0 1.32 0 2.64 0 4 C-1.32 4 -2.64 4 -4 4 C-4 4.66 -4 5.32 -4 6 C-5.32 6 -6.64 6 -8 6 C-8 5.34 -8 4.68 -8 4 C-7.34 4 -6.68 4 -6 4 C-6 3.34 -6 2.68 -6 2 C-2.25 0 -2.25 0 0 0 Z " fill="#B67475" transform="translate(29,130)"/>
<path d="M0 0 C3.00221784 4.50332676 4.31896025 8.57767579 4 14 C3.34 14 2.68 14 2 14 C2 12.02 2 10.04 2 8 C1.34 8 0.68 8 0 8 C0 5.36 0 2.72 0 0 Z " fill="#EBAFAC" transform="translate(261,86)"/>
<path d="M0 0 C0 1.32 0 2.64 0 4 C-1.98 4 -3.96 4 -6 4 C-6 4.66 -6 5.32 -6 6 C-7.32 5.67 -8.64 5.34 -10 5 C-8.71186658 4.16121545 -7.41936744 3.32913217 -6.125 2.5 C-5.40570313 2.0359375 -4.68640625 1.571875 -3.9453125 1.09375 C-2 0 -2 0 0 0 Z " fill="#B66868" transform="translate(81,18)"/>
<path d="M0 0 C0 0.66 0 1.32 0 2 C-0.66 2 -1.32 2 -2 2 C-2 2.66 -2 3.32 -2 4 C-3.98 4 -5.96 4 -8 4 C-8 4.66 -8 5.32 -8 6 C-9.65 6 -11.3 6 -13 6 C-9.40464172 2.97989905 -4.81374718 0 0 0 Z " fill="#BA7875" transform="translate(101,8)"/>
<path d="M0 0 C1.36125 0.12375 1.36125 0.12375 2.75 0.25 C1.125 2.25 1.125 2.25 -1.25 4.25 C-4.5 4.5 -4.5 4.5 -7.25 4.25 C-4.83923194 1.28290085 -3.90322061 0.30024774 0 0 Z " fill="#9D3E3D" transform="translate(112.25,119.75)"/>
<path d="M0 0 C2.31 0 4.62 0 7 0 C7.33 1.32 7.66 2.64 8 4 C8.66 4 9.32 4 10 4 C10 4.66 10 5.32 10 6 C6.00499382 4.6302836 3.19990508 2.74277578 0 0 Z " fill="#A85753" transform="translate(187,102)"/>
<path d="M0 0 C0.33 1.32 0.66 2.64 1 4 C0.34 4 -0.32 4 -1 4 C-1 5.98 -1 7.96 -1 10 C-1.66 10 -2.32 10 -3 10 C-3 10.66 -3 11.32 -3 12 C-3.66 12 -4.32 12 -5 12 C-4.54738642 10.56068883 -4.08767021 9.12361001 -3.625 7.6875 C-3.24214844 6.48673828 -3.24214844 6.48673828 -2.8515625 5.26171875 C-2 3 -2 3 0 0 Z " fill="#BE7E80" transform="translate(32,68)"/>
<path d="M0 0 C0 0.99 0 1.98 0 3 C-2.64 3.33 -5.28 3.66 -8 4 C-7.67 3.01 -7.34 2.02 -7 1 C-4.53721199 -0.231394 -2.7204945 -0.07159196 0 0 Z " fill="#A44847" transform="translate(121,28)"/>
<path d="M0 0 C2.64 0 5.28 0 8 0 C8 0.66 8 1.32 8 2 C5.36 2.66 2.72 3.32 0 4 C0 2.68 0 1.36 0 0 Z " fill="#A44449" transform="translate(167,242)"/>
<path d="M0 0 C0.90105469 0.19464844 1.80210938 0.38929688 2.73046875 0.58984375 C3.41753906 0.74582031 4.10460937 0.90179688 4.8125 1.0625 C4.8125 1.3925 4.8125 1.7225 4.8125 2.0625 C0.1925 2.3925 -4.4275 2.7225 -9.1875 3.0625 C-8.8575 2.0725 -8.5275 1.0825 -8.1875 0.0625 C-4.80475734 -1.06508089 -3.41971777 -0.75500262 0 0 Z " fill="#91231C" transform="translate(98.1875,167.9375)"/>
<path d="M0 0 C0.66 0 1.32 0 2 0 C2 0.66 2 1.32 2 2 C3.32 2 4.64 2 6 2 C6 1.34 6 0.68 6 0 C6.66 0 7.32 0 8 0 C8 1.32 8 2.64 8 4 C5.36 4 2.72 4 0 4 C0 2.68 0 1.36 0 0 Z " fill="#B15755" transform="translate(211,152)"/>
<path d="M0 0 C0.99 0 1.98 0 3 0 C3 0.66 3 1.32 3 2 C3.66 2 4.32 2 5 2 C5 2.66 5 3.32 5 4 C6.65 4 8.3 4 10 4 C9.67 5.32 9.34 6.64 9 8 C8.34 8 7.68 8 7 8 C7 7.34 7 6.68 7 6 C6.401875 5.7525 5.80375 5.505 5.1875 5.25 C2.71352479 3.83629988 1.56629745 2.34944617 0 0 Z " fill="#AC5453" transform="translate(218,126)"/>
<path d="M0 0 C0.33 0 0.66 0 1 0 C1 2.97 1 5.94 1 9 C0.34 9 -0.32 9 -1 9 C-1 9.66 -1 10.32 -1 11 C-1.66 11 -2.32 11 -3 11 C-2.69078116 9.54096742 -2.37751201 8.08279278 -2.0625 6.625 C-1.88847656 5.81289062 -1.71445312 5.00078125 -1.53515625 4.1640625 C-1 2 -1 2 0 0 Z " fill="#BF7677" transform="translate(26,81)"/>
<path d="M0 0 C0 0.66 0 1.32 0 2 C-0.66 2 -1.32 2 -2 2 C-2 2.66 -2 3.32 -2 4 C-4.64 4 -7.28 4 -10 4 C-10 3.34 -10 2.68 -10 2 C-3.375 0 -3.375 0 0 0 Z " fill="#BB7572" transform="translate(203,72)"/>
<path d="M0 0 C0 0.66 0 1.32 0 2 C-0.66 2 -1.32 2 -2 2 C-2 2.66 -2 3.32 -2 4 C-2.66 4 -3.32 4 -4 4 C-4 4.66 -4 5.32 -4 6 C-4.66 6 -5.32 6 -6 6 C-6 6.66 -6 7.32 -6 8 C-7.32 7.67 -8.64 7.34 -10 7 C-8.71372289 5.82739389 -7.42080217 4.6620717 -6.125 3.5 C-5.04605469 2.52546875 -5.04605469 2.52546875 -3.9453125 1.53125 C-2 0 -2 0 0 0 Z " fill="#B87C7A" transform="translate(71,24)"/>
<path d="M0 0 C0 0.66 0 1.32 0 2 C-1.32 2 -2.64 2 -4 2 C-4 1.34 -4 0.68 -4 0 C-5.98 0 -7.96 0 -10 0 C-10 -0.66 -10 -1.32 -10 -2 C-5.82412255 -3.39195915 -3.86525224 -1.82323219 0 0 Z " fill="#942E2E" transform="translate(123,244)"/>
<path d="M0 0 C0.66 0 1.32 0 2 0 C1.67 2.31 1.34 4.62 1 7 C-0.65 7.33 -2.3 7.66 -4 8 C-4 7.34 -4 6.68 -4 6 C-3.34 6 -2.68 6 -2 6 C-2 5.34 -2 4.68 -2 4 C-1.34 4 -0.68 4 0 4 C0 2.68 0 1.36 0 0 Z " fill="#972627" transform="translate(53,40)"/>
<path d="M0 0 C0.99 0.33 1.98 0.66 3 1 C-1.455 4.465 -1.455 4.465 -6 8 C-6.33 6.68 -6.66 5.36 -7 4 C-5.68 4 -4.36 4 -3 4 C-3 3.34 -3 2.68 -3 2 C-2.01 1.34 -1.02 0.68 0 0 Z " fill="#AB5755" transform="translate(208,38)"/>
<path d="M0 0 C0.66 0 1.32 0 2 0 C2 0.66 2 1.32 2 2 C2.66 2 3.32 2 4 2 C4 2.99 4 3.98 4 5 C3.01 5 2.02 5 1 5 C1.33 6.65 1.66 8.3 2 10 C0 8 0 8 -0.1953125 6.0546875 C-0.13020833 4.03645833 -0.06510417 2.01822917 0 0 Z " fill="#912322" transform="translate(57,134)"/>
<path d="M0 0 C2.97 0 5.94 0 9 0 C9 0.66 9 1.32 9 2 C9.66 2 10.32 2 11 2 C11 2.66 11 3.32 11 4 C7.37 3.01 3.74 2.02 0 1 C0 0.67 0 0.34 0 0 Z " fill="#A85D57" transform="translate(176,98)"/>
<path d="M0 0 C0.33 1.32 0.66 2.64 1 4 C0.34 4 -0.32 4 -1 4 C-1.33 5.65 -1.66 7.3 -2 9 C-2.99 9.33 -3.98 9.66 -5 10 C-5 9.34 -5 8.68 -5 8 C-4.34 8 -3.68 8 -3 8 C-3.0928125 6.8553125 -3.0928125 6.8553125 -3.1875 5.6875 C-3 3 -3 3 -1.5 1.1875 C-1.005 0.795625 -0.51 0.40375 0 0 Z " fill="#A85154" transform="translate(94,76)"/>
<path d="M0 0 C1.134375 0.020625 2.26875 0.04125 3.4375 0.0625 C2.125 2.0625 2.125 2.0625 0.4375 4.0625 C-0.5525 4.0625 -1.5425 4.0625 -2.5625 4.0625 C-2.5625 3.4025 -2.5625 2.7425 -2.5625 2.0625 C-3.2225 1.7325 -3.8825 1.4025 -4.5625 1.0625 C-3.5625 0.0625 -3.5625 0.0625 0 0 Z " fill="#A34B44" transform="translate(93.5625,41.9375)"/>
<path d="M0 0 C0.66 0 1.32 0 2 0 C0.63016497 3.16115776 0.0109362 3.9927092 -3 6 C-3.99 6 -4.98 6 -6 6 C-6 5.34 -6 4.68 -6 4 C-5.34 4 -4.68 4 -4 4 C-4 3.34 -4 2.68 -4 2 C-2.68 2 -1.36 2 0 2 C0 1.34 0 0.68 0 0 Z " fill="#9A3431" transform="translate(75,22)"/>
<path d="M0 0 C0 0.66 0 1.32 0 2 C-0.66 2 -1.32 2 -2 2 C-2 2.66 -2 3.32 -2 4 C-2.66 4 -3.32 4 -4 4 C-4 4.66 -4 5.32 -4 6 C-5.32 6 -6.64 6 -8 6 C-8 5.34 -8 4.68 -8 4 C-2.58823529 0 -2.58823529 0 0 0 Z " fill="#B4706E" transform="translate(97,196)"/>
<path d="M0 0 C2.64 0 5.28 0 8 0 C8 0.66 8 1.32 8 2 C8.66 2 9.32 2 10 2 C10 2.66 10 3.32 10 4 C6.7 3.01 3.4 2.02 0 1 C0 0.67 0 0.34 0 0 Z " fill="#AB5352" transform="translate(121,172)"/>
<path d="M0 0 C0.66 0 1.32 0 2 0 C2 0.66 2 1.32 2 2 C3.2065625 2.433125 3.2065625 2.433125 4.4375 2.875 C7 4 7 4 8 6 C6.68 6 5.36 6 4 6 C4 5.34 4 4.68 4 4 C2.68 4 1.36 4 0 4 C0 2.68 0 1.36 0 0 Z " fill="#BA7A76" transform="translate(65,138)"/>
<path d="M0 0 C0 0.66 0 1.32 0 2 C-0.66 2 -1.32 2 -2 2 C-2 2.66 -2 3.32 -2 4 C-2.66 4 -3.32 4 -4 4 C-4 4.66 -4 5.32 -4 6 C-5.32 6 -6.64 6 -8 6 C-8 5.34 -8 4.68 -8 4 C-2.58823529 0 -2.58823529 0 0 0 Z " fill="#B46868" transform="translate(145,128)"/>
<path d="M0 0 C0.66 0 1.32 0 2 0 C2 1.32 2 2.64 2 4 C0.68 4 -0.64 4 -2 4 C-2 4.66 -2 5.32 -2 6 C-2.66 6 -3.32 6 -4 6 C-4 4.68 -4 3.36 -4 2 C-2.68 2 -1.36 2 0 2 C0 1.34 0 0.68 0 0 Z " fill="#9A2E30" transform="translate(99,74)"/>
<path d="M0 0 C1.65 0 3.3 0 5 0 C3.73220443 2.53559113 2.08937386 4.10056922 0 6 C-0.66 6 -1.32 6 -2 6 C-2 4.68 -2 3.36 -2 2 C-1.34 2 -0.68 2 0 2 C0 1.34 0 0.68 0 0 Z " fill="#992422" transform="translate(105,68)"/>
<path d="M0 0 C0 0.66 0 1.32 0 2 C-1.32 2 -2.64 2 -4 2 C-4 3.32 -4 4.64 -4 6 C-5.32 6 -6.64 6 -8 6 C-8 5.01 -8 4.02 -8 3 C-7.01 3 -6.02 3 -5 3 C-5 2.34 -5 1.68 -5 1 C-2 0 -2 0 0 0 Z " fill="#962521" transform="translate(205,40)"/>
<path d="M0 0 C2.31 0.33 4.62 0.66 7 1 C4.3144406 3.6855594 1.62378672 4.06049974 -2 5 C-1.34 3.35 -0.68 1.7 0 0 Z " fill="#A33637" transform="translate(208,35)"/>
<path d="M0 0 C0 0.66 0 1.32 0 2 C-0.66 2 -1.32 2 -2 2 C-2 2.66 -2 3.32 -2 4 C-2.66 4 -3.32 4 -4 4 C-4 4.66 -4 5.32 -4 6 C-5.32 6 -6.64 6 -8 6 C-8 5.34 -8 4.68 -8 4 C-2.58823529 0 -2.58823529 0 0 0 Z " fill="#B27170" transform="translate(199,206)"/>
<path d="M0 0 C0 0.66 0 1.32 0 2 C-0.66 2 -1.32 2 -2 2 C-2 2.66 -2 3.32 -2 4 C-2.66 4 -3.32 4 -4 4 C-4 4.66 -4 5.32 -4 6 C-4.66 6 -5.32 6 -6 6 C-5.67 4.35 -5.34 2.7 -5 1 C-2 0 -2 0 0 0 Z " fill="#942520" transform="translate(69,184)"/>
<path d="M0 0 C0 1.32 0 2.64 0 4 C-2.64 4 -5.28 4 -8 4 C-5.60952106 1.60952106 -3.45854519 0 0 0 Z " fill="#BC7574" transform="translate(211,68)"/>
<path d="M0 0 C2.66666667 1.33333333 5.33333333 2.66666667 8 4 C8 4.66 8 5.32 8 6 C6.68 6 5.36 6 4 6 C4 5.34 4 4.68 4 4 C3.34 4 2.68 4 2 4 C2 3.34 2 2.68 2 2 C1.34 2 0.68 2 0 2 C0 1.34 0 0.68 0 0 Z " fill="#B46E6D" transform="translate(211,22)"/>
<path d="M0 0 C0 0.66 0 1.32 0 2 C-0.66 2 -1.32 2 -2 2 C-2 2.66 -2 3.32 -2 4 C-2.66 4 -3.32 4 -4 4 C-4 4.66 -4 5.32 -4 6 C-5.32 5.67 -6.64 5.34 -8 5 C-2.25 0 -2.25 0 0 0 Z " fill="#BC7A77" transform="translate(89,202)"/>
<path d="M0 0 C1.32 0.33 2.64 0.66 4 1 C1.03 3.475 1.03 3.475 -2 6 C-2.33 5.34 -2.66 4.68 -3 4 C-2.67 3.34 -2.34 2.68 -2 2 C-1.34 2 -0.68 2 0 2 C0 1.34 0 0.68 0 0 Z " fill="#AC5657" transform="translate(57,194)"/>
<path d="M0 0 C2.31 0 4.62 0 7 0 C7.33 1.32 7.66 2.64 8 4 C2.25 2.25 2.25 2.25 0 0 Z " fill="#AD5355" transform="translate(235,180)"/>
<path d="M0 0 C0 0.66 0 1.32 0 2 C-0.66 2 -1.32 2 -2 2 C-2 2.66 -2 3.32 -2 4 C-2.66 4 -3.32 4 -4 4 C-4 4.66 -4 5.32 -4 6 C-5.32 5.67 -6.64 5.34 -8 5 C-2.25 0 -2.25 0 0 0 Z " fill="#B56C6B" transform="translate(137,134)"/>
<path d="M0 0 C1.65 0 3.3 0 5 0 C5 0.99 5 1.98 5 3 C3.02 3.33 1.04 3.66 -1 4 C-0.67 2.68 -0.34 1.36 0 0 Z " fill="#A9605B" transform="translate(28,102)"/>
<path d="M0 0 C0 0.66 0 1.32 0 2 C-0.66 2 -1.32 2 -2 2 C-2 2.66 -2 3.32 -2 4 C-2.66 4 -3.32 4 -4 4 C-4 4.66 -4 5.32 -4 6 C-5.32 5.67 -6.64 5.34 -8 5 C-2.25 0 -2.25 0 0 0 Z " fill="#AC6C68" transform="translate(225,58)"/>
<path d="M0 0 C3.36591866 1.44253657 5.51047079 3.33264727 8 6 C6.68 6 5.36 6 4 6 C4 5.34 4 4.68 4 4 C3.34 4 2.68 4 2 4 C2 3.34 2 2.68 2 2 C1.34 2 0.68 2 0 2 C0 1.34 0 0.68 0 0 Z " fill="#A1605E" transform="translate(141,56)"/>
<path d="M0 0 C2.31 0.33 4.62 0.66 7 1 C7 1.99 7 2.98 7 4 C3.73045798 3.43628586 2.17424117 2.50037734 0 0 Z " fill="#9C473F" transform="translate(168,46)"/>
<path d="M0 0 C0 1.32 0 2.64 0 4 C-1.98 4 -3.96 4 -6 4 C-6 3.34 -6 2.68 -6 2 C-2.25 0 -2.25 0 0 0 Z " fill="#B06E6A" transform="translate(205,202)"/>
<path d="M0 0 C0 0.66 0 1.32 0 2 C-2.64 2 -5.28 2 -8 2 C-8 1.34 -8 0.68 -8 0 C-4.71023192 -1.09658936 -3.28696233 -0.79953138 0 0 Z " fill="#972523" transform="translate(129,170)"/>
<path d="M0 0 C1.32 0 2.64 0 4 0 C4 0.66 4 1.32 4 2 C5.32 2 6.64 2 8 2 C8 2.66 8 3.32 8 4 C2.25 3.125 2.25 3.125 0 2 C0 1.34 0 0.68 0 0 Z " fill="#9A302C" transform="translate(65,142)"/>
<path d="M0 0 C1.32 0.33 2.64 0.66 4 1 C1.03 3.475 1.03 3.475 -2 6 C-2 4.68 -2 3.36 -2 2 C-1.34 2 -0.68 2 0 2 C0 1.34 0 0.68 0 0 Z " fill="#972327" transform="translate(25,134)"/>
<path d="M0 0 C2.64 0.33 5.28 0.66 8 1 C8 2.32 8 3.64 8 5 C7.34 5 6.68 5 6 5 C5.67 4.34 5.34 3.68 5 3 C2.47266765 2.34444881 2.47266765 2.34444881 0 2 C0 1.34 0 0.68 0 0 Z " fill="#922A27" transform="translate(175,127)"/>
<path d="M0 0 C1.32 0 2.64 0 4 0 C3.6875 1.9375 3.6875 1.9375 3 4 C2.01 4.33 1.02 4.66 0 5 C0 3.35 0 1.7 0 0 Z " fill="#962B2D" transform="translate(151,124)"/>
<path d="M0 0 C0.99 0 1.98 0 3 0 C3 1.65 3 3.3 3 5 C2.01 5.33 1.02 5.66 0 6 C0 4.02 0 2.04 0 0 Z " fill="#953E39" transform="translate(27,80)"/>
<path d="M0 0 C2.475 0.99 2.475 0.99 5 2 C4.67 3.32 4.34 4.64 4 6 C3.34 6 2.68 6 2 6 C2 4.68 2 3.36 2 2 C1.34 2 0.68 2 0 2 C0 1.34 0 0.68 0 0 Z " fill="#B78482" transform="translate(219,28)"/>
<path d="" fill="#FFFFFF" transform="translate(0,0)"/>
<path d="" fill="#FFFFFF" transform="translate(0,0)"/>
<path d="" fill="#FFFFFF" transform="translate(0,0)"/>
<path d="" fill="#FFFFFF" transform="translate(0,0)"/>
<path d="" fill="#FFFFFF" transform="translate(0,0)"/>
<path d="" fill="#FFFFFF" transform="translate(0,0)"/>
<path d="" fill="#FFFFFF" transform="translate(0,0)"/>
<path d="" fill="#FFFFFF" transform="translate(0,0)"/>
<path d="" fill="#FFFFFF" transform="translate(0,0)"/>
<path d="" fill="#FFFFFF" transform="translate(0,0)"/>
<path d="" fill="#FFFFFF" transform="translate(0,0)"/>
<path d="" fill="#FFFFFF" transform="translate(0,0)"/>
<path d="" fill="#FFFFFF" transform="translate(0,0)"/>
<path d="" fill="#FFFFFF" transform="translate(0,0)"/>
<path d="" fill="#FFFFFF" transform="translate(0,0)"/>
<path d="" fill="#FFFFFF" transform="translate(0,0)"/>
<path d="" fill="#FFFFFF" transform="translate(0,0)"/>
<path d="" fill="#FFFFFF" transform="translate(0,0)"/>
<path d="" fill="#FFFFFF" transform="translate(0,0)"/>
<path d="" fill="#FFFFFF" transform="translate(0,0)"/>
<path d="" fill="#FFFFFF" transform="translate(0,0)"/>
<path d="" fill="#FFFFFF" transform="translate(0,0)"/>
<path d="" fill="#FFFFFF" transform="translate(0,0)"/>
<path d="" fill="#FFFFFF" transform="translate(0,0)"/>
<path d="" fill="#FFFFFF" transform="translate(0,0)"/>
<path d="" fill="#FFFFFF" transform="translate(0,0)"/>
<path d="" fill="#FFFFFF" transform="translate(0,0)"/>
<path d="" fill="#FFFFFF" transform="translate(0,0)"/>
<path d="" fill="#FFFFFF" transform="translate(0,0)"/>
<path d="" fill="#FFFFFF" transform="translate(0,0)"/>
<path d="" fill="#FFFFFF" transform="translate(0,0)"/>
<path d="" fill="#FFFFFF" transform="translate(0,0)"/>
<path d="" fill="#FFFFFF" transform="translate(0,0)"/>
<path d="" fill="#FFFFFF" transform="translate(0,0)"/>
<path d="" fill="#FFFFFF" transform="translate(0,0)"/>
<path d="" fill="#FFFFFF" transform="translate(0,0)"/>
<path d="" fill="#FFFFFF" transform="translate(0,0)"/>
<path d="" fill="#FFFFFF" transform="translate(0,0)"/>
<path d="" fill="#FFFFFF" transform="translate(0,0)"/>
<path d="" fill="#FFFFFF" transform="translate(0,0)"/>
<path d="" fill="#FFFFFF" transform="translate(0,0)"/>
<path d="" fill="#FFFFFF" transform="translate(0,0)"/>
<path d="" fill="#FFFFFF" transform="translate(0,0)"/>
<path d="" fill="#FFFFFF" transform="translate(0,0)"/>
<path d="" fill="#FFFFFF" transform="translate(0,0)"/>
<path d="" fill="#FFFFFF" transform="translate(0,0)"/>
<path d="" fill="#FFFFFF" transform="translate(0,0)"/>
<path d="" fill="#FFFFFF" transform="translate(0,0)"/>
<path d="" fill="#FFFFFF" transform="translate(0,0)"/>
<path d="" fill="#FFFFFF" transform="translate(0,0)"/>
<path d="" fill="#FFFFFF" transform="translate(0,0)"/>
<path d="" fill="#FFFFFF" transform="translate(0,0)"/>
<path d="" fill="#FFFFFF" transform="translate(0,0)"/>
<path d="" fill="#FFFFFF" transform="translate(0,0)"/>
<path d="" fill="#FFFFFF" transform="translate(0,0)"/>
<path d="" fill="#FFFFFF" transform="translate(0,0)"/>
<path d="" fill="#FFFFFF" transform="translate(0,0)"/>
<path d="" fill="#FFFFFF" transform="translate(0,0)"/>
</svg>
