<svg width="27" height="31" viewBox="0 0 27 31" fill="none" xmlns="http://www.w3.org/2000/svg">
<g clip-path="url(#clip0_30_382)">
<path d="M20.8008 3.36332C21.1465 2.56059 20.8887 1.62309 20.1797 1.10746C19.4707 0.591839 18.5039 0.638714 17.8418 1.21293L2.84178 14.3379C2.25585 14.8536 2.04491 15.6797 2.3203 16.4063C2.59569 17.1329 3.29882 17.625 4.07811 17.625H10.6113L6.10546 28.1368C5.75975 28.9395 6.01757 29.877 6.72655 30.3926C7.43553 30.9082 8.40233 30.8614 9.06444 30.2872L24.0644 17.1622C24.6504 16.6465 24.8613 15.8204 24.5859 15.0938C24.3105 14.3672 23.6133 13.8809 22.8281 13.8809H16.2949L20.8008 3.36332Z" fill="#60A5FA"/>
</g>
<defs>
<clipPath id="clip0_30_382">
<path d="M0.328125 0.75H26.5781V30.75H0.328125V0.75Z" fill="white"/>
</clipPath>
</defs>
</svg>
