<svg width="16" height="16" viewBox="0 0 16 16" fill="none" xmlns="http://www.w3.org/2000/svg">
<g clip-path="url(#clip0_6645_6748)">
<path d="M14.2702 4.42121C15.2089 6.07326 15.6783 6.89929 15.672 7.80274C15.6658 8.70619 15.1852 9.52568 14.2238 11.1647L14.0179 11.5157C13.0565 13.1547 12.5759 13.9742 11.7903 14.4205C11.0048 14.8669 10.0548 14.8604 8.1547 14.8473L7.74771 14.8445C5.84763 14.8314 4.89759 14.8249 4.11829 14.3678C3.33898 13.9107 2.86962 13.0847 1.93089 11.4326L1.72982 11.0787C0.7911 9.4267 0.321739 8.60067 0.327951 7.69722C0.334164 6.79377 0.814842 5.97428 1.7762 4.3353L1.98211 3.98423C2.94347 2.34525 3.42415 1.52576 4.20967 1.07941C4.99518 0.633069 5.94522 0.639602 7.8453 0.652668L8.25229 0.655467C10.1524 0.668533 11.1024 0.675066 11.8817 1.13217C12.661 1.58928 13.1304 2.4153 14.0691 4.06735L14.2702 4.42121Z" fill="#84CC16"/>
<path d="M8.87099 3.50433H7.63013H5.62577C5.61075 3.50433 5.59657 3.51127 5.58735 3.52313L4.92427 4.37615C4.60509 4.78308 4.16262 5.34755 3.94101 5.63053L3.54844 6.1318C3.54173 6.14037 3.53809 6.15094 3.53809 6.16182L3.53851 7.67494L3.53894 9.18799C3.53894 9.1989 3.54261 9.2095 3.54937 9.21808L4.18279 10.0226C4.52658 10.4593 5.01744 11.1441 5.04577 11.1837L5.04861 11.1872L5.77239 12.0158C5.78163 12.0264 5.79499 12.0324 5.80904 12.0324H7.63215H8.8674H10.0822C10.0953 12.0324 10.1078 12.0272 10.117 12.0178L10.1551 11.9789C10.2139 11.9189 12.1269 9.47354 12.4928 9.00569C12.5176 8.97397 12.4951 8.92806 12.4548 8.92762C12.2273 8.92516 11.6298 8.91976 10.9333 8.92189L9.33717 8.9268C9.32232 8.92685 9.30831 8.93367 9.29911 8.94533L8.48002 9.9835C8.10326 10.461 7.64698 11.0934 7.49625 11.3038C7.47393 11.3349 7.49504 11.3776 7.53333 11.3791C7.60251 11.3816 7.70621 11.3846 7.8216 11.3846H8.17333C8.18882 11.3846 8.20338 11.3772 8.21255 11.3647L9.00115 10.2913C9.33224 9.86906 9.62068 9.5187 9.6421 9.51271C9.6944 9.49804 10.9002 9.50239 11.125 9.51804L11.2119 9.52409C11.2508 9.5268 11.2709 9.57196 11.2468 9.60267L10.5937 10.4354C10.2034 10.9331 9.86529 11.3602 9.84241 11.3846L9.81522 11.4135C9.80602 11.4233 9.79318 11.4288 9.77975 11.4288H7.97398H6.17028C6.15564 11.4288 6.14177 11.4222 6.13253 11.4109L4.19371 9.02791C4.18665 9.01923 4.18279 9.00838 4.18279 8.9972V6.33476C4.18279 6.32379 4.1865 6.31315 4.19331 6.30455L5.91835 4.12637C5.92758 4.11472 5.94163 4.10792 5.9565 4.10792H7.98368H9.79653C9.81149 4.10792 9.82562 4.1148 9.83485 4.12658L10.5482 5.03764C10.9486 5.54897 11.283 5.97028 11.2915 5.97384C11.3733 6.00846 11.2086 6.01586 10.4558 6.01138L9.62808 6.00644C9.61331 6.00635 9.59938 5.99956 9.59021 5.98797L9.03446 5.28589C8.72083 4.88966 8.18817 4.2396 8.16234 4.21014L8.12991 4.17317C8.12067 4.16264 8.10734 4.1566 8.09332 4.1566H7.74207C7.63046 4.1566 7.53181 4.16124 7.465 4.16549C7.42638 4.16794 7.40713 4.21199 7.43137 4.24216C7.59743 4.44885 8.09852 5.07315 8.47988 5.55474L9.30852 6.60116C9.31775 6.61282 9.3318 6.61962 9.34667 6.61962H10.9501H12.475C12.5159 6.61962 12.5386 6.5721 12.5127 6.54029L12.51 6.53687C12.473 6.49135 11.9406 5.81451 11.3268 5.03277C10.713 4.25103 10.1885 3.58732 10.1613 3.55788L10.1263 3.51998C10.1171 3.51001 10.1041 3.50433 10.0905 3.50433H8.87099Z" fill="white" stroke="white" stroke-width="0.594933"/>
</g>
<defs>
<clipPath id="clip0_6645_6748">
<rect width="16" height="16" fill="white"/>
</clipPath>
</defs>
</svg>
