<svg width="16" height="16" viewBox="0 0 16 16" fill="none" xmlns="http://www.w3.org/2000/svg">
    <path d="M4.57404 3.41909L4.10081 3.76325L4.51457 4.17701L11.8238 11.4862L12.2283 11.8908L12.5751 11.4357C13.282 10.5079 13.7215 9.31779 13.7215 8.00016C13.7215 4.87512 11.1709 2.27928 8.00065 2.27928C6.71945 2.27928 5.5338 2.72108 4.57404 3.41909ZM11.4362 12.5746L11.8913 12.2279L11.4867 11.8233L4.1775 4.51408L3.76374 4.10032L3.41958 4.57355C2.72157 5.53331 2.27977 6.71896 2.27977 8.00016C2.27977 11.1704 4.87561 13.721 8.00065 13.721C9.31828 13.721 10.5084 13.2815 11.4362 12.5746ZM8.00065 1.8335C11.4193 1.8335 14.1673 4.58153 14.1673 8.00016C14.1673 11.4188 11.4193 14.1668 8.00065 14.1668C4.58201 14.1668 1.83398 11.4188 1.83398 8.00016C1.83398 4.58153 4.58201 1.8335 8.00065 1.8335Z"
          fill="#212429" stroke="#DF320C"/>
</svg>
