<svg width="24" height="24" viewBox="0 0 24 24" fill="none" xmlns="http://www.w3.org/2000/svg">
<g id="copy">
<path id="Vector" d="M16.0005 8V6C16.0005 5.46957 15.7898 4.96086 15.4147 4.58579C15.0396 4.21071 14.5309 4 14.0005 4H6.00049C5.47006 4 4.96135 4.21071 4.58627 4.58579C4.2112 4.96086 4.00049 5.46957 4.00049 6V14C4.00049 14.5304 4.2112 15.0391 4.58627 15.4142C4.96135 15.7893 5.47006 16 6.00049 16H8.00049M10.0005 8H18.0005C19.1051 8 20.0005 8.89543 20.0005 10V18C20.0005 19.1046 19.1051 20 18.0005 20H10.0005C8.89592 20 8.00049 19.1046 8.00049 18V10C8.00049 8.89543 8.89592 8 10.0005 8Z" stroke="#64748B" stroke-width="1.5" stroke-linecap="round" stroke-linejoin="round"/>
</g>
</svg>
