<svg xmlns="http://www.w3.org/2000/svg" width="19" height="18" viewBox="0 0 19 18" fill="none">
  <path fill-rule="evenodd" clip-rule="evenodd" d="M9.75 17.1199C14.2346 17.1199 17.87 13.4844 17.87 8.99988C17.87 4.51533 14.2346 0.879883 9.75 0.879883C5.26545 0.879883 1.63 4.51533 1.63 8.99988C1.63 13.4844 5.26545 17.1199 9.75 17.1199ZM10.7283 16.4568C10.4081 16.4984 10.0815 16.5199 9.75 16.5199C5.59682 16.5199 2.23 13.1531 2.23 8.99988C2.23 7.14585 2.90096 5.44853 4.0133 4.13748C4.0205 4.21689 4.03074 4.31573 4.04331 4.41355C4.05969 4.54096 4.0826 4.68882 4.11326 4.78461C4.15365 4.91085 4.28874 4.98045 4.41498 4.94005C4.54123 4.89965 4.61082 4.76456 4.57042 4.63832C4.55499 4.59011 4.53631 4.48398 4.5194 4.35238C4.50336 4.22752 4.49126 4.09956 4.48511 4.02079C4.47703 3.91727 4.40441 3.83424 4.3098 3.80808C4.50667 3.60185 4.71515 3.4068 4.93418 3.22398C4.93449 3.23087 4.9351 3.23781 4.93602 3.24478C4.94625 3.32244 4.96506 3.44593 4.98875 3.5677C5.01093 3.6817 5.04209 3.82017 5.08192 3.91162C5.13485 4.03315 5.27626 4.08876 5.39779 4.03584C5.51931 3.98292 5.57493 3.8415 5.522 3.71997C5.50605 3.68335 5.48293 3.59434 5.45991 3.47603C5.43841 3.36549 5.4211 3.25183 5.41191 3.18207C5.39899 3.08408 5.32866 3.00772 5.23924 2.98241C5.43977 2.83184 5.64808 2.69107 5.86345 2.5608L5.86386 2.56438C6.17303 5.09746 8.06966 11.2337 13.199 15.6841C13.0031 15.7854 12.8022 15.8783 12.5968 15.9624C12.6038 15.8741 12.5617 15.7854 12.4805 15.7369C12.4456 15.7161 12.374 15.6548 12.2851 15.5671C12.2022 15.4854 12.1215 15.3983 12.0735 15.3439C11.9856 15.2447 11.834 15.2354 11.7347 15.3233C11.6354 15.4111 11.6262 15.5628 11.714 15.6621C11.768 15.723 11.8562 15.8183 11.9481 15.9089C12.0191 15.9789 12.106 16.06 12.1855 16.1167C11.9096 16.2111 11.6266 16.2899 11.3374 16.352C11.3163 16.3013 11.2778 16.2575 11.2251 16.2305C11.1888 16.212 11.1134 16.1554 11.019 16.0738C10.9309 15.9976 10.8448 15.916 10.7932 15.8649C10.6991 15.7716 10.5472 15.7723 10.4538 15.8664C10.3605 15.9605 10.3612 16.1125 10.4553 16.2058C10.5132 16.2631 10.6073 16.3524 10.705 16.4368L10.7283 16.4568ZM13.6007 15.4605C13.5901 15.4115 13.5641 15.3653 13.5233 15.3299C8.49687 10.9746 6.63894 4.95284 6.34032 2.50622C6.33212 2.43906 6.29693 2.38178 6.24693 2.34393C6.46583 2.22849 6.69111 2.12352 6.92212 2.02971C6.93384 2.14345 6.95393 2.30828 6.98005 2.47094C7.00744 2.64144 7.04534 2.83592 7.09498 2.96002C7.14421 3.08308 7.28388 3.14294 7.40695 3.09372C7.53002 3.04449 7.58988 2.90482 7.54065 2.78175C7.51349 2.71385 7.48206 2.56965 7.45398 2.39482C7.42717 2.22788 7.40696 2.05688 7.39668 1.95158C7.39361 1.92004 7.38455 1.89052 7.37076 1.86404C7.62115 1.78059 7.8774 1.70996 8.13872 1.65291C8.1083 1.69938 8.09378 1.75657 8.10169 1.81594C8.11672 1.92884 8.14446 2.10898 8.17936 2.28626C8.21272 2.45569 8.25743 2.64871 8.3114 2.77099C8.36492 2.89225 8.50661 2.94717 8.62787 2.89365C8.74913 2.84013 8.80405 2.69844 8.75053 2.57718C8.721 2.51027 8.68453 2.36727 8.65032 2.19353C8.61766 2.02764 8.59145 1.85746 8.57749 1.75258C8.56822 1.68302 8.53004 1.62441 8.47665 1.58724C8.89055 1.51665 9.31598 1.47988 9.75 1.47988C13.9032 1.47988 17.27 4.8467 17.27 8.99988C17.27 10.9087 16.5588 12.6515 15.3869 13.9776C15.367 13.9391 15.3366 13.9055 15.2967 13.8817C15.2617 13.8609 15.1902 13.7995 15.1012 13.7119C15.0183 13.6302 14.9377 13.543 14.8896 13.4887C14.8018 13.3895 14.6501 13.3802 14.5508 13.4681C14.4516 13.5559 14.4423 13.7076 14.5302 13.8069C14.5841 13.8678 14.6723 13.9631 14.7643 14.0537C14.8501 14.1384 14.9594 14.2394 15.0506 14.2938C15.0593 14.299 15.0682 14.3036 15.0772 14.3076C14.8904 14.4951 14.6937 14.6727 14.4881 14.8398C14.471 14.7917 14.4385 14.7487 14.3923 14.7189C14.3581 14.6968 14.2887 14.633 14.2029 14.5422C14.1229 14.4577 14.0454 14.3678 13.9993 14.3118C13.915 14.2095 13.7637 14.195 13.6614 14.2793C13.5591 14.3636 13.5446 14.5148 13.6289 14.6171C13.6807 14.68 13.7654 14.7782 13.8541 14.872C13.9347 14.9573 14.0369 15.0588 14.1246 15.1173C13.955 15.2387 13.7803 15.3533 13.6007 15.4605ZM7.53465 3.72679C7.66361 3.69617 7.79299 3.77588 7.82361 3.90484C7.87296 4.11261 7.96402 4.45338 8.07545 4.79459C8.18877 5.14159 8.31619 5.46696 8.4343 5.65818C8.50395 5.77095 8.469 5.91884 8.35623 5.98849C8.24346 6.05814 8.09557 6.02319 8.02592 5.91042C7.87522 5.66644 7.73331 5.29314 7.61917 4.9436C7.50313 4.58828 7.40859 4.23466 7.3566 4.01576C7.32598 3.8868 7.40569 3.75742 7.53465 3.72679ZM4.89584 6.03342C4.86604 5.90427 4.73718 5.82373 4.60802 5.85353C4.47887 5.88333 4.39833 6.01219 4.42813 6.14135C4.46738 6.31146 4.53863 6.58575 4.62612 6.8615C4.71179 7.13148 4.81971 7.42477 4.93619 7.61888C5.0044 7.73253 5.15182 7.76938 5.26548 7.70117C5.37913 7.63297 5.41598 7.48554 5.34777 7.37189C5.26266 7.23005 5.16858 6.98402 5.08364 6.71633C5.00054 6.4544 4.93258 6.19267 4.89584 6.03342ZM8.75021 3.42359C8.87871 3.39107 9.00924 3.46888 9.04176 3.59737C9.08135 3.75377 9.15336 4.01042 9.23942 4.26678C9.32736 4.52876 9.42312 4.76934 9.50699 4.90705C9.57593 5.02026 9.54004 5.16793 9.42683 5.23687C9.31362 5.30581 9.16596 5.26992 9.09702 5.15671C8.98274 4.96904 8.87291 4.68329 8.78438 4.41954C8.69395 4.15018 8.61859 3.88171 8.57644 3.71514C8.54391 3.58665 8.62172 3.45612 8.75021 3.42359ZM5.8561 5.21608C5.82593 5.08701 5.69684 5.00684 5.56777 5.03702C5.4387 5.06719 5.35853 5.19628 5.3887 5.32535C5.42975 5.50095 5.50313 5.78433 5.59098 6.06867C5.67715 6.34754 5.78328 6.6476 5.89278 6.84399C5.95733 6.95976 6.1035 7.00129 6.21927 6.93674C6.33504 6.8722 6.37657 6.72602 6.31202 6.61025C6.2293 6.46188 6.13539 6.20465 6.04959 5.92696C5.96547 5.65474 5.89496 5.3823 5.8561 5.21608ZM8.53436 6.51545C8.65865 6.46941 8.79674 6.53286 8.84277 6.65715C8.91694 6.8574 9.04864 7.18462 9.20061 7.50981C9.35516 7.84051 9.52109 8.14804 9.66151 8.32353C9.74432 8.42703 9.72755 8.57806 9.62405 8.66087C9.52056 8.74368 9.36952 8.72691 9.28671 8.62341C9.10755 8.3995 8.92144 8.04616 8.76576 7.71304C8.6075 7.37441 8.4708 7.03485 8.39265 6.82386C8.34662 6.69957 8.41006 6.56148 8.53436 6.51545ZM5.91276 8.74331C5.86943 8.61804 5.73276 8.55161 5.60749 8.59494C5.48222 8.63827 5.4158 8.77494 5.45913 8.90021C5.51535 9.06277 5.61333 9.32415 5.72633 9.58515C5.83697 9.84071 5.97059 10.1163 6.10012 10.2937C6.17829 10.4007 6.32843 10.4242 6.43548 10.346C6.54252 10.2678 6.56593 10.1177 6.48776 10.0106C6.39259 9.8803 6.27674 9.64834 6.16682 9.39444C6.05924 9.14597 5.96557 8.896 5.91276 8.74331ZM9.75433 6.14266C9.87856 6.09643 10.0167 6.15967 10.063 6.2839C10.121 6.43992 10.223 6.69492 10.3384 6.94804C10.4562 7.20641 10.5794 7.44324 10.6784 7.57601C10.7577 7.68226 10.7358 7.83264 10.6295 7.91188C10.5233 7.99113 10.3729 7.96923 10.2937 7.86298C10.1612 7.68534 10.0201 7.40686 9.90169 7.14721C9.78087 6.8823 9.67459 6.61656 9.61309 6.45128C9.56687 6.32705 9.63011 6.18888 9.75433 6.14266ZM6.90294 7.99116C6.85672 7.86693 6.71854 7.80369 6.59431 7.84992C6.47009 7.89614 6.40685 8.03431 6.45307 8.15854C6.51456 8.32382 6.62085 8.58956 6.74167 8.85447C6.86008 9.11412 7.00116 9.3926 7.13365 9.57024C7.2129 9.67649 7.36327 9.69839 7.46952 9.61914C7.57577 9.5399 7.59767 9.38952 7.51842 9.28327C7.41939 9.1505 7.29623 8.91367 7.17839 8.6553C7.06296 8.40218 6.96099 8.14718 6.90294 7.99116ZM9.99771 9.36361C10.1174 9.30656 10.2606 9.3573 10.3176 9.47694C10.3921 9.63306 10.5214 9.88758 10.6651 10.1389C10.8116 10.3953 10.9625 10.6293 11.0796 10.7579C11.1688 10.8559 11.1617 11.0077 11.0637 11.0969C10.9657 11.1862 10.8139 11.1791 10.7247 11.081C10.5688 10.9099 10.3958 10.635 10.2483 10.3771C10.098 10.1141 9.96324 9.84892 9.88438 9.68354C9.82733 9.56389 9.87807 9.42066 9.99771 9.36361ZM7.21274 11.3064C7.15364 11.1878 7.00955 11.1395 6.89091 11.1986C6.77227 11.2577 6.724 11.4018 6.7831 11.5204C6.8615 11.6778 6.99568 11.9298 7.14597 12.1794C7.29315 12.4238 7.46735 12.6856 7.6263 12.8482C7.71895 12.9429 7.8709 12.9447 7.96569 12.852C8.06047 12.7594 8.0622 12.6074 7.96955 12.5126C7.85299 12.3934 7.70314 12.1741 7.55716 11.9317C7.4143 11.6945 7.28621 11.4539 7.21274 11.3064ZM11.0846 8.71768C11.2036 8.65938 11.3474 8.70862 11.4057 8.82766C11.4791 8.97767 11.6056 9.22199 11.7442 9.4632C11.8856 9.70922 12.0296 9.93426 12.1384 10.058C12.2259 10.1575 12.2161 10.3092 12.1166 10.3967C12.017 10.4842 11.8653 10.4744 11.7778 10.3748C11.6344 10.2116 11.4699 9.94917 11.3281 9.70237C11.1835 9.45076 11.052 9.19695 10.9746 9.03877C10.9163 8.91973 10.9655 8.77597 11.0846 8.71768ZM8.33013 10.6902C8.26843 10.5729 8.12331 10.5279 8.006 10.5896C7.88868 10.6513 7.8436 10.7964 7.9053 10.9137C7.98831 11.0715 8.12959 11.3242 8.28622 11.5741C8.43971 11.8189 8.61951 12.0801 8.77949 12.241C8.87293 12.335 9.02489 12.3355 9.1189 12.2421C9.21291 12.1486 9.21338 11.9967 9.11994 11.9027C9.00107 11.7831 8.84544 11.5625 8.69293 11.3191C8.54356 11.0808 8.40827 10.8388 8.33013 10.6902ZM11.6705 11.9549C11.7829 11.8845 11.931 11.9185 12.0014 12.0308C12.0911 12.1739 12.2499 12.4076 12.4303 12.6363C12.6146 12.8697 12.8061 13.0781 12.961 13.1883C13.0691 13.265 13.0944 13.4149 13.0176 13.5229C12.9408 13.631 12.791 13.6563 12.683 13.5795C12.4689 13.4273 12.2422 13.1726 12.0536 12.9336C11.8612 12.6899 11.6925 12.4419 11.5946 12.2857C11.5243 12.1734 11.5582 12.0253 11.6705 11.9549ZM8.86536 13.6628C8.79497 13.5505 8.64686 13.5165 8.53455 13.5869C8.42224 13.6573 8.38825 13.8054 8.45865 13.9177C8.55651 14.0739 8.72519 14.3219 8.91755 14.5656C9.10618 14.8046 9.33286 15.0593 9.54697 15.2115C9.65502 15.2883 9.80485 15.263 9.88163 15.1549C9.95842 15.0469 9.93308 14.897 9.82504 14.8203C9.6701 14.7101 9.47856 14.5017 9.29434 14.2683C9.11386 14.0396 8.95506 13.8059 8.86536 13.6628ZM12.7013 11.1639C12.8161 11.0976 12.9629 11.137 13.0292 11.2517C13.1105 11.3925 13.2545 11.6227 13.4181 11.8487C13.5853 12.0796 13.7587 12.2858 13.8984 12.3958C14.0025 12.4779 14.0204 12.6288 13.9383 12.7329C13.8563 12.837 13.7054 12.8549 13.6013 12.7729C13.406 12.619 13.2001 12.366 13.0293 12.1302C12.8549 11.8894 12.7021 11.6452 12.6135 11.4918C12.5472 11.377 12.5866 11.2302 12.7013 11.1639ZM10.0448 13.1656C9.97057 13.0558 9.82136 13.0269 9.71156 13.1012C9.60176 13.1754 9.57294 13.3246 9.64719 13.4344C9.74393 13.5775 9.91119 13.8037 10.1039 14.0254C10.2929 14.2429 10.5224 14.4749 10.7436 14.6119C10.8563 14.6817 11.0042 14.6469 11.074 14.5343C11.1438 14.4216 11.1091 14.2736 10.9964 14.2038C10.8393 14.1066 10.6487 13.9205 10.4662 13.7105C10.2874 13.5048 10.1318 13.2942 10.0448 13.1656Z" fill="currentColor"/>
</svg>