<svg xmlns="http://www.w3.org/2000/svg" width="19" height="18" viewBox="0 0 19 18" fill="none">
  <g clip-path="url(#clip0_19602_1578)">
    <path d="M16.1139 2.63605C14.414 0.936139 12.154 0 9.74995 0C7.34593 0 5.08588 0.936139 3.38605 2.63605C1.68617 4.33588 0.75 6.59597 0.75 8.99995C0.75 11.4039 1.68617 13.664 3.38605 15.3639C5.08588 17.0638 7.346 18 9.75002 18C12.154 18 14.4141 17.0638 16.114 15.3639C17.8139 13.664 18.75 11.404 18.75 8.99995C18.75 6.59593 17.8138 4.33588 16.1139 2.63605ZM16.0493 3.4818L14.9063 6.99952L13.0663 7.61891L10.0606 5.43511V3.47343L13.0521 1.29997C14.2082 1.79771 15.2305 2.54826 16.0493 3.4818ZM12.6482 8.08314L11.5412 11.4902H7.95881L6.85178 8.08314L9.74998 5.97746L12.6482 8.08314ZM9.74995 0.621315C10.6598 0.621315 11.536 0.76767 12.357 1.03711L9.74995 2.93122L7.14294 1.03707C7.96387 0.767635 8.84011 0.621315 9.74995 0.621315ZM6.44783 1.30004L9.43934 3.4735V5.43518L6.4337 7.61894L4.59363 6.99956L3.45066 3.4818C4.26945 2.54826 5.29176 1.79771 6.44783 1.30004ZM1.37132 8.99995C1.37132 7.15484 1.97129 5.44745 2.98579 4.06166L3.98127 7.12542L1.37167 9.02143C1.37156 9.01429 1.37132 9.00715 1.37132 8.99995ZM1.40654 9.7641L4.39932 7.58969L6.23936 8.20907L7.38826 11.7451L6.2517 13.2871H2.55393C1.92689 12.2385 1.52263 11.0423 1.40654 9.7641ZM2.96396 13.9083H6.18293L7.17922 16.9746C5.46915 16.422 3.99787 15.3338 2.96396 13.9083ZM9.74995 17.3786C9.11323 17.3786 8.49297 17.3069 7.89651 17.1716L6.75341 13.6535L7.88997 12.1115H11.6099L12.7465 13.6535L11.6034 17.1716C11.007 17.3069 10.3867 17.3786 9.74995 17.3786ZM12.3207 16.9746L13.317 13.9084H16.5359C15.5021 15.3338 14.0308 16.422 12.3207 16.9746ZM16.946 13.287H13.2482L12.1117 11.745L13.2606 8.209L15.1006 7.58962L18.0934 9.76403C17.9773 11.0423 17.5731 12.2385 16.946 13.287ZM15.5187 7.12542L16.5142 4.06166C17.5287 5.44745 18.1286 7.15484 18.1286 8.99995C18.1286 9.00712 18.1284 9.01429 18.1284 9.02146L15.5187 7.12542Z" fill="currentColor"/>
  </g>
  <defs>
    <clipPath id="clip0_19602_1578">
      <rect width="18" height="18" fill="white" transform="translate(0.75)"/>
    </clipPath>
  </defs>
</svg>