<svg xmlns="http://www.w3.org/2000/svg" width="389" height="267" viewBox="0 0 389 267" fill="none">
  <path fill-rule="evenodd" clip-rule="evenodd" d="M166.193 -23.2958C137.063 -6.27206 111.711 8.16089 109.855 8.77632C108 9.39266 103.064 12.5213 98.8858 15.7284C94.7071 18.9364 88.8557 22.8131 85.8833 24.3445C82.9038 25.8786 79.396 28.5641 78.0668 30.3283C76.7393 32.0898 71.0099 38.2225 65.3334 43.9581C47.2956 62.1847 33.9146 80.7038 23.5437 101.797C7.55361 134.319 1.67885 158.598 0.17025 198.394C-0.825319 224.665 2.52733 248.072 10.7053 271.943C28.8677 324.955 62.265 366.64 108.84 394.431C138.853 412.339 175.775 423.517 211.311 425.45L221.402 426V390.327C221.402 362.867 221.143 354.45 220.281 353.763C219.664 353.272 215.325 352.603 210.639 352.276C183.966 350.413 161.681 342.714 138.795 327.454C106.192 305.715 84.2913 273.674 75.7698 235.247C64.6643 185.171 78.2022 135.66 113.176 98.4395C127.671 83.0139 133.628 78.9856 191.014 45.8098C206.462 36.8788 219.418 29.5712 219.803 29.5712C220.189 29.5712 220.505 47.4053 220.505 69.2027C220.505 91.0001 220.75 109.477 221.049 110.262C221.349 111.047 222.084 111.689 222.683 111.689C223.283 111.689 245.741 98.9854 272.59 83.4579L321.407 55.2263L321.64 12.5195C321.861 -27.8935 321.788 -30.154 320.298 -29.5792C319.432 -29.2444 311.86 -24.9752 303.472 -20.0905C250.627 10.6786 224.075 25.9481 223.038 26.1646C222.072 26.3668 221.767 18.9391 221.402 -13.669C221.116 -39.2358 220.629 -53.8411 220.056 -53.999C219.563 -54.1362 195.325 -40.3195 166.193 -23.2958ZM206.129 121.26C173.838 139.239 165.399 145.971 155.496 161.65C139.344 187.224 140.372 221.552 158.037 246.458C166.298 258.106 185.383 273.257 193.547 274.648C195.302 274.948 199.331 276.045 202.5 277.088C206.037 278.251 210.714 279.003 214.609 279.034L220.953 279.084L221.182 197.016C221.308 151.879 221.095 114.629 220.708 114.24C220.322 113.852 213.762 117.011 206.129 121.26ZM361.541 209.99C348.097 217.889 335.676 224.823 333.939 225.4C332.2 225.977 329.679 227.356 328.336 228.465C325.004 231.214 313.148 238.281 309.299 239.815C307.572 240.501 303.94 242.548 301.227 244.361C289.07 252.486 254.97 271.729 248.552 274.086C244.657 275.516 236.854 277.444 231.211 278.37L220.953 280.054L220.718 315.56C220.539 342.698 220.745 351.383 221.592 352.409C222.505 353.516 224.353 353.646 232.14 353.147C261.111 351.291 275.508 345.717 323.649 317.718C338.202 309.254 358.786 297.295 369.392 291.141L388.675 279.952L388.908 237.782C389.128 198.04 389.05 195.613 387.563 195.621C386.695 195.627 374.985 202.092 361.541 209.99Z" fill="#A3E635"/>
</svg>