<svg preserveAspectRatio="none" width="100%" height="100%" overflow="visible" style="display: block;" viewBox="0 0 44 41" fill="none" xmlns="http://www.w3.org/2000/svg">
<g id="metamask">
<path id="Vector" d="M40.8833 0.500074L24.3 12.8167L27.3667 5.55007L40.8833 0.500074Z" fill="var(--fill-0, #E2761B)" stroke="var(--stroke-0, #E2761B)" stroke-linecap="round" stroke-linejoin="round"/>
<g id="Group">
<path id="Vector_2" d="M2.60001 0.500074L19.05 12.9334L16.1333 5.55008L2.60001 0.500074Z" fill="var(--fill-0, #E4761B)" stroke="var(--stroke-0, #E4761B)" stroke-linecap="round" stroke-linejoin="round"/>
<path id="Vector_3" d="M34.9167 29.0501L30.5 35.8167L39.95 38.4167L42.6667 29.2001L34.9167 29.0501Z" fill="var(--fill-0, #E4761B)" stroke="var(--stroke-0, #E4761B)" stroke-linecap="round" stroke-linejoin="round"/>
<path id="Vector_4" d="M0.849987 29.2001L3.54999 38.4167L13 35.8167L8.58332 29.0501L0.849987 29.2001Z" fill="var(--fill-0, #E4761B)" stroke="var(--stroke-0, #E4761B)" stroke-linecap="round" stroke-linejoin="round"/>
<path id="Vector_5" d="M12.4667 17.6167L9.83334 21.6001L19.2167 22.0167L18.8833 11.9334L12.4667 17.6167Z" fill="var(--fill-0, #E4761B)" stroke="var(--stroke-0, #E4761B)" stroke-linecap="round" stroke-linejoin="round"/>
<path id="Vector_6" d="M31.0166 17.6167L24.5166 11.8167L24.3 22.0167L33.6666 21.6001L31.0166 17.6167Z" fill="var(--fill-0, #E4761B)" stroke="var(--stroke-0, #E4761B)" stroke-linecap="round" stroke-linejoin="round"/>
<path id="Vector_7" d="M13 35.8167L18.6334 33.0667L13.7667 29.2667L13 35.8167Z" fill="var(--fill-0, #E4761B)" stroke="var(--stroke-0, #E4761B)" stroke-linecap="round" stroke-linejoin="round"/>
<path id="Vector_8" d="M24.85 33.0667L30.5 35.8167L29.7167 29.2667L24.85 33.0667Z" fill="var(--fill-0, #E4761B)" stroke="var(--stroke-0, #E4761B)" stroke-linecap="round" stroke-linejoin="round"/>
</g>
<g id="Group_2">
<path id="Vector_9" d="M30.5 35.8168L24.85 33.0668L25.3001 36.7501L25.25 38.3001L30.5 35.8168Z" fill="var(--fill-0, #D7C1B3)" stroke="var(--stroke-0, #D7C1B3)" stroke-linecap="round" stroke-linejoin="round"/>
<path id="Vector_10" d="M13 35.8167L18.25 38.3001L18.2167 36.7501L18.6333 33.0667L13 35.8167Z" fill="var(--fill-0, #D7C1B3)" stroke="var(--stroke-0, #D7C1B3)" stroke-linecap="round" stroke-linejoin="round"/>
</g>
<path id="Vector_11" d="M18.3333 26.8334L13.6333 25.4501L16.95 23.9334L18.3333 26.8334Z" fill="var(--fill-0, #233447)" stroke="var(--stroke-0, #233447)" stroke-linecap="round" stroke-linejoin="round"/>
<path id="Vector_12" d="M25.15 26.8334L26.5333 23.9334L29.8666 25.4501L25.15 26.8334Z" fill="var(--fill-0, #233447)" stroke="var(--stroke-0, #233447)" stroke-linecap="round" stroke-linejoin="round"/>
<g id="Group_3">
<path id="Vector_13" d="M13 35.8167L13.8 29.0501L8.58335 29.2001L13 35.8167Z" fill="var(--fill-0, #CD6116)" stroke="var(--stroke-0, #CD6116)" stroke-linecap="round" stroke-linejoin="round"/>
<path id="Vector_14" d="M29.7 29.0501L30.5 35.8167L34.9167 29.2001L29.7 29.0501Z" fill="var(--fill-0, #CD6116)" stroke="var(--stroke-0, #CD6116)" stroke-linecap="round" stroke-linejoin="round"/>
<path id="Vector_15" d="M33.6667 21.6001L24.3 22.0168L25.1667 26.8334L26.55 23.9334L29.8834 25.4501L33.6667 21.6001Z" fill="var(--fill-0, #CD6116)" stroke="var(--stroke-0, #CD6116)" stroke-linecap="round" stroke-linejoin="round"/>
<path id="Vector_16" d="M13.6334 25.4501L16.9667 23.9334L18.3334 26.8334L19.2167 22.0168L9.83337 21.6001L13.6334 25.4501Z" fill="var(--fill-0, #CD6116)" stroke="var(--stroke-0, #CD6116)" stroke-linecap="round" stroke-linejoin="round"/>
</g>
<g id="Group_4">
<path id="Vector_17" d="M9.83336 21.6001L13.7667 29.2668L13.6334 25.4501L9.83336 21.6001Z" fill="var(--fill-0, #E4751F)" stroke="var(--stroke-0, #E4751F)" stroke-linecap="round" stroke-linejoin="round"/>
<path id="Vector_18" d="M29.8833 25.4501L29.7167 29.2668L33.6667 21.6001L29.8833 25.4501Z" fill="var(--fill-0, #E4751F)" stroke="var(--stroke-0, #E4751F)" stroke-linecap="round" stroke-linejoin="round"/>
<path id="Vector_19" d="M19.2167 22.0168L18.3333 26.8334L19.4333 32.5168L19.6833 25.0334L19.2167 22.0168Z" fill="var(--fill-0, #E4751F)" stroke="var(--stroke-0, #E4751F)" stroke-linecap="round" stroke-linejoin="round"/>
<path id="Vector_20" d="M24.3 22.0168L23.85 25.0168L24.05 32.5168L25.1666 26.8334L24.3 22.0168Z" fill="var(--fill-0, #E4751F)" stroke="var(--stroke-0, #E4751F)" stroke-linecap="round" stroke-linejoin="round"/>
</g>
<path id="Vector_21" d="M25.1667 26.8334L24.05 32.5167L24.85 33.0667L29.7167 29.2667L29.8833 25.4501L25.1667 26.8334Z" fill="var(--fill-0, #F6851B)" stroke="var(--stroke-0, #F6851B)" stroke-linecap="round" stroke-linejoin="round"/>
<path id="Vector_22" d="M13.6333 25.4501L13.7667 29.2667L18.6333 33.0667L19.4333 32.5167L18.3333 26.8334L13.6333 25.4501Z" fill="var(--fill-0, #F6851B)" stroke="var(--stroke-0, #F6851B)" stroke-linecap="round" stroke-linejoin="round"/>
<path id="Vector_23" d="M25.25 38.3001L25.3 36.7501L24.8833 36.3834H18.6L18.2167 36.7501L18.25 38.3001L13 35.8167L14.8333 37.3167L18.55 39.9001H24.9333L28.6667 37.3167L30.5 35.8167L25.25 38.3001Z" fill="var(--fill-0, #C0AD9E)" stroke="var(--stroke-0, #C0AD9E)" stroke-linecap="round" stroke-linejoin="round"/>
<path id="Vector_24" d="M24.85 33.0667L24.05 32.5167H19.4333L18.6333 33.0667L18.2166 36.7501L18.6 36.3834H24.8833L25.3 36.7501L24.85 33.0667Z" fill="var(--fill-0, #161616)" stroke="var(--stroke-0, #161616)" stroke-linecap="round" stroke-linejoin="round"/>
<g id="Group_5">
<path id="Vector_25" d="M41.5833 13.6167L43 6.81674L40.8833 0.500074L24.85 12.4001L31.0167 17.6167L39.7333 20.1667L41.6667 17.9167L40.8333 17.3167L42.1667 16.1001L41.1333 15.3001L42.4667 14.2834L41.5833 13.6167Z" fill="var(--fill-0, #763D16)" stroke="var(--stroke-0, #763D16)" stroke-linecap="round" stroke-linejoin="round"/>
<path id="Vector_26" d="M0.5 6.81674L1.91667 13.6167L1.01667 14.2834L2.35 15.3001L1.33333 16.1001L2.66667 17.3167L1.83333 17.9167L3.75 20.1667L12.4667 17.6167L18.6333 12.4001L2.6 0.500074L0.5 6.81674Z" fill="var(--fill-0, #763D16)" stroke="var(--stroke-0, #763D16)" stroke-linecap="round" stroke-linejoin="round"/>
</g>
<path id="Vector_27" d="M39.7333 20.1667L31.0167 17.6167L33.6667 21.6001L29.7167 29.2667L34.9167 29.2001H42.6667L39.7333 20.1667Z" fill="var(--fill-0, #F6851B)" stroke="var(--stroke-0, #F6851B)" stroke-linecap="round" stroke-linejoin="round"/>
<path id="Vector_28" d="M12.4666 17.6167L3.74996 20.1667L0.849958 29.2001H8.58329L13.7666 29.2667L9.83329 21.6001L12.4666 17.6167Z" fill="var(--fill-0, #F6851B)" stroke="var(--stroke-0, #F6851B)" stroke-linecap="round" stroke-linejoin="round"/>
<path id="Vector_29" d="M24.3 22.0167L24.85 12.4001L27.3833 5.55008H16.1333L18.6333 12.4001L19.2166 22.0167L19.4166 25.0501L19.4333 32.5167H24.05L24.0833 25.0501L24.3 22.0167Z" fill="var(--fill-0, #F6851B)" stroke="var(--stroke-0, #F6851B)" stroke-linecap="round" stroke-linejoin="round"/>
</g>
</svg>
