<svg width="35" height="42" viewBox="0 0 35 42" fill="none" xmlns="http://www.w3.org/2000/svg">
<path d="M0.547195 41.4673L0.30106 41.3158C-0.178181 39.7221 0.183853 37.3833 0.195141 35.7052C6.18653 32.6874 11.8819 29.0858 17.6688 25.7696C22.94 29.0607 28.4274 32.0254 33.9513 34.975C34.1632 35.0664 34.3303 35.2464 34.5005 35.3887C34.9771 37.135 34.6993 39.3592 34.7045 41.1735C29.3968 38.8556 22.5945 35.2725 17.6054 32.4141C12.0551 35.5974 6.12446 38.2828 0.547195 41.4673Z" fill="#31C1BF"/>
<path d="M0.651719 21.5515L0.492842 21.4289C-0.044136 19.8644 0.334396 12.2657 0.275793 10.0752C5.35776 6.7617 10.6433 3.62351 15.9219 0.554035L16.2536 0.637156C16.6764 3.75825 16.2944 9.15745 16.2826 12.4888C11.0401 15.463 5.89907 18.5784 0.651719 21.5515Z" fill="#31C1BF"/>
<path d="M34.4492 21.6433C32.6959 20.8732 31.022 19.6586 29.3764 18.7021C25.8072 16.6271 22.1934 14.6101 18.662 12.4857C18.6325 8.62564 18.6264 4.76516 18.6429 0.905064C23.9979 3.67925 29.3581 6.82957 34.2938 10.1488C34.4787 13.9687 34.4097 17.8189 34.4492 21.6433Z" fill="#31C1BF"/>
<path d="M0.253799 32.938C-0.245846 30.995 0.144842 26.9133 0.157431 24.7354C5.42475 21.5532 10.8358 18.5524 16.1317 15.4051C16.7325 17.3382 16.3058 21.4959 16.2828 23.6407C10.9208 26.7148 5.57799 29.8139 0.253799 32.938Z" fill="#31C1BF"/>
<path d="M34.5078 32.5332C32.5157 31.7092 30.5892 30.3674 28.7443 29.3001L18.6733 23.5419L18.6668 15.5507C23.8803 18.0588 29.5552 21.556 34.5061 24.5245L34.5078 32.5332Z" fill="#31C1BF"/>
</svg>
