<svg xmlns="http://www.w3.org/2000/svg" width="139" height="139" viewBox="0 0 139 139" fill="none">
  <g clip-path="url(#clip0_15453_705)">
    <path d="M138.328 0.5H0.328125V138.5H138.328V0.5Z" fill="white"/>
    <mask id="mask0_15453_705" style="mask-type:luminance" maskUnits="userSpaceOnUse" x="5" y="5" width="129" height="129">
      <path d="M9.74414 49.66V45.244H7.53614C6.95054 45.244 6.38893 45.4766 5.97485 45.8907C5.56077 46.3048 5.32814 46.8664 5.32814 47.452C5.32814 48.0376 5.56077 48.5992 5.97485 49.0133C6.38893 49.4274 6.95054 49.66 7.53614 49.66" fill="white"/>
      <path d="M5.32812 71.74H9.74412V67.324H7.53612C6.95053 67.324 6.38891 67.5566 5.97483 67.9707C5.56075 68.3848 5.32812 68.9464 5.32812 69.532" fill="white"/>
      <path d="M9.74412 71.74H5.32812V76.156H9.74412V71.74Z" fill="white"/>
      <path d="M9.74412 76.156H5.32812V80.572H9.74412V76.156Z" fill="white"/>
      <path d="M9.74414 80.572H5.32814V82.78C5.32814 83.3656 5.56077 83.9272 5.97485 84.3413C6.38893 84.7554 6.95054 84.988 7.53614 84.988C8.12174 84.988 8.68335 84.7554 9.09743 84.3413C9.51151 83.9272 9.74414 83.3656 9.74414 82.78" fill="white"/>
      <path d="M5.32812 93.82H9.74412V91.612C9.74412 91.0264 9.5115 90.4648 9.09742 90.0507C8.68334 89.6366 8.12172 89.404 7.53612 89.404C6.95053 89.404 6.38891 89.6366 5.97483 90.0507C5.56075 90.4648 5.32812 91.0264 5.32812 91.612" fill="white"/>
      <path d="M9.74414 98.236V93.82H5.32814L5.32814 96.028C5.32814 96.6136 5.56077 97.1752 5.97485 97.5893C6.38893 98.0034 6.95054 98.236 7.53614 98.236" fill="white"/>
      <path d="M14.1601 45.244H9.74414V49.66H14.1601V45.244Z" fill="white"/>
      <path d="M14.1601 49.66H9.74414V54.076H14.1601V49.66Z" fill="white"/>
      <path d="M14.1601 54.076H9.74414V58.492H14.1601V54.076Z" fill="white"/>
      <path d="M14.1601 58.492H9.74414V62.908H14.1601V58.492Z" fill="white"/>
      <path d="M14.1601 62.908H9.74414V67.324H14.1601V62.908Z" fill="white"/>
      <path d="M14.1601 67.324H9.74414V71.74H14.1601V67.324Z" fill="white"/>
      <path d="M14.1602 71.74H9.74416V76.156H11.9522C12.5378 76.156 13.0994 75.9234 13.5134 75.5093C13.9275 75.0952 14.1602 74.5336 14.1602 73.948" fill="white"/>
      <path d="M14.1601 93.82H9.74414V98.236H14.1601V93.82Z" fill="white"/>
      <path d="M14.1602 45.244V49.66H16.3682C16.9538 49.66 17.5154 49.4274 17.9294 49.0133C18.3435 48.5992 18.5762 48.0376 18.5762 47.452C18.5762 46.8664 18.3435 46.3048 17.9294 45.8907C17.5154 45.4766 16.9538 45.244 16.3682 45.244" fill="white"/>
      <path d="M14.1602 54.076V58.492H18.5762V56.284C18.5762 55.6984 18.3435 55.1368 17.9294 54.7227C17.5154 54.3086 16.9538 54.076 16.3682 54.076" fill="white"/>
      <path d="M18.5762 58.492H14.1602V62.908H18.5762V58.492Z" fill="white"/>
      <path d="M18.5762 62.908H14.1602V67.324H16.3682C16.9538 67.324 17.5154 67.0914 17.9295 66.6773C18.3435 66.2632 18.5762 65.7016 18.5762 65.116" fill="white"/>
      <path d="M14.1602 84.988H18.5762V80.572H16.3682C15.7826 80.572 15.2209 80.8046 14.8069 81.2187C14.3928 81.6328 14.1602 82.1944 14.1602 82.78" fill="white"/>
      <path d="M18.5762 84.988H14.1602V89.404H18.5762V84.988Z" fill="white"/>
      <path d="M18.5762 89.404H14.1602V93.82H18.5762V89.404Z" fill="white"/>
      <path d="M18.5762 93.82H14.1602V98.236H18.5762V93.82Z" fill="white"/>
      <path d="M20.7842 45.244C22.0036 45.244 22.9922 44.2554 22.9922 43.036C22.9922 41.8166 22.0036 40.828 20.7842 40.828C19.5647 40.828 18.5762 41.8166 18.5762 43.036C18.5762 44.2554 19.5647 45.244 20.7842 45.244Z" fill="white"/>
      <path d="M22.9922 54.076V49.66H20.7842C20.1986 49.66 19.637 49.8926 19.2229 50.3067C18.8088 50.7208 18.5762 51.2824 18.5762 51.868C18.5762 52.4536 18.8088 53.0152 19.2229 53.4293C19.637 53.8434 20.1986 54.076 20.7842 54.076" fill="white"/>
      <path d="M20.7842 71.74C22.0036 71.74 22.9922 70.7514 22.9922 69.532C22.9922 68.3126 22.0036 67.324 20.7842 67.324C19.5647 67.324 18.5762 68.3126 18.5762 69.532C18.5762 70.7514 19.5647 71.74 20.7842 71.74Z" fill="white"/>
      <path d="M18.5762 80.572H22.9922V78.364C22.9922 77.7784 22.7595 77.2168 22.3455 76.8027C21.9314 76.3886 21.3698 76.156 20.7842 76.156C20.1986 76.156 19.637 76.3886 19.2229 76.8027C18.8088 77.2168 18.5762 77.7784 18.5762 78.364" fill="white"/>
      <path d="M22.9922 80.572H18.5762V84.988H20.7842C21.3698 84.988 21.9314 84.7554 22.3455 84.3413C22.7596 83.9272 22.9922 83.3656 22.9922 82.78" fill="white"/>
      <path d="M18.5762 93.82V98.236H20.7842C21.3698 98.236 21.9314 98.0034 22.3455 97.5893C22.7595 97.1752 22.9922 96.6136 22.9922 96.028C22.9922 95.4424 22.7595 94.8808 22.3455 94.4667C21.9314 94.0526 21.3698 93.82 20.7842 93.82" fill="white"/>
      <path d="M22.9922 49.66H27.4082V45.244H25.2002C24.6146 45.244 24.053 45.4766 23.6389 45.8907C23.2248 46.3048 22.9922 46.8664 22.9922 47.452" fill="white"/>
      <path d="M27.4082 49.66H22.9922V54.076H27.4082V49.66Z" fill="white"/>
      <path d="M27.4082 54.076H22.9922V58.492H27.4082V54.076Z" fill="white"/>
      <path d="M27.4082 58.492H22.9922V60.7C22.9922 61.2856 23.2248 61.8472 23.6389 62.2613C24.053 62.6754 24.6146 62.908 25.2002 62.908C25.7858 62.908 26.3474 62.6754 26.7615 62.2613C27.1756 61.8472 27.4082 61.2856 27.4082 60.7" fill="white"/>
      <path d="M25.2002 76.156C26.4196 76.156 27.4082 75.1674 27.4082 73.948C27.4082 72.7285 26.4196 71.74 25.2002 71.74C23.9807 71.74 22.9922 72.7285 22.9922 73.948C22.9922 75.1674 23.9807 76.156 25.2002 76.156Z" fill="white"/>
      <path d="M27.4082 89.404V84.988H25.2002C24.6146 84.988 24.053 85.2206 23.6389 85.6347C23.2248 86.0488 22.9922 86.6104 22.9922 87.196C22.9922 87.7816 23.2248 88.3432 23.6389 88.7573C24.053 89.1714 24.6146 89.404 25.2002 89.404" fill="white"/>
      <path d="M27.4082 45.244H31.8242V40.828H29.6162C29.0306 40.828 28.469 41.0606 28.0549 41.4747C27.6408 41.8888 27.4082 42.4504 27.4082 43.036" fill="white"/>
      <path d="M31.8242 45.244H27.4082V49.66H29.6162C30.2018 49.66 30.7634 49.4274 31.1775 49.0133C31.5916 48.5992 31.8242 48.0376 31.8242 47.452" fill="white"/>
      <path d="M27.4082 54.076V58.492H29.6162C30.2018 58.492 30.7634 58.2594 31.1775 57.8453C31.5916 57.4312 31.8242 56.8696 31.8242 56.284C31.8242 55.6984 31.5916 55.1368 31.1775 54.7227C30.7634 54.3086 30.2018 54.076 29.6162 54.076" fill="white"/>
      <path d="M29.6162 67.324C30.8356 67.324 31.8242 66.3354 31.8242 65.116C31.8242 63.8965 30.8356 62.908 29.6162 62.908C28.3968 62.908 27.4082 63.8965 27.4082 65.116C27.4082 66.3354 28.3968 67.324 29.6162 67.324Z" fill="white"/>
      <path d="M27.4082 80.572H31.8242V76.156H29.6162C29.0306 76.156 28.469 76.3886 28.0549 76.8027C27.6408 77.2168 27.4082 77.7784 27.4082 78.364" fill="white"/>
      <path d="M31.8242 80.572H27.4082V84.988H31.8242V80.572Z" fill="white"/>
      <path d="M31.8242 84.988H27.4082V89.404H31.8242V84.988Z" fill="white"/>
      <path d="M36.2402 40.828H31.8242V45.244H36.2402V40.828Z" fill="white"/>
      <path d="M36.2402 54.076V49.66H34.0322C33.4466 49.66 32.885 49.8926 32.4709 50.3067C32.0569 50.7208 31.8242 51.2824 31.8242 51.868C31.8242 52.4536 32.0569 53.0152 32.4709 53.4293C32.885 53.8434 33.4466 54.076 34.0322 54.076" fill="white"/>
      <path d="M36.2402 62.908V58.492H34.0322C33.4466 58.492 32.885 58.7246 32.4709 59.1387C32.0569 59.5528 31.8242 60.1144 31.8242 60.7C31.8242 61.2856 32.0569 61.8472 32.4709 62.2613C32.885 62.6754 33.4466 62.908 34.0322 62.908" fill="white"/>
      <path d="M36.2402 71.74V67.324H34.0322C33.4466 67.324 32.885 67.5566 32.4709 67.9707C32.0569 68.3848 31.8242 68.9464 31.8242 69.532C31.8242 70.1176 32.0569 70.6792 32.4709 71.0933C32.885 71.5074 33.4466 71.74 34.0322 71.74" fill="white"/>
      <path d="M36.2402 76.156H31.8242V80.572H36.2402V76.156Z" fill="white"/>
      <path d="M31.8242 84.988V89.404H34.0322C34.6178 89.404 35.1794 89.1714 35.5935 88.7573C36.0076 88.3432 36.2402 87.7816 36.2402 87.196C36.2402 86.6104 36.0076 86.0488 35.5935 85.6347C35.1794 85.2206 34.6178 84.988 34.0322 84.988" fill="white"/>
      <path d="M34.0322 98.236C35.2517 98.236 36.2402 97.2475 36.2402 96.028C36.2402 94.8086 35.2517 93.82 34.0322 93.82C32.8128 93.82 31.8242 94.8086 31.8242 96.028C31.8242 97.2475 32.8128 98.236 34.0322 98.236Z" fill="white"/>
      <path d="M36.2402 40.828V45.244H40.6562V43.036C40.6562 42.4504 40.4236 41.8888 40.0095 41.4747C39.5954 41.0606 39.0338 40.828 38.4482 40.828" fill="white"/>
      <path d="M40.6562 45.244H36.2402V49.66H40.6562V45.244Z" fill="white"/>
      <path d="M40.6562 49.66H36.2402V54.076H40.6562V49.66Z" fill="white"/>
      <path d="M36.2402 58.492V62.908H40.6562V60.7C40.6562 60.1144 40.4236 59.5528 40.0095 59.1387C39.5954 58.7246 39.0338 58.492 38.4482 58.492" fill="white"/>
      <path d="M40.6562 62.908H36.2402V67.324H40.6562V62.908Z" fill="white"/>
      <path d="M40.6562 67.324H36.2402V71.74H40.6562V67.324Z" fill="white"/>
      <path d="M40.6562 71.74H36.2402V76.156H40.6562V71.74Z" fill="white"/>
      <path d="M40.6562 76.156H36.2402V80.572H40.6562V76.156Z" fill="white"/>
      <path d="M40.6562 84.988V80.572H36.2403V82.78C36.2403 83.3656 36.4729 83.9272 36.887 84.3413C37.301 84.7554 37.8627 84.988 38.4483 84.988" fill="white"/>
      <path d="M40.6562 14.332H45.0722V12.124C45.0722 11.5384 44.8396 10.9768 44.4255 10.5627C44.0115 10.1486 43.4498 9.916 42.8642 9.916C42.2787 9.916 41.717 10.1486 41.303 10.5627C40.8889 10.9768 40.6562 11.5384 40.6562 12.124" fill="white"/>
      <path d="M45.0723 14.332H40.6563V16.54C40.6563 17.1256 40.8889 17.6872 41.303 18.1013C41.7171 18.5154 42.2787 18.748 42.8643 18.748C43.4499 18.748 44.0115 18.5154 44.4256 18.1013C44.8396 17.6872 45.0723 17.1256 45.0723 16.54" fill="white"/>
      <path d="M42.8642 36.412C44.0837 36.412 45.0722 35.4234 45.0722 34.204C45.0722 32.9846 44.0837 31.996 42.8642 31.996C41.6448 31.996 40.6562 32.9846 40.6562 34.204C40.6562 35.4234 41.6448 36.412 42.8642 36.412Z" fill="white"/>
      <path d="M40.6562 45.244V49.66H45.0722V47.452C45.0722 46.8664 44.8396 46.3048 44.4255 45.8907C44.0115 45.4766 43.4498 45.244 42.8642 45.244" fill="white"/>
      <path d="M45.0722 49.66H40.6562V54.076H45.0722V49.66Z" fill="white"/>
      <path d="M40.6562 62.908V67.324H42.8642C43.4498 67.324 44.0115 67.0914 44.4255 66.6773C44.8396 66.2632 45.0722 65.7016 45.0722 65.116C45.0722 64.5304 44.8396 63.9688 44.4255 63.5547C44.0115 63.1406 43.4498 62.908 42.8642 62.908" fill="white"/>
      <path d="M45.0722 76.156H40.6562V80.572H45.0722V76.156Z" fill="white"/>
      <path d="M45.0722 80.572H40.6562V84.988H45.0722V80.572Z" fill="white"/>
      <path d="M40.6562 93.82H45.0722V91.612C45.0722 91.0264 44.8396 90.4648 44.4255 90.0507C44.0115 89.6366 43.4498 89.404 42.8642 89.404C42.2787 89.404 41.717 89.6366 41.303 90.0507C40.8889 90.4648 40.6562 91.0264 40.6562 91.612" fill="white"/>
      <path d="M45.0723 98.236V93.82H40.6563V96.028C40.6563 96.6136 40.8889 97.1752 41.303 97.5893C41.7171 98.0034 42.2787 98.236 42.8643 98.236" fill="white"/>
      <path d="M40.6562 107.068H45.0722V102.652H42.8642C42.2787 102.652 41.717 102.885 41.303 103.299C40.8889 103.713 40.6562 104.274 40.6562 104.86" fill="white"/>
      <path d="M45.0723 107.068H40.6563V109.276C40.6563 109.862 40.8889 110.423 41.303 110.837C41.7171 111.251 42.2787 111.484 42.8643 111.484C43.4499 111.484 44.0115 111.251 44.4256 110.837C44.8396 110.423 45.0723 109.862 45.0723 109.276" fill="white"/>
      <path d="M45.0723 120.316V115.9H42.8643C42.2787 115.9 41.7171 116.133 41.303 116.547C40.8889 116.961 40.6563 117.522 40.6563 118.108C40.6563 118.694 40.8889 119.255 41.303 119.669C41.7171 120.083 42.2787 120.316 42.8643 120.316" fill="white"/>
      <path d="M49.4883 9.91599V5.49999H47.2803C46.6947 5.49999 46.1331 5.73261 45.719 6.14669C45.3049 6.56077 45.0723 7.12239 45.0723 7.70799C45.0723 8.29358 45.3049 8.8552 45.719 9.26928C46.1331 9.68336 46.6947 9.91599 47.2803 9.91599" fill="white"/>
      <path d="M45.0723 23.164H49.4883V20.956C49.4883 20.3704 49.2556 19.8088 48.8416 19.3947C48.4275 18.9806 47.8659 18.748 47.2803 18.748C46.6947 18.748 46.1331 18.9806 45.719 19.3947C45.3049 19.8088 45.0723 20.3704 45.0723 20.956" fill="white"/>
      <path d="M49.4883 23.164H45.0723V27.58H49.4883V23.164Z" fill="white"/>
      <path d="M49.4883 31.996V27.58H45.0723V29.788C45.0723 30.3736 45.3049 30.9352 45.719 31.3493C46.1331 31.7634 46.6947 31.996 47.2803 31.996" fill="white"/>
      <path d="M49.4883 49.66H45.0723V54.076H49.4883V49.66Z" fill="white"/>
      <path d="M49.4883 62.908V58.492H47.2803C46.6947 58.492 46.1331 58.7246 45.719 59.1387C45.3049 59.5528 45.0723 60.1144 45.0723 60.7C45.0723 61.2856 45.3049 61.8472 45.719 62.2613C46.1331 62.6754 46.6947 62.908 47.2803 62.908" fill="white"/>
      <path d="M49.4883 76.156H45.0723V80.572H49.4883V76.156Z" fill="white"/>
      <path d="M49.4883 80.572H45.0723V84.988H47.2803C47.8659 84.988 48.4275 84.7554 48.8416 84.3413C49.2557 83.9272 49.4883 83.3656 49.4883 82.78" fill="white"/>
      <path d="M49.4883 93.82H45.0723V98.236H49.4883V93.82Z" fill="white"/>
      <path d="M45.0723 102.652V107.068H47.2803C47.8659 107.068 48.4275 106.835 48.8416 106.421C49.2556 106.007 49.4883 105.446 49.4883 104.86C49.4883 104.274 49.2556 103.713 48.8416 103.299C48.4275 102.885 47.8659 102.652 47.2803 102.652" fill="white"/>
      <path d="M45.0723 115.9V120.316H47.2803C47.8659 120.316 48.4275 120.083 48.8416 119.669C49.2556 119.255 49.4883 118.694 49.4883 118.108C49.4883 117.522 49.2556 116.961 48.8416 116.547C48.4275 116.133 47.8659 115.9 47.2803 115.9" fill="white"/>
      <path d="M45.0723 129.148H49.4883V126.94C49.4883 126.354 49.2556 125.793 48.8416 125.379C48.4275 124.965 47.8659 124.732 47.2803 124.732C46.6947 124.732 46.1331 124.965 45.719 125.379C45.3049 125.793 45.0723 126.354 45.0723 126.94" fill="white"/>
      <path d="M49.4883 133.564V129.148H45.0723V131.356C45.0723 131.942 45.3049 132.503 45.719 132.917C46.1331 133.331 46.6947 133.564 47.2803 133.564" fill="white"/>
      <path d="M49.4883 5.5V9.916H51.6963C52.2819 9.916 52.8435 9.68337 53.2576 9.26929C53.6717 8.85521 53.9043 8.2936 53.9043 7.708C53.9043 7.1224 53.6717 6.56079 53.2576 6.14671C52.8435 5.73263 52.2819 5.5 51.6963 5.5" fill="white"/>
      <path d="M53.9043 18.748V14.332H51.6963C51.1107 14.332 50.5491 14.5646 50.135 14.9787C49.7209 15.3928 49.4883 15.9544 49.4883 16.54C49.4883 17.1256 49.7209 17.6872 50.135 18.1013C50.5491 18.5154 51.1107 18.748 51.6963 18.748" fill="white"/>
      <path d="M49.4883 23.164V27.58H53.9043V25.372C53.9043 24.7864 53.6717 24.2248 53.2576 23.8107C52.8435 23.3966 52.2819 23.164 51.6963 23.164" fill="white"/>
      <path d="M53.9043 27.58H49.4883V31.996H53.9043V27.58Z" fill="white"/>
      <path d="M53.9043 31.996H49.4883V36.412H53.9043V31.996Z" fill="white"/>
      <path d="M53.9043 36.412H49.4883V40.828H53.9043V36.412Z" fill="white"/>
      <path d="M53.9043 45.244V40.828H49.4883V43.036C49.4883 43.6216 49.7209 44.1832 50.135 44.5973C50.5491 45.0114 51.1107 45.244 51.6963 45.244" fill="white"/>
      <path d="M49.4883 49.66V54.076H53.9043V51.868C53.9043 51.2824 53.6717 50.7208 53.2576 50.3067C52.8435 49.8926 52.2819 49.66 51.6963 49.66" fill="white"/>
      <path d="M53.9043 54.076H49.4883V58.492H53.9043V54.076Z" fill="white"/>
      <path d="M53.9043 58.492H49.4883V62.908H51.6963C52.2819 62.908 52.8435 62.6754 53.2576 62.2613C53.6717 61.8472 53.9043 61.2856 53.9043 60.7" fill="white"/>
      <path d="M49.4883 76.156H53.9043V73.948C53.9043 73.3624 53.6717 72.8008 53.2576 72.3867C52.8435 71.9726 52.2819 71.74 51.6963 71.74C51.1107 71.74 50.5491 71.9726 50.135 72.3867C49.7209 72.8008 49.4883 73.3624 49.4883 73.948" fill="white"/>
      <path d="M53.9043 76.156H49.4883V80.572H53.9043V76.156Z" fill="white"/>
      <path d="M53.9043 93.82H49.4883V98.236H53.9043V93.82Z" fill="white"/>
      <path d="M53.9043 98.236H49.4883V100.444C49.4883 101.03 49.7209 101.591 50.135 102.005C50.5491 102.419 51.1107 102.652 51.6963 102.652C52.2819 102.652 52.8435 102.419 53.2576 102.005C53.6717 101.591 53.9043 101.03 53.9043 100.444" fill="white"/>
      <path d="M51.6963 124.732C52.9157 124.732 53.9043 123.743 53.9043 122.524C53.9043 121.305 52.9157 120.316 51.6963 120.316C50.4768 120.316 49.4883 121.305 49.4883 122.524C49.4883 123.743 50.4768 124.732 51.6963 124.732Z" fill="white"/>
      <path d="M49.4883 129.148V133.564H51.6963C52.2819 133.564 52.8435 133.331 53.2576 132.917C53.6717 132.503 53.9043 131.942 53.9043 131.356C53.9043 130.77 53.6717 130.209 53.2576 129.795C52.8435 129.381 52.2819 129.148 51.6963 129.148" fill="white"/>
      <path d="M53.9043 14.332H58.3203V9.916H56.1123C55.5267 9.916 54.9651 10.1486 54.551 10.5627C54.1369 10.9768 53.9043 11.5384 53.9043 12.124" fill="white"/>
      <path d="M58.3203 14.332H53.9043V18.748H56.1123C56.6979 18.748 57.2595 18.5154 57.6736 18.1013C58.0877 17.6872 58.3203 17.1256 58.3203 16.54" fill="white"/>
      <path d="M53.9043 36.412V40.828H58.3203V38.62C58.3203 38.0344 58.0877 37.4728 57.6736 37.0587C57.2595 36.6446 56.6979 36.412 56.1123 36.412" fill="white"/>
      <path d="M58.3203 40.828H53.9043V45.244H58.3203V40.828Z" fill="white"/>
      <path d="M53.9043 67.324H58.3203V65.116C58.3203 64.5304 58.0877 63.9688 57.6736 63.5547C57.2595 63.1406 56.6979 62.908 56.1123 62.908C55.5267 62.908 54.9651 63.1406 54.551 63.5547C54.1369 63.9688 53.9043 64.5304 53.9043 65.116" fill="white"/>
      <path d="M58.3203 67.324H53.9043V69.532C53.9043 70.1176 54.1369 70.6792 54.551 71.0933C54.9651 71.5074 55.5267 71.74 56.1123 71.74C56.6979 71.74 57.2595 71.5074 57.6736 71.0933C58.0877 70.6792 58.3203 70.1176 58.3203 69.532" fill="white"/>
      <path d="M58.3203 76.156H53.9043V80.572H58.3203V76.156Z" fill="white"/>
      <path d="M53.9043 93.82H58.3203V91.612C58.3203 91.0264 58.0877 90.4648 57.6736 90.0507C57.2595 89.6366 56.6979 89.404 56.1123 89.404C55.5267 89.404 54.9651 89.6366 54.551 90.0507C54.1369 90.4648 53.9043 91.0264 53.9043 91.612" fill="white"/>
      <path d="M58.3203 93.82H53.9043V98.236H56.1123C56.6979 98.236 57.2595 98.0034 57.6736 97.5893C58.0877 97.1752 58.3203 96.6136 58.3203 96.028" fill="white"/>
      <path d="M53.9043 107.068H58.3203V102.652H56.1123C55.5267 102.652 54.9651 102.885 54.551 103.299C54.1369 103.713 53.9043 104.274 53.9043 104.86" fill="white"/>
      <path d="M58.3203 107.068H53.9043V111.484H58.3203V107.068Z" fill="white"/>
      <path d="M58.3203 111.484H53.9043V115.9H58.3203V111.484Z" fill="white"/>
      <path d="M58.3203 120.316V115.9H53.9043V118.108C53.9043 118.694 54.1369 119.255 54.551 119.669C54.9651 120.083 55.5267 120.316 56.1123 120.316" fill="white"/>
      <path d="M58.3203 9.91599V14.332H60.5283C61.1139 14.332 61.6755 14.0994 62.0896 13.6853C62.5037 13.2712 62.7363 12.7096 62.7363 12.124C62.7363 11.5384 62.5037 10.9768 62.0896 10.5627C61.6755 10.1486 61.1139 9.91599 60.5283 9.91599" fill="white"/>
      <path d="M58.3203 27.58H62.7363V25.372C62.7363 24.7864 62.5037 24.2248 62.0896 23.8107C61.6755 23.3966 61.1139 23.164 60.5283 23.164C59.9427 23.164 59.3811 23.3966 58.967 23.8107C58.5529 24.2248 58.3203 24.7864 58.3203 25.372" fill="white"/>
      <path d="M62.7363 27.58H58.3203V31.996H62.7363V27.58Z" fill="white"/>
      <path d="M62.7363 31.996H58.3203V34.204C58.3203 34.7896 58.553 35.3512 58.967 35.7653C59.3811 36.1794 59.9427 36.412 60.5283 36.412C61.1139 36.412 61.6755 36.1794 62.0896 35.7653C62.5037 35.3512 62.7363 34.7896 62.7363 34.204" fill="white"/>
      <path d="M58.3203 40.828V45.244H62.7363V43.036C62.7363 42.4504 62.5037 41.8888 62.0896 41.4747C61.6755 41.0606 61.1139 40.828 60.5283 40.828" fill="white"/>
      <path d="M62.7363 49.66V45.244H58.3203V47.452C58.3203 48.0376 58.553 48.5992 58.967 49.0133C59.3811 49.4274 59.9427 49.66 60.5283 49.66" fill="white"/>
      <path d="M60.5283 58.492C61.7478 58.492 62.7363 57.5034 62.7363 56.284C62.7363 55.0645 61.7478 54.076 60.5283 54.076C59.3089 54.076 58.3203 55.0645 58.3203 56.284C58.3203 57.5034 59.3089 58.492 60.5283 58.492Z" fill="white"/>
      <path d="M58.3203 76.156V80.572H60.5283C61.1139 80.572 61.6755 80.3394 62.0896 79.9253C62.5037 79.5112 62.7363 78.9496 62.7363 78.364C62.7363 77.7784 62.5037 77.2168 62.0896 76.8027C61.6755 76.3886 61.1139 76.156 60.5283 76.156" fill="white"/>
      <path d="M58.3203 102.652H62.7363V100.444C62.7363 99.8584 62.5037 99.2968 62.0896 98.8827C61.6755 98.4686 61.1139 98.236 60.5283 98.236C59.9427 98.236 59.3811 98.4686 58.967 98.8827C58.5529 99.2968 58.3203 99.8584 58.3203 100.444" fill="white"/>
      <path d="M62.7363 102.652H58.3203V107.068H62.7363V102.652Z" fill="white"/>
      <path d="M62.7363 115.9H58.3203V120.316H62.7363V115.9Z" fill="white"/>
      <path d="M60.5283 129.148C61.7478 129.148 62.7363 128.159 62.7363 126.94C62.7363 125.721 61.7478 124.732 60.5283 124.732C59.3089 124.732 58.3203 125.721 58.3203 126.94C58.3203 128.159 59.3089 129.148 60.5283 129.148Z" fill="white"/>
      <path d="M67.1523 9.91599V5.49999H64.9443C64.3587 5.49999 63.7971 5.73261 63.3831 6.14669C62.969 6.56077 62.7363 7.12239 62.7363 7.70799C62.7363 8.29358 62.969 8.8552 63.3831 9.26928C63.7971 9.68336 64.3587 9.91599 64.9443 9.91599" fill="white"/>
      <path d="M67.1523 18.748V14.332H64.9443C64.3587 14.332 63.7971 14.5646 63.3831 14.9787C62.969 15.3928 62.7363 15.9544 62.7363 16.54C62.7363 17.1256 62.969 17.6872 63.3831 18.1013C63.7971 18.5154 64.3587 18.748 64.9443 18.748" fill="white"/>
      <path d="M62.7363 27.58V31.996H64.9443C65.5299 31.996 66.0915 31.7634 66.5056 31.3493C66.9197 30.9352 67.1523 30.3736 67.1523 29.788C67.1523 29.2024 66.9197 28.6408 66.5056 28.2267C66.0915 27.8126 65.5299 27.58 64.9443 27.58" fill="white"/>
      <path d="M62.7363 45.244V49.66H64.9443C65.5299 49.66 66.0915 49.4274 66.5056 49.0133C66.9197 48.5992 67.1523 48.0376 67.1523 47.452C67.1523 46.8664 66.9197 46.3048 66.5056 45.8907C66.0915 45.4766 65.5299 45.244 64.9443 45.244" fill="white"/>
      <path d="M64.9443 62.908C66.1638 62.908 67.1523 61.9194 67.1523 60.7C67.1523 59.4806 66.1638 58.492 64.9443 58.492C63.7249 58.492 62.7363 59.4806 62.7363 60.7C62.7363 61.9194 63.7249 62.908 64.9443 62.908Z" fill="white"/>
      <path d="M64.9443 71.74C66.1638 71.74 67.1523 70.7514 67.1523 69.532C67.1523 68.3126 66.1638 67.324 64.9443 67.324C63.7249 67.324 62.7363 68.3126 62.7363 69.532C62.7363 70.7514 63.7249 71.74 64.9443 71.74Z" fill="white"/>
      <path d="M62.7363 93.82H67.1523V89.404H64.9443C64.3587 89.404 63.7971 89.6366 63.383 90.0507C62.969 90.4648 62.7363 91.0264 62.7363 91.612" fill="white"/>
      <path d="M67.1523 93.82H62.7363V96.028C62.7363 96.6136 62.969 97.1752 63.3831 97.5893C63.7971 98.0034 64.3587 98.236 64.9443 98.236C65.5299 98.236 66.0916 98.0034 66.5056 97.5893C66.9197 97.1752 67.1523 96.6136 67.1523 96.028" fill="white"/>
      <path d="M62.7363 102.652V107.068H64.9443C65.5299 107.068 66.0915 106.835 66.5056 106.421C66.9197 106.007 67.1523 105.446 67.1523 104.86C67.1523 104.274 66.9197 103.713 66.5056 103.299C66.0915 102.885 65.5299 102.652 64.9443 102.652" fill="white"/>
      <path d="M67.1523 115.9H62.7363V120.316H67.1523V115.9Z" fill="white"/>
      <path d="M67.1523 133.564V129.148H64.9443C64.3587 129.148 63.7971 129.381 63.3831 129.795C62.969 130.209 62.7363 130.77 62.7363 131.356C62.7363 131.942 62.969 132.503 63.3831 132.917C63.7971 133.331 64.3587 133.564 64.9443 133.564" fill="white"/>
      <path d="M67.1523 5.5V9.916H69.3603C69.9459 9.916 70.5076 9.68337 70.9216 9.26929C71.3357 8.85521 71.5683 8.2936 71.5683 7.708C71.5683 7.1224 71.3357 6.56079 70.9216 6.14671C70.5076 5.73263 69.9459 5.5 69.3603 5.5" fill="white"/>
      <path d="M67.1523 14.332V18.748H69.3603C69.9459 18.748 70.5076 18.5154 70.9216 18.1013C71.3357 17.6872 71.5683 17.1256 71.5683 16.54C71.5683 15.9544 71.3357 15.3928 70.9216 14.9787C70.5076 14.5646 69.9459 14.332 69.3603 14.332" fill="white"/>
      <path d="M67.1523 36.412H71.5683V34.204C71.5683 33.6184 71.3357 33.0568 70.9216 32.6427C70.5076 32.2286 69.9459 31.996 69.3603 31.996C68.7747 31.996 68.2131 32.2286 67.7991 32.6427C67.385 33.0568 67.1523 33.6184 67.1523 34.204" fill="white"/>
      <path d="M71.5683 36.412H67.1523V40.828H71.5683V36.412Z" fill="white"/>
      <path d="M71.5684 40.828H67.1524V43.036C67.1524 43.6216 67.385 44.1832 67.7991 44.5973C68.2131 45.0114 68.7748 45.244 69.3604 45.244C69.946 45.244 70.5076 45.0114 70.9217 44.5973C71.3357 44.1832 71.5684 43.6216 71.5684 43.036" fill="white"/>
      <path d="M69.3603 58.492C70.5798 58.492 71.5683 57.5034 71.5683 56.284C71.5683 55.0645 70.5798 54.076 69.3603 54.076C68.1409 54.076 67.1523 55.0645 67.1523 56.284C67.1523 57.5034 68.1409 58.492 69.3603 58.492Z" fill="white"/>
      <path d="M69.3603 67.324C70.5798 67.324 71.5683 66.3354 71.5683 65.116C71.5683 63.8965 70.5798 62.908 69.3603 62.908C68.1409 62.908 67.1523 63.8965 67.1523 65.116C67.1523 66.3354 68.1409 67.324 69.3603 67.324Z" fill="white"/>
      <path d="M69.3603 76.156C70.5798 76.156 71.5683 75.1674 71.5683 73.948C71.5683 72.7285 70.5798 71.74 69.3603 71.74C68.1409 71.74 67.1523 72.7285 67.1523 73.948C67.1523 75.1674 68.1409 76.156 69.3603 76.156Z" fill="white"/>
      <path d="M67.1523 84.988H71.5683V82.78C71.5683 82.1944 71.3357 81.6328 70.9216 81.2187C70.5076 80.8046 69.9459 80.572 69.3603 80.572C68.7747 80.572 68.2131 80.8046 67.7991 81.2187C67.385 81.6328 67.1523 82.1944 67.1523 82.78" fill="white"/>
      <path d="M71.5683 84.988H67.1523V89.404H71.5683V84.988Z" fill="white"/>
      <path d="M71.5684 89.404H67.1524V93.82H69.3604C69.946 93.82 70.5076 93.5874 70.9217 93.1733C71.3357 92.7592 71.5684 92.1976 71.5684 91.612" fill="white"/>
      <path d="M71.5683 115.9H67.1523V120.316H71.5683V115.9Z" fill="white"/>
      <path d="M71.5684 120.316H67.1524V122.524C67.1524 123.11 67.385 123.671 67.7991 124.085C68.2131 124.499 68.7748 124.732 69.3604 124.732C69.946 124.732 70.5076 124.499 70.9217 124.085C71.3357 123.671 71.5684 123.11 71.5684 122.524" fill="white"/>
      <path d="M67.1523 129.148V133.564H69.3603C69.9459 133.564 70.5076 133.331 70.9216 132.917C71.3357 132.503 71.5683 131.942 71.5683 131.356C71.5683 130.77 71.3357 130.209 70.9216 129.795C70.5076 129.381 69.9459 129.148 69.3603 129.148" fill="white"/>
      <path d="M71.5684 27.58H75.9844V23.164H73.7764C73.1908 23.164 72.6291 23.3966 72.2151 23.8107C71.801 24.2248 71.5684 24.7864 71.5684 25.372" fill="white"/>
      <path d="M75.9839 27.58H71.5679V29.788C71.5679 30.3736 71.8005 30.9352 72.2146 31.3493C72.6287 31.7634 73.1903 31.996 73.7759 31.996C74.3615 31.996 74.9231 31.7634 75.3372 31.3493C75.7513 30.9352 75.9839 30.3736 75.9839 29.788" fill="white"/>
      <path d="M71.5684 36.412V40.828H73.7764C74.362 40.828 74.9236 40.5954 75.3377 40.1813C75.7517 39.7672 75.9844 39.2056 75.9844 38.62C75.9844 38.0344 75.7517 37.4728 75.3377 37.0587C74.9236 36.6446 74.362 36.412 73.7764 36.412" fill="white"/>
      <path d="M75.9839 49.66V45.244H73.7759C73.1903 45.244 72.6287 45.4766 72.2146 45.8907C71.8005 46.3048 71.5679 46.8664 71.5679 47.452C71.5679 48.0376 71.8005 48.5992 72.2146 49.0133C72.6287 49.4274 73.1903 49.66 73.7759 49.66" fill="white"/>
      <path d="M75.9839 71.74V67.324H73.7759C73.1903 67.324 72.6287 67.5566 72.2146 67.9707C71.8005 68.3848 71.5679 68.9464 71.5679 69.532C71.5679 70.1176 71.8005 70.6792 72.2146 71.0933C72.6287 71.5074 73.1903 71.74 73.7759 71.74" fill="white"/>
      <path d="M75.9844 84.988H71.5684V89.404H75.9844V84.988Z" fill="white"/>
      <path d="M71.5684 102.652H75.9844V98.236H73.7764C73.1908 98.236 72.6291 98.4686 72.2151 98.8827C71.801 99.2968 71.5684 99.8584 71.5684 100.444" fill="white"/>
      <path d="M75.9839 107.068V102.652H71.5679V104.86C71.5679 105.446 71.8005 106.007 72.2146 106.421C72.6287 106.835 73.1903 107.068 73.7759 107.068" fill="white"/>
      <path d="M71.5684 115.9V120.316H73.7764C74.362 120.316 74.9236 120.083 75.3377 119.669C75.7517 119.255 75.9844 118.694 75.9844 118.108C75.9844 117.522 75.7517 116.961 75.3377 116.547C74.9236 116.133 74.362 115.9 73.7764 115.9" fill="white"/>
      <path d="M73.7764 129.148C74.9958 129.148 75.9844 128.159 75.9844 126.94C75.9844 125.721 74.9958 124.732 73.7764 124.732C72.5569 124.732 71.5684 125.721 71.5684 126.94C71.5684 128.159 72.5569 129.148 73.7764 129.148Z" fill="white"/>
      <path d="M75.9839 18.748H80.3999V14.332H78.1919C77.6063 14.332 77.0447 14.5646 76.6306 14.9787C76.2165 15.3928 75.9839 15.9544 75.9839 16.54" fill="white"/>
      <path d="M80.3999 18.748H75.9839V23.164H80.3999V18.748Z" fill="white"/>
      <path d="M80.3999 23.164H75.9839V27.58H80.3999V23.164Z" fill="white"/>
      <path d="M78.1919 36.412C79.4113 36.412 80.3999 35.4234 80.3999 34.204C80.3999 32.9846 79.4113 31.996 78.1919 31.996C76.9724 31.996 75.9839 32.9846 75.9839 34.204C75.9839 35.4234 76.9724 36.412 78.1919 36.412Z" fill="white"/>
      <path d="M80.3999 45.244H75.9839V49.66H80.3999V45.244Z" fill="white"/>
      <path d="M80.3999 54.076V49.66H75.9839V51.868C75.9839 52.4536 76.2165 53.0152 76.6306 53.4293C77.0447 53.8434 77.6063 54.076 78.1919 54.076" fill="white"/>
      <path d="M75.9839 67.324H80.3999V62.908H78.1919C77.6063 62.908 77.0447 63.1406 76.6306 63.5547C76.2165 63.9688 75.9839 64.5304 75.9839 65.116" fill="white"/>
      <path d="M80.3999 67.324H75.9839V71.74H80.3999V67.324Z" fill="white"/>
      <path d="M80.3999 71.74H75.9839V76.156H80.3999V71.74Z" fill="white"/>
      <path d="M80.3999 76.156H75.9839V80.572H80.3999V76.156Z" fill="white"/>
      <path d="M80.3999 80.572H75.9839V84.988H80.3999V80.572Z" fill="white"/>
      <path d="M80.3999 84.988H75.9839V89.404H80.3999V84.988Z" fill="white"/>
      <path d="M80.3999 89.404H75.9839V91.612C75.9839 92.1976 76.2165 92.7592 76.6306 93.1733C77.0447 93.5874 77.6063 93.82 78.1919 93.82C78.7775 93.82 79.3391 93.5874 79.7532 93.1733C80.1673 92.7592 80.3999 92.1976 80.3999 91.612" fill="white"/>
      <path d="M75.9839 98.236V102.652H80.3999V100.444C80.3999 99.8584 80.1673 99.2968 79.7532 98.8827C79.3391 98.4686 78.7775 98.236 78.1919 98.236" fill="white"/>
      <path d="M80.3999 102.652H75.9839V107.068H80.3999V102.652Z" fill="white"/>
      <path d="M80.3999 111.484V107.068H75.9839V109.276C75.9839 109.862 76.2165 110.423 76.6306 110.837C77.0447 111.251 77.6063 111.484 78.1919 111.484" fill="white"/>
      <path d="M80.3999 133.564V129.148H78.1919C77.6063 129.148 77.0447 129.381 76.6306 129.795C76.2165 130.209 75.9839 130.77 75.9839 131.356C75.9839 131.942 76.2165 132.503 76.6306 132.917C77.0447 133.331 77.6063 133.564 78.1919 133.564" fill="white"/>
      <path d="M80.3999 14.332V18.748H84.8159V16.54C84.8159 15.9544 84.5833 15.3928 84.1692 14.9787C83.7551 14.5646 83.1935 14.332 82.6079 14.332" fill="white"/>
      <path d="M84.8159 18.748H80.3999V23.164H84.8159V18.748Z" fill="white"/>
      <path d="M84.8159 23.164H80.3999V27.58H84.8159V23.164Z" fill="white"/>
      <path d="M84.8159 31.996V27.58H80.3999V29.788C80.3999 30.3736 80.6325 30.9352 81.0466 31.3493C81.4607 31.7634 82.0223 31.996 82.6079 31.996" fill="white"/>
      <path d="M80.3999 40.828H84.8159V36.412H82.6079C82.0223 36.412 81.4607 36.6446 81.0466 37.0587C80.6325 37.4728 80.3999 38.0344 80.3999 38.62" fill="white"/>
      <path d="M84.8159 40.828H80.3999V45.244H84.8159V40.828Z" fill="white"/>
      <path d="M84.8159 45.244H80.3999V49.66H84.8159V45.244Z" fill="white"/>
      <path d="M84.8159 49.66H80.3999V54.076H82.6079C83.1935 54.076 83.7551 53.8434 84.1692 53.4293C84.5833 53.0152 84.8159 52.4536 84.8159 51.868" fill="white"/>
      <path d="M84.8159 62.908H80.3999V67.324H84.8159V62.908Z" fill="white"/>
      <path d="M84.8159 76.156H80.3999V80.572H84.8159V76.156Z" fill="white"/>
      <path d="M84.8159 84.988H80.3999V89.404H84.8159V84.988Z" fill="white"/>
      <path d="M80.3999 107.068V111.484H82.6079C83.1935 111.484 83.7551 111.251 84.1692 110.837C84.5833 110.423 84.8159 109.862 84.8159 109.276C84.8159 108.69 84.5833 108.129 84.1692 107.715C83.7551 107.301 83.1935 107.068 82.6079 107.068" fill="white"/>
      <path d="M80.3999 120.316H84.8159V115.9H82.6079C82.0223 115.9 81.4607 116.133 81.0466 116.547C80.6325 116.961 80.3999 117.522 80.3999 118.108" fill="white"/>
      <path d="M84.8159 120.316H80.3999V122.524C80.3999 123.11 80.6325 123.671 81.0466 124.085C81.4607 124.499 82.0223 124.732 82.6079 124.732C83.1935 124.732 83.7551 124.499 84.1692 124.085C84.5833 123.671 84.8159 123.11 84.8159 122.524" fill="white"/>
      <path d="M84.8159 129.148H80.3999V133.564H84.8159V129.148Z" fill="white"/>
      <path d="M84.8159 9.91599H89.2319V7.70799C89.2319 7.12239 88.9993 6.56077 88.5852 6.14669C88.1711 5.73261 87.6095 5.49999 87.0239 5.49999C86.4383 5.49999 85.8767 5.73261 85.4626 6.14669C85.0485 6.56077 84.8159 7.12239 84.8159 7.70799" fill="white"/>
      <path d="M89.2319 9.91599H84.8159V12.124C84.8159 12.7096 85.0486 13.2712 85.4626 13.6853C85.8767 14.0994 86.4383 14.332 87.0239 14.332C87.6095 14.332 88.1711 14.0994 88.5852 13.6853C88.9993 13.2712 89.2319 12.7096 89.2319 12.124" fill="white"/>
      <path d="M84.8159 23.164V27.58H89.2319V25.372C89.2319 24.7864 88.9993 24.2248 88.5852 23.8107C88.1711 23.3966 87.6095 23.164 87.0239 23.164" fill="white"/>
      <path d="M89.2319 27.58H84.8159V31.996H89.2319V27.58Z" fill="white"/>
      <path d="M89.2319 31.996H84.8159V36.412H89.2319V31.996Z" fill="white"/>
      <path d="M89.2319 36.412H84.8159V40.828H87.0239C87.6095 40.828 88.1711 40.5954 88.5852 40.1813C88.9993 39.7672 89.2319 39.2056 89.2319 38.62" fill="white"/>
      <path d="M89.2319 45.244H84.8159V49.66H89.2319V45.244Z" fill="white"/>
      <path d="M84.8159 62.908H89.2319V60.7C89.2319 60.1144 88.9993 59.5528 88.5852 59.1387C88.1711 58.7246 87.6095 58.492 87.0239 58.492C86.4383 58.492 85.8767 58.7246 85.4626 59.1387C85.0485 59.5528 84.8159 60.1144 84.8159 60.7" fill="white"/>
      <path d="M89.2319 62.908H84.8159V67.324H89.2319V62.908Z" fill="white"/>
      <path d="M89.2319 71.74V67.324H84.8159V69.532C84.8159 70.1176 85.0486 70.6792 85.4626 71.0933C85.8767 71.5074 86.4383 71.74 87.0239 71.74" fill="white"/>
      <path d="M89.2319 76.156H84.8159V80.572H89.2319V76.156Z" fill="white"/>
      <path d="M89.2319 84.988H84.8159V89.404H89.2319V84.988Z" fill="white"/>
      <path d="M89.2319 89.404H84.8159V91.612C84.8159 92.1976 85.0486 92.7592 85.4626 93.1733C85.8767 93.5874 86.4383 93.82 87.0239 93.82C87.6095 93.82 88.1711 93.5874 88.5852 93.1733C88.9993 92.7592 89.2319 92.1976 89.2319 91.612" fill="white"/>
      <path d="M84.8159 115.9H89.2319V111.484H87.0239C86.4383 111.484 85.8767 111.717 85.4626 112.131C85.0485 112.545 84.8159 113.106 84.8159 113.692" fill="white"/>
      <path d="M89.2319 115.9H84.8159V120.316H87.0239C87.6095 120.316 88.1711 120.083 88.5852 119.669C88.9993 119.255 89.2319 118.694 89.2319 118.108" fill="white"/>
      <path d="M89.2319 129.148H84.8159V133.564H89.2319V129.148Z" fill="white"/>
      <path d="M93.6479 18.748V14.332H91.4399C90.8544 14.332 90.2927 14.5646 89.8787 14.9787C89.4646 15.3928 89.2319 15.9544 89.2319 16.54C89.2319 17.1256 89.4646 17.6872 89.8787 18.1013C90.2927 18.5154 90.8544 18.748 91.4399 18.748" fill="white"/>
      <path d="M93.6479 27.58H89.2319V31.996H93.6479V27.58Z" fill="white"/>
      <path d="M89.2319 45.244H93.6479V40.828H91.4399C90.8543 40.828 90.2927 41.0606 89.8786 41.4747C89.4646 41.8888 89.2319 42.4504 89.2319 43.036" fill="white"/>
      <path d="M93.6479 45.244H89.2319V49.66H91.4399C92.0255 49.66 92.5872 49.4274 93.0012 49.0133C93.4153 48.5992 93.6479 48.0376 93.6479 47.452" fill="white"/>
      <path d="M89.2319 62.908V67.324H93.6479V65.116C93.6479 64.5304 93.4153 63.9688 93.0012 63.5547C92.5871 63.1406 92.0255 62.908 91.4399 62.908" fill="white"/>
      <path d="M93.6479 67.324H89.2319V71.74H93.6479V67.324Z" fill="white"/>
      <path d="M93.6479 71.74H89.2319V76.156H93.6479V71.74Z" fill="white"/>
      <path d="M93.6479 76.156H89.2319V80.572H91.4399C92.0255 80.572 92.5872 80.3394 93.0012 79.9253C93.4153 79.5112 93.6479 78.9496 93.6479 78.364" fill="white"/>
      <path d="M89.2319 84.988V89.404H91.4399C92.0255 89.404 92.5871 89.1714 93.0012 88.7573C93.4153 88.3432 93.6479 87.7816 93.6479 87.196C93.6479 86.6104 93.4153 86.0488 93.0012 85.6347C92.5871 85.2206 92.0255 84.988 91.4399 84.988" fill="white"/>
      <path d="M89.2319 102.652H93.6479V98.236H91.4399C90.8543 98.236 90.2927 98.4686 89.8786 98.8827C89.4646 99.2968 89.2319 99.8584 89.2319 100.444" fill="white"/>
      <path d="M93.6479 107.068V102.652H89.2319V104.86C89.2319 105.446 89.4646 106.007 89.8787 106.421C90.2927 106.835 90.8544 107.068 91.4399 107.068" fill="white"/>
      <path d="M93.6479 111.484H89.2319V115.9H93.6479V111.484Z" fill="white"/>
      <path d="M89.2319 129.148H93.6479V126.94C93.6479 126.354 93.4153 125.793 93.0012 125.379C92.5871 124.965 92.0255 124.732 91.4399 124.732C90.8543 124.732 90.2927 124.965 89.8786 125.379C89.4646 125.793 89.2319 126.354 89.2319 126.94" fill="white"/>
      <path d="M93.6479 129.148H89.2319V133.564H93.6479V129.148Z" fill="white"/>
      <path d="M93.6479 9.91599H98.0639V7.70799C98.0639 7.12239 97.8313 6.56077 97.4172 6.14669C97.0032 5.73261 96.4415 5.49999 95.8559 5.49999C95.2704 5.49999 94.7087 5.73261 94.2947 6.14669C93.8806 6.56077 93.6479 7.12239 93.6479 7.70799" fill="white"/>
      <path d="M98.0639 9.91599H93.6479V14.332H98.0639V9.91599Z" fill="white"/>
      <path d="M98.064 14.332H93.648V18.748H95.856C96.4416 18.748 97.0032 18.5154 97.4173 18.1013C97.8313 17.6872 98.064 17.1256 98.064 16.54" fill="white"/>
      <path d="M93.6479 27.58H98.0639V25.372C98.0639 24.7864 97.8313 24.2248 97.4172 23.8107C97.0032 23.3966 96.4415 23.164 95.8559 23.164C95.2704 23.164 94.7087 23.3966 94.2947 23.8107C93.8806 24.2248 93.6479 24.7864 93.6479 25.372" fill="white"/>
      <path d="M98.0639 27.58H93.6479V31.996H98.0639V27.58Z" fill="white"/>
      <path d="M98.0639 31.996H93.6479V36.412H98.0639V31.996Z" fill="white"/>
      <path d="M98.0639 36.412H93.6479V40.828H98.0639V36.412Z" fill="white"/>
      <path d="M98.0639 40.828H93.6479V45.244H98.0639V40.828Z" fill="white"/>
      <path d="M98.064 54.076V49.66H95.856C95.2704 49.66 94.7088 49.8926 94.2947 50.3067C93.8806 50.7208 93.648 51.2824 93.648 51.868C93.648 52.4536 93.8806 53.0152 94.2947 53.4293C94.7088 53.8434 95.2704 54.076 95.856 54.076" fill="white"/>
      <path d="M95.8559 62.908C97.0754 62.908 98.0639 61.9194 98.0639 60.7C98.0639 59.4806 97.0754 58.492 95.8559 58.492C94.6365 58.492 93.6479 59.4806 93.6479 60.7C93.6479 61.9194 94.6365 62.908 95.8559 62.908Z" fill="white"/>
      <path d="M93.6479 93.82H98.0639V91.612C98.0639 91.0264 97.8313 90.4648 97.4172 90.0507C97.0032 89.6366 96.4415 89.404 95.8559 89.404C95.2704 89.404 94.7087 89.6366 94.2947 90.0507C93.8806 90.4648 93.6479 91.0264 93.6479 91.612" fill="white"/>
      <path d="M98.0639 93.82H93.6479V98.236H98.0639V93.82Z" fill="white"/>
      <path d="M98.0639 98.236H93.6479V102.652H98.0639V98.236Z" fill="white"/>
      <path d="M98.0639 102.652H93.6479V107.068H98.0639V102.652Z" fill="white"/>
      <path d="M98.0639 107.068H93.6479V111.484H98.0639V107.068Z" fill="white"/>
      <path d="M98.0639 111.484H93.6479V115.9H98.0639V111.484Z" fill="white"/>
      <path d="M98.064 120.316V115.9H93.648V118.108C93.648 118.694 93.8806 119.255 94.2947 119.669C94.7088 120.083 95.2704 120.316 95.856 120.316" fill="white"/>
      <path d="M98.0639 129.148H93.6479V133.564H98.0639V129.148Z" fill="white"/>
      <path d="M98.064 40.828V45.244H100.272C100.858 45.244 101.419 45.0114 101.833 44.5973C102.247 44.1832 102.48 43.6216 102.48 43.036C102.48 42.4504 102.247 41.8888 101.833 41.4747C101.419 41.0606 100.858 40.828 100.272 40.828" fill="white"/>
      <path d="M98.064 49.66V54.076H102.48V51.868C102.48 51.2824 102.247 50.7208 101.833 50.3067C101.419 49.8926 100.858 49.66 100.272 49.66" fill="white"/>
      <path d="M102.48 54.076H98.064V56.284C98.064 56.8696 98.2966 57.4312 98.7107 57.8453C99.1248 58.2594 99.6864 58.492 100.272 58.492C100.858 58.492 101.419 58.2594 101.833 57.8453C102.247 57.4312 102.48 56.8696 102.48 56.284" fill="white"/>
      <path d="M98.064 76.156H102.48V71.74H100.272C99.6864 71.74 99.1248 71.9726 98.7107 72.3867C98.2966 72.8008 98.064 73.3624 98.064 73.948" fill="white"/>
      <path d="M102.48 76.156H98.064V80.572H102.48V76.156Z" fill="white"/>
      <path d="M102.48 80.572H98.064V82.78C98.064 83.3656 98.2966 83.9272 98.7107 84.3413C99.1248 84.7554 99.6864 84.988 100.272 84.988C100.858 84.988 101.419 84.7554 101.833 84.3413C102.247 83.9272 102.48 83.3656 102.48 82.78" fill="white"/>
      <path d="M102.48 93.82H98.064V98.236H102.48V93.82Z" fill="white"/>
      <path d="M102.48 111.484H98.064V115.9H102.48V111.484Z" fill="white"/>
      <path d="M102.48 115.9H98.064V120.316H102.48V115.9Z" fill="white"/>
      <path d="M98.064 129.148H102.48V126.94C102.48 126.354 102.247 125.793 101.833 125.379C101.419 124.965 100.858 124.732 100.272 124.732C99.6864 124.732 99.1248 124.965 98.7107 125.379C98.2966 125.793 98.064 126.354 98.064 126.94" fill="white"/>
      <path d="M102.48 129.148H98.064V133.564H102.48V129.148Z" fill="white"/>
      <path d="M104.688 49.66C105.907 49.66 106.896 48.6714 106.896 47.452C106.896 46.2325 105.907 45.244 104.688 45.244C103.469 45.244 102.48 46.2325 102.48 47.452C102.48 48.6714 103.469 49.66 104.688 49.66Z" fill="white"/>
      <path d="M104.688 62.908C105.907 62.908 106.896 61.9194 106.896 60.7C106.896 59.4806 105.907 58.492 104.688 58.492C103.469 58.492 102.48 59.4806 102.48 60.7C102.48 61.9194 103.469 62.908 104.688 62.908Z" fill="white"/>
      <path d="M102.48 71.74H106.896V69.532C106.896 68.9464 106.663 68.3848 106.249 67.9707C105.835 67.5566 105.274 67.324 104.688 67.324C104.102 67.324 103.541 67.5566 103.127 67.9707C102.713 68.3848 102.48 68.9464 102.48 69.532" fill="white"/>
      <path d="M106.896 71.74H102.48V76.156H104.688C105.274 76.156 105.835 75.9234 106.249 75.5093C106.663 75.0952 106.896 74.5336 106.896 73.948" fill="white"/>
      <path d="M106.896 93.82H102.48V98.236H106.896V93.82Z" fill="white"/>
      <path d="M104.688 107.068C105.907 107.068 106.896 106.079 106.896 104.86C106.896 103.641 105.907 102.652 104.688 102.652C103.469 102.652 102.48 103.641 102.48 104.86C102.48 106.079 103.469 107.068 104.688 107.068Z" fill="white"/>
      <path d="M106.896 111.484H102.48V115.9H106.896V111.484Z" fill="white"/>
      <path d="M106.896 115.9H102.48V120.316H106.896V115.9Z" fill="white"/>
      <path d="M106.896 120.316H102.48V122.524C102.48 123.11 102.713 123.671 103.127 124.085C103.541 124.499 104.102 124.732 104.688 124.732C105.274 124.732 105.835 124.499 106.249 124.085C106.663 123.671 106.896 123.11 106.896 122.524" fill="white"/>
      <path d="M102.48 129.148V133.564H104.688C105.274 133.564 105.835 133.331 106.249 132.917C106.663 132.503 106.896 131.942 106.896 131.356C106.896 130.77 106.663 130.209 106.249 129.795C105.835 129.381 105.274 129.148 104.688 129.148" fill="white"/>
      <path d="M111.312 84.988V80.572H109.104C108.518 80.572 107.957 80.8046 107.543 81.2187C107.129 81.6328 106.896 82.1944 106.896 82.78C106.896 83.3656 107.129 83.9272 107.543 84.3413C107.957 84.7554 108.518 84.988 109.104 84.988" fill="white"/>
      <path d="M106.896 93.82H111.312V89.404H109.104C108.518 89.404 107.957 89.6366 107.543 90.0507C107.129 90.4648 106.896 91.0264 106.896 91.612" fill="white"/>
      <path d="M111.312 93.82H106.896V98.236H111.312V93.82Z" fill="white"/>
      <path d="M111.312 111.484H106.896V115.9H111.312V111.484Z" fill="white"/>
      <path d="M111.312 115.9H106.896V120.316H109.104C109.69 120.316 110.251 120.083 110.665 119.669C111.079 119.255 111.312 118.694 111.312 118.108" fill="white"/>
      <path d="M111.312 129.148V124.732H109.104C108.518 124.732 107.957 124.965 107.543 125.379C107.129 125.793 106.896 126.354 106.896 126.94C106.896 127.526 107.129 128.087 107.543 128.501C107.957 128.915 108.518 129.148 109.104 129.148" fill="white"/>
      <path d="M113.52 49.66C114.739 49.66 115.728 48.6714 115.728 47.452C115.728 46.2325 114.739 45.244 113.52 45.244C112.301 45.244 111.312 46.2325 111.312 47.452C111.312 48.6714 112.301 49.66 113.52 49.66Z" fill="white"/>
      <path d="M113.52 76.156C114.739 76.156 115.728 75.1674 115.728 73.948C115.728 72.7285 114.739 71.74 113.52 71.74C112.301 71.74 111.312 72.7285 111.312 73.948C111.312 75.1674 112.301 76.156 113.52 76.156Z" fill="white"/>
      <path d="M115.728 80.572H111.312V84.988H115.728V80.572Z" fill="white"/>
      <path d="M115.728 89.404H111.312V93.82H115.728V89.404Z" fill="white"/>
      <path d="M115.728 93.82H111.312V98.236H115.728V93.82Z" fill="white"/>
      <path d="M115.728 98.236H111.312V102.652H115.728V98.236Z" fill="white"/>
      <path d="M115.728 102.652H111.312V107.068H115.728V102.652Z" fill="white"/>
      <path d="M115.728 107.068H111.312V111.484H115.728V107.068Z" fill="white"/>
      <path d="M115.728 111.484H111.312V115.9H115.728V111.484Z" fill="white"/>
      <path d="M115.728 124.732H111.312V129.148H115.728V124.732Z" fill="white"/>
      <path d="M115.728 129.148H111.312V131.356C111.312 131.942 111.545 132.503 111.959 132.917C112.373 133.331 112.934 133.564 113.52 133.564C114.106 133.564 114.667 133.331 115.081 132.917C115.495 132.503 115.728 131.942 115.728 131.356" fill="white"/>
      <path d="M117.936 54.076C119.155 54.076 120.144 53.0874 120.144 51.868C120.144 50.6486 119.155 49.66 117.936 49.66C116.717 49.66 115.728 50.6486 115.728 51.868C115.728 53.0874 116.717 54.076 117.936 54.076Z" fill="white"/>
      <path d="M115.728 62.908H120.144V58.492H117.936C117.35 58.492 116.789 58.7246 116.375 59.1387C115.961 59.5528 115.728 60.1144 115.728 60.7" fill="white"/>
      <path d="M120.144 62.908H115.728V67.324H120.144V62.908Z" fill="white"/>
      <path d="M120.144 67.324H115.728V69.532C115.728 70.1176 115.961 70.6792 116.375 71.0933C116.789 71.5074 117.35 71.74 117.936 71.74C118.522 71.74 119.083 71.5074 119.497 71.0933C119.911 70.6792 120.144 70.1176 120.144 69.532" fill="white"/>
      <path d="M120.144 80.572H115.728V84.988H120.144V80.572Z" fill="white"/>
      <path d="M115.728 89.404V93.82H120.144V91.612C120.144 91.0264 119.911 90.4648 119.497 90.0507C119.083 89.6366 118.522 89.404 117.936 89.404" fill="white"/>
      <path d="M120.144 93.82H115.728V98.236H117.936C118.522 98.236 119.083 98.0034 119.497 97.5893C119.911 97.1752 120.144 96.6136 120.144 96.028" fill="white"/>
      <path d="M115.728 107.068V111.484H120.144V109.276C120.144 108.69 119.911 108.129 119.497 107.715C119.083 107.301 118.522 107.068 117.936 107.068" fill="white"/>
      <path d="M120.144 111.484H115.728V115.9H120.144V111.484Z" fill="white"/>
      <path d="M120.144 115.9H115.728V120.316H120.144V115.9Z" fill="white"/>
      <path d="M120.144 120.316H115.728V124.732H120.144V120.316Z" fill="white"/>
      <path d="M120.144 124.732H115.728V129.148H120.144V124.732Z" fill="white"/>
      <path d="M124.56 45.244V40.828H122.352C121.766 40.828 121.205 41.0606 120.791 41.4747C120.377 41.8888 120.144 42.4504 120.144 43.036C120.144 43.6216 120.377 44.1832 120.791 44.5973C121.205 45.0114 121.766 45.244 122.352 45.244" fill="white"/>
      <path d="M120.144 58.492V62.908H124.56V60.7C124.56 60.1144 124.327 59.5528 123.913 59.1387C123.499 58.7246 122.938 58.492 122.352 58.492" fill="white"/>
      <path d="M124.56 62.908H120.144V67.324H124.56V62.908Z" fill="white"/>
      <path d="M122.352 76.156C123.571 76.156 124.56 75.1674 124.56 73.948C124.56 72.7285 123.571 71.74 122.352 71.74C121.133 71.74 120.144 72.7285 120.144 73.948C120.144 75.1674 121.133 76.156 122.352 76.156Z" fill="white"/>
      <path d="M120.144 80.572V84.988H124.56V82.78C124.56 82.1944 124.327 81.6328 123.913 81.2187C123.499 80.8046 122.938 80.572 122.352 80.572" fill="white"/>
      <path d="M124.56 84.988H120.144V87.196C120.144 87.7816 120.377 88.3432 120.791 88.7573C121.205 89.1714 121.766 89.404 122.352 89.404C122.938 89.404 123.499 89.1714 123.913 88.7573C124.327 88.3432 124.56 87.7816 124.56 87.196" fill="white"/>
      <path d="M124.56 102.652V98.236H122.352C121.766 98.236 121.205 98.4686 120.791 98.8827C120.377 99.2968 120.144 99.8584 120.144 100.444C120.144 101.03 120.377 101.591 120.791 102.005C121.205 102.419 121.766 102.652 122.352 102.652" fill="white"/>
      <path d="M120.144 111.484V115.9H124.56V113.692C124.56 113.106 124.327 112.545 123.913 112.131C123.499 111.717 122.938 111.484 122.352 111.484" fill="white"/>
      <path d="M124.56 115.9H120.144V120.316H124.56V115.9Z" fill="white"/>
      <path d="M120.144 124.732V129.148H124.56V126.94C124.56 126.354 124.327 125.793 123.913 125.379C123.499 124.965 122.938 124.732 122.352 124.732" fill="white"/>
      <path d="M124.56 129.148H120.144V131.356C120.144 131.942 120.377 132.503 120.791 132.917C121.205 133.331 121.766 133.564 122.352 133.564C122.938 133.564 123.499 133.331 123.913 132.917C124.327 132.503 124.56 131.942 124.56 131.356" fill="white"/>
      <path d="M124.56 40.828V45.244H126.768C127.354 45.244 127.915 45.0114 128.329 44.5973C128.743 44.1832 128.976 43.6216 128.976 43.036C128.976 42.4504 128.743 41.8888 128.329 41.4747C127.915 41.0606 127.354 40.828 126.768 40.828" fill="white"/>
      <path d="M124.56 62.908V67.324H128.976V65.116C128.976 64.5304 128.743 63.9688 128.329 63.5547C127.915 63.1406 127.354 62.908 126.768 62.908" fill="white"/>
      <path d="M128.976 67.324H124.56V69.532C124.56 70.1176 124.793 70.6792 125.207 71.0933C125.621 71.5074 126.182 71.74 126.768 71.74C127.354 71.74 127.915 71.5074 128.329 71.0933C128.743 70.6792 128.976 70.1176 128.976 69.532" fill="white"/>
      <path d="M128.976 98.236H124.56V102.652H128.976V98.236Z" fill="white"/>
      <path d="M128.976 102.652H124.56V104.86C124.56 105.446 124.793 106.007 125.207 106.421C125.621 106.835 126.182 107.068 126.768 107.068C127.354 107.068 127.915 106.835 128.329 106.421C128.743 106.007 128.976 105.446 128.976 104.86" fill="white"/>
      <path d="M128.976 115.9H124.56V120.316H128.976V115.9Z" fill="white"/>
      <path d="M131.184 54.076C132.404 54.076 133.392 53.0874 133.392 51.868C133.392 50.6486 132.404 49.66 131.184 49.66C129.965 49.66 128.976 50.6486 128.976 51.868C128.976 53.0874 129.965 54.076 131.184 54.076Z" fill="white"/>
      <path d="M128.976 76.156H133.392V73.948C133.392 73.3624 133.159 72.8008 132.745 72.3867C132.331 71.9726 131.77 71.74 131.184 71.74C130.598 71.74 130.037 71.9726 129.623 72.3867C129.209 72.8008 128.976 73.3624 128.976 73.948" fill="white"/>
      <path d="M133.392 76.156H128.976V78.364C128.976 78.9496 129.209 79.5112 129.623 79.9253C130.037 80.3394 130.598 80.572 131.184 80.572C131.77 80.572 132.331 80.3394 132.745 79.9253C133.159 79.5112 133.392 78.9496 133.392 78.364" fill="white"/>
      <path d="M128.976 98.236V102.652H131.184C131.77 102.652 132.331 102.419 132.745 102.005C133.159 101.591 133.392 101.03 133.392 100.444C133.392 99.8584 133.159 99.2968 132.745 98.8827C132.331 98.4686 131.77 98.236 131.184 98.236" fill="white"/>
      <path d="M128.976 111.484H133.392V109.276C133.392 108.69 133.159 108.129 132.745 107.715C132.331 107.301 131.77 107.068 131.184 107.068C130.598 107.068 130.037 107.301 129.623 107.715C129.209 108.129 128.976 108.69 128.976 109.276" fill="white"/>
      <path d="M133.392 111.484H128.976V115.9H133.392V111.484Z" fill="white"/>
      <path d="M133.392 115.9H128.976V120.316H131.184C131.77 120.316 132.331 120.083 132.745 119.669C133.159 119.255 133.392 118.694 133.392 118.108" fill="white"/>
      <path d="M131.184 133.564C132.404 133.564 133.392 132.575 133.392 131.356C133.392 130.137 132.404 129.148 131.184 129.148C129.965 129.148 128.976 130.137 128.976 131.356C128.976 132.575 129.965 133.564 131.184 133.564Z" fill="white"/>
      <path fill-rule="evenodd" clip-rule="evenodd" d="M5.32812 16.54V25.372C5.32812 28.3 6.49126 31.1081 8.56167 33.1785C9.58682 34.2036 10.8039 35.0168 12.1433 35.5716C13.4827 36.1264 14.9183 36.412 16.3681 36.412H25.2001C28.1281 36.412 30.9362 35.2489 33.0066 33.1785C35.077 31.1081 36.2401 28.3 36.2401 25.372V16.54C36.2401 15.0902 35.9546 13.6546 35.3998 12.3152C34.8449 10.9757 34.0317 9.7587 33.0066 8.73354C31.9814 7.70838 30.7644 6.89518 29.4249 6.34037C28.0855 5.78556 26.6499 5.5 25.2001 5.5H16.3681C14.9183 5.5 13.4827 5.78556 12.1433 6.34037C10.8039 6.89518 9.58682 7.70838 8.56167 8.73354C6.49126 10.8039 5.32813 13.612 5.32812 16.54ZM16.3681 9.916H25.2001C26.9569 9.916 28.6418 10.6139 29.884 11.8561C31.1262 13.0984 31.8241 14.7832 31.8241 16.54V25.372C31.8241 27.1288 31.1262 28.8136 29.884 30.0559C28.6418 31.2981 26.9569 31.996 25.2001 31.996H16.3681C14.6113 31.996 12.9265 31.2981 11.6842 30.0559C10.442 28.8136 9.74412 27.1288 9.74412 25.372V16.54C9.74412 14.7832 10.442 13.0984 11.6842 11.8561C12.9265 10.6139 14.6113 9.916 16.3681 9.916Z" fill="white"/>
      <path d="M20.7842 27.58C24.4425 27.58 27.4082 24.6143 27.4082 20.956C27.4082 17.2977 24.4425 14.332 20.7842 14.332C17.1258 14.332 14.1602 17.2977 14.1602 20.956C14.1602 24.6143 17.1258 27.58 20.7842 27.58Z" fill="white"/>
      <path fill-rule="evenodd" clip-rule="evenodd" d="M122.352 5.5H113.52C110.592 5.5 107.784 6.66314 105.714 8.73354C103.643 10.8039 102.48 13.612 102.48 16.54V25.372C102.48 28.3 103.643 31.1081 105.714 33.1785C107.784 35.2489 110.592 36.412 113.52 36.412H122.352C123.802 36.412 125.237 36.1264 126.577 35.5716C127.916 35.0168 129.133 34.2036 130.159 33.1785C131.184 32.1533 131.997 30.9363 132.552 29.5968C133.107 28.2574 133.392 26.8218 133.392 25.372V16.54C133.392 13.612 132.229 10.8039 130.159 8.73354C128.088 6.66314 125.28 5.5 122.352 5.5ZM128.976 16.54V25.372C128.976 27.1288 128.278 28.8136 127.036 30.0559C125.794 31.2981 124.109 31.996 122.352 31.996H113.52C111.763 31.996 110.078 31.2981 108.836 30.0559C107.594 28.8136 106.896 27.1288 106.896 25.372V16.54C106.896 14.7832 107.594 13.0984 108.836 11.8561C110.078 10.6139 111.763 9.916 113.52 9.916H122.352C124.109 9.916 125.794 10.6139 127.036 11.8561C128.278 13.0984 128.976 14.7832 128.976 16.54Z" fill="white"/>
      <path d="M111.312 20.956C111.312 24.6143 114.278 27.58 117.936 27.58C121.594 27.58 124.56 24.6143 124.56 20.956C124.56 17.2977 121.594 14.332 117.936 14.332C114.278 14.332 111.312 17.2977 111.312 20.956Z" fill="white"/>
      <path fill-rule="evenodd" clip-rule="evenodd" d="M16.3681 133.564H25.2001C28.1281 133.564 30.9362 132.401 33.0066 130.33C34.0317 129.305 34.8449 128.088 35.3998 126.749C35.9546 125.409 36.2401 123.974 36.2401 122.524V113.692C36.2401 110.764 35.077 107.956 33.0066 105.886C30.9362 103.815 28.1281 102.652 25.2001 102.652H16.3681C13.4401 102.652 10.6321 103.815 8.56167 105.886C6.49126 107.956 5.32813 110.764 5.32813 113.692V122.524C5.32812 123.974 5.61369 125.409 6.1685 126.749C6.72331 128.088 7.53651 129.305 8.56167 130.33C10.6321 132.401 13.4401 133.564 16.3681 133.564ZM9.74412 122.524V113.692C9.74412 111.935 10.442 110.25 11.6843 109.008C12.9265 107.766 14.6113 107.068 16.3681 107.068H25.2001C26.9569 107.068 28.6418 107.766 29.884 109.008C31.1262 110.25 31.8241 111.935 31.8241 113.692V122.524C31.8241 124.281 31.1262 125.966 29.884 127.208C28.6418 128.45 26.9569 129.148 25.2001 129.148H16.3681C14.6113 129.148 12.9265 128.45 11.6843 127.208C10.442 125.966 9.74412 124.281 9.74412 122.524Z" fill="white"/>
      <path d="M27.4082 118.108C27.4082 114.45 24.4425 111.484 20.7842 111.484C17.1258 111.484 14.1602 114.45 14.1602 118.108C14.1602 121.766 17.1258 124.732 20.7842 124.732C24.4425 124.732 27.4082 121.766 27.4082 118.108Z" fill="white"/>
    </mask>
    <g mask="url(#mask0_15453_705)">
      <path d="M138.36 0.532013H0.360352V138.532H138.36V0.532013Z" fill="black"/>
    </g>
  </g>
  <defs>
    <clipPath id="clip0_15453_705">
      <rect width="138" height="138" fill="white" transform="translate(0.328125 0.5)"/>
    </clipPath>
  </defs>
</svg>