<svg width="19" height="17" viewBox="0 0 19 17" fill="none" xmlns="http://www.w3.org/2000/svg">
<path d="M4.8333 12.0002C3.79353 12.0002 2.79634 11.6051 2.06112 10.9018C1.32589 10.1986 0.912842 9.24474 0.912842 8.25018C0.912842 7.25562 1.32589 6.30179 2.06112 5.59853C2.79634 4.89527 3.79353 4.50018 4.8333 4.50018C5.07887 3.40617 5.79727 2.44475 6.83045 1.82745C7.34203 1.52179 7.9155 1.30981 8.51811 1.20361C9.12072 1.09741 9.74066 1.09908 10.3426 1.20852C10.9444 1.31795 11.5165 1.53301 12.026 1.84142C12.5356 2.14982 12.9726 2.54553 13.3123 3.00596C13.6519 3.46638 13.8874 3.9825 14.0054 4.52485C14.1234 5.06719 14.1216 5.62515 14 6.16685H14.8333C15.6068 6.16685 16.3487 6.47414 16.8957 7.02112C17.4427 7.5681 17.75 8.30997 17.75 9.08352C17.75 9.85706 17.4427 10.5989 16.8957 11.1459C16.3487 11.6929 15.6068 12.0002 14.8333 12.0002M8.16663 7.83335V9.50002M8.16663 12V13.6667M11.5 9.50002V11.1667M11.5 13.6667V15.3334" stroke="#F97316" stroke-width="1.66667" stroke-linecap="round" stroke-linejoin="round"/>
</svg>
