<svg xmlns="http://www.w3.org/2000/svg" width="156" height="44" viewBox="0 0 156 44" fill="none">
  <g clip-path="url(#clip0_7498_2393)">
    <path d="M3.78564 23.7317L9.93193 12.3059L4.8025 16.5366C6.44867 11.1985 10.4386 7.13934 14.4617 5.10112C14.3696 5.45305 12.993 13.3314 12.993 13.3314L20.3232 0.880127L22.3983 9.14606L27.4768 1.19302L28.316 5.92366L34.7691 4.37813L26.7938 9.35959L26.6256 5.49906L24.4722 10.8096L19.9942 13.6065L19.5729 4.12371L15.6262 16.3348L3.78564 23.7317ZM43.3524 25.2874L34.2778 28.1311L31.5279 38.2769L31.0423 28.6346L23.3827 37.1932L24.6264 31.1592L19.2016 32.8614L15.8234 36.653L15.8383 33.9275L7.68186 36.4907L13.7034 36.4937L14.1441 41.0725L20.5067 34.3971L21.0269 43.0141L28.347 34.4746L31.0919 42.5781L37.8932 30.0112L37.5328 36.6426C40.9381 33.2044 42.6897 29.5828 43.3524 25.2874Z" fill="#FF0088"/>
    <path d="M3.78564 23.7317L9.93193 12.3059L4.8025 16.5366C6.44867 11.1985 10.4386 7.13934 14.4617 5.10112C14.3696 5.45305 12.993 13.3314 12.993 13.3314L20.3232 0.880127L22.3983 9.14606L27.4768 1.19302L28.316 5.92366L34.7691 4.37813L26.7938 9.35959L26.6256 5.49906L24.4722 10.8096L19.9942 13.6065L19.5729 4.12371L15.6262 16.3348L3.78564 23.7317ZM43.3524 25.2874L34.2778 28.1311L31.5279 38.2769L31.0423 28.6346L23.3827 37.1932L24.6264 31.1592L19.2016 32.8614L15.8234 36.653L15.8383 33.9275L7.68186 36.4907L13.7034 36.4937L14.1441 41.0725L20.5067 34.3971L21.0269 43.0141L28.347 34.4746L31.0919 42.5781L37.8932 30.0112L37.5328 36.6426C40.9381 33.2044 42.6897 29.5828 43.3524 25.2874Z" fill="#FF0088"/>
    <path d="M30.343 25.966C30.4125 26.1279 30.3455 26.3041 30.1938 26.3589L16.5083 31.283C16.4071 31.3196 16.2855 31.24 16.2365 31.1055L15.6402 29.4662C15.1691 28.1714 15.4025 26.7624 16.2249 25.9986L22.8977 19.7972C22.3872 19.6444 21.9184 19.7336 21.5262 19.9314L18.107 21.655C17.516 21.9403 17.0663 22.6082 17.2124 23.22C17.2629 23.4139 17.2192 23.5032 17.1147 23.5531L14.1972 24.9487C14.1018 24.9941 13.9869 24.9269 13.9404 24.7987L13.818 24.4573C12.8322 21.7472 15.0478 19.256 16.6855 18.3234L19.8766 16.5062C21.8474 15.3839 25.4641 14.8547 26.88 18.1531C26.9842 18.396 27.1973 18.9703 27.1973 18.9703C27.3565 19.3841 27.4513 19.887 27.0517 20.2622L20.8679 25.5263L28.4051 22.3247C28.5508 22.2628 28.7242 22.3397 28.7916 22.4969L30.343 25.966ZM11.4284 21.5893C11.3836 21.4645 11.2609 21.4125 11.1547 21.473L8.56695 22.9467C8.47064 23.0016 8.42606 23.1424 8.46709 23.2615L9.05496 24.9677C9.26605 25.6017 9.17864 26.2297 8.86058 26.423L0.406991 30.6514C-0.0393041 30.8747 -0.129176 31.7325 0.19017 32.556C0.513175 33.389 1.13417 33.892 1.60637 33.6926L10.1018 30.1167C10.4403 29.9822 10.8826 30.3448 11.1203 30.9621L11.7354 32.747C11.7798 32.8759 11.902 32.9493 12.0087 32.9107L14.8814 31.872C14.9994 31.8293 15.0561 31.6846 15.0072 31.549L11.4284 21.5893ZM46.0747 11.3246C48.2187 15.4354 48.6742 19.6821 46.7363 20.3969L34.1693 24.9275C32.7593 25.4361 30.3452 22.6971 28.8214 19.1693C27.2978 15.6416 27.0419 12.4366 28.3239 11.7019L39.0946 5.5816C40.8287 4.59946 43.8744 7.10544 46.0747 11.3246ZM41.3678 13.3925C40.6808 12.0218 39.5991 10.8225 38.9294 11.1548L32.4044 14.4457C31.8464 14.7322 32.1422 16.136 32.7207 17.4105C33.2992 18.685 34.189 19.8802 34.7806 19.6334L41.6658 16.7089C42.3699 16.4047 42.0547 14.7633 41.3678 13.3925ZM55.9004 8.86755H54.5775V14.3169H55.9004V8.86755ZM60.0933 14.3859C61.0216 14.3859 61.7642 14.1172 62.2517 13.6798L61.5245 12.6283C61.122 12.9737 60.7121 13.1579 60.1551 13.1579C59.1648 13.1579 58.6155 12.4518 58.6155 11.5998C58.6155 10.6021 59.2885 10.0188 60.0778 10.0188C60.6889 10.0188 61.1608 10.3027 61.4394 10.6328L62.2671 9.65801C61.7024 9.05175 60.9055 8.79074 60.1164 8.79074C58.275 8.79074 57.2539 9.99571 57.2539 11.5998C57.2539 13.3728 58.4607 14.3859 60.0933 14.3859ZM66.0881 14.3859C67.0164 14.3859 67.7592 14.1172 68.2465 13.6798L67.5193 12.6283C67.1168 12.9737 66.7069 13.1579 66.1499 13.1579C65.1596 13.1579 64.6103 12.4518 64.6103 11.5998C64.6103 10.6021 65.2835 10.0188 66.0726 10.0188C66.6837 10.0188 67.1556 10.3027 67.4342 10.6328L68.2619 9.65801C67.6972 9.05175 66.9003 8.79074 66.1112 8.79074C64.2698 8.79074 63.2487 9.99571 63.2487 11.5998C63.2487 13.3728 64.4555 14.3859 66.0881 14.3859ZM72.624 11.3082H72.6471L73.7612 13.3114H74.5892L75.7033 11.3158H75.7187V14.3169H77.0029V8.86755H75.6955L74.1868 11.761H74.1714L72.6471 8.86755H71.3475V14.3169H72.624V11.3082ZM82.5025 13.1733H79.818V12.1602H82.1543V11.0549H79.818V10.0111H82.3941V8.86755H78.5567V14.3169H82.5025V13.1733ZM85.1707 11.0319H85.1862L87.4143 14.3169H88.6829V8.86755H87.4065V12.2292L87.3911 12.2369L85.1396 8.86755H83.9018V14.3169H85.1707V11.0319ZM91.5136 8.86755H90.3222L90.09 10.9398H90.9876L91.5136 8.86755ZM94.5151 13.25C94.0973 13.25 93.5479 13.0734 93.0605 12.705L92.5034 13.7797C93.0374 14.1941 93.7647 14.3859 94.5073 14.3859C95.6368 14.3859 96.5806 13.933 96.5806 12.7204C96.5806 11.6229 95.7372 11.3466 94.8168 11.0012C94.1591 10.7632 93.9503 10.6251 93.9503 10.3488C93.9503 10.0571 94.2133 9.91902 94.5459 9.91902C94.9637 9.91902 95.3893 10.1262 95.7606 10.4255L96.4569 9.3971C95.954 8.99034 95.2732 8.7984 94.5304 8.7984C93.4163 8.7984 92.6118 9.35101 92.6118 10.4179C92.6118 11.5078 93.4783 11.8762 94.2983 12.1524C94.9637 12.3751 95.2267 12.4902 95.2267 12.7972C95.2267 13.0505 95.0102 13.25 94.5151 13.25ZM101.051 14.3169H102.366V10.0111H103.805V8.86755H99.6198V10.0111H101.051V14.3169ZM106.827 13.1099L107.694 12.2329C108.4 11.5088 108.611 10.8491 108.611 10.3179C108.611 9.34444 107.897 8.71679 106.746 8.71679C105.934 8.71679 105.31 8.99035 104.864 9.30422L105.48 10.3582C105.748 10.1329 106.145 9.92373 106.567 9.92373C107.07 9.92373 107.265 10.2134 107.273 10.5111C107.289 10.9375 107.013 11.2996 106.607 11.726L104.945 13.464L104.961 14.3169H108.659V13.1341H106.835L106.827 13.1099ZM109.576 11.549C109.576 9.84329 110.387 8.71679 111.806 8.71679C113.193 8.71679 114.028 9.77885 114.028 11.549C114.028 13.2789 113.225 14.3892 111.806 14.3892C110.411 14.3892 109.576 13.3272 109.576 11.549ZM110.938 11.549C110.938 12.5145 111.23 13.1663 111.806 13.1663C112.325 13.1663 112.674 12.6514 112.674 11.549C112.674 10.5834 112.382 9.93982 111.806 9.93982C111.279 9.93982 110.938 10.4628 110.938 11.549ZM59.2067 34.3611H59.1835L58.3403 30.9687H57.0405L56.174 34.3687H56.1587L55.238 30.9687H53.8375L55.5628 36.4179H56.7157L57.6981 32.7953H57.7137L58.6497 36.4179H59.7947L61.5354 30.9687H60.1351L59.2067 34.3611ZM63.8705 34.2613H66.2071V33.1561H63.8705V32.1122H66.4469V30.9687H62.6096V36.4179H66.555V35.2744H63.8705V34.2613ZM70.0745 33.1024C69.4168 32.8643 69.2079 32.7263 69.2079 32.45C69.2079 32.1583 69.4709 32.0201 69.8037 32.0201C70.2213 32.0201 70.6468 32.2274 71.0183 32.5267L71.7147 31.4983C71.2116 31.0914 70.5308 30.8994 69.7881 30.8994C68.674 30.8994 67.8694 31.4521 67.8694 32.5189C67.8694 33.609 68.736 33.9774 69.5561 34.2536C70.2213 34.4762 70.4845 34.5913 70.4845 34.8983C70.4845 35.1516 70.2678 35.3511 69.7726 35.3511C69.3548 35.3511 68.8057 35.1745 68.3183 34.8062L67.7613 35.8808C68.295 36.2952 69.0222 36.487 69.765 36.487C70.8945 36.487 71.8384 36.0342 71.8384 34.8216C71.8384 33.724 70.9952 33.4476 70.0745 33.1024ZM72.6964 32.1122H74.1277V36.4179H75.4428V32.1122H76.8818V30.9687H72.6964V32.1122ZM80.1454 36.4179H81.4685V30.9687H80.1454V36.4179ZM86.4378 34.3303L86.4224 34.338L84.1711 30.9687H82.9333V36.4179H84.202V33.133H84.2175L86.4455 36.4179H87.7144V30.9687H86.4378V34.3303ZM93.9329 33.7009C93.9329 35.3052 92.8808 36.4179 91.1013 36.4179H89.1749V30.9687H91.0779C92.8188 30.9687 93.9329 32.0892 93.9329 33.7009ZM92.5789 33.7009C92.5789 32.7876 91.9523 32.1122 91.109 32.1122H90.4359V35.2744H91.016C91.9601 35.2744 92.5789 34.5836 92.5789 33.7009ZM95.1621 36.4179H96.4851V30.9687H95.1621V36.4179ZM99.2109 34.2613H101.547V33.1561H99.2109V32.1122H101.787V30.9687H97.9499V36.4179H101.895V35.2744H99.2109V34.2613ZM105.26 33.1024C104.602 32.8643 104.394 32.7263 104.394 32.45C104.394 32.1583 104.657 32.0201 104.989 32.0201C105.407 32.0201 105.833 32.2274 106.204 32.5267L106.9 31.4983C106.397 31.0914 105.716 30.8994 104.974 30.8994C103.86 30.8994 103.055 31.4521 103.055 32.5189C103.055 33.609 103.922 33.9774 104.742 34.2536C105.407 34.4762 105.67 34.5913 105.67 34.8983C105.67 35.1516 105.454 35.3511 104.958 35.3511C104.541 35.3511 103.991 35.1745 103.504 34.8062L102.947 35.8808C103.481 36.2952 104.208 36.487 104.951 36.487C106.08 36.487 107.024 36.0342 107.024 34.8216C107.024 33.724 106.181 33.4476 105.26 33.1024ZM113.955 35.3741L114.914 36.4179H113.545L113.189 36.0342H113.173C112.879 36.2875 112.33 36.487 111.719 36.487C110.651 36.487 109.893 35.8654 109.893 34.8983C109.893 34.2229 110.28 33.7394 110.814 33.4324L110.744 33.3633C110.466 33.0563 110.342 32.6955 110.342 32.3501C110.342 31.5059 111.038 30.8918 112.013 30.8918C112.934 30.8918 113.607 31.3678 113.607 32.212C113.607 32.8643 113.15 33.3555 112.431 33.678L113.158 34.4762H113.189C113.305 34.2382 113.351 33.9774 113.351 33.77L114.45 33.7624C114.427 34.2613 114.272 34.9367 113.955 35.3434V35.3741ZM111.479 32.3501C111.479 32.5343 111.572 32.7416 111.75 32.9258L111.835 33.0179C112.199 32.8567 112.469 32.6495 112.469 32.3041C112.469 32.0508 112.284 31.8897 111.99 31.8897C111.696 31.8897 111.479 32.0662 111.479 32.3501ZM112.477 35.2513L111.448 34.123C111.201 34.292 111.077 34.5223 111.077 34.7371C111.077 35.1823 111.425 35.4202 111.889 35.4202C112.098 35.4202 112.315 35.3741 112.477 35.2744V35.2513ZM120.878 34.1462C120.878 34.9367 120.452 35.2898 119.887 35.2898C119.253 35.2898 118.92 34.8292 118.92 34.1462V30.9687H117.62V34.2229C117.62 35.7579 118.541 36.487 119.887 36.487C121.342 36.487 122.17 35.6736 122.17 34.2229V30.9687H120.878V34.1462ZM125.643 33.1024C124.985 32.8643 124.776 32.7263 124.776 32.45C124.776 32.1583 125.039 32.0201 125.372 32.0201C125.789 32.0201 126.215 32.2274 126.586 32.5267L127.283 31.4983C126.78 31.0914 126.099 30.8994 125.356 30.8994C124.242 30.8994 123.438 31.4521 123.438 32.5189C123.438 33.609 124.304 33.9774 125.124 34.2536C125.789 34.4762 126.052 34.5913 126.052 34.8983C126.052 35.1516 125.836 35.3511 125.341 35.3511C124.923 35.3511 124.374 35.1745 123.886 34.8062L123.329 35.8808C123.863 36.2952 124.59 36.487 125.333 36.487C126.463 36.487 127.406 36.0342 127.406 34.8216C127.406 33.724 126.563 33.4476 125.643 33.1024ZM131.467 30.9687L133.479 36.4179H132.132L131.808 35.4356H129.889L129.564 36.4179H128.21L130.23 30.9687H131.467ZM131.467 34.3611L130.856 32.5189H130.84L130.237 34.3611H131.467ZM138.372 35.211L139.239 34.3341C139.945 33.6098 140.156 32.9501 140.156 32.4191C140.156 31.4456 139.442 30.8179 138.29 30.8179C137.48 30.8179 136.855 31.0914 136.409 31.4053L137.025 32.4594C137.293 32.2341 137.69 32.0248 138.112 32.0248C138.615 32.0248 138.81 32.3145 138.818 32.6122C138.834 33.0387 138.558 33.4007 138.153 33.8272L136.49 35.5652L136.506 36.4179H140.205V35.2352H138.38L138.372 35.211ZM145.792 33.6502C145.792 35.3801 144.989 36.4904 143.57 36.4904C142.175 36.4904 141.34 35.4284 141.34 33.6502C141.34 31.9444 142.15 30.8179 143.57 30.8179C144.957 30.8179 145.792 31.8799 145.792 33.6502ZM144.438 33.6502C144.438 32.6845 144.146 32.041 143.57 32.041C143.043 32.041 142.702 32.564 142.702 33.6502C142.702 34.6157 142.994 35.2675 143.57 35.2675C144.089 35.2675 144.438 34.7525 144.438 33.6502ZM148.622 35.211L149.489 34.3341C150.196 33.6098 150.406 32.9501 150.406 32.4191C150.406 31.4456 149.692 30.8179 148.541 30.8179C147.731 30.8179 147.105 31.0914 146.66 31.4053L147.276 32.4594C147.544 32.2341 147.941 32.0248 148.363 32.0248C148.865 32.0248 149.059 32.3145 149.068 32.6122C149.085 33.0387 148.809 33.4007 148.403 33.8272L146.741 35.5652L146.757 36.4179H150.455V35.2352H148.63L148.622 35.211ZM155.832 34.3581V35.4363H155.11V36.4179H153.829V35.4363H151.469V34.6559L154.088 30.8904H155.11V34.3581H155.832ZM154.015 32.765L152.871 34.4387H154.015V32.765ZM59.1296 27.5607L60.9045 21.017H60.9324L62.6233 27.5607H64.6916L67.8359 17.7175H65.3063L63.6296 23.8452H63.5877L62.0643 17.7175H59.7165L58.1514 23.859H58.1235L56.4605 17.7175H53.9311L57.0474 27.5607H59.1296ZM79.0982 22.639C79.0982 25.6476 76.9602 27.6855 73.9976 27.6855C70.9791 27.6855 68.8828 25.606 68.8828 22.639C68.8828 19.6723 70.9791 17.5789 73.9976 17.5789C76.9602 17.5789 79.0982 19.6168 79.0982 22.639ZM76.6528 22.639C76.6528 21.0031 75.5348 19.7415 73.9976 19.7415C72.4324 19.7415 71.3285 21.0308 71.3285 22.639C71.3285 24.2472 72.4324 25.5366 73.9976 25.5366C75.5348 25.5366 76.6528 24.2751 76.6528 22.639ZM86.9512 23.7898C88.0692 24.9682 88.7818 26.2576 89.313 27.5607H86.6717C86.1966 26.4377 85.4839 25.3288 84.5196 24.3858H83.6114V27.5607H81.3334V17.7175H85.2044C87.7478 17.7175 88.754 19.09 88.754 20.9477C88.754 22.3064 88.1112 23.2907 86.9512 23.7898ZM86.3364 21.0587C86.3364 20.31 85.8752 19.7554 84.8271 19.7554H83.6114V22.3618H84.7851C85.7915 22.3618 86.3364 21.8765 86.3364 21.0587ZM91.2685 17.7175V27.5607H98.172V25.4951H93.6583V17.7175H91.2685ZM108.624 22.653C108.624 25.5505 106.724 27.5607 103.51 27.5607H100.03V17.7175H103.468C106.612 17.7175 108.624 19.7415 108.624 22.653ZM106.179 22.653C106.179 21.0031 105.047 19.7831 103.524 19.7831H102.308V25.4951H103.356C105.061 25.4951 106.179 24.2472 106.179 22.653ZM123.352 26.41L122.039 24.5106C121.312 25.1346 120.571 25.4672 119.565 25.4672C117.776 25.4672 116.784 24.1918 116.784 22.653C116.784 20.8507 118 19.7969 119.426 19.7969C120.529 19.7969 121.382 20.31 121.885 20.9062L123.38 19.1454C122.36 18.0501 120.921 17.5789 119.495 17.5789C116.169 17.5789 114.325 19.7554 114.325 22.653C114.325 25.8554 116.505 27.6855 119.453 27.6855C121.13 27.6855 122.472 27.2002 123.352 26.41ZM131.359 23.457C131.359 24.8851 130.59 25.5226 129.57 25.5226C128.424 25.5226 127.823 24.6909 127.823 23.457V17.7175H125.476V23.5957C125.476 26.3683 127.139 27.6855 129.57 27.6855C132.197 27.6855 133.693 26.2159 133.693 23.5957V17.7175H131.359V23.457ZM138.304 27.5607H136.026V17.7175H139.799C142.244 17.7175 143.334 19.1454 143.334 21.114C143.334 23.3045 141.867 24.3858 139.617 24.3858H138.304V27.5607ZM138.304 22.3618H139.352C140.386 22.3618 140.917 21.8765 140.917 21.0587C140.917 20.31 140.442 19.7554 139.394 19.7554H138.304V22.3618Z" fill="white"/>
  </g>
  <defs>
    <clipPath id="clip0_7498_2393">
      <rect width="156" height="44" fill="white"/>
    </clipPath>
  </defs>
</svg>