<svg xmlns="http://www.w3.org/2000/svg" width="32" height="37" viewBox="0 0 32 37" fill="none">
  <g clip-path="url(#clip0_2653_22913)">
    <path d="M15.4602 2.90332L9.3513 15.2895L6.51053 3.14511L6.45342 2.90332H0.451355L5.60415 25.0463L5.5802 25.1162H3.60898L0 36.9999L5.95233 28.301H8.41359L8.79862 27.5152L9.88187 25.3013H9.88739L18.371 8.11509L20.9446 2.90332H15.4602ZM7.10374 27.2243L1.3688 3.45302L7.58273 26.6293L8.23121 27.2243H7.10374ZM9.05101 19.1375L5.94312 3.31323L9.08417 16.7913L15.8453 3.31323L9.05101 19.1375Z" fill="#94A3B8"/>
    <path d="M21.9341 18.7276C22.0405 18.7119 22.1486 18.7132 22.2546 18.7314C22.5678 18.7805 22.8718 18.8391 23.1684 18.9071C27.2803 19.827 29.631 22.1524 29.6329 22.1562L32.0002 17.3657C30.1686 15.6917 27.9376 14.5447 25.5338 14.041C25.5338 14.041 24.4911 13.7879 23.9477 13.6783L24.5353 11.8819H26.5066L30.1155 0L24.1632 8.69699H21.7019L19.0749 14.0637L17.2326 17.8285L14.1837 24.0036C14.7035 24.7893 15.372 25.46 16.1494 25.9757C16.5399 26.2327 16.9839 26.4971 17.4776 26.7691C17.9566 27.0355 18.4872 27.3075 19.0638 27.589C19.4876 27.7986 19.8646 27.9938 20.195 28.1746C20.346 28.2596 20.4879 28.3408 20.6205 28.4182C20.8109 28.5282 20.9701 28.687 21.0825 28.8791C21.1949 29.0711 21.2566 29.2899 21.2616 29.5139V29.5252C21.2616 30.2506 20.7569 30.9552 20.0955 31.0477C19.9897 31.0632 19.8824 31.0625 19.7768 31.0458C19.4636 30.9955 19.1596 30.9369 18.8649 30.8702C14.753 29.9502 12.4004 27.623 12.3986 27.6192L11.7685 28.8962L10.0312 32.4097C11.8645 34.0846 14.0974 35.2323 16.5031 35.7363C16.5473 35.7457 16.5934 35.757 16.6376 35.7665C16.6502 35.7672 16.6626 35.7697 16.6744 35.774C18.3649 36.1053 20.0958 36.1614 21.8033 35.9403C22.1912 35.8841 22.5761 35.8078 22.9565 35.7117C23.5101 35.5725 24.0502 35.3822 24.5703 35.1431C25.9078 34.5197 26.9315 33.6596 27.6414 32.5627C28.351 31.467 28.7221 30.1774 28.7062 28.8622C28.7062 27.6607 28.4286 26.6432 27.8735 25.8095C27.8643 25.7963 27.8569 25.7831 27.8496 25.7717C27.328 24.9868 26.6592 24.3164 25.882 23.7996C25.4878 23.5408 25.0407 23.2745 24.5409 23.0006C23.0431 22.2431 21.6762 21.6537 21.6762 21.6537C21.4229 21.5425 21.2048 21.3613 21.0461 21.1304C20.8655 20.8751 20.7687 20.5675 20.7698 20.2521C20.77 19.5267 21.2745 18.8221 21.9341 18.7276ZM10.6595 32.2246L12.4907 28.4409L11.214 32.2907C11.214 32.2907 14.659 35.6002 20.2926 35.5908C20.2926 35.5908 14.1634 35.9535 10.6595 32.2242V32.2246ZM21.0111 28.0064L17.2713 25.9984C14.928 24.9217 14.8635 23.6353 14.8635 23.6353L19.985 13.395L15.5046 23.6088C15.5046 23.6088 15.4401 24.2926 17.3984 25.5526C19.2961 26.7729 20.9135 27.9347 21.0111 28.0064Z" fill="#94A3B8"/>
    <path d="M24.0741 0.301758C18.7463 12.2478 12.8916 24.124 6.66113 35.5998C11.9853 23.6537 17.8455 11.7813 24.0741 0.301758Z" fill="#94A3B8"/>
  </g>
  <defs>
    <clipPath id="clip0_2653_22913">
      <rect width="32" height="37" fill="white"/>
    </clipPath>
  </defs>
</svg>