<svg width="24" height="24" viewBox="0 0 24 24" fill="none" xmlns="http://www.w3.org/2000/svg">
<path d="M15.2043 3.69946C16.6035 2.51049 18.6825 3.90961 18.1079 5.65351L14.1316 17.718C13.0186 21.0947 12.4613 22.7827 11.6421 23.2641C10.8566 23.7255 9.88332 23.7276 9.09631 23.2687C8.27551 22.7901 7.71357 21.1033 6.58913 17.7303L6.39169 17.138C5.91292 15.7017 5.67354 14.9836 5.85263 14.2952C6.03172 13.6068 6.59072 13.0963 7.70872 12.0755L9.46024 10.4761C9.82707 10.1409 9.85308 9.57098 9.51801 9.204V9.204C9.36492 9.0364 9.2943 8.72003 9.46731 8.57307L15.2043 3.69946Z" fill="#93C5FD"/>
<path d="M17.6973 1.13219C19.9545 0.500195 21.084 0.184579 21.8585 0.477892C22.5334 0.733693 23.0666 1.26676 23.3223 1.94176C23.6157 2.71624 23.2991 3.8457 22.6671 6.10289L19.4796 17.4867C18.4814 21.0516 17.9822 22.8351 17.1348 23.3519C16.4019 23.7986 15.4916 23.841 14.7198 23.4652C13.8275 23.0306 13.1631 21.3028 11.8341 17.847L10.8438 15.2728V15.2728C10.6704 14.8218 10.7697 14.303 11.1114 13.9614L14.4366 10.6371C14.788 10.2857 14.7878 9.71513 14.4366 9.36363C14.0853 9.01239 13.5156 9.01259 13.1641 9.36363L9.83872 12.6882C9.49714 13.0297 8.97824 13.1298 8.52742 12.9564V12.9564L5.9532 11.9662C2.498 10.6372 0.769942 9.97259 0.335038 9.08043C-0.0408204 8.30866 0.00158147 7.39841 0.44832 6.66539C0.965029 5.81802 2.7478 5.3188 6.31258 4.32067L17.6973 1.13219Z" fill="#3B82F6"/>
</svg>
