<svg width="16" height="15" viewBox="0 0 16 15" fill="none" xmlns="http://www.w3.org/2000/svg">
<path d="M14.9168 7.41624L1.33181 0.777902C1.25427 0.748099 1.16962 0.742011 1.08861 0.760409C1.00759 0.778807 0.933876 0.820862 0.876812 0.881235C0.818073 0.943212 0.777639 1.02024 0.759989 1.10378C0.742338 1.18733 0.748161 1.27413 0.776812 1.35457L2.83348 7.41624M14.9168 7.41624L1.33181 14.0546C1.25427 14.0844 1.16962 14.0905 1.08861 14.0721C1.00759 14.0537 0.933876 14.0116 0.876812 13.9512C0.818073 13.8893 0.777639 13.8122 0.759989 13.7287C0.742338 13.6451 0.748161 13.5583 0.776812 13.4779L2.83348 7.41624M14.9168 7.41624H2.83348" stroke="white" stroke-width="1.5" stroke-linecap="round" stroke-linejoin="round"/>
</svg>
