

<svg width="16" height="17" viewBox="0 0 16 17" fill="none" xmlns="http://www.w3.org/2000/svg">
<g id="Airplane" clip-path="url(#clip0_3667_13911)">
<path id="Vector" d="M12.5967 13.8044L11.1825 15.2186C11.0887 15.3123 10.9615 15.365 10.8289 15.365C10.6963 15.365 10.5691 15.3123 10.4754 15.2186C10.452 15.1953 10.4311 15.1697 10.413 15.1421L7.77952 11.1969L6.73079 12.2456L6.73123 13.8061C6.73116 13.9379 6.67907 14.0643 6.58627 14.1579L5.52561 15.2186C5.46777 15.2766 5.39654 15.3196 5.31821 15.3436C5.23987 15.3677 5.15682 15.3721 5.07637 15.3565C4.99591 15.3409 4.92052 15.3058 4.85683 15.2542C4.79314 15.2027 4.7431 15.1362 4.71112 15.0608L3.73045 12.7711L1.44075 11.7904C1.3653 11.7584 1.29887 11.7084 1.24731 11.6447C1.19574 11.581 1.16062 11.5056 1.14504 11.4252C1.12946 11.3447 1.13389 11.2617 1.15794 11.1833C1.18199 11.105 1.22493 11.0338 1.28297 10.9759L2.34363 9.91527C2.39004 9.86879 2.44515 9.83191 2.50581 9.80673C2.56648 9.78156 2.63151 9.76858 2.69719 9.76855L4.25768 9.76899L5.30464 8.72203L1.35943 6.0885C1.33185 6.07043 1.30623 6.04955 1.28297 6.02618C1.18921 5.93242 1.13653 5.80524 1.13653 5.67263C1.13653 5.54002 1.18921 5.41285 1.28297 5.31908L2.69719 3.90486C2.76282 3.83913 2.84547 3.79299 2.93587 3.7716C3.02626 3.75021 3.12082 3.75443 3.20896 3.78377L8.48397 5.5427L10.4754 3.55131C10.8036 3.22312 11.2487 3.03875 11.7128 3.03875C12.1769 3.03875 12.622 3.22312 12.9502 3.55131C13.2784 3.8795 13.4628 4.32462 13.4628 4.78875C13.4628 5.25288 13.2784 5.69799 12.9502 6.02618L10.9588 8.01757L12.7178 13.2926C12.7471 13.3807 12.7513 13.4753 12.7299 13.5657C12.7086 13.6561 12.6624 13.7387 12.5967 13.8044Z" fill="#CBD5E1"/>
</g>
<defs>
<clipPath id="clip0_3667_13911">
<rect width="16" height="16" fill="white" transform="translate(0 0.5)"/>
</clipPath>
</defs>
</svg>