<svg width="20" height="21" viewBox="0 0 20 21" fill="none" xmlns="http://www.w3.org/2000/svg">
<g id="Frame 1000007286">
<path id="Vector" fill-rule="evenodd" clip-rule="evenodd" d="M12.8475 6.30096L11.2273 9.07785C11.0311 9.4082 10.7731 9.72788 10.5768 10.1097C10.8348 9.92415 11.1652 9.7279 11.4853 9.46993L14.3341 7.65392C14.2724 7.52958 14.2102 7.4572 14.0761 7.33332L13.1055 6.42485C13.0438 6.36314 12.9097 6.30096 12.8475 6.30096ZM16.667 4.61904C16.667 4.42278 16.5431 4.22651 16.409 4.03072C16.2128 3.90637 16.0165 3.83398 15.7585 3.83398C15.5623 3.83398 15.3043 3.90638 15.1804 4.10265L13.1677 6.10516C12.9097 5.97107 12.5896 5.90936 12.2592 5.90936C11.8778 5.90936 11.4853 6.10517 11.2273 6.36315L4.36326 13.3511C4.29088 13.4128 4.16699 13.6091 4.16699 13.9292C4.16699 14.125 4.22917 14.3217 4.36326 14.5793C4.55952 14.9713 4.94137 15.3536 5.13763 15.5494C5.52969 15.8695 6.2419 16.4579 6.82001 16.3957C7.07798 16.3957 7.34616 16.3233 7.47005 16.1275L14.2724 9.21194C14.7884 8.62316 14.8501 7.84925 14.4065 7.27113L16.409 5.2584C16.6048 5.07281 16.667 4.87701 16.667 4.61904Z" fill="#94A3B8"/>
</g>
</svg>
