<svg width="20" height="21" viewBox="0 0 20 21" fill="none" xmlns="http://www.w3.org/2000/svg">
<g id="Frame 1000007288">
<path id="Vector" d="M15.8745 12.407C14.6247 12.5274 13.7007 13.5372 13.8051 14.6213C13.9159 15.7713 15.0169 16.5992 16.2667 16.4788C17.5972 16.3507 18.5062 15.3291 18.3954 14.1791C18.291 13.095 17.205 12.2789 15.8745 12.407ZM18.1817 5.8324C18.1575 5.5816 17.9813 5.42521 17.7931 5.28257C17.6038 5.12746 17.3563 5.07089 17.1039 5.0952C16.851 5.11957 16.6063 5.22354 16.4626 5.41074L14.3926 7.61181C14.0442 7.48521 13.7034 7.42447 13.3709 7.4565C12.9583 7.49625 12.4695 7.71667 12.2408 7.99244L5.13939 15.5358C4.98186 15.7111 4.91827 15.8906 4.9501 16.221C4.9667 16.3934 4.98193 16.5515 5.17474 16.8802C5.46714 17.2653 5.92475 17.5548 6.10101 17.7117C6.55308 18.0815 7.36745 18.5909 8.03242 18.5269C8.36491 18.4948 8.52999 18.3979 8.76639 18.2018L15.7788 10.5741C16.3171 10.0286 16.324 9.26671 15.8478 8.64615L17.9052 6.44567C18.0614 6.25726 18.2059 6.08381 18.1817 5.8324Z" fill="#94A3B8"/>
<path id="Vector_2" fill-rule="evenodd" clip-rule="evenodd" d="M8.61406 5.29068C8.65526 5.37689 8.69676 5.46311 8.74477 5.54933C8.9173 6.02539 9 6.50145 9 7.01907C9 9.22694 7.2289 11 5.02385 11C3.81121 11 2.77761 10.4824 2.04042 9.65803C1.99892 9.61679 1.9506 9.57182 1.9094 9.53026C2.81911 8.53348 3.85953 7.67098 5.02385 6.93286C6.10578 6.2428 7.31841 5.72177 8.61406 5.29068ZM8.17981 4.59721C8.26932 4.68715 8.31083 4.77306 8.35202 4.85959C8.39353 4.90083 8.44154 4.98705 8.48304 5.03202C7.1877 5.46311 5.97507 6.02539 4.89314 6.71886C3.72851 7.40861 2.68809 8.31948 1.73718 9.31316C1.69599 9.22694 1.60616 9.14041 1.56497 9.0542C1.52346 9.00954 1.52346 8.96457 1.47545 8.92332C2.43317 7.84342 3.50798 6.93285 4.72092 6.19814C5.76135 5.54933 6.92566 4.98705 8.17981 4.59721ZM7.53214 3.90715C7.62165 3.99368 7.70435 4.0799 7.83537 4.16612C7.87657 4.21078 7.96639 4.29731 8.00759 4.38352C6.75345 4.77306 5.63032 5.29068 4.5899 5.98414C3.38408 6.71886 2.29534 7.58477 1.34443 8.66435C1.30324 8.53348 1.26173 8.36104 1.22023 8.22985C1.17903 8.1886 1.17903 8.10207 1.13071 8.05742C2.04042 7.01907 3.08084 6.15658 4.24547 5.46311C5.24439 4.81462 6.36069 4.33855 7.53214 3.90715ZM5.02385 3C5.84405 3 6.62243 3.25896 7.2704 3.73472C6.14728 4.12115 5.06536 4.64218 4.07294 5.24571C2.99133 5.93917 1.9506 6.76042 1.08952 7.71223C1.04801 7.49514 1 7.23617 1 7.01907C1 4.81462 2.81911 3 5.02385 3Z" fill="#94A3B8"/>
<g id="Group 1000007140">
<g id="Group 1000007141">
<path id="Vector_3" d="M6 10C6 11.933 7.567 13.5 9.5 13.5C11.433 13.5 13 11.933 13 10C13 8.067 11.433 6.5 9.5 6.5C7.567 6.5 6 8.067 6 10Z" fill="#E2E8F0"/>
<g id="Group 1000007139">
<path id="Vector_4" d="M10.7048 10.002H8.29102" stroke="#94A3B8" stroke-width="0.724138" stroke-linecap="round" stroke-linejoin="round"/>
<path id="Vector_5" d="M9.49609 11.2087V8.79492" stroke="#94A3B8" stroke-width="0.724138" stroke-linecap="round" stroke-linejoin="round"/>
</g>
</g>
</g>
</g>
</svg>
