<svg width="20" height="21" viewBox="0 0 20 21" fill="none" xmlns="http://www.w3.org/2000/svg">
<g id="Frame 1000007287">
<path id="Vector" fill-rule="evenodd" clip-rule="evenodd" d="M16.3729 7.22235C16.4398 7.36245 16.5072 7.50256 16.5853 7.64266C16.8656 8.41626 17 9.18986 17 10.031C17 13.6188 14.122 16.5 10.5388 16.5C8.56822 16.5 6.88861 15.6589 5.69069 14.3193C5.62324 14.2523 5.54472 14.1792 5.47778 14.1117C6.95606 12.4919 8.64674 11.0903 10.5388 9.89089C12.2969 8.76955 14.2674 7.92287 16.3729 7.22235ZM15.6672 6.09546C15.8126 6.24162 15.8801 6.38122 15.947 6.52183C16.0145 6.58886 16.0925 6.72896 16.1599 6.80204C14.055 7.50256 12.0845 8.41626 10.3264 9.54315C8.43383 10.664 6.74315 12.1442 5.19793 13.7589C5.13098 13.6188 4.98502 13.4782 4.91807 13.3381C4.85063 13.2655 4.85063 13.1924 4.77261 13.1254C6.32891 11.3706 8.07546 9.89089 10.0465 8.69698C11.7372 7.64266 13.6292 6.72896 15.6672 6.09546ZM14.6147 4.97412C14.7602 5.11473 14.8946 5.25484 15.1075 5.39494C15.1744 5.46751 15.3204 5.60812 15.3873 5.74823C13.3494 6.38122 11.5243 7.22235 9.83359 8.34923C7.87413 9.54315 6.10492 10.9502 4.5597 12.7046C4.49276 12.4919 4.42531 12.2117 4.35787 11.9985C4.29093 11.9315 4.29093 11.7909 4.21241 11.7183C5.69069 10.031 7.38137 8.62944 9.27389 7.50256C10.8971 6.44875 12.7111 5.67515 14.6147 4.97412ZM10.5388 3.5C11.8716 3.5 13.1364 3.92082 14.1894 4.69391C12.3643 5.32186 10.6062 6.16854 8.99354 7.14927C7.23591 8.27616 5.54472 9.61068 4.14546 11.1574C4.07802 10.8046 4 10.3838 4 10.031C4 6.44875 6.95606 3.5 10.5388 3.5Z" fill="#F8FAFC"/>
</g>
</svg>
