<svg width="34" height="25" viewBox="0 0 34 25" fill="none" xmlns="http://www.w3.org/2000/svg">
<path d="M0 12.5C0 5.59644 5.59644 0 12.5 0H21.5C28.4036 0 34 5.59644 34 12.5C34 19.4036 28.4036 25 21.5 25H12.5C5.59644 25 0 19.4036 0 12.5Z" fill="#E2E8F0"/>
<path d="M17.2842 18.1709C16.3226 18.1709 15.484 17.9567 14.7686 17.5283C14.0576 17.0999 13.5062 16.5007 13.1143 15.7305C12.7223 14.9603 12.5264 14.0648 12.5264 13.0439C12.5264 12.0459 12.7155 11.1686 13.0938 10.4121C13.4766 9.65104 14.0234 9.05632 14.7344 8.62793C15.4453 8.19954 16.2907 7.98535 17.2705 7.98535C18.3369 7.98535 19.2507 8.25423 20.0117 8.79199C20.7773 9.32975 21.2809 10.1227 21.5225 11.1709L19.7041 11.5947C19.5446 10.8792 19.2484 10.346 18.8154 9.99512C18.387 9.64421 17.8675 9.46875 17.2568 9.46875C16.6553 9.46875 16.1403 9.62142 15.7119 9.92676C15.2881 10.2275 14.9622 10.6491 14.7344 11.1914C14.5111 11.7292 14.3994 12.3558 14.3994 13.0713C14.3994 13.7959 14.5133 14.4316 14.7412 14.9785C14.9736 15.5208 15.2995 15.9424 15.7188 16.2432C16.1426 16.5394 16.6439 16.6875 17.2227 16.6875C17.8516 16.6875 18.387 16.5052 18.8291 16.1406C19.2712 15.7715 19.5628 15.2542 19.7041 14.5889L21.5703 15.0059C21.3014 16.0267 20.7865 16.8105 20.0254 17.3574C19.2643 17.8997 18.3506 18.1709 17.2842 18.1709Z" fill="#010207"/>
</svg>
