<svg width="20" height="20" viewBox="0 0 20 20" fill="none" xmlns="http://www.w3.org/2000/svg">
<g id="circle-question-mark">
<path id="Vector" d="M10 13.135V13.125" stroke="#64748B" stroke-width="1.25" stroke-linecap="round" stroke-linejoin="round"/>
<path id="Vector_2" d="M8.125 8.75C8.125 8.37916 8.23497 8.01665 8.44099 7.70831C8.64702 7.39996 8.93986 7.15964 9.28247 7.01773C9.62508 6.87581 10.0021 6.83868 10.3658 6.91103C10.7295 6.98338 11.0636 7.16195 11.3258 7.42418C11.588 7.6864 11.7666 8.02049 11.839 8.38421C11.9113 8.74792 11.8742 9.12492 11.7323 9.46753C11.5904 9.81014 11.35 10.103 11.0417 10.309C10.7334 10.515 10.3708 10.625 10 10.625L10 11.0417" stroke="#64748B" stroke-width="1.25" stroke-linecap="round" stroke-linejoin="round"/>
<path id="Vector_3" d="M3.9585 10.0007C3.9585 13.3374 6.66344 16.0423 10.0002 16.0423C13.3369 16.0423 16.0418 13.3374 16.0418 10.0007C16.0418 6.66393 13.3369 3.95898 10.0002 3.95898C6.66344 3.95898 3.9585 6.66393 3.9585 10.0007Z" stroke="#64748B" stroke-width="1.25"/>
</g>
</svg>
