<svg width="101" height="101" viewBox="0 0 101 101" fill="none" xmlns="http://www.w3.org/2000/svg">
<rect x="0.5" y="0.5" width="100" height="100" rx="50" fill="#334155"/>
<path fill-rule="evenodd" clip-rule="evenodd" d="M65.2019 72.0558C64.1239 72.8415 62.8412 73.3404 61.268 73.3404C57.6656 73.3404 54.8061 70.2333 54.8061 66.5881C54.8061 65.015 55.3032 63.7304 56.0926 62.4458C56.3402 63.4828 56.8781 64.5179 57.3752 65.553C58.6989 67.8708 60.5234 69.9838 62.3441 71.0208C63.3792 71.5179 64.4162 71.7654 65.2019 72.0558ZM39.732 27.6582H44.6599C44.9075 27.6582 45.1589 28.1534 45.1589 28.6914V48.1591L39.1939 53.6251V28.6914C39.1939 28.1534 39.4415 27.6582 39.732 27.6582ZM48.5546 28.6914C48.5546 28.1534 48.8022 27.6582 49.0926 27.6582H54.268C54.5175 27.6582 54.8061 28.1534 54.8061 28.6914V40.1241H54.5176V40.3717H54.0204V40.623H53.7301V40.9115H53.2348V41.1611L48.5546 45.0519V28.6914ZM72.4513 36.4808C72.4513 35.6914 72.2018 35.1943 71.6619 34.6563C71.1667 34.1611 70.3792 33.8706 69.5936 33.8706C68.5567 33.8706 68.0614 34.1611 67.2739 34.6563L60.233 40.9115C59.4883 40.3716 58.4103 40.1241 57.3752 40.1241C55.8412 40.1241 54.5176 40.6231 53.4806 41.4068L29.3381 62.6953C29.0458 63.2352 28.5488 63.7304 28.5488 64.7655C28.5488 65.3036 28.7982 65.8024 29.0458 66.8375C29.8315 68.1612 31.1589 69.1981 31.9054 69.6952C32.9387 71.0207 35.3012 72.8415 37.6208 72.8415C38.4065 72.8415 39.1939 72.5529 39.732 72.0558L63.8763 50.4769C65.6989 48.9447 65.9484 46.6251 64.4162 44.5121L71.6619 38.3015C72.2018 37.7634 72.4513 37.2664 72.4513 36.4808ZM29.5857 28.4457C29.5857 27.9058 29.8315 27.6582 30.0828 27.6582H35.0517C35.3012 27.6582 35.5487 27.9058 35.5487 28.4457V56.7323L29.5857 62.1573V28.4457ZM61.268 60.0871C64.9132 60.0871 67.771 62.9448 67.771 66.5881C67.771 68.6602 66.9816 70.2332 65.6989 71.5178C64.9132 71.5178 63.6306 71.0208 62.5936 70.4828C61.0186 69.4458 59.1978 67.6232 57.9133 65.3036C57.3752 64.2703 56.8782 63.2352 56.586 62.1573C57.6657 60.8727 59.4882 60.0871 61.268 60.0871Z" fill="#F8FAFC"/>
</svg>
