<svg width="101" height="100" viewBox="0 0 101 100" fill="none" xmlns="http://www.w3.org/2000/svg">
<circle cx="50.5" cy="50" r="50" fill="#334155"/>
<path d="M39.8333 73.9998H61.1667M50.5 63.3332V73.9998M50.5 63.3332C54.0362 63.3332 57.4276 61.9284 59.9281 59.4279C62.4286 56.9274 63.8333 53.5361 63.8333 49.9998V28.6665H37.1667V49.9998C37.1667 53.5361 38.5714 56.9274 41.0719 59.4279C43.5724 61.9284 46.9638 63.3332 50.5 63.3332ZM37.1667 41.9998C37.1667 44.9454 34.7789 47.3332 31.8333 47.3332C28.8878 47.3332 26.5 44.9454 26.5 41.9998C26.5 39.0543 28.8878 36.6665 31.8333 36.6665C34.7789 36.6665 37.1667 39.0543 37.1667 41.9998ZM74.5 41.9998C74.5 44.9454 72.1122 47.3332 69.1667 47.3332C66.2212 47.3332 63.8333 44.9454 63.8333 41.9998C63.8333 39.0543 66.2212 36.6665 69.1667 36.6665C72.1122 36.6665 74.5 39.0543 74.5 41.9998Z" stroke="#F5F5F5" stroke-width="5.33333" stroke-linecap="round" stroke-linejoin="round"/>
</svg>
