<svg width="24" height="25" viewBox="0 0 24 25" fill="none" xmlns="http://www.w3.org/2000/svg">
<rect y="0.5" width="24" height="24" rx="12" fill="#433207"/>
<path d="M7.19971 8.89971C7.19971 8.58145 7.32614 8.27622 7.55118 8.05118C7.77622 7.82614 8.08145 7.69971 8.39971 7.69971H14.3997C14.5588 7.69971 14.7114 7.76292 14.824 7.87544C14.9365 7.98796 14.9997 8.14058 14.9997 8.29971V10.0997L16.1997 12.4997V10.6997C16.1997 10.5406 16.1365 10.388 16.024 10.2754C15.9114 10.1629 15.7588 10.0997 15.5997 10.0997H8.39971C8.08145 10.0997 7.77622 9.97328 7.55118 9.74824C7.32614 9.52319 7.19971 9.21797 7.19971 8.89971ZM7.19971 8.89971V16.0997C7.19971 16.418 7.32614 16.7232 7.55118 16.9482C7.77622 17.1733 8.08145 17.2997 8.39971 17.2997H15.5997C15.7588 17.2997 15.9114 17.2365 16.024 17.124C16.1365 17.0114 16.1997 16.8588 16.1997 16.6997V14.8997M16.7997 12.4997V14.8997H14.3997C14.0814 14.8997 13.7762 14.7733 13.5512 14.5482C13.3261 14.3232 13.1997 14.018 13.1997 13.6997C13.1997 13.3814 13.3261 13.0762 13.5512 12.8512C13.7762 12.6261 14.0814 12.4997 14.3997 12.4997H16.7997Z" stroke="#F9D516" stroke-width="1.2" stroke-linecap="round" stroke-linejoin="round"/>
</svg>
