<svg width="33" height="32" viewBox="0 0 33 32" fill="none" xmlns="http://www.w3.org/2000/svg">
<g id="GameController">
<path id="Vector" d="M22.327 14H19.327C19.0617 14 18.8074 13.8946 18.6198 13.7071C18.4323 13.5196 18.327 13.2652 18.327 13C18.327 12.7348 18.4323 12.4804 18.6198 12.2929C18.8074 12.1054 19.0617 12 19.327 12H22.327C22.5922 12 22.8465 12.1054 23.0341 12.2929C23.2216 12.4804 23.327 12.7348 23.327 13C23.327 13.2652 23.2216 13.5196 23.0341 13.7071C22.8465 13.8946 22.5922 14 22.327 14ZM13.3269 12H12.3269V11C12.3269 10.7348 12.2216 10.4804 12.0341 10.2929C11.8465 10.1054 11.5922 10 11.3269 10C11.0617 10 10.8074 10.1054 10.6198 10.2929C10.4323 10.4804 10.3269 10.7348 10.3269 11V12H9.32695C9.06173 12 8.80738 12.1054 8.61984 12.2929C8.43231 12.4804 8.32695 12.7348 8.32695 13C8.32695 13.2652 8.43231 13.5196 8.61984 13.7071C8.80738 13.8946 9.06173 14 9.32695 14H10.3269V15C10.3269 15.2652 10.4323 15.5196 10.6198 15.7071C10.8074 15.8946 11.0617 16 11.3269 16C11.5922 16 11.8465 15.8946 12.0341 15.7071C12.2216 15.5196 12.3269 15.2652 12.3269 15V14H13.3269C13.5922 14 13.8465 13.8946 14.0341 13.7071C14.2216 13.5196 14.3269 13.2652 14.3269 13C14.3269 12.7348 14.2216 12.4804 14.0341 12.2929C13.8465 12.1054 13.5922 12 13.3269 12ZM30.5119 25.0812C30.1351 25.6194 29.6449 26.0686 29.0759 26.3971C28.5069 26.7256 27.8729 26.9255 27.2184 26.9828C26.5638 27.0401 25.9047 26.9534 25.2873 26.7288C24.6699 26.5041 24.1091 26.147 23.6444 25.6825C23.6294 25.6675 23.6145 25.6525 23.6007 25.6362L18.6369 20H14.0119L9.0532 25.6362L9.00945 25.6825C8.1647 26.5254 7.02031 26.9992 5.82695 27C5.17 26.9998 4.52106 26.8557 3.92574 26.5779C3.33041 26.3001 2.80313 25.8953 2.38093 25.392C1.95874 24.8886 1.65186 24.299 1.48187 23.6644C1.31188 23.0298 1.28289 22.3657 1.39695 21.7188C1.39635 21.7129 1.39635 21.7071 1.39695 21.7013L3.4432 11.19C3.74774 9.45634 4.65352 7.88546 6.00139 6.75339C7.34927 5.62133 9.05299 5.0005 10.8132 5H21.827C23.5818 5.0028 25.2803 5.62008 26.6276 6.74466C27.9748 7.86924 28.8856 9.4301 29.202 11.1562C29.202 11.1638 29.202 11.1712 29.202 11.1788L31.2482 21.7C31.2488 21.7058 31.2488 21.7117 31.2482 21.7175C31.3541 22.299 31.3436 22.8958 31.2172 23.4732C31.0908 24.0506 30.8511 24.5971 30.5119 25.0812ZM21.827 18C23.2856 18 24.6846 17.4205 25.716 16.3891C26.7475 15.3576 27.327 13.9587 27.327 12.5C27.327 11.0413 26.7475 9.64236 25.716 8.61091C24.6846 7.57946 23.2856 7 21.827 7H10.8132C9.52189 7.00116 8.27235 7.45767 7.28441 8.28922C6.29648 9.12076 5.63344 10.2741 5.41195 11.5463V11.5625L3.36445 22.0737C3.27395 22.5949 3.35105 23.1313 3.58467 23.6058C3.81829 24.0803 4.19639 24.4685 4.66459 24.7145C5.13279 24.9606 5.66696 25.0518 6.19028 24.9751C6.7136 24.8983 7.1991 24.6576 7.57695 24.2875L12.8169 18.3388C12.9108 18.2323 13.0262 18.1471 13.1555 18.0886C13.2848 18.0302 13.4251 18 13.5669 18H21.827ZM29.2894 22.0737L28.197 16.4487C27.525 17.5337 26.5874 18.4293 25.4727 19.0508C24.358 19.6722 23.1032 19.9989 21.827 20H21.302L25.077 24.2887C25.3616 24.5656 25.7078 24.771 26.0872 24.8881C26.4666 25.0052 26.8683 25.0307 27.2595 24.9625C27.9111 24.8475 28.4905 24.4788 28.8708 23.9374C29.2511 23.3959 29.4012 22.7257 29.2882 22.0737H29.2894Z" fill="#64748B"/>
</g>
</svg>
