<svg width="20" height="21" viewBox="0 0 20 21" fill="none" xmlns="http://www.w3.org/2000/svg">
<g id="gift">
<path id="Icon" fill-rule="evenodd" clip-rule="evenodd" d="M12.9167 2.78906C13.7221 2.78906 14.375 3.44198 14.375 4.2474C14.375 5.05281 13.7221 5.70573 12.9167 5.70573H10.84L11.389 3.87599C11.5825 3.23086 12.1763 2.78906 12.8498 2.78906H12.9167ZM15.625 4.2474C15.625 4.78433 15.4688 5.28477 15.1993 5.70573H16.6667C17.9323 5.70573 18.9584 6.73174 18.9584 7.9974C18.9584 9.04638 18.2536 9.93074 17.2917 10.2028V14.8307V14.8575C17.2917 15.5349 17.2917 16.0812 17.2556 16.5236C17.2183 16.9791 17.1397 17.3793 16.9511 17.7494C16.6515 18.3375 16.1734 18.8155 15.5854 19.1151C15.2152 19.3037 14.8151 19.3824 14.3596 19.4196C13.9172 19.4557 13.3708 19.4557 12.6935 19.4557H12.6667H10H7.33335H7.30658C6.62922 19.4557 6.08288 19.4557 5.64046 19.4196C5.18493 19.3824 4.78482 19.3037 4.41463 19.1151C3.82663 18.8155 3.34856 18.3375 3.04896 17.7494C2.86034 17.3793 2.78171 16.9791 2.74449 16.5236C2.70834 16.0812 2.70835 15.5348 2.70835 14.8575L2.70835 14.8307V10.2028C1.74648 9.93074 1.04169 9.04638 1.04169 7.9974C1.04169 6.73174 2.0677 5.70573 3.33335 5.70573H4.80078C4.53127 5.28477 4.37502 4.78433 4.37502 4.2474C4.37502 2.75162 5.58758 1.53906 7.08335 1.53906H7.15021C8.37576 1.53906 9.4562 2.34295 9.80836 3.51681L10 4.15567L10.1917 3.51681C10.5438 2.34295 11.6243 1.53906 12.8498 1.53906H12.9167C14.4125 1.53906 15.625 2.75162 15.625 4.2474ZM3.95835 10.2891V14.8307C3.95835 15.5411 3.95884 16.0363 3.99034 16.4218C4.02124 16.8001 4.07885 17.0174 4.16272 17.182C4.34248 17.5348 4.62932 17.8216 4.98212 18.0014C5.14672 18.0852 5.36402 18.1428 5.74225 18.1737C6.12778 18.2052 6.62297 18.2057 7.33335 18.2057H9.37502V10.2891H3.95835ZM10.625 10.2891V18.2057H12.6667C13.3771 18.2057 13.8723 18.2052 14.2578 18.1737C14.636 18.1428 14.8533 18.0852 15.0179 18.0014C15.3707 17.8216 15.6576 17.5348 15.8373 17.182C15.9212 17.0174 15.9788 16.8001 16.0097 16.4218C16.0412 16.0363 16.0417 15.5411 16.0417 14.8307V10.2891H10.625ZM17.7084 7.9974C17.7084 8.57269 17.242 9.03906 16.6667 9.03906H10.625V6.95573H12.9167H16.6667C17.242 6.95573 17.7084 7.4221 17.7084 7.9974ZM9.37502 9.03906H3.33335C2.75806 9.03906 2.29169 8.57269 2.29169 7.9974C2.29169 7.4221 2.75806 6.95573 3.33335 6.95573H7.08335H9.37502V9.03906ZM9.16 5.70573L8.61108 3.87599C8.41754 3.23086 7.82375 2.78906 7.15021 2.78906H7.08335C6.27794 2.78906 5.62502 3.44198 5.62502 4.2474C5.62502 5.05281 6.27794 5.70573 7.08335 5.70573H9.16Z" fill="#010207"/>
</g>
</svg>
