<svg width="24" height="25" viewBox="0 0 24 25" fill="none" xmlns="http://www.w3.org/2000/svg">
<rect y="0.5" width="24" height="24" rx="12" fill="#052E16"/>
<path d="M7.83339 11.6667C8.14021 11.6667 8.38894 11.418 8.38894 11.1112C8.38894 10.8043 8.14021 10.5556 7.83339 10.5556C7.52656 10.5556 7.27783 10.8043 7.27783 11.1112C7.27783 11.418 7.52656 11.6667 7.83339 11.6667Z" stroke="#22C55E" stroke-width="1.11111" stroke-linecap="round" stroke-linejoin="round"/>
<path d="M10.6112 8.88894C10.918 8.88894 11.1667 8.64021 11.1667 8.33339C11.1667 8.02656 10.918 7.77783 10.6112 7.77783C10.3043 7.77783 10.0556 8.02656 10.0556 8.33339C10.0556 8.64021 10.3043 8.88894 10.6112 8.88894Z" stroke="#22C55E" stroke-width="1.11111" stroke-linecap="round" stroke-linejoin="round"/>
<path d="M10.6112 14.4445C10.918 14.4445 11.1667 14.1958 11.1667 13.8889C11.1667 13.5821 10.918 13.3334 10.6112 13.3334C10.3043 13.3334 10.0556 13.5821 10.0556 13.8889C10.0556 14.1958 10.3043 14.4445 10.6112 14.4445Z" stroke="#22C55E" stroke-width="1.11111" stroke-linecap="round" stroke-linejoin="round"/>
<path d="M7.83339 17.2223C8.14021 17.2223 8.38894 16.9735 8.38894 16.6667C8.38894 16.3599 8.14021 16.1112 7.83339 16.1112C7.52656 16.1112 7.27783 16.3599 7.27783 16.6667C7.27783 16.9735 7.52656 17.2223 7.83339 17.2223Z" stroke="#22C55E" stroke-width="1.11111" stroke-linecap="round" stroke-linejoin="round"/>
<path d="M13.3889 11.6667C13.6958 11.6667 13.9445 11.418 13.9445 11.1112C13.9445 10.8043 13.6958 10.5556 13.3889 10.5556C13.0821 10.5556 12.8334 10.8043 12.8334 11.1112C12.8334 11.418 13.0821 11.6667 13.3889 11.6667Z" stroke="#22C55E" stroke-width="1.11111" stroke-linecap="round" stroke-linejoin="round"/>
<path d="M16.1667 8.88894C16.4735 8.88894 16.7223 8.64021 16.7223 8.33339C16.7223 8.02656 16.4735 7.77783 16.1667 7.77783C15.8599 7.77783 15.6112 8.02656 15.6112 8.33339C15.6112 8.64021 15.8599 8.88894 16.1667 8.88894Z" stroke="#22C55E" stroke-width="1.11111" stroke-linecap="round" stroke-linejoin="round"/>
<path d="M13.3889 17.2223C13.6958 17.2223 13.9445 16.9735 13.9445 16.6667C13.9445 16.3599 13.6958 16.1112 13.3889 16.1112C13.0821 16.1112 12.8334 16.3599 12.8334 16.6667C12.8334 16.9735 13.0821 17.2223 13.3889 17.2223Z" stroke="#22C55E" stroke-width="1.11111" stroke-linecap="round" stroke-linejoin="round"/>
<path d="M16.1667 14.4445C16.4735 14.4445 16.7223 14.1958 16.7223 13.8889C16.7223 13.5821 16.4735 13.3334 16.1667 13.3334C15.8599 13.3334 15.6112 13.5821 15.6112 13.8889C15.6112 14.1958 15.8599 14.4445 16.1667 14.4445Z" stroke="#22C55E" stroke-width="1.11111" stroke-linecap="round" stroke-linejoin="round"/>
</svg>
