<svg width="20" height="20" viewBox="0 0 20 20" fill="none" xmlns="http://www.w3.org/2000/svg">
<g id="Frame 6755">
<path id="Vector" d="M17.855 10.2229C17.8878 12.0604 17.2316 13.9306 16.0504 15.4071C14.8692 16.8836 13.1303 17.8679 11.26 18.196C9.38982 18.5569 7.38835 18.196 5.7478 17.2117C4.07445 16.2602 2.76201 14.6852 2.1386 12.8478C1.51519 11.0104 1.48238 8.94332 2.20422 7.10591C2.92606 5.2685 4.27131 3.69357 6.0431 2.70925C6.929 2.21708 7.88052 1.92178 8.86484 1.75773C9.84917 1.62648 10.8663 1.62648 11.8506 1.82335C13.8193 2.21708 15.6567 3.36546 16.9035 4.9732C17.2316 5.39974 17.166 6.02315 16.7395 6.35126C16.3129 6.67937 15.6895 6.61375 15.3614 6.1872C15.3614 6.1872 15.3614 6.15439 15.3286 6.15439C14.4099 4.87477 13.0318 3.92325 11.4569 3.56233C10.6694 3.36546 9.88198 3.33265 9.06171 3.39828C8.27425 3.49671 7.48678 3.69357 6.76494 4.0873C5.32126 4.80914 4.10726 6.08877 3.48385 7.59807C2.82763 9.10738 2.76201 10.8792 3.25417 12.4541C3.74634 14.0618 4.8291 15.4727 6.27278 16.3586C7.68365 17.2773 9.45544 17.671 11.1616 17.4085C12.8678 17.1789 14.4755 16.3258 15.6239 15.0133C16.7723 13.7009 17.4613 11.9947 17.4941 10.2229C17.4941 10.1245 17.5925 10.0261 17.691 10.0261C17.7566 10.0261 17.855 10.1245 17.855 10.2229Z" fill="#010207"/>
</g>
</svg>
