<svg width="21" height="20" viewBox="0 0 21 20" fill="none" xmlns="http://www.w3.org/2000/svg">
<g id="trash">
<path id="Vector" d="M3.49985 5.83333H16.8332M8.49985 9.16667V14.1667M11.8332 9.16667V14.1667M4.33318 5.83333L5.16651 15.8333C5.16651 16.2754 5.34211 16.6993 5.65467 17.0118C5.96723 17.3244 6.39115 17.5 6.83318 17.5H13.4998C13.9419 17.5 14.3658 17.3244 14.6784 17.0118C14.9909 16.6993 15.1665 16.2754 15.1665 15.8333L15.9998 5.83333M7.66651 5.83333V3.33333C7.66651 3.11232 7.75431 2.90036 7.91059 2.74408C8.06687 2.5878 8.27883 2.5 8.49985 2.5H11.8332C12.0542 2.5 12.2662 2.5878 12.4224 2.74408C12.5787 2.90036 12.6665 3.11232 12.6665 3.33333V5.83333" stroke="#F8FAFC" stroke-width="1.66667" stroke-linecap="round" stroke-linejoin="round"/>
</g>
</svg>
