<svg width="17" height="16" viewBox="0 0 17 16" fill="none" xmlns="http://www.w3.org/2000/svg">
<g id="users">
<path id="Vector" d="M2.5 14V12.6667C2.5 11.9594 2.78095 11.2811 3.28105 10.781C3.78115 10.281 4.45942 10 5.16667 10H7.83333C8.54058 10 9.21885 10.281 9.71895 10.781C10.219 11.2811 10.5 11.9594 10.5 12.6667V14M11.1667 2.08667C11.7403 2.23354 12.2487 2.56714 12.6118 3.03488C12.9748 3.50262 13.1719 4.07789 13.1719 4.67C13.1719 5.26212 12.9748 5.83739 12.6118 6.30513C12.2487 6.77287 11.7403 7.10647 11.1667 7.25334M14.5 14V12.6667C14.4966 12.0781 14.2986 11.5072 13.9368 11.043C13.5751 10.5787 13.0699 10.2471 12.5 10.1M9.16667 4.66667C9.16667 6.13943 7.97276 7.33333 6.5 7.33333C5.02724 7.33333 3.83333 6.13943 3.83333 4.66667C3.83333 3.19391 5.02724 2 6.5 2C7.97276 2 9.16667 3.19391 9.16667 4.66667Z" stroke="#F8FAFC" stroke-linecap="round" stroke-linejoin="round"/>
</g>
</svg>
