<svg width="20" height="20" viewBox="0 0 20 20" fill="none" xmlns="http://www.w3.org/2000/svg">
<g id="usd-coin-usdc-logo 3" clip-path="url(#clip0_3081_16380)">
<path id="Vector" d="M10 20C15.5417 20 20 15.5417 20 10C20 4.4583 15.5417 0 10 0C4.4583 0 0 4.4583 0 10C0 15.5417 4.4583 20 10 20Z" fill="#2775CA"/>
<path id="Vector_2" d="M12.7503 11.582C12.7503 10.1237 11.8753 9.62372 10.1253 9.41542C8.87528 9.24872 8.62528 8.91543 8.62528 8.33203C8.62528 7.74863 9.04198 7.37373 9.87527 7.37373C10.6253 7.37373 11.042 7.62373 11.2503 8.24873C11.292 8.37373 11.417 8.45703 11.542 8.45703H12.2086C12.3753 8.45703 12.5003 8.33203 12.5003 8.16543V8.12373C12.3336 7.20703 11.5836 6.49873 10.6253 6.41543V5.41543C10.6253 5.24873 10.5003 5.12373 10.292 5.08203H9.66698C9.50028 5.08203 9.37528 5.20703 9.33358 5.41543V6.37373C8.08359 6.54043 7.29199 7.37373 7.29199 8.41543C7.29199 9.79042 8.12529 10.332 9.87527 10.5404C11.042 10.7487 11.417 10.9987 11.417 11.6654C11.417 12.3321 10.8336 12.7904 10.042 12.7904C8.95858 12.7904 8.58358 12.332 8.45858 11.707C8.41698 11.5404 8.29198 11.457 8.16699 11.457H7.45859C7.29199 11.457 7.16699 11.582 7.16699 11.7487V11.7904C7.33359 12.832 8.00029 13.582 9.37528 13.7904V14.7904C9.37528 14.957 9.50028 15.082 9.70858 15.1237H10.3336C10.5003 15.1237 10.6253 14.9987 10.667 14.7904V13.7904C11.917 13.582 12.7503 12.707 12.7503 11.582Z" fill="white"/>
<path id="Vector_3" d="M7.87484 15.9596C4.62484 14.793 2.95814 11.168 4.16654 7.95957C4.79154 6.20957 6.16654 4.87627 7.87484 4.25127C8.04154 4.16797 8.12484 4.04297 8.12484 3.83457V3.25127C8.12484 3.08457 8.04154 2.95957 7.87484 2.91797C7.83314 2.91797 7.74984 2.91797 7.70814 2.95957C3.74984 4.20957 1.58314 8.41797 2.83314 12.3763C3.58314 14.7096 5.37484 16.5013 7.70814 17.2513C7.87484 17.3346 8.04154 17.2513 8.08314 17.0846C8.12484 17.043 8.12484 17.0013 8.12484 16.918V16.3346C8.12484 16.2096 7.99984 16.043 7.87484 15.9596ZM12.2915 2.95957C12.1248 2.87627 11.9581 2.95957 11.9165 3.12627C11.8748 3.16797 11.8748 3.20957 11.8748 3.29297V3.87627C11.8748 4.04297 11.9998 4.20957 12.1248 4.29297C15.3748 5.45957 17.0415 9.08457 15.8331 12.293C15.2081 14.043 13.8331 15.3763 12.1248 16.0013C11.9581 16.0846 11.8748 16.2096 11.8748 16.418V17.0013C11.8748 17.168 11.9581 17.293 12.1248 17.3346C12.1665 17.3346 12.2498 17.3346 12.2915 17.293C16.2498 16.043 18.4165 11.8346 17.1665 7.87627C16.4165 5.50127 14.5831 3.70957 12.2915 2.95957Z" fill="white"/>
</g>
<defs>
<clipPath id="clip0_3081_16380">
<rect width="20" height="20" fill="white"/>
</clipPath>
</defs>
</svg>
