<svg width="44" height="25" viewBox="0 0 44 25" fill="none" xmlns="http://www.w3.org/2000/svg">
<path d="M0 12.5C0 5.59644 5.59644 0 12.5 0H31.5C38.4036 0 44 5.59644 44 12.5C44 19.4036 38.4036 25 31.5 25H12.5C5.59644 25 0 19.4036 0 12.5Z" fill="#E2E8F0"/>
<path d="M15.8145 18L12.2529 8.15625H14.1533L17.0244 16.8584H16.7988L19.6494 8.15625H21.5498L18.002 18H15.8145ZM26.7314 18.1709C25.7699 18.1709 24.9313 17.9567 24.2158 17.5283C23.5049 17.0999 22.9535 16.5007 22.5615 15.7305C22.1696 14.9603 21.9736 14.0648 21.9736 13.0439C21.9736 12.0459 22.1628 11.1686 22.541 10.4121C22.9238 9.65104 23.4707 9.05632 24.1816 8.62793C24.8926 8.19954 25.738 7.98535 26.7178 7.98535C27.7842 7.98535 28.6979 8.25423 29.459 8.79199C30.2246 9.32975 30.7282 10.1227 30.9697 11.1709L29.1514 11.5947C28.9919 10.8792 28.6956 10.346 28.2627 9.99512C27.8343 9.64421 27.3148 9.46875 26.7041 9.46875C26.1025 9.46875 25.5876 9.62142 25.1592 9.92676C24.7354 10.2275 24.4095 10.6491 24.1816 11.1914C23.9583 11.7292 23.8467 12.3558 23.8467 13.0713C23.8467 13.7959 23.9606 14.4316 24.1885 14.9785C24.4209 15.5208 24.7467 15.9424 25.166 16.2432C25.5898 16.5394 26.0911 16.6875 26.6699 16.6875C27.2988 16.6875 27.8343 16.5052 28.2764 16.1406C28.7184 15.7715 29.0101 15.2542 29.1514 14.5889L31.0176 15.0059C30.7487 16.0267 30.2337 16.8105 29.4727 17.3574C28.7116 17.8997 27.7979 18.1709 26.7314 18.1709Z" fill="#010207"/>
</svg>
