<svg width="20" height="21" viewBox="0 0 20 21" fill="none" xmlns="http://www.w3.org/2000/svg">
<g id="Frame 1000007289">
<path id="Vector" fill-rule="evenodd" clip-rule="evenodd" d="M14.8877 7.71915C14.8877 8.23335 14.4549 8.67141 13.9528 8.67141C13.4507 8.67141 13.0286 8.23335 13.0286 7.71915C13.0286 7.20495 13.4507 6.84253 13.9528 6.84253C14.4549 6.84253 14.8877 7.20495 14.8877 7.71915ZM7.87121 10.7981H7.94045C7.94045 11.0901 7.87121 11.3821 7.87121 11.6742V11.8202H7.6553L7.87121 10.7981ZM6.21772 14.4553H4.07241L3.93597 15.6239L5.93205 15.5535L6.21772 14.4553ZM4.14113 13.5792H6.36594L6.58237 12.7026H4.22063L4.14113 13.5792ZM15.5273 6.32834C14.3867 5.08407 12.6634 4.5 10.5191 4.5C8.37382 4.5 6.65109 5.08407 5.50996 6.32834C3.85545 8.08735 3.93597 10.3537 3.93597 10.4299C4.00367 10.6521 4.14112 10.7981 4.28934 10.7981H7.00498L6.79983 11.8202L3.78775 11.8963H3.43337L3.35388 12.2582L3.06821 16.0677L3 16.5H3.5021L6.29722 16.3598H6.6511L6.71931 16.0677L7.43835 12.7026H7.94045C8.22561 14.5314 9.29801 15.9979 12.0936 15.9979C13.7364 15.9979 15.1734 15.0393 15.813 13.5792L16.7484 13.795C16.7484 13.8712 16.7484 13.8712 16.8161 13.8712C16.8854 13.8712 16.9644 13.795 17.0336 13.795C17.1018 13.7247 17.1818 13.5792 17.1818 13.5088V10.6521C17.1818 10.5003 17.1818 8.08735 15.5273 6.32834Z" fill="#94A3B8"/>
</g>
</svg>
