<svg xmlns="http://www.w3.org/2000/svg" fill="none" viewBox="0 0 20 20" style="width: 100%; height: 30%;"><path fill="rgba(192,192,192,0.57)" fill-rule="evenodd" d="M5.833 1.666A3.333 3.333 0 0 0 2.5 4.999v10a3.333 3.333 0 0 0 3.333 3.334h8.334a3.333 3.333 0 0 0 3.333-3.334V6.38c0-.884-.351-1.732-.976-2.357l-1.381-1.38a3.33 3.33 0 0 0-2.357-.977zm.834 3.542a.625.625 0 1 0 0 1.25h6.666a.625.625 0 1 0 0-1.25zm-.625 4.791c0-.345.28-.625.625-.625h6.666a.625.625 0 1 1 0 1.25H6.667A.625.625 0 0 1 6.042 10m.625 3.542a.625.625 0 1 0 0 1.25H10a.625.625 0 1 0 0-1.25z" clip-rule="evenodd"></path></svg>