<svg width="48" height="48" viewBox="0 0 48 48" fill="none" xmlns="http://www.w3.org/2000/svg">
<path d="M24 0C37.2548 0 48 10.7452 48 24C48 37.2548 37.2548 48 24 48C10.7452 48 0 37.2548 0 24C0 10.7452 10.7452 0 24 0Z" fill="#9333EA"/>
<path d="M24 0C37.2548 0 48 10.7452 48 24C48 37.2548 37.2548 48 24 48C10.7452 48 0 37.2548 0 24C0 10.7452 10.7452 0 24 0Z" stroke="#E5E7EB"/>
<path d="M33.2031 34H14.7969V14H33.2031V34Z" stroke="#E5E7EB"/>
<path d="M19.4169 27.398H20.5369V30.8H19.4169V27.398ZM19.9769 28.14C19.1462 28.14 18.3902 27.9487 17.7089 27.566C17.0369 27.174 16.5002 26.628 16.0989 25.928C15.6975 25.228 15.4969 24.402 15.4969 23.45C15.4969 22.498 15.6975 21.672 16.0989 20.972C16.5002 20.2627 17.0369 19.7167 17.7089 19.334C18.3902 18.9513 19.1462 18.76 19.9769 18.76C20.8075 18.76 21.5589 18.9513 22.2309 19.334C22.9122 19.7167 23.4535 20.2627 23.8549 20.972C24.2562 21.672 24.4569 22.498 24.4569 23.45C24.4569 24.402 24.2562 25.228 23.8549 25.928C23.4535 26.628 22.9122 27.174 22.2309 27.566C21.5589 27.9487 20.8075 28.14 19.9769 28.14ZM19.9769 27.09C20.6115 27.09 21.1809 26.9547 21.6849 26.684C22.1889 26.404 22.5902 25.9933 22.8889 25.452C23.1875 24.9107 23.3369 24.2433 23.3369 23.45C23.3369 22.6567 23.1875 21.994 22.8889 21.462C22.5902 20.9207 22.1889 20.51 21.6849 20.23C21.1809 19.95 20.6115 19.81 19.9769 19.81C19.3515 19.81 18.7822 19.95 18.2689 20.23C17.7649 20.51 17.3635 20.9207 17.0649 21.462C16.7662 21.994 16.6169 22.6567 16.6169 23.45C16.6169 24.2433 16.7662 24.9107 17.0649 25.452C17.3635 25.9933 17.7649 26.404 18.2689 26.684C18.7822 26.9547 19.3515 27.09 19.9769 27.09ZM25.5102 22.05V21H28.2682V28H27.1482V22.05H25.5102Z" fill="white"/>
</svg>
