<svg width="48" height="48" viewBox="0 0 48 48" fill="none" xmlns="http://www.w3.org/2000/svg">
<path d="M24 0C37.2548 0 48 10.7452 48 24C48 37.2548 37.2548 48 24 48C10.7452 48 0 37.2548 0 24C0 10.7452 10.7452 0 24 0Z" fill="#0891B2"/>
<path d="M24 0C37.2548 0 48 10.7452 48 24C48 37.2548 37.2548 48 24 48C10.7452 48 0 37.2548 0 24C0 10.7452 10.7452 0 24 0Z" stroke="#E5E7EB"/>
<path d="M34.9531 34H13.0312V14H34.9531V34Z" stroke="#E5E7EB"/>
<path d="M17.6513 27.398H18.7713V30.8H17.6513V27.398ZM18.2113 28.14C17.3806 28.14 16.6246 27.9487 15.9433 27.566C15.2713 27.174 14.7346 26.628 14.3333 25.928C13.9319 25.228 13.7313 24.402 13.7313 23.45C13.7313 22.498 13.9319 21.672 14.3333 20.972C14.7346 20.2627 15.2713 19.7167 15.9433 19.334C16.6246 18.9513 17.3806 18.76 18.2113 18.76C19.0419 18.76 19.7933 18.9513 20.4653 19.334C21.1466 19.7167 21.6879 20.2627 22.0893 20.972C22.4906 21.672 22.6913 22.498 22.6913 23.45C22.6913 24.402 22.4906 25.228 22.0893 25.928C21.6879 26.628 21.1466 27.174 20.4653 27.566C19.7933 27.9487 19.0419 28.14 18.2113 28.14ZM18.2113 27.09C18.8459 27.09 19.4153 26.9547 19.9193 26.684C20.4233 26.404 20.8246 25.9933 21.1233 25.452C21.4219 24.9107 21.5713 24.2433 21.5713 23.45C21.5713 22.6567 21.4219 21.994 21.1233 21.462C20.8246 20.9207 20.4233 20.51 19.9193 20.23C19.4153 19.95 18.8459 19.81 18.2113 19.81C17.5859 19.81 17.0166 19.95 16.5033 20.23C15.9993 20.51 15.5979 20.9207 15.2993 21.462C15.0006 21.994 14.8513 22.6567 14.8513 23.45C14.8513 24.2433 15.0006 24.9107 15.2993 25.452C15.5979 25.9933 15.9993 26.404 16.5033 26.684C17.0166 26.9547 17.5859 27.09 18.2113 27.09ZM26.7685 25.34L26.7825 25.27C27.1372 25.298 27.4639 25.3587 27.7625 25.452C28.0612 25.5453 28.3225 25.6853 28.5465 25.872C28.7705 26.0493 28.9432 26.2827 29.0645 26.572C29.1859 26.8613 29.2465 27.2113 29.2465 27.622C29.2465 28.098 29.1345 28.532 28.9105 28.924C28.6865 29.3253 28.3692 29.6427 27.9585 29.876C27.5572 30.1187 27.0859 30.24 26.5445 30.24C26.0405 30.24 25.5785 30.1187 25.1585 29.876C24.7479 29.6427 24.4259 29.3253 24.1925 28.924C23.9685 28.532 23.8799 28.098 23.9265 27.622H24.9065C24.9065 27.9207 24.9719 28.1867 25.1025 28.42C25.2332 28.6627 25.4199 28.854 25.6625 28.994C25.9052 29.134 26.1992 29.204 26.5445 29.204C27.0299 29.204 27.4125 29.0547 27.6925 28.756C27.9819 28.4573 28.1265 28.0607 28.1265 27.566C28.1265 27.0713 27.9679 26.67 27.6505 26.362C27.3425 26.054 26.9179 25.9 26.3765 25.9H25.5785V24.864H26.3765C26.7312 24.864 27.0299 24.8033 27.2725 24.682C27.5152 24.5513 27.6972 24.3693 27.8185 24.136C27.9399 23.9027 28.0005 23.6367 28.0005 23.338C28.0005 22.918 27.8745 22.5773 27.6225 22.316C27.3799 22.0453 27.0112 21.91 26.5165 21.91C26.1059 21.91 25.7559 22.0453 25.4665 22.316C25.1772 22.5773 25.0325 22.918 25.0325 23.338H24.0525C24.0152 22.9927 24.0525 22.6707 24.1645 22.372C24.2859 22.0733 24.4632 21.812 24.6965 21.588C24.9299 21.3547 25.2005 21.1773 25.5085 21.056C25.8259 20.9253 26.1619 20.86 26.5165 20.86C27.0392 20.86 27.4965 20.972 27.8885 21.196C28.2805 21.4107 28.5839 21.7047 28.7985 22.078C29.0132 22.4513 29.1205 22.8713 29.1205 23.338C29.1205 23.7207 29.0599 24.0427 28.9385 24.304C28.8265 24.556 28.6632 24.7567 28.4485 24.906C28.2432 25.0553 27.9959 25.1627 27.7065 25.228C27.4172 25.2933 27.1045 25.3307 26.7685 25.34Z" fill="white"/>
</svg>
