<svg width="48" height="48" viewBox="0 0 48 48" fill="none" xmlns="http://www.w3.org/2000/svg">
<path d="M24 0C37.2548 0 48 10.7452 48 24C48 37.2548 37.2548 48 24 48C10.7452 48 0 37.2548 0 24C0 10.7452 10.7452 0 24 0Z" fill="#2563EB"/>
<path d="M24 0C37.2548 0 48 10.7452 48 24C48 37.2548 37.2548 48 24 48C10.7452 48 0 37.2548 0 24C0 10.7452 10.7452 0 24 0Z" stroke="#E5E7EB"/>
<path d="M34.8438 34H13.1562V14H34.8438V34Z" stroke="#E5E7EB"/>
<path d="M17.7763 27.398H18.8963V30.8H17.7763V27.398ZM18.3363 28.14C17.5056 28.14 16.7496 27.9487 16.0683 27.566C15.3963 27.174 14.8596 26.628 14.4583 25.928C14.0569 25.228 13.8563 24.402 13.8563 23.45C13.8563 22.498 14.0569 21.672 14.4583 20.972C14.8596 20.2627 15.3963 19.7167 16.0683 19.334C16.7496 18.9513 17.5056 18.76 18.3363 18.76C19.1669 18.76 19.9183 18.9513 20.5903 19.334C21.2716 19.7167 21.8129 20.2627 22.2143 20.972C22.6156 21.672 22.8163 22.498 22.8163 23.45C22.8163 24.402 22.6156 25.228 22.2143 25.928C21.8129 26.628 21.2716 27.174 20.5903 27.566C19.9183 27.9487 19.1669 28.14 18.3363 28.14ZM18.3363 27.09C18.9709 27.09 19.5403 26.9547 20.0443 26.684C20.5483 26.404 20.9496 25.9933 21.2483 25.452C21.5469 24.9107 21.6963 24.2433 21.6963 23.45C21.6963 22.6567 21.5469 21.994 21.2483 21.462C20.9496 20.9207 20.5483 20.51 20.0443 20.23C19.5403 19.95 18.9709 19.81 18.3363 19.81C17.7109 19.81 17.1416 19.95 16.6283 20.23C16.1243 20.51 15.7229 20.9207 15.4243 21.462C15.1256 21.994 14.9763 22.6567 14.9763 23.45C14.9763 24.2433 15.1256 24.9107 15.4243 25.452C15.7229 25.9933 16.1243 26.404 16.6283 26.684C17.1416 26.9547 17.7109 27.09 18.3363 27.09ZM27.1595 25.886L25.2835 27.244L25.1855 26.95H29.3015V28H24.1215V26.95C24.7282 26.4927 25.2649 26.1053 25.7315 25.788C26.2075 25.4707 26.6089 25.186 26.9355 24.934C27.2622 24.682 27.5095 24.4253 27.6775 24.164C27.8549 23.9027 27.9435 23.5993 27.9435 23.254C27.9435 22.9927 27.8922 22.764 27.7895 22.568C27.6869 22.3627 27.5282 22.204 27.3135 22.092C27.1082 21.9707 26.8375 21.91 26.5015 21.91C26.0909 21.91 25.7362 22.0407 25.4375 22.302C25.1389 22.5633 24.9895 22.904 24.9895 23.324H24.0095C23.9629 22.8573 24.0469 22.442 24.2615 22.078C24.4855 21.7047 24.7935 21.4107 25.1855 21.196C25.5869 20.972 26.0255 20.86 26.5015 20.86C26.9122 20.86 27.2762 20.9253 27.5935 21.056C27.9109 21.1773 28.1769 21.3453 28.3915 21.56C28.6155 21.7747 28.7835 22.022 28.8955 22.302C29.0075 22.582 29.0635 22.876 29.0635 23.184C29.0635 23.464 29.0169 23.7207 28.9235 23.954C28.8395 24.1873 28.7135 24.4113 28.5455 24.626C28.3869 24.8407 28.1909 25.0507 27.9575 25.256C27.7242 25.4613 27.4582 25.6713 27.1595 25.886Z" fill="white"/>
</svg>
