<svg width="48" height="48" viewBox="0 0 48 48" fill="none" xmlns="http://www.w3.org/2000/svg">
<path d="M24 0C37.2548 0 48 10.7452 48 24C48 37.2548 37.2548 48 24 48C10.7452 48 0 37.2548 0 24C0 10.7452 10.7452 0 24 0Z" fill="#16A34A"/>
<path d="M24 0C37.2548 0 48 10.7452 48 24C48 37.2548 37.2548 48 24 48C10.7452 48 0 37.2548 0 24C0 10.7452 10.7452 0 24 0Z" stroke="#E5E7EB"/>
<path d="M35.4375 34H12.5469V14H35.4375V34Z" stroke="#E5E7EB"/>
<path d="M17.1669 27.398H18.2869V30.8H17.1669V27.398ZM17.7269 28.14C16.8962 28.14 16.1402 27.9487 15.4589 27.566C14.7869 27.174 14.2502 26.628 13.8489 25.928C13.4475 25.228 13.2469 24.402 13.2469 23.45C13.2469 22.498 13.4475 21.672 13.8489 20.972C14.2502 20.2627 14.7869 19.7167 15.4589 19.334C16.1402 18.9513 16.8962 18.76 17.7269 18.76C18.5575 18.76 19.3089 18.9513 19.9809 19.334C20.6622 19.7167 21.2035 20.2627 21.6049 20.972C22.0062 21.672 22.2069 22.498 22.2069 23.45C22.2069 24.402 22.0062 25.228 21.6049 25.928C21.2035 26.628 20.6622 27.174 19.9809 27.566C19.3089 27.9487 18.5575 28.14 17.7269 28.14ZM17.7269 27.09C18.3615 27.09 18.9309 26.9547 19.4349 26.684C19.9389 26.404 20.3402 25.9933 20.6389 25.452C20.9375 24.9107 21.0869 24.2433 21.0869 23.45C21.0869 22.6567 20.9375 21.994 20.6389 21.462C20.3402 20.9207 19.9389 20.51 19.4349 20.23C18.9309 19.95 18.3615 19.81 17.7269 19.81C17.1015 19.81 16.5322 19.95 16.0189 20.23C15.5149 20.51 15.1135 20.9207 14.8149 21.462C14.5162 21.994 14.3669 22.6567 14.3669 23.45C14.3669 24.2433 14.5162 24.9107 14.8149 25.452C15.1135 25.9933 15.5149 26.404 16.0189 26.684C16.5322 26.9547 17.1015 27.09 17.7269 27.09ZM28.5102 20.93V30.03H27.3902V22.316L27.6562 22.4L24.5062 27.37L24.2682 26.95H27.6142V28H23.5402V26.95L27.3902 20.93H28.5102ZM28.2862 28V26.95H29.7982V28H28.2862Z" fill="white"/>
</svg>
