<svg width="64" height="64" viewBox="0 0 64 64" fill="none" xmlns="http://www.w3.org/2000/svg">
<path d="M32 0C49.6731 0 64 14.3269 64 32C64 49.6731 49.6731 64 32 64C14.3269 64 0 49.6731 0 32C0 14.3269 14.3269 0 32 0Z" fill="url(#paint0_linear_30_343)"/>
<path d="M32 0C49.6731 0 64 14.3269 64 32C64 49.6731 49.6731 64 32 64C14.3269 64 0 49.6731 0 32C0 14.3269 14.3269 0 32 0Z" stroke="#E5E7EB"/>
<path d="M44 48H20V16H44V48Z" stroke="#E5E7EB"/>
<g clip-path="url(#clip0_30_343)">
<path d="M28.625 18C30.0734 18 31.25 19.1766 31.25 20.625V39.375C31.25 40.8234 30.0734 42 28.625 42C27.2703 42 26.1547 40.9734 26.0141 39.6516C25.7703 39.7172 25.5125 39.75 25.25 39.75C23.5953 39.75 22.25 38.4047 22.25 36.75C22.25 36.4031 22.3109 36.0656 22.4187 35.7562C21.0031 35.2219 20 33.8531 20 32.25C20 30.7547 20.8766 29.4609 22.1469 28.8609C21.7391 28.35 21.5 27.7031 21.5 27C21.5 25.5609 22.5125 24.3609 23.8625 24.0656C23.7875 23.8078 23.75 23.5312 23.75 23.25C23.75 21.8484 24.7156 20.6672 26.0141 20.3391C26.1547 19.0266 27.2703 18 28.625 18ZM35.375 18C36.7297 18 37.8406 19.0266 37.9859 20.3391C39.2891 20.6672 40.25 21.8438 40.25 23.25C40.25 23.5312 40.2125 23.8078 40.1375 24.0656C41.4875 24.3562 42.5 25.5609 42.5 27C42.5 27.7031 42.2609 28.35 41.8531 28.8609C43.1234 29.4609 44 30.7547 44 32.25C44 33.8531 42.9969 35.2219 41.5812 35.7562C41.6891 36.0656 41.75 36.4031 41.75 36.75C41.75 38.4047 40.4047 39.75 38.75 39.75C38.4875 39.75 38.2297 39.7172 37.9859 39.6516C37.8453 40.9734 36.7297 42 35.375 42C33.9266 42 32.75 40.8234 32.75 39.375V20.625C32.75 19.1766 33.9266 18 35.375 18Z" fill="white"/>
</g>
<defs>
<linearGradient id="paint0_linear_30_343" x1="0" y1="32" x2="64" y2="32" gradientUnits="userSpaceOnUse">
<stop stop-color="#2563EB"/>
<stop offset="1" stop-color="#0891B2"/>
</linearGradient>
<clipPath id="clip0_30_343">
<path d="M20 18H44V42H20V18Z" fill="white"/>
</clipPath>
</defs>
</svg>
