<svg width="64" height="64" viewBox="0 0 64 64" fill="none" xmlns="http://www.w3.org/2000/svg">
<path d="M32 0C49.6731 0 64 14.3269 64 32C64 49.6731 49.6731 64 32 64C14.3269 64 0 49.6731 0 32C0 14.3269 14.3269 0 32 0Z" fill="url(#paint0_linear_30_355)"/>
<path d="M32 0C49.6731 0 64 14.3269 64 32C64 49.6731 49.6731 64 32 64C14.3269 64 0 49.6731 0 32C0 14.3269 14.3269 0 32 0Z" stroke="#E5E7EB"/>
<path d="M47 48H17V16H47V48Z" stroke="#E5E7EB"/>
<g clip-path="url(#clip0_30_355)">
<path d="M44.1781 30.5484C46.8266 27.9 46.8266 23.6109 44.1781 20.9624C41.8344 18.6187 38.1406 18.314 35.4453 20.2406L35.3703 20.2921C34.6953 20.7749 34.5406 21.7124 35.0235 22.3828C35.5063 23.0531 36.4438 23.2125 37.1141 22.7296L37.1891 22.6781C38.6938 21.6046 40.7516 21.7734 42.0547 23.0812C43.5313 24.5578 43.5313 26.9484 42.0547 28.425L36.7953 33.6937C35.3188 35.1703 32.9281 35.1703 31.4516 33.6937C30.1438 32.3859 29.975 30.3281 31.0485 28.8281L31.1 28.7531C31.5828 28.0781 31.4235 27.1406 30.7531 26.6625C30.0828 26.1843 29.1406 26.339 28.6625 27.0093L28.611 27.0843C26.6797 29.775 26.9844 33.4687 29.3281 35.8125C31.9766 38.4609 36.2656 38.4609 38.9141 35.8125L44.1781 30.5484ZM19.8219 29.4515C17.1735 32.1 17.1735 36.389 19.8219 39.0375C22.1656 41.3812 25.8594 41.6859 28.5547 39.7593L28.6297 39.7078C29.3047 39.225 29.4594 38.2875 28.9766 37.6171C28.4938 36.9468 27.5563 36.7875 26.886 37.2703L26.811 37.3218C25.3063 38.3953 23.2485 38.2265 21.9453 36.9187C20.4688 35.4375 20.4688 33.0468 21.9453 31.5703L27.2047 26.3062C28.6813 24.8296 31.0719 24.8296 32.5485 26.3062C33.8563 27.614 34.025 29.6718 32.9516 31.1765L32.9 31.2515C32.4172 31.9265 32.5766 32.864 33.2469 33.3421C33.9172 33.8203 34.8594 33.6656 35.3375 32.9953L35.3891 32.9203C37.3203 30.2249 37.0156 26.5312 34.6719 24.1874C32.0235 21.539 27.7344 21.539 25.086 24.1874L19.8219 29.4515Z" fill="white"/>
</g>
<defs>
<linearGradient id="paint0_linear_30_355" x1="0" y1="32" x2="64" y2="32" gradientUnits="userSpaceOnUse">
<stop stop-color="#0891B2"/>
<stop offset="1" stop-color="#16A34A"/>
</linearGradient>
<clipPath id="clip0_30_355">
<path d="M17 18H47V42H17V18Z" fill="white"/>
</clipPath>
</defs>
</svg>
