<svg width="64" height="64" viewBox="0 0 64 64" fill="none" xmlns="http://www.w3.org/2000/svg">
<path d="M32 0C49.6731 0 64 14.3269 64 32C64 49.6731 49.6731 64 32 64C14.3269 64 0 49.6731 0 32C0 14.3269 14.3269 0 32 0Z" fill="url(#paint0_linear_30_330)"/>
<path d="M32 0C49.6731 0 64 14.3269 64 32C64 49.6731 49.6731 64 32 64C14.3269 64 0 49.6731 0 32C0 14.3269 14.3269 0 32 0Z" stroke="#E5E7EB"/>
<path d="M41 48H23V16H41V48Z" stroke="#E5E7EB"/>
<g clip-path="url(#clip0_30_330)">
<path d="M32 18C29.5156 18 27.5 20.0156 27.5 22.5V30C27.5 32.4844 29.5156 34.5 32 34.5C34.4844 34.5 36.5 32.4844 36.5 30V22.5C36.5 20.0156 34.4844 18 32 18ZM26 28.125C26 27.5016 25.4984 27 24.875 27C24.2516 27 23.75 27.5016 23.75 28.125V30C23.75 34.1766 26.8531 37.6266 30.875 38.175V39.75H28.625C28.0016 39.75 27.5 40.2516 27.5 40.875C27.5 41.4984 28.0016 42 28.625 42H32H35.375C35.9984 42 36.5 41.4984 36.5 40.875C36.5 40.2516 35.9984 39.75 35.375 39.75H33.125V38.175C37.1469 37.6266 40.25 34.1766 40.25 30V28.125C40.25 27.5016 39.7484 27 39.125 27C38.5016 27 38 27.5016 38 28.125V30C38 33.3141 35.3141 36 32 36C28.6859 36 26 33.3141 26 30V28.125Z" fill="white"/>
</g>
<defs>
<linearGradient id="paint0_linear_30_330" x1="0" y1="32" x2="64" y2="32" gradientUnits="userSpaceOnUse">
<stop stop-color="#9333EA"/>
<stop offset="1" stop-color="#2563EB"/>
</linearGradient>
<clipPath id="clip0_30_330">
<path d="M23 18H41V42H23V18Z" fill="white"/>
</clipPath>
</defs>
</svg>
