<svg xmlns="http://www.w3.org/2000/svg" width="64" height="64" viewBox="0 0 64 64" fill="none">
  <path d="M21.3333 55.9998H42.6667M32 45.3332V55.9998M32 45.3332C35.5362 45.3332 38.9276 43.9284 41.4281 41.4279C43.9286 38.9274 45.3333 35.5361 45.3333 31.9998V10.6665H18.6667V31.9998C18.6667 35.5361 20.0714 38.9274 22.5719 41.4279C25.0724 43.9284 28.4638 45.3332 32 45.3332ZM18.6667 23.9998C18.6667 26.9454 16.2789 29.3332 13.3333 29.3332C10.3878 29.3332 8 26.9454 8 23.9998C8 21.0543 10.3878 18.6665 13.3333 18.6665C16.2789 18.6665 18.6667 21.0543 18.6667 23.9998ZM56 23.9998C56 26.9454 53.6122 29.3332 50.6667 29.3332C47.7212 29.3332 45.3333 26.9454 45.3333 23.9998C45.3333 21.0543 47.7212 18.6665 50.6667 18.6665C53.6122 18.6665 56 21.0543 56 23.9998Z" stroke="#F5F5F5" stroke-width="5.33333" stroke-linecap="round" stroke-linejoin="round"/>
</svg>