<svg xmlns="http://www.w3.org/2000/svg" width="12" height="13" viewBox="0 0 12 13" fill="none">
  <path d="M2 3.5C2 3.23478 2.10536 2.98043 2.29289 2.79289C2.48043 2.60536 2.73478 2.5 3 2.5H8C8.13261 2.5 8.25979 2.55268 8.35355 2.64645C8.44732 2.74021 8.5 2.86739 8.5 3V4.5L9.5 6.5V5C9.5 4.86739 9.44732 4.74021 9.35355 4.64645C9.25979 4.55268 9.13261 4.5 9 4.5H3C2.73478 4.5 2.48043 4.39464 2.29289 4.20711C2.10536 4.01957 2 3.76522 2 3.5ZM2 3.5V9.5C2 9.76522 2.10536 10.0196 2.29289 10.2071C2.48043 10.3946 2.73478 10.5 3 10.5H9C9.13261 10.5 9.25979 10.4473 9.35355 10.3536C9.44732 10.2598 9.5 10.1326 9.5 10V8.5M10 6.5V8.5H8C7.73478 8.5 7.48043 8.39464 7.29289 8.20711C7.10536 8.01957 7 7.76522 7 7.5C7 7.23478 7.10536 6.98043 7.29289 6.79289C7.48043 6.60536 7.73478 6.5 8 6.5H10Z" stroke="currentColor" stroke-linecap="round" stroke-linejoin="round"/>
</svg>