<svg xmlns="http://www.w3.org/2000/svg" width="37" height="36" viewBox="0 0 37 36" fill="none">
  <path d="M35.115 11.0435L27.7054 3.63401C27.178 3.10675 26.4628 2.81055 25.717 2.81055C24.9712 2.81055 24.256 3.10675 23.7286 3.63401L8.63668 18.7259C8.10942 19.2533 7.81322 19.9685 7.81322 20.7143C7.81322 21.4601 8.10942 22.1753 8.63668 22.7028L11.1482 25.2143L4.93261 31.4299C4.6156 31.747 4.4375 32.1769 4.4375 32.6253C4.4375 33.0736 4.6156 33.5035 4.93261 33.8206C5.24963 34.1376 5.6796 34.3157 6.12793 34.3157C6.57626 34.3157 7.00622 34.1376 7.32324 33.8206L13.5389 27.6035L16.0504 30.1151C16.5779 30.6424 17.2931 30.9386 18.0389 30.9386C18.7846 30.9386 19.4999 30.6424 20.0273 30.1151L35.115 15.0204C35.6422 14.493 35.9384 13.7778 35.9384 13.032C35.9384 12.2862 35.6422 11.571 35.115 11.0435ZM18.0346 27.3279L15.9253 25.2185L19.6982 21.4456C20.0153 21.1286 20.1934 20.6986 20.1934 20.2503C20.1934 19.8019 20.0153 19.372 19.6982 19.0549C19.3812 18.7379 18.9513 18.5598 18.5029 18.5598C18.0546 18.5598 17.6246 18.7379 17.3076 19.0549L13.5346 22.8279L11.4253 20.7185L15.8282 16.3114H22.4376V22.9207L18.0346 27.3279ZM25.8126 19.5457V14.6239C25.8126 14.1763 25.6348 13.7471 25.3184 13.4306C25.0019 13.1141 24.5727 12.9364 24.1251 12.9364H19.2032L25.7198 6.41979L32.3292 13.0292L25.8126 19.5457ZM8.93762 12.9364C9.82763 12.9364 10.6977 12.6724 11.4377 12.178C12.1777 11.6835 12.7545 10.9807 13.0951 10.1584C13.4357 9.33616 13.5248 8.43136 13.3511 7.55845C13.1775 6.68553 12.7489 5.88371 12.1196 5.25437C11.4903 4.62504 10.6884 4.19645 9.81552 4.02282C8.94261 3.84919 8.03781 3.9383 7.21554 4.27889C6.39327 4.61949 5.69047 5.19626 5.196 5.93629C4.70153 6.67631 4.43761 7.54634 4.43761 8.43635C4.43761 9.62983 4.91172 10.7744 5.75563 11.6183C6.59955 12.4622 7.74414 12.9364 8.93762 12.9364ZM8.93762 7.31135C9.16012 7.31135 9.37763 7.37733 9.56263 7.50095C9.74764 7.62457 9.89183 7.80027 9.97698 8.00583C10.0621 8.2114 10.0844 8.4376 10.041 8.65583C9.99759 8.87406 9.89044 9.07451 9.73311 9.23185C9.57578 9.38918 9.37532 9.49633 9.15709 9.53974C8.93886 9.58314 8.71266 9.56086 8.5071 9.47572C8.30153 9.39057 8.12583 9.24637 8.00221 9.06137C7.8786 8.87636 7.81261 8.65886 7.81261 8.43635C7.81261 8.13798 7.93114 7.85184 8.14212 7.64086C8.3531 7.42988 8.63925 7.31135 8.93762 7.31135Z" fill="currentColor"/>
</svg>