<svg xmlns="http://www.w3.org/2000/svg" width="16" height="16" viewBox="0 0 16 16" fill="none">
  <path d="M8 4.29333V6.51333" stroke="currentColor" stroke-miterlimit="10" stroke-linecap="round"/>
  <path d="M8.01388 1.33333C5.56054 1.33333 3.57388 3.32 3.57388 5.77333V7.17333C3.57388 7.62667 3.38721 8.30667 3.15388 8.69333L2.30721 10.1067C1.78721 10.98 2.14721 11.9533 3.10721 12.2733C6.29388 13.3333 9.74054 13.3333 12.9272 12.2733C13.8272 11.9733 14.2139 10.92 13.7272 10.1067L12.8805 8.69333C12.6472 8.30667 12.4605 7.62 12.4605 7.17333V5.77333C12.4539 3.33333 10.4539 1.33333 8.01388 1.33333Z" stroke="currentColor" stroke-miterlimit="10" stroke-linecap="round"/>
  <path d="M10.2199 12.5467C10.2199 13.7667 9.21991 14.7667 7.99991 14.7667C7.39324 14.7667 6.83324 14.5133 6.43324 14.1133C6.03324 13.7133 5.77991 13.1533 5.77991 12.5467" stroke="currentColor" stroke-miterlimit="10"/>
</svg>