<svg xmlns="http://www.w3.org/2000/svg" width="48" height="38" viewBox="0 0 48 38" fill="none">
  <path d="M44.222 5.00065H39.5554V3.4451C39.5554 2.61998 39.2276 1.82865 38.6442 1.24521C38.0607 0.661761 37.2694 0.333984 36.4443 0.333984H11.5554C10.7303 0.333984 9.93895 0.661761 9.3555 1.24521C8.77206 1.82865 8.44428 2.61998 8.44428 3.4451V5.00065H3.77761C2.9525 5.00065 2.16117 5.32843 1.57773 5.91188C0.994281 6.49532 0.666504 7.28665 0.666504 8.11176V11.2229C0.666504 13.2857 1.48595 15.264 2.94456 16.7226C3.6668 17.4448 4.52421 18.0177 5.46785 18.4086C6.4115 18.7995 7.42289 19.0007 8.44428 19.0007H9.154C10.0703 21.9045 11.8174 24.4762 14.1794 26.398C16.5414 28.3197 19.4147 29.5072 22.4443 29.8137V34.5562H17.7776C17.3651 34.5562 16.9694 34.7201 16.6777 35.0118C16.3859 35.3036 16.2221 35.6992 16.2221 36.1118C16.2221 36.5243 16.3859 36.92 16.6777 37.2117C16.9694 37.5034 17.3651 37.6673 17.7776 37.6673H30.2221C30.6346 37.6673 31.0303 37.5034 31.322 37.2117C31.6137 36.92 31.7776 36.5243 31.7776 36.1118C31.7776 35.6992 31.6137 35.3036 31.322 35.0118C31.0303 34.7201 30.6346 34.5562 30.2221 34.5562H25.5554V29.8079C31.7659 29.1798 36.9187 24.8223 38.7932 19.0007H39.5554C41.6182 19.0007 43.5965 18.1812 45.0551 16.7226C46.5137 15.264 47.3332 13.2857 47.3332 11.2229V8.11176C47.3332 7.28665 47.0054 6.49532 46.4219 5.91188C45.8385 5.32843 45.0472 5.00065 44.222 5.00065ZM8.44428 15.8895C7.2066 15.8895 6.01962 15.3979 5.14445 14.5227C4.26928 13.6475 3.77761 12.4606 3.77761 11.2229V8.11176H8.44428V14.334C8.44428 14.8525 8.46956 15.371 8.52011 15.8895H8.44428ZM36.4443 14.159C36.4443 21.0657 30.9046 26.7279 24.0951 26.7784H23.9998C20.6994 26.7784 17.5341 25.4673 15.2003 23.1335C12.8665 20.7998 11.5554 17.6345 11.5554 14.334V3.4451H36.4443V14.159ZM44.222 11.2229C44.222 12.4606 43.7304 13.6475 42.8552 14.5227C41.98 15.3979 40.7931 15.8895 39.5554 15.8895H39.4582C39.522 15.3149 39.5545 14.7372 39.5554 14.159V8.11176H44.222V11.2229Z" fill="currentColor"/>
</svg>