<svg xmlns="http://www.w3.org/2000/svg" width="25" height="25" viewBox="0 0 25 25" fill="none">
  <path d="M4.1001 7.5H20.1001M10.1001 11.5V17.5M14.1001 11.5V17.5M5.1001 7.5L6.1001 19.5C6.1001 20.0304 6.31081 20.5391 6.68588 20.9142C7.06096 21.2893 7.56966 21.5 8.1001 21.5H16.1001C16.6305 21.5 17.1392 21.2893 17.5143 20.9142C17.8894 20.5391 18.1001 20.0304 18.1001 19.5L19.1001 7.5M9.1001 7.5V4.5C9.1001 4.23478 9.20545 3.98043 9.39299 3.79289C9.58053 3.60536 9.83488 3.5 10.1001 3.5H14.1001C14.3653 3.5 14.6197 3.60536 14.8072 3.79289C14.9947 3.98043 15.1001 4.23478 15.1001 4.5V7.5" stroke="currentColor" stroke-width="2" stroke-linecap="round" stroke-linejoin="round"/>
</svg>