<svg xmlns="http://www.w3.org/2000/svg" width="24" height="24" viewBox="0 0 24 24" fill="none">
  <path d="M20.25 6.37456H17.8181C18.1661 5.86839 18.3596 5.27204 18.375 4.65799C18.3889 4.19021 18.307 3.72453 18.1343 3.28956C17.9617 2.85458 17.7019 2.4595 17.371 2.12859C17.0401 1.79767 16.645 1.5379 16.21 1.36524C15.775 1.19258 15.3093 1.11068 14.8416 1.12456C14.4095 1.13378 13.984 1.23223 13.5918 1.41373C13.1996 1.59523 12.8492 1.85585 12.5625 2.17924C12.3511 2.42044 12.1627 2.68096 12 2.95737C11.8373 2.68096 11.6489 2.42044 11.4375 2.17924C11.1508 1.85585 10.8004 1.59523 10.4082 1.41373C10.016 1.23223 9.5905 1.13378 9.15844 1.12456C8.69066 1.11068 8.22497 1.19258 7.79 1.36524C7.35503 1.5379 6.95995 1.79767 6.62903 2.12859C6.29811 2.4595 6.03834 2.85458 5.86568 3.28956C5.69303 3.72453 5.61112 4.19021 5.625 4.65799C5.64043 5.27204 5.83389 5.86839 6.18188 6.37456H3.75C3.25272 6.37456 2.77581 6.5721 2.42417 6.92373C2.07254 7.27536 1.875 7.75228 1.875 8.24956V11.2496C1.87491 11.6818 2.02417 12.1008 2.29751 12.4356C2.57085 12.7705 2.95149 13.0006 3.375 13.0871V18.7496C3.375 19.2468 3.57254 19.7238 3.92417 20.0754C4.27581 20.427 4.75272 20.6246 5.25 20.6246H18.75C19.2473 20.6246 19.7242 20.427 20.0758 20.0754C20.4275 19.7238 20.625 19.2468 20.625 18.7496V13.0871C21.0485 13.0006 21.4291 12.7705 21.7025 12.4356C21.9758 12.1008 22.1251 11.6818 22.125 11.2496V8.24956C22.125 7.75228 21.9275 7.27536 21.5758 6.92373C21.2242 6.5721 20.7473 6.37456 20.25 6.37456ZM19.875 10.8746H13.125V8.62456H19.875V10.8746ZM14.25 3.67174C14.333 3.57964 14.4341 3.50569 14.5471 3.45455C14.66 3.4034 14.7823 3.37617 14.9062 3.37456H14.9391C15.0977 3.37411 15.2548 3.40557 15.4011 3.46708C15.5473 3.52858 15.6797 3.61887 15.7903 3.73257C15.901 3.84628 15.9876 3.98107 16.0451 4.12894C16.1026 4.27681 16.1298 4.43473 16.125 4.59331C16.1234 4.71727 16.0962 4.83956 16.045 4.9525C15.9939 5.06544 15.9199 5.16657 15.8278 5.24956C15.1809 5.82331 14.1169 6.11768 13.2375 6.25831C13.3781 5.38268 13.6725 4.31862 14.25 3.67174ZM8.22187 3.72143C8.44441 3.50128 8.74416 3.37681 9.05719 3.37456H9.09375C9.21772 3.37617 9.34001 3.4034 9.45294 3.45455C9.56588 3.50569 9.66702 3.57964 9.75 3.67174C10.3237 4.31862 10.6181 5.38174 10.7578 6.26018C9.88594 6.11862 8.8125 5.82424 8.17219 5.24956C8.08008 5.16657 8.00613 5.06544 7.95499 4.9525C7.90385 4.83956 7.87661 4.71727 7.875 4.59331C7.87085 4.43208 7.89946 4.27168 7.95908 4.12182C8.0187 3.97196 8.1081 3.83575 8.22187 3.72143ZM4.125 8.62456H10.875V10.8746H4.125V8.62456ZM5.625 13.1246H10.875V18.3746H5.625V13.1246ZM13.125 18.3746V13.1246H18.375V18.3746H13.125Z" fill="currentColor"/>
</svg>