<svg xmlns="http://www.w3.org/2000/svg" width="37" height="37" viewBox="0 0 37 37" fill="none">
  <path d="M30.875 10.015H27.2272C27.7492 9.25571 28.0394 8.36119 28.0625 7.44012C28.0833 6.73844 27.9605 6.03992 27.7015 5.38746C27.4425 4.735 27.0528 4.14238 26.5565 3.646C26.0601 3.14963 25.4675 2.75998 24.815 2.50099C24.1625 2.242 23.464 2.11914 22.7623 2.13996C22.1143 2.15379 21.476 2.30147 20.8877 2.57372C20.2994 2.84597 19.7738 3.23691 19.3438 3.72199C19.0266 4.08379 18.7441 4.47456 18.5 4.88918C18.2559 4.47456 17.9734 4.08379 17.6562 3.72199C17.2262 3.23691 16.7006 2.84597 16.1123 2.57372C15.524 2.30147 14.8857 2.15379 14.2377 2.13996C13.536 2.11914 12.8375 2.242 12.185 2.50099C11.5325 2.75998 10.9399 3.14963 10.4435 3.646C9.94717 4.14238 9.55752 4.735 9.29853 5.38746C9.03954 6.03992 8.91668 6.73844 8.9375 7.44012C8.96065 8.36119 9.25084 9.25571 9.77281 10.015H6.125C5.37908 10.015 4.66371 10.3113 4.13626 10.8387C3.60882 11.3662 3.3125 12.0815 3.3125 12.8275V17.3275C3.31237 17.9758 3.53625 18.6043 3.94627 19.1066C4.35628 19.6089 4.92723 19.954 5.5625 20.0837V28.5775C5.5625 29.3234 5.85882 30.0388 6.38626 30.5662C6.91371 31.0936 7.62908 31.39 8.375 31.39H28.625C29.3709 31.39 30.0863 31.0936 30.6137 30.5662C31.1412 30.0388 31.4375 29.3234 31.4375 28.5775V20.0837C32.0728 19.954 32.6437 19.6089 33.0537 19.1066C33.4637 18.6043 33.6876 17.9758 33.6875 17.3275V12.8275C33.6875 12.0815 33.3912 11.3662 32.8637 10.8387C32.3363 10.3113 31.6209 10.015 30.875 10.015ZM30.3125 16.765H20.1875V13.39H30.3125V16.765ZM21.875 5.96074C21.9995 5.82258 22.1512 5.71166 22.3206 5.63495C22.49 5.55823 22.6734 5.51738 22.8594 5.51496H22.9086C23.1466 5.51429 23.3822 5.56148 23.6016 5.65374C23.821 5.746 24.0196 5.88143 24.1855 6.05199C24.3515 6.22254 24.4814 6.42473 24.5677 6.64653C24.6539 6.86834 24.6947 7.10522 24.6875 7.34309C24.6851 7.52903 24.6442 7.71247 24.5675 7.88188C24.4908 8.05128 24.3799 8.20298 24.2417 8.32746C23.2714 9.18809 21.6753 9.62965 20.3562 9.84059C20.5672 8.52715 21.0088 6.93105 21.875 5.96074ZM12.8328 6.03527C13.1666 5.70505 13.6162 5.51834 14.0858 5.51496H14.1406C14.3266 5.51738 14.51 5.55823 14.6794 5.63495C14.8488 5.71166 15.0005 5.82258 15.125 5.96074C15.9856 6.93105 16.4272 8.52574 16.6367 9.8434C15.3289 9.63105 13.7188 9.18949 12.7583 8.32746C12.6201 8.20298 12.5092 8.05128 12.4325 7.88188C12.3558 7.71247 12.3149 7.52903 12.3125 7.34309C12.3063 7.10124 12.3492 6.86064 12.4386 6.63585C12.528 6.41106 12.6622 6.20675 12.8328 6.03527ZM6.6875 13.39H16.8125V16.765H6.6875V13.39ZM8.9375 20.14H16.8125V28.015H8.9375V20.14ZM20.1875 28.015V20.14H28.0625V28.015H20.1875Z" fill="url(#paint0_linear_14960_5386)"/>
  <defs>
    <linearGradient id="paint0_linear_14960_5386" x1="-2.19909" y1="2.47011" x2="46.4576" y2="3.47499" gradientUnits="userSpaceOnUse">
      <stop stop-color="#8148F9"/>
      <stop offset="0.425" stop-color="#E989C3"/>
      <stop offset="0.96" stop-color="#D83F3F"/>
    </linearGradient>
  </defs>
</svg>