<svg xmlns="http://www.w3.org/2000/svg" width="20" height="21" viewBox="0 0 20 21" fill="none">
  <path d="M10 13.635V13.625" stroke="currentColor" stroke-width="1.25" stroke-linecap="round" stroke-linejoin="round"/>
  <path d="M8.125 9.25C8.125 8.87916 8.23497 8.51665 8.44099 8.20831C8.64702 7.89996 8.93986 7.65964 9.28247 7.51773C9.62508 7.37581 10.0021 7.33868 10.3658 7.41103C10.7295 7.48338 11.0636 7.66195 11.3258 7.92418C11.588 8.1864 11.7666 8.52049 11.839 8.88421C11.9113 9.24792 11.8742 9.62492 11.7323 9.96753C11.5904 10.3101 11.35 10.603 11.0417 10.809C10.7334 11.015 10.3708 11.125 10 11.125L10 11.5417" stroke="currentColor" stroke-width="1.25" stroke-linecap="round" stroke-linejoin="round"/>
  <path d="M3.95825 10.4997C3.95825 13.8364 6.6632 16.5413 9.99992 16.5413C13.3366 16.5413 16.0416 13.8364 16.0416 10.4997C16.0416 7.16295 13.3366 4.45801 9.99992 4.45801C6.6632 4.45801 3.95825 7.16295 3.95825 10.4997Z" stroke="currentColor" stroke-width="1.25"/>
</svg>