<svg xmlns="http://www.w3.org/2000/svg" width="37" height="36" viewBox="0 0 37 36" fill="none">
  <path d="M25.2498 16.3125H21.8748C21.4272 16.3125 20.998 16.1347 20.6815 15.8182C20.3651 15.5018 20.1873 15.0726 20.1873 14.625C20.1873 14.1774 20.3651 13.7482 20.6815 13.4318C20.998 13.1153 21.4272 12.9375 21.8748 12.9375H25.2498C25.6973 12.9375 26.1266 13.1153 26.443 13.4318C26.7595 13.7482 26.9373 14.1774 26.9373 14.625C26.9373 15.0726 26.7595 15.5018 26.443 15.8182C26.1266 16.1347 25.6973 16.3125 25.2498 16.3125ZM15.1248 12.9375H14.5623V12.375C14.5623 11.9274 14.3845 11.4982 14.068 11.1818C13.7516 10.8653 13.3223 10.6875 12.8748 10.6875C12.4272 10.6875 11.998 10.8653 11.6815 11.1818C11.3651 11.4982 11.1873 11.9274 11.1873 12.375V12.9375H10.6248C10.1772 12.9375 9.748 13.1153 9.43154 13.4318C9.11507 13.7482 8.93728 14.1774 8.93728 14.625C8.93728 15.0726 9.11507 15.5018 9.43154 15.8182C9.748 16.1347 10.1772 16.3125 10.6248 16.3125H11.1873V16.875C11.1873 17.3226 11.3651 17.7518 11.6815 18.0682C11.998 18.3847 12.4272 18.5625 12.8748 18.5625C13.3223 18.5625 13.7516 18.3847 14.068 18.0682C14.3845 17.7518 14.5623 17.3226 14.5623 16.875V16.3125H15.1248C15.5723 16.3125 16.0016 16.1347 16.318 15.8182C16.6345 15.5018 16.8123 15.0726 16.8123 14.625C16.8123 14.1774 16.6345 13.7482 16.318 13.4318C16.0016 13.1153 15.5723 12.9375 15.1248 12.9375ZM34.9192 28.5384C34.448 29.2102 33.8357 29.7707 33.125 30.1808C32.4144 30.5908 31.6226 30.8404 30.8053 30.9121C29.9879 30.9838 29.1648 30.8758 28.3936 30.5957C27.6225 30.3157 26.9219 29.8703 26.341 29.2908C26.3148 29.2659 26.2899 29.2396 26.2665 29.212L20.844 23.0625H16.1556L10.7387 29.212C10.7148 29.2388 10.6895 29.2655 10.6642 29.2908C9.81801 30.1359 8.72457 30.6893 7.54254 30.8707C6.36052 31.0521 5.15144 30.8521 4.09081 30.2997C3.03018 29.7472 2.17321 28.8712 1.6443 27.7986C1.11538 26.7261 0.942053 25.5129 1.14947 24.3352C1.14867 24.3258 1.14867 24.3164 1.14947 24.307L3.4529 12.4861C3.81944 10.4069 4.90662 8.52316 6.52362 7.16563C8.14062 5.8081 10.1841 5.06349 12.2954 5.0625H24.6873C26.792 5.0655 28.8293 5.80516 30.4458 7.15318C32.0622 8.5012 33.1558 10.3725 33.5368 12.4425C33.5373 12.4514 33.5373 12.4603 33.5368 12.4692L35.8374 24.3056C35.838 24.315 35.838 24.3244 35.8374 24.3338C35.9699 25.0605 35.9569 25.8063 35.7993 26.528C35.6417 27.2498 35.3425 27.9331 34.9192 28.5384ZM24.6873 19.6875C26.1791 19.6875 27.6099 19.0949 28.6648 18.04C29.7196 16.9851 30.3123 15.5543 30.3123 14.0625C30.3123 12.5707 29.7196 11.1399 28.6648 10.085C27.6099 9.03013 26.1791 8.4375 24.6873 8.4375H12.2968C10.9764 8.4388 9.69883 8.9057 8.68875 9.75606C7.67866 10.6064 7.00082 11.7857 6.77447 13.0866C6.7738 13.0964 6.7738 13.1063 6.77447 13.1161L4.47666 24.9286C4.377 25.5147 4.51333 26.1164 4.85586 26.6022C5.1984 27.0881 5.7193 27.4187 6.30478 27.5217C6.65332 27.5825 7.01127 27.5606 7.3498 27.4578C7.68833 27.3549 7.99799 27.1741 8.25384 26.9297L14.1263 20.2598C14.2846 20.0801 14.4793 19.9361 14.6975 19.8374C14.9158 19.7387 15.1525 19.6876 15.392 19.6875H24.6873ZM32.5285 24.9342L31.5442 19.8788C30.77 20.7943 29.8202 21.5454 28.751 22.0879C27.6818 22.6303 26.5147 22.9531 25.3187 23.0372L28.7513 26.9353C29.0929 27.263 29.5292 27.4747 29.998 27.5401C30.4669 27.6055 30.9444 27.5214 31.3626 27.2997C31.7809 27.0781 32.1186 26.7301 32.3277 26.3054C32.5367 25.8807 32.6065 25.4009 32.5271 24.9342H32.5285Z" fill="currentColor"/>
</svg>