<svg xmlns="http://www.w3.org/2000/svg" width="25" height="25" viewBox="0 0 25 25" fill="none">
  <path fill-rule="evenodd" clip-rule="evenodd" d="M10.4664 2.75H10.5H14.5H14.5336H14.5336C15.9053 2.75 16.9807 2.74999 17.8451 2.82061C18.7252 2.89252 19.4523 3.04138 20.1104 3.37671C21.1924 3.92798 22.072 4.80762 22.6233 5.88955C22.9586 6.54769 23.1075 7.27479 23.1794 8.15494C23.25 9.01926 23.25 10.0947 23.25 11.4663V11.4664V11.4664V11.5V13.5V13.5336V13.5336V13.5337C23.25 14.9053 23.25 15.9807 23.1794 16.8451C23.1075 17.7252 22.9586 18.4523 22.6233 19.1104C22.072 20.1924 21.1924 21.072 20.1104 21.6233C19.4523 21.9586 18.7252 22.1075 17.8451 22.1794C16.9807 22.25 15.9053 22.25 14.5337 22.25H14.5336H14.5336H14.5H10.5H10.4664H10.4664H10.4663C9.09466 22.25 8.01926 22.25 7.15494 22.1794C6.27479 22.1075 5.54769 21.9586 4.88955 21.6233C3.80762 21.072 2.92798 20.1924 2.37671 19.1104C2.04138 18.4523 1.89252 17.7252 1.82061 16.8451C1.74999 15.9807 1.75 14.9053 1.75 13.5336V13.5336V13.5V11.5V11.4664V11.4664C1.75 10.0947 1.74999 9.01928 1.82061 8.15494C1.89252 7.27479 2.04138 6.54769 2.37671 5.88955C2.92798 4.80762 3.80762 3.92798 4.88955 3.37671C5.54769 3.04138 6.27479 2.89252 7.15494 2.82061C8.01928 2.74999 9.09472 2.75 10.4664 2.75H10.4664ZM6.91603 7.87596C6.57138 7.6462 6.10573 7.73933 5.87596 8.08398C5.6462 8.42862 5.73933 8.89427 6.08398 9.12404L7.08398 9.7907L7.20034 9.86829C8.69863 10.8674 9.59026 11.4619 10.5527 11.7519C11.8227 12.1346 13.1773 12.1346 14.4473 11.7519C15.4097 11.4619 16.3014 10.8674 17.7997 9.86829L17.916 9.7907L18.916 9.12404C19.2607 8.89427 19.3538 8.42862 19.124 8.08398C18.8943 7.73933 18.4286 7.6462 18.084 7.87596L17.084 8.54263C15.4337 9.64282 14.7367 10.0981 14.0145 10.3157C13.0268 10.6133 11.9732 10.6133 10.9855 10.3157C10.2633 10.0981 9.5663 9.64282 7.91603 8.54263L6.91603 7.87596Z" fill="currentColor"/>
</svg>