<svg xmlns="http://www.w3.org/2000/svg" width="25" height="24" viewBox="0 0 25 24" fill="none">
  <path d="M10.9616 17.0128C10.9992 17.1256 11.0095 17.2456 10.9915 17.3631C10.9736 17.4806 10.928 17.5921 10.8585 17.6886C10.789 17.785 10.6976 17.8635 10.5918 17.9176C10.486 17.9718 10.3689 18 10.2501 18H2.75006C2.63121 18 2.51406 17.9718 2.40827 17.9176C2.30248 17.8635 2.21107 17.785 2.14158 17.6886C2.07209 17.5921 2.0265 17.4806 2.00858 17.3631C1.99065 17.2456 2.00091 17.1256 2.03849 17.0128L5.78849 5.76281C5.83825 5.61344 5.93375 5.48352 6.06146 5.39145C6.18917 5.29938 6.34262 5.24984 6.50006 5.24984C6.65749 5.24984 6.81094 5.29938 6.93865 5.39145C7.06636 5.48352 7.16186 5.61344 7.21162 5.76281L10.9616 17.0128ZM20.0001 7.125C20.0001 6.16082 19.7141 5.21829 19.1785 4.4166C18.6428 3.61491 17.8814 2.99007 16.9906 2.62109C16.0998 2.25211 15.1196 2.15557 14.174 2.34367C13.2283 2.53178 12.3597 2.99608 11.6779 3.67786C10.9961 4.35964 10.5318 5.22828 10.3437 6.17394C10.1556 7.11959 10.2522 8.09979 10.6211 8.99058C10.9901 9.88137 11.615 10.6427 12.4167 11.1784C13.2183 11.7141 14.1609 12 15.1251 12C16.4175 11.9985 17.6566 11.4844 18.5706 10.5705C19.4845 9.65659 19.9986 8.41748 20.0001 7.125ZM21.5001 13.5H13.2501C13.0511 13.5 12.8604 13.579 12.7197 13.7197C12.5791 13.8603 12.5001 14.0511 12.5001 14.25V19.5C12.5001 19.6989 12.5791 19.8897 12.7197 20.0303C12.8604 20.171 13.0511 20.25 13.2501 20.25H21.5001C21.699 20.25 21.8897 20.171 22.0304 20.0303C22.171 19.8897 22.2501 19.6989 22.2501 19.5V14.25C22.2501 14.0511 22.171 13.8603 22.0304 13.7197C21.8897 13.579 21.699 13.5 21.5001 13.5Z" fill="currentColor"/>
</svg>