<svg xmlns="http://www.w3.org/2000/svg" width="25" height="24" viewBox="0 0 25 24" fill="none">
  <path d="M20 3H5C4.60218 3 4.22064 3.15804 3.93934 3.43934C3.65804 3.72064 3.5 4.10218 3.5 4.5V19.5C3.5 19.8978 3.65804 20.2794 3.93934 20.5607C4.22064 20.842 4.60218 21 5 21H20C20.3978 21 20.7794 20.842 21.0607 20.5607C21.342 20.2794 21.5 19.8978 21.5 19.5V4.5C21.5 4.10218 21.342 3.72064 21.0607 3.43934C20.7794 3.15804 20.3978 3 20 3ZM20 19.5H5V15.75H7.68969L9.5 17.5613C9.63895 17.7008 9.80421 17.8115 9.98622 17.8868C10.1682 17.9621 10.3633 18.0006 10.5603 18H14.4397C14.6367 18.0006 14.832 17.9621 15.014 17.8866C15.196 17.8111 15.3612 17.7002 15.5 17.5603L17.3103 15.75H20V19.5Z" fill="currentColor"/>
</svg>