<svg xmlns="http://www.w3.org/2000/svg" width="25" height="25" viewBox="0 0 25 25" fill="none">
  <path d="M20 5H5C4.40326 5 3.83097 5.23705 3.40901 5.65901C2.98705 6.08097 2.75 6.65326 2.75 7.25V17.75C2.75 18.3467 2.98705 18.919 3.40901 19.341C3.83097 19.7629 4.40326 20 5 20H20C20.5967 20 21.169 19.7629 21.591 19.341C22.0129 18.919 22.25 18.3467 22.25 17.75V7.25C22.25 6.65326 22.0129 6.08097 21.591 5.65901C21.169 5.23705 20.5967 5 20 5ZM14.75 11.75C14.75 12.3467 14.5129 12.919 14.091 13.341C13.669 13.7629 13.0967 14 12.5 14C11.9033 14 11.331 13.7629 10.909 13.341C10.4871 12.919 10.25 12.3467 10.25 11.75C10.25 11.5511 10.171 11.3603 10.0303 11.2197C9.88968 11.079 9.69891 11 9.5 11H4.25V9.5H20.75V11H15.5C15.3011 11 15.1103 11.079 14.9697 11.2197C14.829 11.3603 14.75 11.5511 14.75 11.75ZM5 6.5H20C20.1989 6.5 20.3897 6.57902 20.5303 6.71967C20.671 6.86032 20.75 7.05109 20.75 7.25V8H4.25V7.25C4.25 7.05109 4.32902 6.86032 4.46967 6.71967C4.61032 6.57902 4.80109 6.5 5 6.5Z" fill="currentColor"/>
</svg>