<svg xmlns="http://www.w3.org/2000/svg" width="25" height="24" viewBox="0 0 25 24" fill="none">
  <path d="M23.5625 11.0016L20.4059 14.5031C20.2653 14.6594 20.0934 14.7845 19.9014 14.8701C19.7094 14.9556 19.5015 14.9999 19.2913 15H13.25V21C13.25 21.1989 13.171 21.3897 13.0303 21.5303C12.8897 21.671 12.6989 21.75 12.5 21.75C12.3011 21.75 12.1103 21.671 11.9697 21.5303C11.829 21.3897 11.75 21.1989 11.75 21V15H4.25C3.85218 15 3.47064 14.842 3.18934 14.5607C2.90804 14.2794 2.75 13.8978 2.75 13.5V7.5C2.75 7.10218 2.90804 6.72064 3.18934 6.43934C3.47064 6.15804 3.85218 6 4.25 6H11.75V3C11.75 2.80109 11.829 2.61032 11.9697 2.46967C12.1103 2.32902 12.3011 2.25 12.5 2.25C12.6989 2.25 12.8897 2.32902 13.0303 2.46967C13.171 2.61032 13.25 2.80109 13.25 3V6H19.2913C19.5015 6.00008 19.7094 6.04435 19.9014 6.12995C20.0934 6.21555 20.2653 6.34056 20.4059 6.49688L23.5625 9.99844C23.6864 10.1361 23.7549 10.3148 23.7549 10.5C23.7549 10.6852 23.6864 10.8639 23.5625 11.0016Z" fill="currentColor"/>
</svg>