<svg xmlns="http://www.w3.org/2000/svg" width="17" height="16" viewBox="0 0 17 16" fill="none">
  <path d="M15.5036 8.00016C15.5052 8.20524 15.4428 8.40573 15.3252 8.57374C15.2076 8.74176 15.0406 8.86896 14.8473 8.93766L10.8823 10.3795L9.44108 14.3439C9.37004 14.5353 9.24214 14.7003 9.07455 14.8169C8.90696 14.9334 8.70771 14.9959 8.50358 14.9959C8.29944 14.9959 8.1002 14.9334 7.93261 14.8169C7.76502 14.7003 7.63711 14.5353 7.56608 14.3439L6.12483 10.3789L2.15983 8.93766C1.96845 8.86662 1.8034 8.73872 1.68684 8.57113C1.57029 8.40354 1.50781 8.20429 1.50781 8.00016C1.50781 7.79602 1.57029 7.59678 1.68684 7.42919C1.8034 7.2616 1.96845 7.1337 2.15983 7.06266L6.12483 5.62141L7.56608 1.65641C7.63711 1.46503 7.76502 1.29998 7.93261 1.18342C8.1002 1.06687 8.29944 1.00439 8.50358 1.00439C8.70771 1.00439 8.90696 1.06687 9.07455 1.18342C9.24214 1.29998 9.37004 1.46503 9.44108 1.65641L10.883 5.62141L14.8473 7.06266C15.0406 7.13136 15.2076 7.25856 15.3252 7.42658C15.4428 7.59459 15.5052 7.79508 15.5036 8.00016Z" fill="currentColor"/>
</svg>