<svg xmlns="http://www.w3.org/2000/svg" width="25" height="24" viewBox="0 0 25 24" fill="none">
  <path d="M21.9575 2.45532C21.8413 2.35498 21.6999 2.28825 21.5486 2.26231C21.3973 2.23637 21.2417 2.25222 21.0987 2.30814L2.09937 9.74345C1.8301 9.84815 1.60214 10.0375 1.4498 10.283C1.29745 10.5284 1.22898 10.8168 1.25468 11.1045C1.28037 11.3923 1.39886 11.6639 1.59229 11.8785C1.78572 12.0931 2.04362 12.2391 2.32718 12.2944L7.24999 13.2609V18.75C7.24902 19.049 7.33787 19.3414 7.50503 19.5893C7.67219 19.8372 7.90995 20.0291 8.18749 20.1403C8.46461 20.2535 8.76936 20.2806 9.06213 20.2183C9.35489 20.1559 9.62211 20.0069 9.82906 19.7906L12.2028 17.3288L15.9687 20.625C16.2404 20.866 16.5909 20.9994 16.9541 21C17.1132 20.9999 17.2714 20.9749 17.4228 20.9259C17.6703 20.8474 17.8928 20.7055 18.0683 20.5142C18.2438 20.3229 18.3662 20.0889 18.4231 19.8356L22.2284 3.28126C22.2625 3.13196 22.2552 2.97622 22.2075 2.83072C22.1598 2.68522 22.0734 2.55545 21.9575 2.45532ZM16.9559 19.5L9.20468 12.7031L20.3609 4.7072L16.9559 19.5Z" fill="currentColor"/>
</svg>