<svg xmlns="http://www.w3.org/2000/svg" width="24" height="25" viewBox="0 0 24 25" fill="none">
  <path d="M20 11.4997C19.7554 9.73992 18.9391 8.10937 17.6766 6.8592C16.4142 5.60904 14.7758 4.80862 13.0137 4.58126C11.2516 4.35389 9.46362 4.71219 7.9252 5.60095C6.38678 6.48972 5.18325 7.85964 4.5 9.49971M4 5.49971V9.49971H8M4 13.4998C4.24456 15.2595 5.06093 16.8901 6.32336 18.1403C7.58579 19.3904 9.22424 20.1908 10.9863 20.4182C12.7484 20.6456 14.5364 20.2873 16.0748 19.3985C17.6132 18.5097 18.8168 17.1398 19.5 15.4998M20 19.4998V15.4998H16" stroke="currentColor" stroke-width="2" stroke-linecap="round" stroke-linejoin="round"/>
</svg>