<svg xmlns="http://www.w3.org/2000/svg" width="141" height="144" viewBox="0 0 141 144" fill="none">
  <g clip-path="url(#clip0_15635_2868)">
    <path d="M65.8145 64.0887C70.1681 66.5542 73.7941 65.8346 79.2158 64.949C84.6375 64.0634 75.3728 63.9278 70.5133 63.0722C66.9034 62.4326 59.0447 60.2429 65.8145 64.0887Z" fill="#FFDBFB"/>
    <path d="M28.4365 51.4174C27.5811 50.0648 36.7312 53.7758 34.2188 53.6856C31.7065 53.5954 29.4917 53.0971 28.4365 51.4174Z" fill="#FFDBFB"/>
    <mask id="mask0_15635_2868" style="mask-type:luminance" maskUnits="userSpaceOnUse" x="23" y="48" width="104" height="87">
      <path d="M24.3255 53.8401C23.7899 64.7107 22.3636 97.6396 25.0048 114.436C25.0965 114.993 25.3082 115.525 25.6252 115.993C25.9421 116.461 26.3569 116.855 26.8409 117.147C31.1304 119.792 44.1509 127.308 63.9393 134.121C65.4633 134.637 67.0669 134.877 68.6751 134.83C75.0196 134.663 92.2045 133.958 103.335 131.237C103.934 131.097 104.491 130.814 104.958 130.413C105.425 130.012 105.788 129.504 106.017 128.933C108.896 121.543 120.315 91.6686 126.241 67.2092C126.502 66.2381 126.38 65.2039 125.902 64.3195C125.423 63.4352 124.624 62.768 123.668 62.4554C115.724 59.9643 95.2996 53.701 77.2532 49.4857L76.5691 49.3752C73.3307 49.2168 48.8894 48.1305 27.8736 50.0405C26.9175 50.1241 26.0261 50.5584 25.371 51.2599C24.7159 51.9614 24.3435 52.8805 24.3255 53.8401Z" fill="white"/>
    </mask>
    <g mask="url(#mask0_15635_2868)">
      <g opacity="0.75">
        <path d="M24.3279 53.8224C23.7855 64.692 22.3672 97.6152 25.0015 114.41C25.0961 114.97 25.3102 115.502 25.6292 115.972C25.9482 116.441 26.3646 116.837 26.8501 117.131C31.2608 119.851 44.881 127.696 65.5574 134.617C65.9836 134.767 66.4329 134.84 66.8845 134.832C70.8121 134.765 90.8448 134.247 103.339 131.206C103.94 131.063 104.497 130.778 104.965 130.374C105.432 129.971 105.795 129.461 106.023 128.888C108.911 121.486 120.321 91.6304 126.245 67.1779C126.508 66.2049 126.387 65.1681 125.907 64.2818C125.427 63.3955 124.625 62.7276 123.667 62.4161C115.718 59.917 95.3064 53.656 77.2625 49.4692L76.5784 49.3586C73.3252 49.2049 48.8987 48.1139 27.8898 50.025C26.9315 50.1054 26.0371 50.538 25.3792 51.2394C24.7214 51.9407 24.3468 52.861 24.3279 53.8224Z" fill="url(#paint0_linear_15635_2868)"/>
        <mask id="mask1_15635_2868" style="mask-type:luminance" maskUnits="userSpaceOnUse" x="23" y="48" width="104" height="87">
          <path d="M24.3279 53.8166C23.7855 64.6861 22.3672 97.6093 25.0015 114.404C25.0961 114.964 25.3102 115.497 25.6292 115.966C25.9482 116.435 26.3646 116.831 26.8501 117.125C31.2608 119.845 44.881 127.69 65.5574 134.612C65.9836 134.761 66.4329 134.834 66.8845 134.826C70.8121 134.759 90.8448 134.241 103.339 131.2C103.94 131.057 104.497 130.772 104.965 130.369C105.432 129.965 105.795 129.455 106.023 128.882C108.911 121.48 120.321 91.6245 126.245 67.172C126.508 66.199 126.387 65.1622 125.907 64.276C125.427 63.3897 124.625 62.7217 123.667 62.4103C115.718 59.9112 95.3064 53.6501 77.2625 49.4633L76.5784 49.3528C73.3252 49.199 48.8987 48.1081 27.8898 50.0192C26.9315 50.0995 26.0371 50.5322 25.3792 51.2335C24.7214 51.9349 24.3468 52.8552 24.3279 53.8166Z" fill="white"/>
        </mask>
        <g mask="url(#mask1_15635_2868)">
          <g style="mix-blend-mode:screen" opacity="0.51">
            <path d="M67.079 124.334C66.5227 124.243 65.9775 124.093 65.4523 123.888L18.8479 105.666L21.3591 99.2488L67.9657 117.458C68.099 117.508 68.2408 117.53 68.383 117.525L120.967 116.035C121.214 116.028 121.45 115.936 121.636 115.774C121.822 115.612 121.947 115.391 121.988 115.148C122.014 114.995 122.006 114.838 121.963 114.689C121.92 114.54 121.844 114.402 121.741 114.286C121.643 114.166 121.518 114.07 121.376 114.005C121.234 113.941 121.079 113.91 120.924 113.916L68.965 114.489C68.0175 114.508 67.0743 114.355 66.1809 114.039L17.0969 96.3909C15.2229 95.7277 13.6668 94.384 12.7376 92.6265C11.8084 90.8691 11.5741 88.8266 12.0811 86.9044L14.0891 79.1707C14.3664 78.1174 14.8562 77.132 15.5282 76.275C16.2003 75.4179 17.0405 74.7073 17.9972 74.1868C18.9562 73.6681 20.0115 73.3515 21.0977 73.2566C22.1839 73.1617 23.278 73.2906 24.3125 73.6352L70.5286 89.0927C70.6391 89.1282 70.7545 89.1468 70.8706 89.148L127.686 88.9247C127.958 88.9235 128.218 88.8183 128.415 88.6306C128.611 88.4429 128.728 88.187 128.741 87.9158L128.829 86.0699C128.835 85.9244 128.812 85.779 128.76 85.6428C128.709 85.5066 128.63 85.3824 128.528 85.2779C128.427 85.1734 128.305 85.0907 128.17 85.0351C128.036 84.9794 127.891 84.9519 127.745 84.9542L72.9621 86.1097C72.0311 86.124 71.1049 85.9743 70.2258 85.6675L15.7829 67.301L17.9894 60.7716L72.4574 79.1562C72.5741 79.1961 72.6967 79.2159 72.82 79.2148L127.603 78.0593C128.693 78.037 129.776 78.239 130.784 78.6526C131.793 79.0662 132.706 79.6827 133.466 80.4638C134.226 81.2449 134.818 82.1739 135.205 83.1932C135.591 84.2125 135.764 85.3004 135.712 86.3892L135.631 88.2363C135.538 90.2708 134.668 92.192 133.2 93.6042C131.733 95.0163 129.779 95.8119 127.743 95.8268L70.9341 96.0513C70.0642 96.0581 69.1992 95.9183 68.3757 95.6378L22.1619 80.1666C22.024 80.1216 21.8785 80.1051 21.734 80.118C21.5896 80.1308 21.4493 80.1728 21.3215 80.2413C21.1934 80.3106 21.0809 80.4056 20.9911 80.5203C20.9013 80.635 20.8361 80.767 20.7996 80.908L18.7574 88.6362C18.6887 88.8933 18.7199 89.1668 18.8447 89.4018C18.9695 89.6369 19.1786 89.8159 19.4301 89.9031L68.523 107.538C68.642 107.579 68.7668 107.599 68.8924 107.598L120.812 107.047C122.922 107.005 124.962 107.803 126.483 109.265C128.004 110.728 128.882 112.734 128.923 114.843C128.965 116.953 128.167 118.993 126.705 120.514C125.242 122.035 123.236 122.913 121.126 122.954L68.5741 124.421C68.0741 124.441 67.5734 124.411 67.079 124.334Z" fill="#B500E0"/>
          </g>
          <g style="mix-blend-mode:screen">
            <path d="M76.5139 142.274L76.693 141.165C81.0261 111.619 87.3453 66.8744 87.0201 64.6739C86.6948 62.4734 82.0464 58.6617 79.9895 57.143C70.9775 59.0487 61.3005 61.7244 60.5035 62.9644C59.4568 65.0976 54.6978 108.354 51.7644 136.884L51.6785 137.719L44.8444 135.618L44.8918 135.064C46.3834 117.757 51.4133 61.0109 53.2355 59.2908C54.8933 57.7197 67.4809 54.7985 72.1419 53.7548L71.3085 52.9182C56.6612 53.513 40.9231 54.9073 39.7255 56.2369C38.3711 58.5801 35.9879 102.164 34.7232 130.879L34.6776 131.813L28.1101 129.495L28.1292 128.985C28.1591 128.801 28.7997 109.854 29.6873 91.1152C31.5397 52.6397 32.3704 52.451 33.1978 52.2829C35.0596 51.8819 60.6404 48.1757 61.7253 48.0211L61.9257 49.3872C61.6673 49.4226 37.0917 52.9895 33.7533 53.58C32.439 57.3686 30.535 99.9421 29.5281 128.496L33.3988 129.823C34.0157 115.8 36.7101 57.6518 38.6741 55.3159C40.7238 52.8395 66.429 51.7084 71.5784 51.5088L71.8893 51.4959L74.8584 54.5799L73.651 54.841C66.74 56.3423 55.3845 59.1538 54.1689 60.291C52.9231 62.4833 48.7874 105.749 46.2897 134.623L50.4552 135.907C51.8914 122.157 57.9123 64.4478 59.3458 62.2228C60.8675 59.8435 76.8245 56.3998 80.0065 55.7349L80.3115 55.6718L80.5551 55.8586C81.3017 56.4075 87.8522 61.3058 88.361 64.4554C88.8217 67.3376 79.8712 128.841 78.2162 140.253L81.6839 139.08C86.3834 113.868 95.1302 66.09 95.1167 62.8729C95.1075 59.8461 87.6983 56.1778 84.8389 55.0208L85.2858 53.6891C88.1764 54.4792 113.575 61.4551 115.99 63.2352C116.679 63.7467 117.874 64.6066 108.715 104.119C104.252 123.438 99.4316 142.798 99.3859 142.994L98.0365 142.657C105.425 112.966 115.99 67.882 115.051 64.2696C113.269 63.1745 101.657 59.7114 91.4461 56.8327C94.0425 58.4877 96.4499 60.6176 96.4847 62.8343C96.512 67.0082 83.5088 136.736 82.9515 139.706L82.8874 140.103L76.5139 142.274Z" fill="#7483FB"/>
          </g>
        </g>
      </g>
      <path style="mix-blend-mode:multiply" opacity="0.33" d="M127.091 63.557L73.8827 64.8266L24.5435 50.4086C24.5435 50.4086 21.6683 96.8191 25.2962 116.196C25.2962 116.196 40.3321 126.313 66.199 134.908C66.199 134.908 74.3621 134.824 83.8866 134.047C91.235 133.445 99.4209 132.437 105.303 130.742C105.303 130.742 120.653 92.2294 127.081 63.5764L127.091 63.557Z" fill="url(#paint1_linear_15635_2868)"/>
      <g style="mix-blend-mode:multiply" opacity="0.48">
        <path d="M127.091 63.5566L83.5156 64.5932C80.8227 64.6778 78.2502 65.7293 76.2691 67.5553C74.288 69.3813 73.0306 71.8597 72.7272 74.5368C71.0441 88.8159 68.0238 115.191 66.2021 134.888C66.2021 134.888 74.3653 134.803 83.8898 134.026C91.2381 133.424 99.424 132.416 105.307 130.721C105.307 130.721 120.657 92.2017 127.084 63.5555L127.091 63.5566Z" fill="#970060"/>
      </g>
      <g style="mix-blend-mode:multiply" opacity="0.29">
        <path d="M123.661 62.4602C121.229 61.6952 117.647 60.5827 113.275 59.2724C117.592 60.5738 121.173 61.6932 123.577 62.4537C124.532 62.7591 125.327 63.4287 125.791 64.3172C126.255 65.2057 126.349 66.2413 126.053 67.1989C119.652 91.2585 107.903 120.175 104.969 127.253C104.732 127.806 104.369 128.294 103.908 128.68C103.446 129.065 102.901 129.336 102.315 129.471C90.1517 132.418 70.6263 133.011 66.8002 133.101C66.3609 133.101 65.9245 133.03 65.5073 132.892C45.2942 126.362 31.8946 118.889 27.5688 116.295C27.0913 116.016 26.68 115.636 26.3631 115.183C26.0463 114.729 25.8314 114.212 25.7332 113.668C22.9087 97.3546 24.0033 64.8705 24.467 53.9671C24.4817 53.0164 24.8456 52.1042 25.4894 51.4044C26.1332 50.7046 27.012 50.2661 27.9582 50.1724C49.0559 48.2335 73.5563 49.3013 76.8095 49.4551L77.3157 49.5369L77.2542 49.5269L76.5701 49.4164C73.3169 49.2626 48.8904 48.1716 27.8814 50.0828C26.9313 50.1638 26.044 50.5913 25.3885 51.2839C24.733 51.9765 24.3549 52.8859 24.3262 53.8391C23.7838 64.7087 22.3655 97.6318 24.9998 114.427C25.0944 114.986 25.3085 115.519 25.6275 115.989C25.9465 116.458 26.3629 116.853 26.8484 117.147C31.2591 119.868 44.8793 127.712 65.5557 134.634C65.9819 134.784 66.4312 134.856 66.8828 134.849C70.8105 134.781 90.8431 134.264 103.338 131.222C103.938 131.08 104.496 130.795 104.963 130.391C105.43 129.988 105.793 129.478 106.022 128.904C108.91 121.502 120.319 91.6471 126.244 67.1945C126.498 66.2248 126.373 65.1943 125.893 64.3142C125.413 63.434 124.614 62.7707 123.661 62.4602Z" fill="#724C8D"/>
      </g>
      <path style="mix-blend-mode:color-dodge" opacity="0.11" d="M68.6973 110.25C68.6973 110.25 72.397 85.5782 96.2288 85.9624C120.238 86.3331 110.417 113.525 110.417 113.525L112.171 112.447C117.079 98.8013 123.516 79.5627 127.096 63.5335L73.8854 64.8168L24.5461 50.3988C24.5461 50.3988 23.6446 64.9235 23.4834 81.035C24.9457 56.8299 70.7293 75.6149 68.6973 110.25Z" fill="url(#paint2_linear_15635_2868)"/>
      <path style="mix-blend-mode:color-dodge" opacity="0.69" d="M67.5871 66.7414C70.535 72.6929 70.1268 97.1947 70.1268 97.1947C70.1268 97.1947 72.6718 71.4589 76.6517 68.1151C79.631 65.6204 82.678 64.6178 91.7963 64.3998L123.822 63.6376C123.822 63.6376 79.8073 63.7046 74.7273 63.6486C69.6473 63.5927 32.8478 52.7597 31.1663 51.3508C29.4847 49.9419 39.9201 49.305 40.6991 49.2625C36.4109 49.4328 32.0661 49.6922 27.8552 50.0786C26.9092 50.1661 26.028 50.597 25.378 51.2899C24.728 51.9828 24.3542 52.8897 24.3273 53.8394C24.1457 57.2214 23.8895 62.8025 23.6894 69.3824C23.6983 69.3277 25.1646 55.912 28.1659 54.193C30.9434 52.5993 64.7014 60.9262 67.5871 66.7414Z" fill="url(#paint3_linear_15635_2868)"/>
    </g>
    <g style="mix-blend-mode:multiply" opacity="0.67">
      <path d="M36.7864 90.4288C31.0838 81.1962 25.6035 61.8145 25.6035 61.8145C25.6035 61.8145 34.3932 87.4729 40.1282 92.8571L40.3056 93.0191C40.723 93.4494 41.2776 93.7203 41.8735 93.7849C47.1864 93.703 68.3699 74.4682 68.3699 74.4682C68.3699 74.4682 56.16 86.7793 47.5807 92.3488L57.0567 111.155L61.1166 119.217C63.0897 122.687 65.3371 126.111 67.0003 127.503L66.6675 130.257L46.0941 93.5124L44.8122 93.93C43.8581 94.4761 42.8065 94.8307 41.7164 94.9739C40.4636 95.0382 39.0907 93.8476 37.659 91.8052L37.5469 91.7169L24.879 111.205L24.6517 109.701C24.6517 109.701 29.5395 103.086 31.9285 98.9443L36.7864 90.4288Z" fill="#724C8D"/>
    </g>
    <g style="mix-blend-mode:color-dodge" opacity="0.23">
      <path d="M41.8752 93.7866C41.2793 93.7219 40.7247 93.451 40.3073 93.0208L40.1299 92.8587C37.0215 89.9417 32.9485 80.8321 29.9062 73.293C30.1195 73.7977 38.0707 92.2662 41.7002 92.4808C45.3296 92.6953 62.701 79.4146 62.818 79.3422C56.1963 85.0036 45.4144 93.7339 41.8752 93.7866Z" fill="#7483FB"/>
    </g>
    <g style="mix-blend-mode:color-dodge" opacity="0.23">
      <path d="M46.0957 93.5137L60.7238 119.617C60.7238 119.617 53.3179 108.979 50.3058 104.555C47.2936 100.13 46.0957 93.5137 46.0957 93.5137Z" fill="#7483FB"/>
    </g>
    <g style="mix-blend-mode:color-dodge" opacity="0.23">
      <path d="M37.3746 91.9615C37.3746 91.9615 34.9178 97.3905 32.4499 101.498C30.8652 104.086 28.914 106.43 26.6571 108.459L37.3746 91.9615Z" fill="#7483FB"/>
    </g>
    <path style="mix-blend-mode:multiply" d="M42.9564 49.3905C39.0451 49.5305 44.1273 50.05 39.9451 52.7785C35.7628 55.5069 44.1735 55.4975 46.3098 54.8741C48.4462 54.2507 52.6791 55.3349 52.6791 55.3349C52.6791 55.3349 48.6625 60.4697 46.5838 62.6467C44.5052 64.8237 52.7053 63.2079 58.8967 65.7247C65.0881 68.2416 60.0242 61.4847 62.0103 58.5768C63.9965 55.669 77.3883 59.9321 80.4709 61.3148C83.5536 62.6975 89.7185 68.6355 91.0868 71.2011C92.455 73.7667 95.309 70.5709 94.0502 78.924C92.7914 87.2771 87.045 115.058 85.4511 121.054C83.8572 127.051 81.5764 134.214 81.5764 134.214L84.3061 134.002L100.487 74.3629L100.383 57.633L108.952 57.9931L106.376 57.2117L101.898 55.9475C99.9713 55.4045 65.3068 46.2151 65.3068 46.2151L42.9564 49.3905Z" fill="url(#paint4_linear_15635_2868)"/>
    <path d="M112.142 63.9367C111.989 63.1469 106.244 60.3863 100.918 57.9883C100.23 57.4953 99.4941 57.073 98.7213 56.7277L106.368 57.1914L107.717 55.7038C105.684 54.476 103.518 53.4831 101.26 52.744C111.439 37.5425 98.2798 33.1836 98.2798 33.1836C98.2798 33.1836 104.035 24.3709 94.7345 19.0282C85.434 13.6855 79.8319 20.2907 79.8319 20.2907C79.8319 20.2907 78.4627 14.5171 68.5129 16.8399C58.5631 19.1626 62.7404 29.3209 62.7404 29.3209C62.7404 29.3209 53.9581 27.1996 50.3616 33.4692C46.7652 39.7388 51.7637 44.7723 51.7637 44.7723C42.4235 40.1532 36.3594 44.5359 36.3594 44.5359L36.0277 46.5881C36.0277 46.5881 43.8922 46.006 43.2435 48.4562C42.733 50.1799 42.0336 51.8418 41.158 53.4118L43.0079 54.9953C48.7743 50.5434 53.3919 51.5494 53.3919 51.5494C47.0348 54.9653 45.6841 62.2366 45.6841 62.2366L47.1104 62.9234L53.2167 61.1025C53.2167 61.1025 55.4774 61.6645 60.5759 65.2541C60.5759 65.2541 60.2824 58.3839 63.3656 55.9411C63.3656 55.9411 67.9163 58.1857 72.6073 57.4347L72.6552 57.4425L75.1042 57.8383C87.1493 59.055 90.8607 69.9242 90.8607 69.9242C90.8607 69.9242 94.0909 65.8766 96.9342 64.9183C99.0974 67.4298 83.9028 133.995 83.9028 133.995L82.0625 134.133C82.2056 134.43 82.4196 134.687 82.6855 134.882C82.9515 135.077 83.2613 135.203 83.5877 135.25C87.9966 134.994 92.3896 134.514 96.7498 133.812C98.4269 133.381 107.093 91.5281 108.975 83.5353C110.856 75.5425 112.442 65.4242 112.142 63.9367Z" fill="url(#paint5_linear_15635_2868)"/>
    <path style="mix-blend-mode:multiply" d="M52.7579 49.302C48.7725 48.947 44.7995 50.1039 41.6278 52.543C41.6278 52.543 44.9375 47.2659 43.0412 45.7521C40.6236 43.8592 36.3617 44.5181 36.3617 44.5181L36.03 46.5703C36.03 46.5703 43.8945 45.9883 43.2458 48.4385C42.7353 50.1621 42.0359 51.8241 41.1603 53.394L43.0102 54.9776C48.7766 50.5257 53.3942 51.5317 53.3942 51.5317C54.934 51.212 59.5934 49.8312 52.7579 49.302Z" fill="url(#paint6_linear_15635_2868)"/>
    <path style="mix-blend-mode:multiply" d="M106.148 66.7869C106.148 66.7869 101.075 63.8191 97.5734 63.8147C97.012 63.8186 96.4537 63.8984 95.9136 64.0518C94.0994 64.6425 92.4621 65.6787 91.1517 67.0656C91.1517 67.0656 87.1363 58.0776 79.4281 57.0845C79.4281 57.0845 80.7991 56.0286 80.9296 55.2214C80.9296 55.2214 90.3995 60.037 98.702 56.7882L106.348 57.2519L107.698 55.7643C107.698 55.7643 104.226 53.5325 98.5911 55.9981C98.5911 55.9981 104.575 49.6792 103.873 46.6387C103.873 46.6387 102.464 55.88 88.2012 56.3966C88.2012 56.3966 93.6833 55.7454 90.9821 47.6156C88.281 39.4859 83.5388 34.9079 79.4296 40.2243C79.4296 40.2243 82.3277 32.3256 98.2489 33.1861C98.2489 33.1861 88.6004 30.5176 81.449 36.1987C81.449 36.1987 86.4387 30.1682 84.9966 25.3235C83.5545 20.4787 77.6135 18.1497 75.0463 32.4263C75.0464 27.9255 76.75 23.5915 79.8147 20.2954C79.8147 20.2954 74.7701 23.4951 74.4617 31.2228C74.4617 31.2228 73.3632 21.6463 67.3918 21.0251C61.4205 20.404 61.8735 26.1137 62.7231 29.3255C63.5728 32.5374 66.8086 37.9669 66.8086 37.9669C64.6294 37.8561 62.4711 38.4386 60.6435 39.6308C60.6435 39.6308 59.189 34.8191 54.4372 33.8616C50.0094 32.9845 49.1876 37.0703 49.0958 37.6381C49.0399 40.2713 49.9932 42.8261 51.7602 44.7792C52.3791 45.0758 49.2938 50.5716 57.2835 49.0412C57.4599 51.3369 58.8018 53.6315 62.633 55.0299C61.4155 57.4349 60.5038 59.9829 59.9191 62.6144C59.9191 62.6144 55.3762 60.5816 53.7046 59.806C52.033 59.0304 45.7068 62.2547 45.7068 62.2547L47.1331 62.9415L53.2394 61.1207C54.2923 60.9469 60.5985 65.2722 60.5985 65.2722C60.5985 65.2722 60.2141 58.661 63.3894 55.9523C63.3894 55.9523 69.0919 58.1936 72.6311 57.446L75.128 57.8495C87.1457 59.0619 90.8571 69.931 90.8571 69.931C92.1725 68.336 93.7012 66.9298 95.4002 65.7517C95.6432 65.5945 95.8977 65.4531 96.1705 65.3287L96.2116 65.3353C96.4556 65.2123 96.7073 65.1052 96.9653 65.0149C99.1284 67.5265 83.9338 134.092 83.9338 134.092L82.0935 134.23C82.2366 134.527 82.4506 134.784 82.7166 134.979C82.9826 135.174 83.2924 135.3 83.6187 135.347C84.0906 135.356 84.5627 135.336 85.0322 135.287C85.9034 135.239 86.3871 133.288 88.2469 123.432C90.1066 113.575 96.7881 79.9656 98.3348 73.1752C99.4499 68.2734 99.0848 65.8418 98.7996 64.8271C101.406 65.2483 103.91 67.9553 103.91 67.9553L106.148 66.7869ZM57.2952 48.8816C55.7803 48.7 51.8149 48.045 52.4939 46.1893C52.4939 46.1893 55.2953 36.2394 59.829 41.4996C59.829 41.4996 57.1004 45.179 57.2952 48.8816ZM72.9676 42.6825C67.4364 43.0731 64.5915 56.9398 72.3512 57.0498C72.3512 57.0498 57.8507 56.9103 58.1547 47.6026C58.3695 41.2357 65.177 35.5973 72.5352 39.5382C79.8933 43.479 79.0253 49.0665 79.0253 49.0665C79.0253 49.0665 78.4977 42.2988 72.9676 42.6825Z" fill="url(#paint7_linear_15635_2868)"/>
    <g style="mix-blend-mode:multiply">
      <path d="M67.5583 38.2371C67.5583 38.2371 71.1807 38.4084 73.4055 40.0174C73.4055 40.0174 75.7283 31.2045 70.6522 26.1303C65.576 21.0562 63.3563 22.8032 63.7594 27.8662C64.1625 32.9291 67.5583 38.2371 67.5583 38.2371Z" fill="#AA2EC5"/>
    </g>
    <g style="mix-blend-mode:multiply">
      <path d="M74.202 40.5656C74.202 40.5656 75.4696 30.2906 78.2764 26.301C81.0831 22.3113 83.39 23.9336 82.7654 29.1884C82.1407 34.4432 76.5267 42.5558 76.5267 42.5558L74.202 40.5656Z" fill="#AA2EC5"/>
    </g>
    <g style="mix-blend-mode:multiply">
      <path d="M77.4192 43.6354C77.4192 43.6354 80.3083 38.7887 83.5896 39.3331C86.8709 39.8775 90.1701 50.0833 89.3423 53.4241C88.5146 56.7649 83.511 55.3245 83.511 55.3245C83.511 55.3245 88.0058 56.3949 88.1336 53.1726C88.2613 49.9503 84.6054 46.9027 79.4412 49.8866C79.1665 47.6942 78.4805 45.5734 77.4192 43.6354Z" fill="#AA2EC5"/>
    </g>
    <g style="mix-blend-mode:multiply">
      <path d="M52.83 45.1683C52.83 45.1683 55.2447 36.7423 59.8317 41.4987C59.7385 40.2378 59.2883 39.0295 58.5336 38.015C57.779 37.0005 56.7511 36.2219 55.5703 35.7701C51.4132 34.1295 50.1581 37.8996 50.4342 40.0571C50.7102 42.2145 52.83 45.1683 52.83 45.1683Z" fill="#AA2EC5"/>
    </g>
    <g style="mix-blend-mode:multiply">
      <path d="M78.4449 52.3891C78.4449 52.3891 76.5925 56.7716 72.677 56.0686C68.7615 55.3656 68.3189 48.2887 70.5595 45.2395C72.8002 42.1902 78.8595 44.4821 78.4449 52.3891Z" fill="#AA2EC5"/>
    </g>
    <g style="mix-blend-mode:multiply">
      <path d="M72.8948 29.6304C72.394 28.3231 71.631 27.132 70.6528 26.1304C65.5698 21.0552 63.3569 22.8033 63.76 27.8663C64.0903 30.6472 64.9218 33.3453 66.2142 35.8298C63.6922 29.3715 71.1698 26.1017 72.8948 29.6304Z" fill="#AA2EC5"/>
    </g>
    <g style="mix-blend-mode:multiply">
      <path d="M81.0977 34.5175C81.9162 32.8279 82.4838 31.0278 82.7825 29.1743C83.4072 23.9195 81.0866 22.295 78.2935 26.2868C75.5004 30.2787 74.2033 40.563 74.2033 40.563C74.2033 40.563 75.9598 34.0381 79.3108 31.8491C82.6618 29.6602 81.1279 34.4171 81.0977 34.5175Z" fill="#AA2EC5"/>
    </g>
    <g style="mix-blend-mode:multiply">
      <path d="M85.1506 44.4849C87.2769 44.3582 88.4747 47.0226 89.099 49.11C88.2355 44.9413 85.9064 39.7215 83.5896 39.3331C80.3061 38.8024 77.4192 43.6354 77.4192 43.6354C78.4805 45.5733 79.1665 47.6942 79.4412 49.8865C79.4412 49.8865 81.6976 44.6989 85.1506 44.4849Z" fill="#AA2EC5"/>
    </g>
    <g style="mix-blend-mode:multiply">
      <path d="M59.8308 41.498C59.7376 40.2371 59.2874 39.0288 58.5327 38.0143C57.7781 36.9999 56.7502 36.2212 55.5694 35.7694C52.112 34.4034 50.6667 36.788 50.4354 38.8705C52.1062 37.1751 58.481 39.2092 59.8308 41.498Z" fill="#AA2EC5"/>
    </g>
    <g style="mix-blend-mode:multiply">
      <path d="M70.5618 45.2405C68.6899 47.7457 68.6965 53.0464 70.9752 55.1906C68.0023 51.5654 75.7088 45.7073 78.4475 51.9971C78.6404 44.4193 72.7788 42.2506 70.5618 45.2405Z" fill="#AA2EC5"/>
    </g>
    <path style="mix-blend-mode:multiply" opacity="0.51" d="M57.4451 46.8738C59.1343 41.2435 63.6102 42.8654 68.9655 50.7292C74.3208 58.5931 75.8578 58.1606 68.4159 57.3439C60.974 56.5272 55.7841 52.4174 57.4451 46.8738Z" fill="url(#paint8_linear_15635_2868)"/>
    <path style="mix-blend-mode:multiply" opacity="0.51" d="M88.3718 46.3626C88.9131 38.2795 104.198 34.8255 104.917 40.6696C105.636 46.5136 101.87 56.0479 91.7606 56.4917C81.6512 56.9355 89.4676 54.9138 89.4135 51.0795C89.3593 47.2452 88.2073 48.8138 88.3718 46.3626Z" fill="url(#paint9_linear_15635_2868)"/>
    <path style="mix-blend-mode:multiply" opacity="0.51" d="M83.6773 27.6346C85.3531 20.2192 97.9614 21.0778 99.7512 25.0311C101.541 28.9845 98.2466 33.2112 98.2466 33.2112C98.2466 33.2112 87.0437 31.8217 81.4009 37.55C75.758 43.2783 82.5869 32.4702 83.6773 27.6346Z" fill="url(#paint10_linear_15635_2868)"/>
    <path style="mix-blend-mode:multiply" opacity="0.51" d="M69.8043 25.342C67.8341 21.9842 75.9334 16.5617 77.8995 17.6867C79.8656 18.8117 79.8433 20.2962 79.8433 20.2962C77.599 22.3425 76.0435 25.0336 75.3904 27.9997C74.5337 32.6485 74.7593 37.9845 73.8218 33.3617C72.8843 28.7388 71.1554 27.6662 69.8043 25.342Z" fill="url(#paint11_linear_15635_2868)"/>
    <path style="mix-blend-mode:multiply" opacity="0.51" d="M55.5711 35.7671C53.1028 34.6663 59.9683 27.844 62.9086 29.9337C62.9086 29.9337 65.5995 37.6055 66.8133 37.9561C68.0272 38.3068 64.4913 38.1213 60.8078 41.2814C57.1243 44.4414 63.4367 39.3478 55.5711 35.7671Z" fill="url(#paint12_linear_15635_2868)"/>
    <path style="mix-blend-mode:color-dodge" opacity="0.6" d="M65.176 21.1365C62.0969 21.6426 74.6532 16.5263 70.5426 16.4656C70.5426 16.4656 74.9199 15.8745 77.7068 17.5673C77.7068 17.5673 76.5392 16.8873 73.1854 19.2232C69.8317 21.5591 70.5804 22.3118 69.8356 21.8826C69.0907 21.4533 68.2175 20.6454 65.176 21.1365Z" fill="url(#paint13_linear_15635_2868)"/>
    <path style="mix-blend-mode:color-dodge" opacity="0.6" d="M80.6219 21.6513C80.6219 21.6513 83.1809 20.8014 84.914 25.0615C84.914 25.0615 87.1325 21.6717 92.4181 22.0627C97.7036 22.4536 99.6369 24.7807 99.6369 24.7807C99.6369 24.7807 99.1551 21.5511 94.9316 19.1488C90.7082 16.7464 87.7476 16.7803 86.4307 17.0237C85.1138 17.2672 89.0427 16.9756 90.9606 18.2683C92.8785 19.561 92.713 21.5839 87.3981 20.767C82.0831 19.9501 80.6219 21.6513 80.6219 21.6513Z" fill="url(#paint14_linear_15635_2868)"/>
    <path style="mix-blend-mode:color-dodge" opacity="0.6" d="M51.4736 34.1375C51.4736 34.1375 55.9033 31.2245 56.4337 30.2011C56.9641 29.1778 55.9218 29.4165 55.9218 29.4165C55.9218 29.4165 60.8307 28.2725 62.606 29.7527C62.606 29.7527 60.8593 29.2247 58.5655 30.7352C57.2303 31.5903 56.1049 32.7352 55.2726 34.0847C55.2726 34.0847 54.2878 33.0551 51.4736 34.1375Z" fill="url(#paint15_linear_15635_2868)"/>
    <path style="mix-blend-mode:color-dodge" opacity="0.6" d="M70.6539 43.4991C70.6539 43.4991 64.6462 43.3634 63.9319 41.9634C63.2176 40.5634 67.9332 38.574 68.9664 38.5655C69.9996 38.557 62.373 35.8433 58.8679 44.2405C58.8679 44.2405 60.5922 42.5186 63.4105 44.5816C65.0925 45.8047 66.513 47.3516 67.5886 49.1315C67.6379 48.0215 67.9396 46.9373 68.4707 45.9613C69.0019 44.9853 69.7485 44.1432 70.6539 43.4991Z" fill="url(#paint16_linear_15635_2868)"/>
    <path style="mix-blend-mode:color-dodge" opacity="0.6" d="M52.4964 46.1775C52.4056 46.4787 55.6768 43.3503 57.1867 43.2153C58.6967 43.0803 58.8659 43.2059 58.8659 43.2059L59.8075 41.7226C59.5377 41.2259 59.1417 40.8092 58.6594 40.5143C58.1772 40.2195 57.6257 40.057 57.0606 40.0433C55.1811 40.0764 53.5143 42.8324 52.4964 46.1775Z" fill="url(#paint17_linear_15635_2868)"/>
    <path style="mix-blend-mode:color-dodge" opacity="0.6" d="M85.0235 38.4092C85.0235 38.4092 92.6479 37.662 95.923 36.9419C99.1981 36.2218 96.5499 33.0633 96.5499 33.0633L97.9368 33.1681C99.424 33.6778 100.785 34.4993 101.929 35.5776C103.073 36.6559 103.974 37.9661 104.57 39.4205C104.57 39.4205 102.969 36.2978 96.9431 38.1878C90.9168 40.0777 89.2633 43.4465 89.2633 43.4465C88.966 42.3488 88.4325 41.3293 87.7002 40.4592C86.9679 39.5891 86.0543 38.8895 85.0235 38.4092Z" fill="url(#paint18_linear_15635_2868)"/>
    <path style="mix-blend-mode:color-dodge" opacity="0.6" d="M53.7043 59.8103C55.3759 60.5858 59.9188 62.6186 59.9188 62.6186C60.3004 60.882 60.8381 59.1835 61.5252 57.5436C61.5252 57.5436 59.6733 58.7955 56.6613 57.8876C53.6494 56.9796 51.9196 52.4814 54.8067 51.1651C54.2869 51.3408 53.7511 51.4859 53.3858 51.5742C47.0288 54.99 45.6781 62.2614 45.6781 62.2614C45.6781 62.2614 52.0384 59.0426 53.7043 59.8103Z" fill="url(#paint19_linear_15635_2868)"/>
    <path style="mix-blend-mode:color-dodge" opacity="0.6" d="M36.3582 44.535C36.3582 44.535 40.6202 43.8761 43.0378 45.769C44.9373 47.2623 41.6243 52.5599 41.6243 52.5599C44.796 50.1208 48.7691 48.9638 52.7544 49.3189C52.7544 49.3189 47.4477 48.7981 45.2325 45.4358C43.389 42.5969 46.4349 42.9909 47.4771 43.1874C40.6256 41.4974 36.3582 44.535 36.3582 44.535Z" fill="url(#paint20_linear_15635_2868)"/>
    <path style="mix-blend-mode:color-dodge" opacity="0.6" d="M85.3236 59.6251C87.7789 61.6419 89.7657 64.169 91.146 67.0309C91.146 67.0309 94.0657 63.7755 97.5677 63.78C101.07 63.7844 106.152 66.7818 106.152 66.7818C105.865 61.8219 102.437 58.9304 100.348 57.61C105.828 62.0545 89.4256 62.3447 85.3236 59.6251Z" fill="url(#paint21_linear_15635_2868)"/>
    <path style="mix-blend-mode:multiply" opacity="0.51" d="M47.6115 52.2504C45.6943 52.7337 44.1628 49.3976 50.6512 49.2951C57.1396 49.1926 58.2467 50.0735 55.7512 50.8775C54.9921 51.1696 54.2107 51.4001 53.4147 51.5668C53.4147 51.5668 51.6655 51.2279 47.6115 52.2504Z" fill="url(#paint22_linear_15635_2868)"/>
    <path style="mix-blend-mode:multiply" d="M73.0647 56.8129C73.0647 56.8129 79.1461 56.1883 79.598 52.871C80.0499 49.5537 81.6435 54.1562 81.2525 54.795C80.8614 55.4337 93.7026 58.4567 98.3177 56.3949L98.7305 56.7073C98.7305 56.7073 94.6913 60.5047 90.6309 59.5256C86.5705 58.5464 83.3119 60.0765 80.8704 59.1133C78.4289 58.1501 77.4422 58.3486 74.7801 57.7078C72.3566 57.1547 70.5981 57.6987 73.0647 56.8129Z" fill="url(#paint23_linear_15635_2868)"/>
    <path style="mix-blend-mode:multiply" opacity="0.61" d="M100.346 57.6097C100.346 57.6097 105.903 60.8382 106.154 66.754L103.862 67.9067C103.862 67.9067 101.046 64.356 98.8014 63.9091C96.5573 63.4621 93.4957 64.5116 91.1579 67.0327L90.8588 69.9255C92.5087 67.8525 94.5801 66.1536 96.9359 64.9412C96.9359 64.9412 97.5009 67.4823 96.902 74.9664C96.3031 82.4505 110.682 68.665 110.418 65.5619C110.154 62.4589 109.314 61.9231 106.694 60.6782C104.073 59.4334 100.346 57.6097 100.346 57.6097Z" fill="url(#paint24_linear_15635_2868)"/>
    <path style="mix-blend-mode:multiply" opacity="0.51" d="M91.1912 103.315C100.236 78.84 111.395 69.9039 107.457 90.3185C103.519 110.733 99.9917 124.433 96.9948 127.515C93.9978 130.596 82.7997 126.007 91.1912 103.315Z" fill="url(#paint25_linear_15635_2868)"/>
    <path style="mix-blend-mode:color-dodge" opacity="0.6" d="M97.4137 77.0563C97.1812 78.191 103.259 75.8952 108.247 69.4855C113.235 63.0757 112.946 61.7375 111.997 67.5224C111.048 73.3074 108.484 85.9561 109.281 82.2384C110.079 78.5206 108.888 74.5097 105.303 75.3623C101.719 76.215 94.1051 95.3124 95.616 88.1793C96.447 84.5128 97.0474 80.7979 97.4137 77.0563Z" fill="url(#paint26_linear_15635_2868)"/>
    <path style="mix-blend-mode:color-dodge" opacity="0.6" d="M88.8562 110.98L106.434 94.9464L105.117 101.837L87.6698 118.321L88.8562 110.98Z" fill="url(#paint27_linear_15635_2868)"/>
    <path style="mix-blend-mode:color-dodge" opacity="0.6" d="M87.1438 121.58L104.042 106.665L103.262 109.971L86.1986 123.737L87.1438 121.58Z" fill="url(#paint28_linear_15635_2868)"/>
    <path d="M65.7919 64.1112C70.7302 66.8677 74.8708 66.091 81.0691 65.1343C87.2674 64.1777 76.7049 63.9938 71.1841 63.0173C67.0417 62.2846 58.1371 59.8346 65.7919 64.1112Z" fill="#FFFCFB"/>
    <path d="M26.2985 51.8347C24.838 49.9702 38.3948 53.2563 34.8523 53.8068C31.3098 54.3574 28.0906 54.167 26.2985 51.8347Z" fill="#FFFCFB"/>
  </g>
  <defs>
    <linearGradient id="paint0_linear_15635_2868" x1="63.354" y1="134.353" x2="77.0734" y2="49.4667" gradientUnits="userSpaceOnUse">
      <stop offset="0.01" stop-color="#7B00C6"/>
      <stop offset="1" stop-color="#EF71C3"/>
    </linearGradient>
    <linearGradient id="paint1_linear_15635_2868" x1="62.6308" y1="138.571" x2="76.9958" y2="49.6906" gradientUnits="userSpaceOnUse">
      <stop stop-color="#8800FC"/>
      <stop offset="1" stop-color="#4E78F1"/>
    </linearGradient>
    <linearGradient id="paint2_linear_15635_2868" x1="64.0066" y1="130.066" x2="76.5773" y2="52.2872" gradientUnits="userSpaceOnUse">
      <stop offset="0.41"/>
      <stop offset="0.45" stop-color="#100615"/>
      <stop offset="0.61" stop-color="#4F1C65"/>
      <stop offset="0.75" stop-color="#812EA6"/>
      <stop offset="0.86" stop-color="#A53AD4"/>
      <stop offset="0.95" stop-color="#BC42F0"/>
      <stop offset="1" stop-color="#C445FB"/>
    </linearGradient>
    <linearGradient id="paint3_linear_15635_2868" x1="215.717" y1="99.1405" x2="24.6568" y2="68.2612" gradientUnits="userSpaceOnUse">
      <stop offset="0.48"/>
      <stop offset="0.51" stop-color="#0A0B15"/>
      <stop offset="0.65" stop-color="#2F3565"/>
      <stop offset="0.77" stop-color="#4D56A6"/>
      <stop offset="0.88" stop-color="#626FD4"/>
      <stop offset="0.95" stop-color="#6F7DF0"/>
      <stop offset="1" stop-color="#7483FB"/>
    </linearGradient>
    <linearGradient id="paint4_linear_15635_2868" x1="150.428" y1="102.65" x2="30.3944" y2="83.2502" gradientUnits="userSpaceOnUse">
      <stop stop-color="#7B00C6"/>
      <stop offset="0.47" stop-color="#B539B5"/>
    </linearGradient>
    <linearGradient id="paint5_linear_15635_2868" x1="62.6514" y1="127.374" x2="81.4178" y2="11.2605" gradientUnits="userSpaceOnUse">
      <stop stop-color="#FF7C13"/>
      <stop offset="0.15" stop-color="#FF8214"/>
      <stop offset="0.34" stop-color="#FF9117"/>
      <stop offset="0.56" stop-color="#FFAB1C"/>
      <stop offset="0.74" stop-color="#FFC721"/>
    </linearGradient>
    <linearGradient id="paint6_linear_15635_2868" x1="35.6618" y1="48.8483" x2="56.0676" y2="52.1463" gradientUnits="userSpaceOnUse">
      <stop stop-color="#EF71A4"/>
      <stop offset="0.29" stop-color="#D153AD"/>
      <stop offset="0.94" stop-color="#8308C4"/>
      <stop offset="1" stop-color="#7B00C6"/>
    </linearGradient>
    <linearGradient id="paint7_linear_15635_2868" x1="64.6926" y1="132.232" x2="82.7083" y2="20.7631" gradientUnits="userSpaceOnUse">
      <stop stop-color="#7B00C6"/>
      <stop offset="0.06" stop-color="#8308C4"/>
      <stop offset="0.71" stop-color="#D153AD"/>
      <stop offset="1" stop-color="#EF71A4"/>
    </linearGradient>
    <linearGradient id="paint8_linear_15635_2868" x1="64.3927" y1="58.6099" x2="66.3828" y2="46.2967" gradientUnits="userSpaceOnUse">
      <stop offset="0.05" stop-color="white"/>
      <stop offset="0.07" stop-color="#FEF8FC"/>
      <stop offset="0.19" stop-color="#F9C8E8"/>
      <stop offset="0.31" stop-color="#F5A2D8"/>
      <stop offset="0.42" stop-color="#F187CC"/>
      <stop offset="0.51" stop-color="#F077C5"/>
      <stop offset="0.59" stop-color="#EF71C3"/>
    </linearGradient>
    <linearGradient id="paint9_linear_15635_2868" x1="93.926" y1="61.0743" x2="97.2129" y2="40.737" gradientUnits="userSpaceOnUse">
      <stop offset="0.05" stop-color="white"/>
      <stop offset="0.07" stop-color="#FEF8FC"/>
      <stop offset="0.19" stop-color="#F9C8E8"/>
      <stop offset="0.31" stop-color="#F5A2D8"/>
      <stop offset="0.42" stop-color="#F187CC"/>
      <stop offset="0.51" stop-color="#F077C5"/>
      <stop offset="0.59" stop-color="#EF71C3"/>
    </linearGradient>
    <linearGradient id="paint10_linear_15635_2868" x1="88.2574" y1="42.8136" x2="91.3166" y2="23.8855" gradientUnits="userSpaceOnUse">
      <stop offset="0.05" stop-color="white"/>
      <stop offset="0.07" stop-color="#FEF8FC"/>
      <stop offset="0.19" stop-color="#F9C8E8"/>
      <stop offset="0.31" stop-color="#F5A2D8"/>
      <stop offset="0.42" stop-color="#F187CC"/>
      <stop offset="0.51" stop-color="#F077C5"/>
      <stop offset="0.59" stop-color="#EF71C3"/>
    </linearGradient>
    <linearGradient id="paint11_linear_15635_2868" x1="71.9381" y1="39.0237" x2="74.7883" y2="21.3884" gradientUnits="userSpaceOnUse">
      <stop offset="0.05" stop-color="white"/>
      <stop offset="0.07" stop-color="#FEF8FC"/>
      <stop offset="0.19" stop-color="#F9C8E8"/>
      <stop offset="0.31" stop-color="#F5A2D8"/>
      <stop offset="0.42" stop-color="#F187CC"/>
      <stop offset="0.51" stop-color="#F077C5"/>
      <stop offset="0.59" stop-color="#EF71C3"/>
    </linearGradient>
    <linearGradient id="paint12_linear_15635_2868" x1="59.7539" y1="44.5014" x2="61.8159" y2="31.7435" gradientUnits="userSpaceOnUse">
      <stop offset="0.05" stop-color="white"/>
      <stop offset="0.07" stop-color="#FEF8FC"/>
      <stop offset="0.19" stop-color="#F9C8E8"/>
      <stop offset="0.31" stop-color="#F5A2D8"/>
      <stop offset="0.42" stop-color="#F187CC"/>
      <stop offset="0.51" stop-color="#F077C5"/>
      <stop offset="0.59" stop-color="#EF71C3"/>
    </linearGradient>
    <linearGradient id="paint13_linear_15635_2868" x1="70.7425" y1="22.1344" x2="71.7242" y2="16.0599" gradientUnits="userSpaceOnUse">
      <stop/>
      <stop offset="0.13" stop-color="#13162A"/>
      <stop offset="0.37" stop-color="#353C73"/>
      <stop offset="0.59" stop-color="#505BAD"/>
      <stop offset="0.77" stop-color="#6471D8"/>
      <stop offset="0.91" stop-color="#707EF1"/>
      <stop offset="1" stop-color="#7483FB"/>
    </linearGradient>
    <linearGradient id="paint14_linear_15635_2868" x1="89.7025" y1="25.8354" x2="91.079" y2="17.3187" gradientUnits="userSpaceOnUse">
      <stop/>
      <stop offset="0.13" stop-color="#13162A"/>
      <stop offset="0.37" stop-color="#353C73"/>
      <stop offset="0.59" stop-color="#505BAD"/>
      <stop offset="0.77" stop-color="#6471D8"/>
      <stop offset="0.91" stop-color="#707EF1"/>
      <stop offset="1" stop-color="#7483FB"/>
    </linearGradient>
    <linearGradient id="paint15_linear_15635_2868" x1="56.5562" y1="34.959" x2="57.5944" y2="28.5356" gradientUnits="userSpaceOnUse">
      <stop/>
      <stop offset="0.13" stop-color="#13162A"/>
      <stop offset="0.37" stop-color="#353C73"/>
      <stop offset="0.59" stop-color="#505BAD"/>
      <stop offset="0.77" stop-color="#6471D8"/>
      <stop offset="0.91" stop-color="#707EF1"/>
      <stop offset="1" stop-color="#7483FB"/>
    </linearGradient>
    <linearGradient id="paint16_linear_15635_2868" x1="62.5742" y1="39.4627" x2="68.8828" y2="48.2036" gradientUnits="userSpaceOnUse">
      <stop stop-color="#7483FB"/>
      <stop offset="0.09" stop-color="#707EF1"/>
      <stop offset="0.23" stop-color="#6471D8"/>
      <stop offset="0.41" stop-color="#505BAD"/>
      <stop offset="0.63" stop-color="#353C73"/>
      <stop offset="0.87" stop-color="#13162A"/>
      <stop offset="1"/>
    </linearGradient>
    <linearGradient id="paint17_linear_15635_2868" x1="55.6934" y1="46.7223" x2="56.7868" y2="39.9569" gradientUnits="userSpaceOnUse">
      <stop/>
      <stop offset="0.13" stop-color="#13162A"/>
      <stop offset="0.37" stop-color="#353C73"/>
      <stop offset="0.59" stop-color="#505BAD"/>
      <stop offset="0.77" stop-color="#6471D8"/>
      <stop offset="0.91" stop-color="#707EF1"/>
      <stop offset="1" stop-color="#7483FB"/>
    </linearGradient>
    <linearGradient id="paint18_linear_15635_2868" x1="101.216" y1="34.2878" x2="88.6136" y2="43.3836" gradientUnits="userSpaceOnUse">
      <stop stop-color="#7483FB"/>
      <stop offset="0.09" stop-color="#707EF1"/>
      <stop offset="0.23" stop-color="#6471D8"/>
      <stop offset="0.41" stop-color="#505BAD"/>
      <stop offset="0.63" stop-color="#353C73"/>
      <stop offset="0.87" stop-color="#13162A"/>
      <stop offset="1"/>
    </linearGradient>
    <linearGradient id="paint19_linear_15635_2868" x1="53.0466" y1="63.4453" x2="55.0256" y2="51.2005" gradientUnits="userSpaceOnUse">
      <stop stop-color="#7483FB"/>
      <stop offset="0.09" stop-color="#707EF1"/>
      <stop offset="0.23" stop-color="#6471D8"/>
      <stop offset="0.41" stop-color="#505BAD"/>
      <stop offset="0.63" stop-color="#353C73"/>
      <stop offset="0.87" stop-color="#13162A"/>
      <stop offset="1"/>
    </linearGradient>
    <linearGradient id="paint20_linear_15635_2868" x1="48.8177" y1="43.8393" x2="39.9645" y2="50.235" gradientUnits="userSpaceOnUse">
      <stop/>
      <stop offset="0.13" stop-color="#13162A"/>
      <stop offset="0.37" stop-color="#353C73"/>
      <stop offset="0.59" stop-color="#505BAD"/>
      <stop offset="0.77" stop-color="#6471D8"/>
      <stop offset="0.91" stop-color="#707EF1"/>
      <stop offset="1" stop-color="#7483FB"/>
    </linearGradient>
    <linearGradient id="paint21_linear_15635_2868" x1="95.0178" y1="67.6567" x2="96.7359" y2="57.0263" gradientUnits="userSpaceOnUse">
      <stop stop-color="#7483FB"/>
      <stop offset="0.09" stop-color="#707EF1"/>
      <stop offset="0.23" stop-color="#6471D8"/>
      <stop offset="0.41" stop-color="#505BAD"/>
      <stop offset="0.63" stop-color="#353C73"/>
      <stop offset="0.87" stop-color="#13162A"/>
      <stop offset="1"/>
    </linearGradient>
    <linearGradient id="paint22_linear_15635_2868" x1="49.5219" y1="48.0738" x2="53.1236" y2="53.064" gradientUnits="userSpaceOnUse">
      <stop offset="0.05" stop-color="white"/>
      <stop offset="0.07" stop-color="#FEF8FC"/>
      <stop offset="0.19" stop-color="#F9C8E8"/>
      <stop offset="0.31" stop-color="#F5A2D8"/>
      <stop offset="0.42" stop-color="#F187CC"/>
      <stop offset="0.51" stop-color="#F077C5"/>
      <stop offset="0.59" stop-color="#EF71C3"/>
    </linearGradient>
    <linearGradient id="paint23_linear_15635_2868" x1="84.6085" y1="61.2617" x2="85.7804" y2="54.0106" gradientUnits="userSpaceOnUse">
      <stop stop-color="white"/>
      <stop offset="0.06" stop-color="#F5E4E5"/>
      <stop offset="0.21" stop-color="#E1A9AB"/>
      <stop offset="0.35" stop-color="#CF797B"/>
      <stop offset="0.48" stop-color="#C25356"/>
      <stop offset="0.61" stop-color="#B8373B"/>
      <stop offset="0.71" stop-color="#B2272B"/>
      <stop offset="0.8" stop-color="#B02125"/>
    </linearGradient>
    <linearGradient id="paint24_linear_15635_2868" x1="99.1394" y1="76.5845" x2="102.278" y2="57.1638" gradientUnits="userSpaceOnUse">
      <stop stop-color="white"/>
      <stop offset="0.06" stop-color="#F5E4E5"/>
      <stop offset="0.21" stop-color="#E1A9AB"/>
      <stop offset="0.35" stop-color="#CF797B"/>
      <stop offset="0.48" stop-color="#C25356"/>
      <stop offset="0.61" stop-color="#B8373B"/>
      <stop offset="0.71" stop-color="#B2272B"/>
      <stop offset="0.8" stop-color="#B02125"/>
    </linearGradient>
    <linearGradient id="paint25_linear_15635_2868" x1="94.0158" y1="126.359" x2="102.098" y2="76.3542" gradientUnits="userSpaceOnUse">
      <stop offset="0.05" stop-color="white"/>
      <stop offset="0.07" stop-color="#FEF8FC"/>
      <stop offset="0.19" stop-color="#F9C8E8"/>
      <stop offset="0.31" stop-color="#F5A2D8"/>
      <stop offset="0.42" stop-color="#F187CC"/>
      <stop offset="0.51" stop-color="#F077C5"/>
      <stop offset="0.59" stop-color="#EF71C3"/>
    </linearGradient>
    <linearGradient id="paint26_linear_15635_2868" x1="119.141" y1="79.2553" x2="96.9432" y2="75.6677" gradientUnits="userSpaceOnUse">
      <stop stop-color="#7483FB"/>
      <stop offset="0.09" stop-color="#707EF1"/>
      <stop offset="0.23" stop-color="#6471D8"/>
      <stop offset="0.41" stop-color="#505BAD"/>
      <stop offset="0.63" stop-color="#353C73"/>
      <stop offset="0.87" stop-color="#13162A"/>
      <stop offset="1"/>
    </linearGradient>
    <linearGradient id="paint27_linear_15635_2868" x1="114.417" y1="109.44" x2="88.9902" y2="105.331" gradientUnits="userSpaceOnUse">
      <stop stop-color="#7483FB"/>
      <stop offset="0.16" stop-color="#606DD0"/>
      <stop offset="0.75" stop-color="#1C1F3C"/>
      <stop offset="1"/>
    </linearGradient>
    <linearGradient id="paint28_linear_15635_2868" x1="112.594" y1="118.029" x2="87.0103" y2="113.894" gradientUnits="userSpaceOnUse">
      <stop stop-color="#7483FB"/>
      <stop offset="0.16" stop-color="#606DD0"/>
      <stop offset="0.75" stop-color="#1C1F3C"/>
      <stop offset="1"/>
    </linearGradient>
    <clipPath id="clip0_15635_2868">
      <rect width="122.263" height="125.693" fill="white" transform="translate(20.0547) rotate(9.18083)"/>
    </clipPath>
  </defs>
</svg>