<svg xmlns="http://www.w3.org/2000/svg" width="24" height="24" viewBox="0 0 24 24" fill="none">
  <path d="M8 21H16M12 17V21M12 17C13.3261 17 14.5979 16.4732 15.5355 15.5355C16.4732 14.5979 17 13.3261 17 12V4H7V12C7 13.3261 7.52678 14.5979 8.46447 15.5355C9.40215 16.4732 10.6739 17 12 17ZM7 9C7 10.1046 6.10457 11 5 11C3.89543 11 3 10.1046 3 9C3 7.89543 3.89543 7 5 7C6.10457 7 7 7.89543 7 9ZM21 9C21 10.1046 20.1046 11 19 11C17.8954 11 17 10.1046 17 9C17 7.89543 17.8954 7 19 7C20.1046 7 21 7.89543 21 9Z" stroke="currentColor" stroke-width="2" stroke-linecap="round" stroke-linejoin="round"/>
</svg>