<svg xmlns="http://www.w3.org/2000/svg" width="25" height="24" viewBox="0 0 25 24" fill="none">
  <path d="M12.1666 8V21M12.1666 8C11.8049 6.5094 11.1821 5.23507 10.3794 4.34317C9.57665 3.45127 8.63131 2.9832 7.66663 3.00001C7.00358 3.00001 6.3677 3.2634 5.89886 3.73224C5.43002 4.20108 5.16663 4.83697 5.16663 5.50001C5.16663 6.16305 5.43002 6.79894 5.89886 7.26778C6.3677 7.73662 7.00358 8.00001 7.66663 8.00001M12.1666 8C12.5284 6.5094 13.1512 5.23507 13.9539 4.34317C14.7566 3.45127 15.7019 2.9832 16.6666 3.00001C17.3297 3.00001 17.9656 3.2634 18.4344 3.73224C18.9032 4.20108 19.1666 4.83697 19.1666 5.50001C19.1666 6.16305 18.9032 6.79894 18.4344 7.26778C17.9656 7.73662 17.3297 8.00001 16.6666 8.00001M19.1666 12V19C19.1666 19.5304 18.9559 20.0391 18.5808 20.4142C18.2058 20.7893 17.6971 21 17.1666 21H7.16663C6.63619 21 6.12749 20.7893 5.75241 20.4142C5.37734 20.0391 5.16663 19.5304 5.16663 19V12M4.16663 8H20.1666C20.7189 8 21.1666 8.44772 21.1666 9V11C21.1666 11.5523 20.7189 12 20.1666 12H4.16663C3.61434 12 3.16663 11.5523 3.16663 11V9C3.16663 8.44772 3.61434 8 4.16663 8Z" stroke="currentColor" stroke-width="2" stroke-linecap="round" stroke-linejoin="round"/>
</svg>