<svg width="24" height="24" viewBox="0 0 24 24" fill="none" xmlns="http://www.w3.org/2000/svg">
<g clip-path="url(#clip0_13874_2746)">
<path fill-rule="evenodd" clip-rule="evenodd" d="M11.1149 3.12451V1.20264H12.9387L12.5303 1.91724C12.4276 2.09705 12.4369 2.31982 12.5544 2.49039L12.991 3.12451H11.1149ZM11.1149 5.3178V4.10889H13.8383C14.2725 4.10889 14.5285 3.62176 14.2823 3.26412L13.5239 2.16265L14.1741 1.02477C14.3794 0.665403 14.1199 0.218262 13.706 0.218262H10.6696C10.3719 0.218262 10.1306 0.459606 10.1306 0.757324V5.35788C7.93343 5.47762 5.93846 5.79209 4.31806 6.24503V5.09326H7.04138C7.47559 5.09326 7.73162 4.60613 7.48537 4.24849L6.72699 3.14702L7.3772 2.00915C7.58256 1.64978 7.32307 1.20264 6.90916 1.20264H3.87275C3.57503 1.20264 3.33369 1.44398 3.33369 1.7417V6.55333C1.34133 7.25208 0.122753 8.18875 0.122753 9.21825C0.122753 9.33674 0.138896 9.454 0.170503 9.56981H0.150195V18.789C0.133815 19.0647 0.164585 19.4757 0.304021 19.8863C0.447078 20.3077 0.72222 20.7767 1.23034 21.062C2.21573 21.6152 11.8219 26.0715 22.8447 21.0812L22.9267 21.0441L22.9902 20.9804L23.0207 20.9499C23.2696 20.7005 23.5344 20.4353 23.7266 20.1094C23.9389 19.7494 24.0524 19.3387 24.0524 18.8046V9.64442C24.0989 9.50445 24.1228 9.36226 24.1228 9.21825C24.1228 7.72265 21.551 6.42297 17.7712 5.76403V5.04638H20.4945C20.9287 5.04638 21.1847 4.55925 20.9385 4.20162L20.1801 3.10015L20.8303 1.96227C21.0357 1.6029 20.7762 1.15576 20.3623 1.15576H17.3259C17.0282 1.15576 16.7868 1.3971 16.7868 1.69482V5.61083C15.353 5.41336 13.777 5.30419 12.1228 5.30419C11.7833 5.30419 11.4472 5.30878 11.1149 5.3178ZM17.7712 4.06201V2.14013H19.5949L19.1866 2.85474C19.0838 3.03455 19.0932 3.25732 19.2106 3.42789L19.6472 4.06201H17.7712ZM23.1384 9.21825C23.1384 9.31845 23.0762 9.57853 22.5786 9.96227C22.3426 10.1442 22.0406 10.3275 21.6736 10.5065C13.7672 5.77927 5.81193 8.45362 2.59003 10.5153C2.21488 10.3335 1.90675 10.1472 1.6669 9.96227C1.16929 9.57853 1.10713 9.31845 1.10713 9.21825C1.10713 9.11805 1.16929 8.85797 1.6669 8.47423C2.1509 8.10099 2.91296 7.72232 3.94272 7.38644C5.99145 6.7182 8.88364 6.28856 12.1228 6.28856C15.3619 6.28856 18.2541 6.7182 20.3028 7.38644C21.3325 7.72232 22.0946 8.10099 22.5786 8.47423C23.0762 8.85797 23.1384 9.11805 23.1384 9.21825ZM3.73297 10.9798C6.96598 9.18419 13.7088 7.27402 20.5157 10.9787C20.446 11.0027 20.3751 11.0265 20.3028 11.0501C18.2541 11.7183 15.3619 12.1479 12.1228 12.1479C8.88364 12.1479 5.99145 11.7183 3.94272 11.0501C3.87152 11.0268 3.8016 11.0034 3.73297 10.9798ZM23.0681 10.8252C22.6899 11.0988 22.2182 11.3556 21.6662 11.5914L21.768 16.7636C22.1975 16.6078 22.6309 16.4409 23.0681 16.2623V10.8252ZM17.0681 12.7855C18.4296 12.5844 19.6556 12.3028 20.6889 11.9593L20.7901 17.1017C19.5095 17.5226 18.2668 17.8455 17.0681 18.085V12.7855ZM16.0837 12.9141C14.8436 13.0555 13.5107 13.1323 12.1228 13.1323L12.0993 13.1323V18.647C13.3555 18.6154 14.6871 18.4963 16.0837 18.2649V12.9141ZM7.52901 12.8353C8.64884 12.9867 9.85422 13.0845 11.1149 13.1187V18.6541C9.82747 18.6401 8.62794 18.5352 7.52901 18.3687V12.8353ZM6.54463 18.1985V12.6846C5.41951 12.4916 4.39985 12.242 3.52119 11.9475V17.3511H3.43738C4.32593 17.6727 5.36786 17.9695 6.54463 18.1985ZM1.13457 10.7938C1.51015 11.072 1.98216 11.3333 2.53682 11.5732V16.9955C1.98661 16.7585 1.51699 16.5169 1.13457 16.2861V10.7938ZM23.0681 17.3232C12.9258 21.3369 4.69809 19.3058 1.13457 17.4161V18.8046V18.8214L1.13343 18.8381C1.12237 19 1.14041 19.2879 1.23613 19.5698C1.33129 19.8501 1.48553 20.0764 1.71222 20.2036C2.56166 20.6805 11.7732 24.9694 22.3569 20.2213C22.6011 19.9757 22.7636 19.8044 22.8787 19.6093C22.9912 19.4185 23.0681 19.1846 23.0681 18.8046V17.3232ZM4.31806 2.18701V4.10889H6.19411L5.7575 3.47477C5.64006 3.3042 5.63072 3.08142 5.73346 2.90162L6.14181 2.18701H4.31806Z" fill="currentColor"/>
</g>
<defs>
<clipPath id="clip0_13874_2746">
<rect width="24" height="24" fill="white"/>
</clipPath>
</defs>
</svg>
