<svg xmlns="http://www.w3.org/2000/svg" width="24" height="24" viewBox="0 0 24 24" fill="none">
  <path d="M3.41016 22C3.41016 18.13 7.26016 15 12.0002 15M22.0002 22L21.0002 21M12.0002 12C13.3262 12 14.598 11.4732 15.5357 10.5355C16.4734 9.59785 17.0002 8.32608 17.0002 7C17.0002 5.67392 16.4734 4.40215 15.5357 3.46447C14.598 2.52678 13.3262 2 12.0002 2C10.6741 2 9.4023 2.52678 8.46462 3.46447C7.52694 4.40215 7.00016 5.67392 7.00016 7C7.00016 8.32608 7.52694 9.59785 8.46462 10.5355C9.4023 11.4732 10.6741 12 12.0002 12V12ZM18.2002 21.4C19.0488 21.4 19.8628 21.0629 20.4629 20.4627C21.063 19.8626 21.4002 19.0487 21.4002 18.2C21.4002 17.3513 21.063 16.5374 20.4629 15.9373C19.8628 15.3371 19.0488 15 18.2002 15C17.3515 15 16.5375 15.3371 15.9374 15.9373C15.3373 16.5374 15.0002 17.3513 15.0002 18.2C15.0002 19.0487 15.3373 19.8626 15.9374 20.4627C16.5375 21.0629 17.3515 21.4 18.2002 21.4Z" stroke="#F8FAFC" stroke-width="1.5" stroke-linecap="round" stroke-linejoin="round"/>
</svg>