<svg xmlns="http://www.w3.org/2000/svg" width="39" height="38" viewBox="0 0 39 38" fill="none">
  <path d="M33.9404 11.3337C36.1023 15.1385 37.1833 17.0408 37.169 19.1215C37.1546 21.2022 36.0476 23.0895 33.8336 26.8641L33.3594 27.6726C31.1453 31.4473 30.0383 33.3346 28.2293 34.3625C26.4202 35.3905 24.2322 35.3754 19.8563 35.3453L18.919 35.3389C14.543 35.3088 12.3551 35.2937 10.5603 34.241C8.76553 33.1883 7.68457 31.2859 5.52266 27.4812L5.05959 26.6662C2.89768 22.8615 1.81673 20.9592 1.83103 18.8785C1.84534 16.7978 2.95236 14.9105 5.16639 11.1359L5.64062 10.3274C7.85466 6.55274 8.96167 4.66542 10.7707 3.63748C12.5798 2.60953 14.7678 2.62458 19.1437 2.65467L20.081 2.66111C24.457 2.6912 26.6449 2.70625 28.4397 3.75898C30.2345 4.81171 31.3154 6.71407 33.4773 10.5188L33.9404 11.3337Z" fill="#64AD08"/>
  <path d="M21.5118 9.22205H18.6541H14.038C14.0034 9.22205 13.9707 9.23803 13.9495 9.26535L12.4224 11.2299C11.6873 12.167 10.6683 13.467 10.1579 14.1188L9.25384 15.2732C9.23838 15.2929 9.22998 15.3173 9.22999 15.3423L9.23097 18.8271L9.23194 22.3117C9.23195 22.3368 9.24041 22.3612 9.25597 22.381L10.7148 24.2338C11.5065 25.2394 12.637 26.8166 12.7022 26.9078C12.7043 26.9107 12.7064 26.9133 12.7088 26.916L14.3756 28.8241C14.3969 28.8485 14.4277 28.8625 14.4601 28.8625H18.6587H21.5036H24.3013C24.3314 28.8625 24.3603 28.8504 24.3813 28.8289L24.4693 28.7392C24.6047 28.601 29.0102 22.9694 29.8529 21.8919C29.91 21.8188 29.8581 21.713 29.7654 21.712C29.2414 21.7064 27.8654 21.6939 26.2614 21.6988L22.5855 21.7102C22.5513 21.7103 22.519 21.726 22.4978 21.7528L20.6114 24.1438C19.7437 25.2435 18.6929 26.6999 18.3458 27.1844C18.2944 27.2561 18.343 27.3545 18.4312 27.3578C18.5905 27.3637 18.8293 27.3705 19.0951 27.3705H19.9051C19.9408 27.3705 19.9743 27.3535 19.9954 27.3247L21.8116 24.8525C22.5741 23.8802 23.2384 23.0733 23.2877 23.0595C23.4081 23.0257 26.1851 23.0357 26.7029 23.0718L26.903 23.0857C26.9927 23.092 27.0389 23.196 26.9834 23.2667L25.4793 25.1844C24.5803 26.3306 23.8017 27.3144 23.749 27.3705L23.6864 27.4371C23.6652 27.4596 23.6357 27.4724 23.6047 27.4724H19.446H15.292C15.2583 27.4724 15.2263 27.4572 15.2051 27.4311L10.7399 21.943C10.7236 21.923 10.7148 21.898 10.7148 21.8723V15.7406C10.7148 15.7153 10.7233 15.6908 10.739 15.671L14.7118 10.6546C14.7331 10.6278 14.7654 10.6121 14.7997 10.6121H19.4683H23.6434C23.6778 10.6121 23.7104 10.628 23.7316 10.6551L25.3744 12.7533C26.2965 13.9309 27.0668 14.9012 27.0863 14.9094C27.2748 14.9891 26.8954 15.0062 25.1616 14.9958L23.2554 14.9845C23.2214 14.9843 23.1893 14.9686 23.1682 14.9419L21.8883 13.325C21.166 12.4125 19.9393 10.9154 19.8798 10.8475L19.8051 10.7624C19.7838 10.7381 19.7531 10.7242 19.7208 10.7242H18.9119C18.6549 10.7242 18.4277 10.7349 18.2738 10.7447C18.1849 10.7503 18.1405 10.8518 18.1964 10.9213C18.5788 11.3974 19.7328 12.8351 20.6111 13.9442L22.5195 16.3541C22.5407 16.381 22.5731 16.3966 22.6073 16.3966H26.3001H29.8118C29.9062 16.3966 29.9583 16.2872 29.8989 16.2139L29.8925 16.2061C29.8074 16.1012 28.5813 14.5425 27.1676 12.7421C25.754 10.9417 24.5461 9.41316 24.4834 9.34536L24.4028 9.25809C24.3816 9.23511 24.3518 9.22205 24.3205 9.22205H21.5118Z" fill="white" stroke="white" stroke-width="1.37015"/>
</svg>