<svg xmlns="http://www.w3.org/2000/svg" width="16" height="16" viewBox="0 0 16 16" fill="none">
  <path d="M3.19971 4.4002C3.19971 4.08194 3.32614 3.77671 3.55118 3.55167C3.77622 3.32662 4.08145 3.2002 4.39971 3.2002H10.3997C10.5588 3.2002 10.7115 3.26341 10.824 3.37593C10.9365 3.48845 10.9997 3.64107 10.9997 3.8002V5.6002L12.1997 8.0002V6.2002C12.1997 6.04107 12.1365 5.88845 12.024 5.77593C11.9115 5.66341 11.7588 5.6002 11.5997 5.6002H4.39971C4.08145 5.6002 3.77622 5.47377 3.55118 5.24872C3.32614 5.02368 3.19971 4.71846 3.19971 4.4002ZM3.19971 4.4002V11.6002C3.19971 11.9185 3.32614 12.2237 3.55118 12.4487C3.77622 12.6738 4.08145 12.8002 4.39971 12.8002H11.5997C11.7588 12.8002 11.9115 12.737 12.024 12.6245C12.1365 12.5119 12.1997 12.3593 12.1997 12.2002V10.4002M12.7997 8.0002V10.4002H10.3997C10.0814 10.4002 9.77622 10.2738 9.55118 10.0487C9.32614 9.82368 9.19971 9.51846 9.19971 9.2002C9.19971 8.88194 9.32614 8.57671 9.55118 8.35167C9.77622 8.12662 10.0814 8.0002 10.3997 8.0002H12.7997Z" stroke="#F9D516" stroke-width="1.2" stroke-linecap="round" stroke-linejoin="round"/>
</svg>