<svg width="40" height="40" viewBox="0 0 40 40" fill="none" xmlns="http://www.w3.org/2000/svg">
<rect width="40" height="40" rx="8" fill="url(#paint0_linear_19311_799)"/>
<path fill-rule="evenodd" clip-rule="evenodd" d="M21.2306 28.7316L21.2032 28.6676L18.6586 22.731C18.5012 22.3637 18.5877 21.9288 18.8851 21.6619L22.5515 18.3722C22.8531 18.1015 22.878 17.6369 22.6073 17.3353C22.3365 17.0338 21.872 17.0088 21.5703 17.2795L17.7382 20.7172C17.4598 20.9669 17.0633 21.0404 16.7098 20.9184L14.6265 20.1993C13.7487 20.9218 13.2978 21.3273 13.1477 21.882C12.9839 22.4871 13.2188 23.1195 13.6886 24.3845L15.1921 28.4324C16.1458 30.9997 16.6245 32.2884 17.319 32.6484C17.921 32.9603 18.6414 32.9526 19.2429 32.6281C19.9041 32.2714 20.3668 31.0802 21.2306 28.7316Z" fill="#93C5FD"/>
<path d="M21.2316 28.7315C22.2968 31.2168 22.8355 32.4626 23.5417 32.7914C24.1586 33.0784 24.8776 33.0413 25.4619 32.6926C26.1364 32.2898 26.5462 30.9766 27.3653 28.3513L32.2434 12.7192C32.8142 10.8898 33.0994 9.97419 32.8782 9.33518C32.6852 8.77823 32.2622 8.33025 31.717 8.1063C31.0914 7.84949 30.1614 8.08285 28.3027 8.54991L11.5739 12.7542C8.35792 13.5623 6.74926 13.9666 6.31035 14.6728C5.93159 15.2828 5.89878 16.0466 6.22354 16.6869C6.59989 17.4284 8.16767 17.9695 11.3023 19.0515L14.6275 20.1993L16.7108 20.9183C17.0643 21.0404 17.4608 20.9669 17.7392 20.7171L21.5714 17.2795C21.873 17.0088 22.3375 17.0337 22.6083 17.3352C22.879 17.6369 22.8541 18.1014 22.5526 18.3722L18.8862 21.6618C18.5887 21.9287 18.5022 22.3637 18.6596 22.731L21.2042 28.6675L21.2316 28.7315Z" fill="url(#paint1_linear_19311_799)"/>
<defs>
<linearGradient id="paint0_linear_19311_799" x1="36.25" y1="2.08333" x2="1.66667" y2="37.5" gradientUnits="userSpaceOnUse">
<stop offset="0.351422" stop-color="white"/>
<stop offset="1" stop-color="#A1D9F7"/>
</linearGradient>
<linearGradient id="paint1_linear_19311_799" x1="32.9139" y1="8.00023" x2="14.5643" y2="24.7187" gradientUnits="userSpaceOnUse">
<stop offset="0.489005" stop-color="#3B82F6"/>
<stop offset="1" stop-color="#507FCC"/>
</linearGradient>
</defs>
</svg>
