<svg width="20" height="20" viewBox="0 0 20 20" fill="none" xmlns="http://www.w3.org/2000/svg">
<path d="M8.075 2.067C8.501 0.311 10.999 0.311 11.425 2.067C11.4889 2.3308 11.6142 2.57578 11.7907 2.782C11.9672 2.98822 12.1899 3.14985 12.4407 3.25375C12.6914 3.35764 12.9632 3.40085 13.2338 3.37987C13.5044 3.35889 13.7662 3.2743 13.998 3.133C15.541 2.193 17.308 3.959 16.368 5.503C16.2269 5.73466 16.1424 5.99634 16.1215 6.26677C16.1006 6.53721 16.1438 6.80877 16.2475 7.05938C16.3513 7.30999 16.5127 7.53258 16.7187 7.70905C16.9247 7.88553 17.1694 8.01091 17.433 8.075C19.189 8.501 19.189 10.999 17.433 11.425C17.1692 11.4889 16.9242 11.6142 16.718 11.7907C16.5118 11.9672 16.3501 12.1899 16.2463 12.4407C16.1424 12.6914 16.0991 12.9632 16.1201 13.2338C16.1411 13.5044 16.2257 13.7662 16.367 13.998C17.307 15.541 15.541 17.308 13.997 16.368C13.7653 16.2269 13.5037 16.1424 13.2332 16.1215C12.9628 16.1006 12.6912 16.1438 12.4406 16.2475C12.19 16.3513 11.9674 16.5127 11.7909 16.7187C11.6145 16.9247 11.4891 17.1694 11.425 17.433C10.999 19.189 8.501 19.189 8.075 17.433C8.01108 17.1692 7.88578 16.9242 7.70929 16.718C7.5328 16.5118 7.31011 16.3501 7.05935 16.2463C6.80859 16.1424 6.53683 16.0991 6.26621 16.1201C5.99559 16.1411 5.73375 16.2257 5.502 16.367C3.959 17.307 2.192 15.541 3.132 13.997C3.2731 13.7653 3.35755 13.5037 3.37848 13.2332C3.39942 12.9628 3.35624 12.6912 3.25247 12.4406C3.1487 12.19 2.98726 11.9674 2.78127 11.7909C2.57529 11.6145 2.33056 11.4891 2.067 11.425C0.311 10.999 0.311 8.501 2.067 8.075C2.3308 8.01108 2.57578 7.88578 2.782 7.70929C2.98822 7.5328 3.14985 7.31011 3.25375 7.05935C3.35764 6.80859 3.40085 6.53683 3.37987 6.26621C3.35889 5.99559 3.2743 5.73375 3.133 5.502C2.193 3.959 3.959 2.192 5.503 3.132C6.503 3.74 7.799 3.202 8.075 2.067Z" stroke="currentColor" stroke-width="1.5" stroke-linecap="round" stroke-linejoin="round"/>
<path d="M6.75 9.75C6.75 10.5456 7.06607 11.3087 7.62868 11.8713C8.19129 12.4339 8.95435 12.75 9.75 12.75C10.5456 12.75 11.3087 12.4339 11.8713 11.8713C12.4339 11.3087 12.75 10.5456 12.75 9.75C12.75 8.95435 12.4339 8.19129 11.8713 7.62868C11.3087 7.06607 10.5456 6.75 9.75 6.75C8.95435 6.75 8.19129 7.06607 7.62868 7.62868C7.06607 8.19129 6.75 8.95435 6.75 9.75Z" stroke="currentColor" stroke-width="1.5" stroke-linecap="round" stroke-linejoin="round"/>
</svg>
