<svg xmlns="http://www.w3.org/2000/svg" width="20" height="20" viewBox="0 0 20 20" fill="none">
  <path d="M3.74984 8.74935C4.21007 8.74935 4.58317 8.37625 4.58317 7.91602C4.58317 7.45578 4.21007 7.08268 3.74984 7.08268C3.2896 7.08268 2.9165 7.45578 2.9165 7.91602C2.9165 8.37625 3.2896 8.74935 3.74984 8.74935Z" stroke="#22C55E" stroke-width="1.66667" stroke-linecap="round" stroke-linejoin="round"/>
  <path d="M7.9165 4.58268C8.37674 4.58268 8.74984 4.20959 8.74984 3.74935C8.74984 3.28911 8.37674 2.91602 7.9165 2.91602C7.45627 2.91602 7.08317 3.28911 7.08317 3.74935C7.08317 4.20959 7.45627 4.58268 7.9165 4.58268Z" stroke="#22C55E" stroke-width="1.66667" stroke-linecap="round" stroke-linejoin="round"/>
  <path d="M7.9165 12.916C8.37674 12.916 8.74984 12.5429 8.74984 12.0827C8.74984 11.6224 8.37674 11.2493 7.9165 11.2493C7.45627 11.2493 7.08317 11.6224 7.08317 12.0827C7.08317 12.5429 7.45627 12.916 7.9165 12.916Z" stroke="#22C55E" stroke-width="1.66667" stroke-linecap="round" stroke-linejoin="round"/>
  <path d="M3.74984 17.0827C4.21007 17.0827 4.58317 16.7096 4.58317 16.2493C4.58317 15.7891 4.21007 15.416 3.74984 15.416C3.2896 15.416 2.9165 15.7891 2.9165 16.2493C2.9165 16.7096 3.2896 17.0827 3.74984 17.0827Z" stroke="#22C55E" stroke-width="1.66667" stroke-linecap="round" stroke-linejoin="round"/>
  <path d="M12.0832 8.74935C12.5434 8.74935 12.9165 8.37625 12.9165 7.91602C12.9165 7.45578 12.5434 7.08268 12.0832 7.08268C11.6229 7.08268 11.2498 7.45578 11.2498 7.91602C11.2498 8.37625 11.6229 8.74935 12.0832 8.74935Z" stroke="#22C55E" stroke-width="1.66667" stroke-linecap="round" stroke-linejoin="round"/>
  <path d="M16.2498 4.58268C16.7101 4.58268 17.0832 4.20959 17.0832 3.74935C17.0832 3.28911 16.7101 2.91602 16.2498 2.91602C15.7896 2.91602 15.4165 3.28911 15.4165 3.74935C15.4165 4.20959 15.7896 4.58268 16.2498 4.58268Z" stroke="#22C55E" stroke-width="1.66667" stroke-linecap="round" stroke-linejoin="round"/>
  <path d="M12.0832 17.0827C12.5434 17.0827 12.9165 16.7096 12.9165 16.2493C12.9165 15.7891 12.5434 15.416 12.0832 15.416C11.6229 15.416 11.2498 15.7891 11.2498 16.2493C11.2498 16.7096 11.6229 17.0827 12.0832 17.0827Z" stroke="#22C55E" stroke-width="1.66667" stroke-linecap="round" stroke-linejoin="round"/>
  <path d="M16.2498 12.916C16.7101 12.916 17.0832 12.5429 17.0832 12.0827C17.0832 11.6224 16.7101 11.2493 16.2498 11.2493C15.7896 11.2493 15.4165 11.6224 15.4165 12.0827C15.4165 12.5429 15.7896 12.916 16.2498 12.916Z" stroke="#22C55E" stroke-width="1.66667" stroke-linecap="round" stroke-linejoin="round"/>
</svg>