<svg xmlns="http://www.w3.org/2000/svg" width="20" height="20" viewBox="0 0 20 20" fill="none">
  <path d="M19.4263 10.268C19.4657 12.4729 18.6782 14.7172 17.2608 16.489C15.8433 18.2608 13.7566 19.442 11.5123 19.8357C9.26803 20.2688 6.86627 19.8357 4.89761 18.6545C2.88958 17.5127 1.31466 15.6228 0.566567 13.4179C-0.181522 11.213 -0.220895 8.73248 0.645313 6.52758C1.51152 4.32269 3.12582 2.43278 5.25197 1.25158C6.31504 0.660986 7.45686 0.306628 8.63806 0.109762C9.81925 -0.04773 11.0398 -0.0477297 12.221 0.188509C14.5834 0.660986 16.7883 2.03905 18.2845 3.96833C18.6782 4.48018 18.5995 5.22827 18.0876 5.622C17.5758 6.01573 16.8277 5.93698 16.4339 5.42513C16.4339 5.42513 16.4339 5.38576 16.3946 5.38576C15.2921 3.85021 13.6384 2.70839 11.7485 2.27528C10.8036 2.03905 9.85862 1.99967 8.8743 2.07842C7.92934 2.19654 6.98439 2.43278 6.11818 2.90525C4.38576 3.77146 2.92895 5.30701 2.18086 7.11818C1.3934 8.92934 1.31466 11.0555 1.90525 12.9454C2.49585 14.8747 3.79516 16.5677 5.52758 17.6308C7.22062 18.7332 9.34677 19.2057 11.3942 18.8907C13.4416 18.6151 15.3709 17.5914 16.7489 16.0165C18.127 14.4416 18.9538 12.3942 18.9932 10.268C18.9932 10.1499 19.1113 10.0318 19.2294 10.0318C19.3082 10.0318 19.4263 10.1499 19.4263 10.268Z" fill="#84CC16"/>
</svg>