<svg xmlns="http://www.w3.org/2000/svg" width="16" height="16" viewBox="0 0 16 16" fill="none">
  <path fill-rule="evenodd" clip-rule="evenodd" d="M10.1354 4.85023L8.92025 6.9329C8.77305 7.18066 8.57958 7.42042 8.43238 7.70681C8.62586 7.56762 8.87362 7.42044 9.11373 7.22696L11.2503 5.86495C11.2041 5.77169 11.1574 5.71742 11.0569 5.6245L10.3289 4.94315C10.2826 4.89687 10.182 4.85023 10.1354 4.85023ZM13 3.58879C13 3.4416 12.9071 3.2944 12.8065 3.14755C12.6593 3.05429 12.5121 3 12.3187 3C12.1715 3 11.978 3.0543 11.8851 3.2015L10.3755 4.70338C10.182 4.60282 9.94193 4.55653 9.69416 4.55653C9.40812 4.55653 9.11373 4.70339 8.92025 4.89687L3.7722 10.1378C3.71791 10.1841 3.625 10.3313 3.625 10.5714C3.625 10.7183 3.67163 10.8658 3.7722 11.059C3.91939 11.353 4.20578 11.6397 4.35298 11.7866C4.64702 12.0267 5.18118 12.4679 5.61477 12.4213C5.80824 12.4213 6.00938 12.367 6.10229 12.2202L11.2041 7.03347C11.591 6.59188 11.6373 6.01145 11.3046 5.57786L12.8065 4.06831C12.9534 3.92912 13 3.78227 13 3.58879Z" fill="currentColor"/>
</svg>