<svg xmlns="http://www.w3.org/2000/svg" width="16" height="15" viewBox="0 0 16 15" fill="none">
  <path fill-rule="evenodd" clip-rule="evenodd" d="M12.7796 5.04176C12.8298 5.14684 12.8804 5.25192 12.9389 5.357C13.1492 5.9372 13.25 6.5174 13.25 7.14825C13.25 9.83909 11.0915 12 8.40407 12C6.92617 12 5.66646 11.3692 4.76801 10.3645C4.71743 10.3142 4.65854 10.2594 4.60833 10.2088C5.71704 8.99392 6.98506 7.94276 8.40407 7.04317C9.72267 6.20216 11.2006 5.56715 12.7796 5.04176ZM12.2504 4.1966C12.3595 4.30621 12.4101 4.41091 12.4603 4.51637C12.5109 4.56664 12.5694 4.67172 12.62 4.72653C11.0413 5.25192 9.56336 5.9372 8.24477 6.78236C6.82538 7.62299 5.55736 8.73312 4.39844 9.94416C4.34824 9.83909 4.23876 9.73363 4.18856 9.62855C4.13797 9.57412 4.13797 9.51932 4.07946 9.46905C5.24668 8.15292 6.5566 7.04317 8.03488 6.14773C9.30289 5.357 10.7219 4.67172 12.2504 4.1966ZM11.461 3.35559C11.5701 3.46105 11.6709 3.56613 11.8306 3.67121C11.8808 3.72564 11.9903 3.83109 12.0405 3.93617C10.512 4.41091 9.14321 5.04176 7.87519 5.88692C6.4056 6.78236 5.07869 7.83768 3.91978 9.15343C3.86957 8.99392 3.81899 8.78377 3.7684 8.62388C3.71819 8.57361 3.71819 8.46815 3.6593 8.41372C4.76801 7.14825 6.03603 6.09708 7.45542 5.25192C8.67285 4.46156 10.0333 3.88136 11.461 3.35559ZM8.40407 2.25C9.40368 2.25 10.3523 2.56561 11.1421 3.14543C9.77325 3.6164 8.45465 4.25141 7.24515 4.98696C5.92693 5.83212 4.65854 6.83301 3.6091 7.99303C3.55851 7.72845 3.5 7.41283 3.5 7.14825C3.5 4.46156 5.71704 2.25 8.40407 2.25Z" fill="currentColor"/>
</svg>