<svg width="16" height="16" viewBox="0 0 16 16" fill="none" xmlns="http://www.w3.org/2000/svg">
<path d="M9.10449 0.834962C10.1481 0.840644 11.0113 0.864363 11.7227 0.959962C12.6856 1.08943 13.4465 1.35974 14.043 1.95606C14.6392 2.55246 14.9096 3.31261 15.0391 4.27539C15.1666 5.2241 15.165 6.44294 15.165 8V12.7803C15.165 13.1147 15.1654 13.3916 15.1504 13.6104C15.1393 13.7721 15.1188 13.9376 15.0664 14.0938L15.0029 14.2461C14.7469 14.75 14.2309 15.0641 13.6719 15.0664L13.5596 15.0635C13.3375 15.0477 13.1308 14.9614 12.9385 14.8633C12.7432 14.7636 12.5055 14.6203 12.2188 14.4482C12.0391 14.3404 11.9124 14.2649 11.8125 14.208L11.5645 14.0791C11.3704 13.9925 11.167 13.9279 10.959 13.8867L10.749 13.8535C10.5865 13.8339 10.4164 13.833 9.99707 13.833H7.33203C6.09349 13.833 5.12402 13.8341 4.35645 13.751C3.67666 13.6773 3.10935 13.5336 2.61816 13.2373L2.41211 13.1006C2.1683 12.9234 1.9463 12.7179 1.75098 12.4893L1.56445 12.2529C1.17409 11.7155 0.998229 11.0854 0.914063 10.3086C0.830946 9.54101 0.832032 8.57151 0.832032 7.33301C0.832032 6.09447 0.830915 5.125 0.914063 4.35742C0.998261 3.58053 1.17395 2.95057 1.56445 2.41309L1.75098 2.17676C1.94638 1.94802 2.16818 1.74269 2.41211 1.56543L2.61816 1.42871C3.10937 1.13245 3.67663 0.988717 4.35645 0.91504C5.12402 0.831891 6.09349 0.833008 7.33203 0.833009H7.99902L9.10449 0.834962ZM4.66504 7.5C4.38916 7.50018 4.16522 7.72412 4.16504 8C4.16504 8.27603 4.38905 8.49983 4.66504 8.5H7.33203L7.43262 8.49024C7.66027 8.44347 7.83203 8.24149 7.83203 8C7.83188 7.75865 7.66017 7.55651 7.43262 7.50977L7.33203 7.5H4.66504ZM4.66504 4.83301C4.38926 4.83318 4.16539 5.05727 4.16504 5.33301C4.16504 5.60904 4.38905 5.83283 4.66504 5.83301H9.99805L10.0996 5.82324C10.3271 5.77633 10.498 5.57437 10.498 5.33301C10.4977 5.09189 10.3269 4.88959 10.0996 4.84277L9.99805 4.83301H4.66504Z" fill="#020617"/>
</svg>
