<svg width="40" height="40" viewBox="0 0 40 40" fill="none" xmlns="http://www.w3.org/2000/svg">
<path d="M13.3334 21.6667V21.6833M20.0001 28.3333V28.35M20.0001 20V20.0167M26.6668 23.3333V23.35M18.3334 13.3333V13.35M21.9134 5.79317L26.3584 7.63317C25.4775 8.7922 25.0001 10.2077 24.9993 11.6636C24.9985 13.1194 25.4742 14.5355 26.3539 15.6955C27.2335 16.8555 28.4687 17.6957 29.8708 18.0877C31.2728 18.4797 32.7647 18.4021 34.1184 17.8665L34.2067 18.0865C34.7142 19.3116 34.7142 20.6881 34.2067 21.9132C33.3784 23.2232 32.8101 24.2532 32.5001 24.9998C32.1851 25.7598 31.8184 26.9898 31.4001 28.6932C30.8922 29.9181 29.9186 30.8911 28.6934 31.3982C26.9467 31.8365 25.7151 32.2032 25.0001 32.4998C24.2084 32.8282 23.1801 33.3965 21.9134 34.2065C20.6883 34.7139 19.3118 34.7139 18.0867 34.2065C16.7501 33.3682 15.7217 32.7998 15.0001 32.4998C14.2151 32.1748 12.9834 31.8082 11.3067 31.3998C10.0818 30.892 9.10883 29.9184 8.60174 28.6932C8.16008 26.9398 7.79341 25.7098 7.50008 24.9998C7.17008 24.2015 6.60008 23.1732 5.79341 21.9132C5.28599 20.6881 5.28599 19.3116 5.79341 18.0865C6.59341 16.8465 7.16008 15.8182 7.50008 14.9998C7.78508 14.3115 8.15174 13.0798 8.60008 11.3065C9.10792 10.0816 10.0815 9.10859 11.3067 8.6015C13.0267 8.17483 14.2567 7.80817 15.0001 7.49983C15.7634 7.18317 16.7917 6.61483 18.0867 5.79317C19.3118 5.28574 20.6883 5.28574 21.9134 5.79317Z" stroke="currentColor" stroke-width="3.33333" stroke-linecap="round" stroke-linejoin="round"/>
</svg>
