<svg xmlns="http://www.w3.org/2000/svg" width="20" height="21" viewBox="0 0 20 21" fill="none">
  <path d="M7.49967 6.5575H4.99967C4.55765 6.5575 4.13372 6.73309 3.82116 7.04565C3.5086 7.35821 3.33301 7.78213 3.33301 8.22416V15.7242C3.33301 16.1662 3.5086 16.5901 3.82116 16.9027C4.13372 17.2152 4.55765 17.3908 4.99967 17.3908H12.4997C12.9417 17.3908 13.3656 17.2152 13.6782 16.9027C13.9907 16.5901 14.1663 16.1662 14.1663 15.7242V13.2242M13.333 4.89083L15.833 7.39083M7.49967 13.2241H9.99967L17.083 6.14081C17.4145 5.80929 17.6008 5.35965 17.6008 4.89081C17.6008 4.42197 17.4145 3.97233 17.083 3.64081C16.7515 3.30929 16.3018 3.12305 15.833 3.12305C15.3642 3.12305 14.9145 3.30929 14.583 3.64081L7.49967 10.7241V13.2241Z" stroke="currentColor" stroke-width="1.25" stroke-linecap="round" stroke-linejoin="round"/>
</svg>