<svg xmlns="http://www.w3.org/2000/svg" width="16" height="16" viewBox="0 0 16 16" fill="none">
  <path d="M13.9255 2.25C13.9255 2.16667 13.8511 2.08333 13.7766 2C13.6277 2 13.4788 2 13.3299 2C13.3299 2 2.90547 6.16667 2.30979 6.66667C2.08641 6.83333 2.08641 6.91667 2.01195 6.91667C1.93749 7.25 2.23533 7.41667 2.23533 7.41667L4.91589 8.41667C4.99035 8.41667 4.99035 8.41667 5.06481 8.41667C5.66049 8 11.245 4.08333 11.5428 3.91667C11.6173 3.91667 11.6173 3.91667 11.6173 3.91667C11.4684 4.41667 6.70293 9.16667 6.70293 9.25C6.70293 9.25 6.62847 9.33333 6.70293 9.33333L6.47955 12.25C6.47955 12.25 6.40509 13.1667 7.22415 12.25C7.81983 11.5833 8.34104 11.0833 8.63888 10.8333C9.5324 11.5833 10.5748 12.3333 11.0216 12.75C11.1705 12.9167 11.3939 13 11.5428 13C11.7662 13 11.9896 12.75 12.064 12.5C12.064 12.5 14 3.91667 14 2.75C14 2.66667 14 2.58333 14 2.5C13.9255 2.41667 13.9255 2.33333 13.9255 2.25Z" fill="currentColor"/>
</svg>