<svg xmlns="http://www.w3.org/2000/svg" width="44" height="46" viewBox="0 0 44 46" fill="none">
  <path fill-rule="evenodd" clip-rule="evenodd" d="M36.7019 44.5566C35.6239 45.3422 34.3412 45.8411 32.768 45.8411C29.1656 45.8411 26.3061 42.7341 26.3061 39.0889C26.3061 37.5157 26.8032 36.2311 27.5926 34.9465C27.8402 35.9835 28.3781 37.0186 28.8752 38.0537C30.1989 40.3715 32.0234 42.4846 33.8441 43.5215C34.8792 44.0186 35.9162 44.2661 36.7019 44.5566ZM11.232 0.158936H16.1599C16.4075 0.158936 16.6589 0.654133 16.6589 1.19216V20.6599L10.6939 26.1259V1.19216C10.6939 0.654133 10.9415 0.158936 11.232 0.158936ZM20.0546 1.19216C20.0546 0.654133 20.3022 0.158936 20.5926 0.158936H25.768C26.0175 0.158936 26.3061 0.654133 26.3061 1.19216V12.6248H26.0176V12.8724H25.5204V13.1238H25.2301V13.4123H24.7348V13.6618L20.0546 17.5527V1.19216ZM43.9513 8.98153C43.9513 8.19218 43.7018 7.69503 43.1619 7.157C42.6667 6.66179 41.8792 6.37137 41.0936 6.37137C40.0567 6.37137 39.5614 6.66179 38.7739 7.157L31.733 13.4123C30.9883 12.8724 29.9103 12.6248 28.8752 12.6248C27.3412 12.6248 26.0176 13.1238 24.9806 13.9076L0.838094 35.1961C0.545808 35.7359 0.0488281 36.2312 0.0488281 37.2663C0.0488281 37.8043 0.298235 38.3032 0.545841 39.3383C1.33148 40.6619 2.65888 41.6989 3.40542 42.1959C4.43867 43.5215 6.80117 45.3422 9.12084 45.3422C9.90648 45.3422 10.6939 45.0536 11.232 44.5566L35.3763 22.9777C37.1989 21.4455 37.4484 19.1258 35.9162 17.0128L43.1619 10.8022C43.7018 10.2642 43.9513 9.76717 43.9513 8.98153ZM1.08569 0.946384C1.08569 0.406492 1.33149 0.158936 1.58282 0.158936H6.55169C6.80116 0.158936 7.04871 0.406492 7.04871 0.946384V29.233L1.08569 34.658V0.946384ZM32.768 32.5878C36.4132 32.5878 39.271 35.4455 39.271 39.0889C39.271 41.1609 38.4816 42.734 37.1989 44.0185C36.4132 44.0185 35.1306 43.5215 34.0936 42.9835C32.5186 41.9465 30.6978 40.124 29.4133 37.8043C28.8752 36.771 28.3782 35.7359 28.086 34.658C29.1657 33.3735 30.9882 32.5878 32.768 32.5878Z" fill="#F8FAFC"/>
</svg>