<svg xmlns="http://www.w3.org/2000/svg" width="24" height="24" viewBox="0 0 24 24" fill="none">
  <path d="M17 17V19C17 19.5304 16.7893 20.0391 16.4142 20.4142C16.0391 20.7893 15.5304 21 15 21H5C4.46957 21 3.96086 20.7893 3.58579 20.4142C3.21071 20.0391 3 19.5304 3 19V9C3 8.46957 3.21071 7.96086 3.58579 7.58579C3.96086 7.21071 4.46957 7 5 7H7M9 3H19C20.1046 3 21 3.89543 21 5V15C21 16.1046 20.1046 17 19 17H9C7.89543 17 7 16.1046 7 15V5C7 3.89543 7.89543 3 9 3Z" stroke="#84CC16" stroke-width="2" stroke-linecap="round" stroke-linejoin="round"/>
</svg>