<svg xmlns="http://www.w3.org/2000/svg" width="24" height="24" viewBox="0 0 24 24" fill="none">
  <path d="M21.4263 12.268C21.4657 14.4729 20.6782 16.7172 19.2608 18.489C17.8433 20.2608 15.7566 21.442 13.5123 21.8357C11.268 22.2688 8.86627 21.8357 6.89761 20.6545C4.88958 19.5127 3.31466 17.6228 2.56657 15.4179C1.81848 13.213 1.7791 10.7325 2.64531 8.52758C3.51152 6.32269 5.12582 4.43278 7.25197 3.25158C8.31504 2.66099 9.45686 2.30663 10.6381 2.10976C11.8192 1.95227 13.0398 1.95227 14.221 2.18851C16.5834 2.66099 18.7883 4.03905 20.2845 5.96833C20.6782 6.48018 20.5995 7.22827 20.0876 7.622C19.5758 8.01573 18.8277 7.93698 18.4339 7.42513C18.4339 7.42513 18.4339 7.38576 18.3946 7.38576C17.2921 5.85021 15.6384 4.70839 13.7485 4.27528C12.8036 4.03905 11.8586 3.99967 10.8743 4.07842C9.92934 4.19654 8.98439 4.43278 8.11818 4.90525C6.38576 5.77146 4.92895 7.30701 4.18086 9.11818C3.3934 10.9293 3.31466 13.0555 3.90525 14.9454C4.49585 16.8747 5.79516 18.5677 7.52758 19.6308C9.22062 20.7332 11.3468 21.2057 13.3942 20.8907C15.4416 20.6151 17.3709 19.5914 18.7489 18.0165C20.127 16.4416 20.9538 14.3942 20.9932 12.268C20.9932 12.1499 21.1113 12.0318 21.2294 12.0318C21.3082 12.0318 21.4263 12.1499 21.4263 12.268Z" fill="#010207"/>
</svg>