<svg xmlns="http://www.w3.org/2000/svg" width="24" height="25" viewBox="0 0 24 25" fill="none">
  <path d="M7.5 8.375C11 7.375 13 7.375 16.5 8.375M7 17.375C10.5 18.375 13.5 18.375 17 17.375M15.5 17.875C15.5 18.875 17 20.875 17.5 20.875C19 20.875 20.333 19.208 21 17.875C21.667 16.208 21.5 12.042 19.5 6.375C18.043 5.36 16.5 5.035 15 4.875L14 7.375M8.49999 17.875C8.49999 18.875 7.14399 20.875 6.66799 20.875C5.23899 20.875 3.96999 19.208 3.33499 17.875C2.69999 16.208 2.85899 12.042 4.76299 6.375C6.15099 5.36 7.54499 5.035 8.99999 4.875L9.99999 7.375M10 12.875C10 13.4273 9.55228 13.875 9 13.875C8.44772 13.875 8 13.4273 8 12.875C8 12.3227 8.44772 11.875 9 11.875C9.55228 11.875 10 12.3227 10 12.875ZM16 12.875C16 13.4273 15.5523 13.875 15 13.875C14.4477 13.875 14 13.4273 14 12.875C14 12.3227 14.4477 11.875 15 11.875C15.5523 11.875 16 12.3227 16 12.875Z" stroke="currentColor" stroke-width="2" stroke-linecap="round" stroke-linejoin="round"/>
</svg>