<svg xmlns="http://www.w3.org/2000/svg" width="24" height="24" viewBox="0 0 24 24" fill="none">
  <path d="M12.1896 4.5C7.94366 4.5 4.5 7.94302 4.5 12.1896C4.5 15.5871 6.70307 18.4694 9.75905 19.4864C10.1429 19.5575 10.2672 19.3191 10.2672 19.1167V17.6851C8.12821 18.1503 7.68285 16.7777 7.68285 16.7777C7.33298 15.8889 6.82867 15.6525 6.82867 15.6525C6.13084 15.1751 6.88185 15.1853 6.88185 15.1853C7.65402 15.2392 8.06029 15.978 8.06029 15.978C8.74594 17.1532 9.85901 16.8136 10.298 16.6169C10.3665 16.1203 10.5658 15.7806 10.7863 15.589C9.07852 15.3936 7.283 14.7342 7.283 11.7885C7.283 10.9484 7.58353 10.2627 8.07502 9.72444C7.99557 9.53028 7.7322 8.74786 8.15 7.68926C8.15 7.68926 8.79592 7.48292 10.2653 8.47745C10.8785 8.30699 11.536 8.22177 12.1896 8.21856C12.8432 8.22177 13.5013 8.30699 14.1158 8.47745C15.5839 7.48292 16.2286 7.68926 16.2286 7.68926C16.647 8.74851 16.3836 9.53092 16.3042 9.72444C16.7976 10.2627 17.0956 10.949 17.0956 11.7885C17.0956 14.7419 15.2968 15.3923 13.5846 15.5826C13.8602 15.821 14.112 16.2888 14.112 17.0065V19.1167C14.112 19.3211 14.235 19.5614 14.6253 19.4858C17.6787 18.4675 19.8792 15.5858 19.8792 12.1896C19.8792 7.94302 16.4362 4.5 12.1896 4.5Z" fill="currentColor"/>
</svg>