<svg xmlns="http://www.w3.org/2000/svg" width="39" height="39" viewBox="0 0 39 39" fill="none">
  <path d="M33.9981 11.5227C36.1961 15.3909 37.2951 17.325 37.2805 19.4403C37.266 21.5557 36.1405 23.4745 33.8895 27.3121L33.4074 28.1341C31.1564 31.9717 30.0309 33.8906 28.1917 34.9356C26.3524 35.9807 24.128 35.9654 19.679 35.9349L18.7261 35.9283C14.2771 35.8977 12.0526 35.8824 10.2279 34.8121C8.40322 33.7418 7.30423 31.8077 5.10625 27.9395L4.63545 27.111C2.43748 23.2428 1.33849 21.3087 1.35303 19.1933C1.36758 17.0779 2.49307 15.1591 4.74403 11.3215L5.22618 10.4995C7.47715 6.66188 8.60264 4.74308 10.4419 3.69799C12.2811 2.65289 14.5056 2.66818 18.9546 2.69878L19.9075 2.70533C24.3565 2.73593 26.5809 2.75122 28.4056 3.82152C30.2304 4.89181 31.3293 6.82591 33.5273 10.6941L33.9981 11.5227Z" fill="#334155"/>
  <path d="M21.3559 9.37598H18.4505H13.7574C13.7222 9.37598 13.689 9.39222 13.6674 9.42L12.1148 11.4173C11.3675 12.3701 10.3315 13.6918 9.81257 14.3544L8.89339 15.5281C8.87768 15.5481 8.86914 15.5729 8.86915 15.5984L8.87014 19.1413L8.87114 22.684C8.87114 22.7096 8.87974 22.7344 8.89556 22.7545L10.3787 24.6382C11.1837 25.6606 12.333 27.2641 12.3993 27.3568C12.4015 27.3598 12.4035 27.3624 12.406 27.3652L14.1007 29.3051C14.1223 29.3299 14.1536 29.3441 14.1865 29.3441H18.4552H21.3475H24.1919C24.2225 29.3441 24.2519 29.3318 24.2733 29.3099L24.3627 29.2188C24.5003 29.0783 28.9794 23.3527 29.8362 22.2572C29.8942 22.1829 29.8415 22.0754 29.7472 22.0744C29.2145 22.0686 27.8155 22.056 26.1847 22.0609L22.4474 22.0724C22.4127 22.0726 22.3799 22.0885 22.3583 22.1158L20.4405 24.5467C19.5583 25.6648 18.49 27.1455 18.137 27.638C18.0847 27.7109 18.1342 27.811 18.2238 27.8143C18.3858 27.8204 18.6286 27.8272 18.8988 27.8272H19.7224C19.7586 27.8272 19.7927 27.8099 19.8142 27.7807L21.6607 25.2672C22.4359 24.2787 23.1113 23.4584 23.1614 23.4443C23.2839 23.41 26.1071 23.4201 26.6336 23.4568L26.837 23.471C26.9282 23.4773 26.9752 23.5831 26.9187 23.655L25.3896 25.6047C24.4756 26.77 23.684 27.7701 23.6304 27.8272L23.5668 27.8949C23.5452 27.9179 23.5152 27.9309 23.4837 27.9309H19.2556H15.0323C14.998 27.9309 14.9656 27.9154 14.9439 27.8888L10.4043 22.3092C10.3877 22.2889 10.3787 22.2635 10.3787 22.2373V16.0033C10.3787 15.9776 10.3874 15.9527 10.4033 15.9325L14.4424 10.8325C14.464 10.8052 14.4969 10.7892 14.5318 10.7892H19.2783H23.523C23.558 10.7892 23.5911 10.8054 23.6127 10.833L25.283 12.9661C26.2204 14.1634 27.0036 15.1499 27.0234 15.1582C27.215 15.2393 26.8293 15.2566 25.0666 15.2461L23.1286 15.2345C23.094 15.2343 23.0614 15.2184 23.0399 15.1913L21.7387 13.5474C21.0043 12.6197 19.7571 11.0976 19.6966 11.0286L19.6207 10.942C19.5991 10.9174 19.5678 10.9032 19.535 10.9032H18.7126C18.4513 10.9032 18.2203 10.9141 18.0639 10.924C17.9734 10.9298 17.9284 11.0329 17.9851 11.1036C18.374 11.5876 19.5472 13.0493 20.4401 14.1769L22.3803 16.6271C22.402 16.6544 22.4349 16.6703 22.4697 16.6703H26.2241H29.7944C29.8903 16.6703 29.9433 16.559 29.8829 16.4845L29.8764 16.4765C29.7899 16.3699 28.5433 14.7852 27.1061 12.9547C25.6688 11.1243 24.4408 9.57028 24.3771 9.50135L24.2951 9.41262C24.2736 9.38926 24.2432 9.37598 24.2114 9.37598H21.3559Z" fill="#94A3B8" stroke="#94A3B8" stroke-width="1.39301"/>
</svg>