<svg width="24" height="25" viewBox="0 0 24 25" fill="none" xmlns="http://www.w3.org/2000/svg">
<g clip-path="url(#clip0_967_1512)">
<path d="M6.76884 5.40942C10.5072 5.40942 13.5374 8.46085 13.5374 12.2247C13.5374 15.9886 10.5069 19.0398 6.76884 19.0398C3.03073 19.0398 0 15.9886 0 12.2247C0 8.46085 3.0305 5.40942 6.76884 5.40942ZM17.5782 5.80865C19.4474 5.80865 20.9626 8.68093 20.9626 12.2247H20.9628C20.9628 15.7676 19.4476 18.6408 17.5784 18.6408C15.7092 18.6408 14.194 15.7676 14.194 12.2247C14.194 8.68185 15.709 5.80865 17.5782 5.80865ZM22.8097 6.47693C23.4669 6.47693 24 9.05025 24 12.2247C24 15.3983 23.4672 17.9725 22.8097 17.9725C22.1522 17.9725 21.6196 15.3989 21.6196 12.2247C21.6196 9.05048 22.1524 6.47693 22.8097 6.47693Z" fill="#64748B"/>
</g>
<defs>
<clipPath id="clip0_967_1512">
<rect width="24" height="24" fill="white" transform="translate(0 0.253174)"/>
</clipPath>
</defs>
</svg>
