<svg xmlns="http://www.w3.org/2000/svg" width="24" height="25" viewBox="0 0 24 25" fill="none">
  <path d="M20.143 5.69886C20.143 5.59091 20.0359 5.48295 19.9289 5.375C19.7148 5.375 19.5007 5.375 19.2867 5.375C19.2867 5.375 4.30161 10.7727 3.44532 11.4205C3.12421 11.6364 3.12421 11.7443 3.01718 11.7443C2.91014 12.1761 3.33829 12.392 3.33829 12.392L7.19159 13.6875C7.29862 13.6875 7.29862 13.6875 7.40566 13.6875C8.26195 13.1477 16.2897 8.07386 16.7178 7.85795C16.8248 7.85795 16.8248 7.85795 16.8248 7.85795C16.6108 8.50568 9.76046 14.6591 9.76046 14.767C9.76046 14.767 9.65342 14.875 9.76046 14.875L9.43935 18.6534C9.43935 18.6534 9.33231 19.8409 10.5097 18.6534C11.366 17.7898 12.1153 17.142 12.5434 16.8182C13.8278 17.7898 15.3263 18.7614 15.9686 19.3011C16.1826 19.517 16.5037 19.625 16.7178 19.625C17.0389 19.625 17.36 19.3011 17.4671 18.9773C17.4671 18.9773 20.25 7.85795 20.25 6.34659C20.25 6.23864 20.25 6.13068 20.25 6.02273C20.143 5.91477 20.143 5.80682 20.143 5.69886Z" fill="currentColor"/>
</svg>