<svg xmlns="http://www.w3.org/2000/svg" width="18" height="18" viewBox="0 0 18 18" fill="none">
  <g clip-path="url(#clip0_17324_3821)">
    <path d="M12.75 1.50003H14.7525C15.177 1.49252 15.5894 1.64113 15.9116 1.91764C16.2337 2.19415 16.4431 2.57932 16.5 3.00003V8.25003C16.4431 8.67073 16.2337 9.0559 15.9116 9.33241C15.5894 9.60893 15.177 9.75753 14.7525 9.75003H12.75M7.50002 11.25V14.25C7.50002 14.8468 7.73708 15.4191 8.15903 15.841C8.58099 16.263 9.15329 16.5 9.75002 16.5L12.75 9.75003V1.50003H4.29002C3.92828 1.49594 3.57724 1.62272 3.30159 1.85702C3.02595 2.09132 2.84427 2.41735 2.79002 2.77503L1.75502 9.52503C1.72239 9.74001 1.73689 9.95952 1.79752 10.1683C1.85814 10.3772 1.96345 10.5703 2.10613 10.7344C2.24881 10.8985 2.42546 11.0296 2.62384 11.1186C2.82222 11.2076 3.03759 11.2525 3.25502 11.25H7.50002Z" stroke="#64748B" stroke-width="1.5" stroke-linecap="round" stroke-linejoin="round"/>
  </g>
  <defs>
    <clipPath id="clip0_17324_3821">
      <rect width="18" height="18" fill="white"/>
    </clipPath>
  </defs>
</svg>