<svg width="20" height="21" viewBox="0 0 20 21" fill="none" xmlns="http://www.w3.org/2000/svg">
<path d="M19.4262 10.768C19.4655 12.9729 18.6781 15.2172 17.2606 16.989C15.8432 18.7608 13.7564 19.942 11.5122 20.3357C9.2679 20.7688 6.86614 20.3357 4.89749 19.1545C2.88946 18.0127 1.31453 16.1228 0.566445 13.9179C-0.181644 11.713 -0.221017 9.23248 0.645191 7.02758C1.5114 4.82269 3.1257 2.93278 5.25185 1.75158C6.31492 1.16099 7.45674 0.806628 8.63793 0.609762C9.81913 0.45227 11.0397 0.45227 12.2209 0.688509C14.5833 1.16099 16.7882 2.53905 18.2843 4.46833C18.6781 4.98018 18.5993 5.72827 18.0875 6.122C17.5756 6.51573 16.8275 6.43698 16.4338 5.92513C16.4338 5.92513 16.4338 5.88576 16.3944 5.88576C15.292 4.35021 13.6383 3.20839 11.7484 2.77528C10.8035 2.53905 9.8585 2.49967 8.87417 2.57842C7.92922 2.69654 6.98426 2.93278 6.11805 3.40525C4.38564 4.27146 2.92883 5.80701 2.18074 7.61818C1.39328 9.42934 1.31453 11.5555 1.90513 13.4454C2.49573 15.3747 3.79504 17.0677 5.52746 18.1308C7.2205 19.2332 9.34665 19.7057 11.3941 19.3907C13.4415 19.1151 15.3707 18.0914 16.7488 16.5165C18.1269 14.9416 18.9537 12.8942 18.9931 10.768C18.9931 10.6499 19.1112 10.5318 19.2293 10.5318C19.308 10.5318 19.4262 10.6499 19.4262 10.768Z" fill="#F8FAFC"/>
</svg>
