<svg xmlns="http://www.w3.org/2000/svg" width="19" height="18" viewBox="0 0 19 18" fill="none">
  <path fill-rule="evenodd" clip-rule="evenodd" d="M8.57192 4.5625C8.57192 4.25184 8.82376 4 9.13442 4C11.9701 4 14.2688 6.29876 14.2688 9.13442C14.2688 11.9701 11.9701 14.2688 9.13442 14.2688C6.29876 14.2688 4 11.9701 4 9.13442C4 8.31573 4.19203 7.54028 4.53401 6.85212C4.67226 6.57392 5.00987 6.46047 5.28807 6.59873C5.56627 6.73698 5.67972 7.07458 5.54146 7.35279C5.27506 7.88885 5.125 8.4933 5.125 9.13442C5.125 11.3488 6.92008 13.1438 9.13442 13.1438C11.3488 13.1438 13.1438 11.3488 13.1438 9.13442C13.1438 6.92008 11.3488 5.125 9.13442 5.125C8.82376 5.125 8.57192 4.87316 8.57192 4.5625Z" fill="currentColor"/>
</svg>