<svg xmlns="http://www.w3.org/2000/svg" width="11" height="14" viewBox="0 0 11 14" fill="none">
  <path fill-rule="evenodd" clip-rule="evenodd" d="M5.15989 0.199369C5.14813 0.0860786 5.05266 0 4.93876 0C4.82486 0 4.72938 0.0860786 4.71762 0.199369L4.54189 1.89226C4.47021 2.58278 3.92442 3.12857 3.2339 3.20025L1.54101 3.37599C1.42772 3.38775 1.34164 3.48322 1.34164 3.59712C1.34164 3.71102 1.42772 3.8065 1.54101 3.81826L3.2339 3.99399C3.92441 4.06567 4.47021 4.61146 4.54189 5.30198L4.71762 6.99487C4.72938 7.10816 4.82486 7.19424 4.93876 7.19424C5.05266 7.19424 5.14813 7.10816 5.15989 6.99487L5.33563 5.30198C5.40731 4.61146 5.9531 4.06567 6.64362 3.99399L8.33651 3.81826C8.4498 3.8065 8.53588 3.71102 8.53588 3.59712C8.53588 3.48322 8.4498 3.38775 8.33651 3.37599L6.64362 3.20025C5.9531 3.12857 5.40731 2.58278 5.33563 1.89226L5.15989 0.199369Z" fill="url(#paint0_linear_17322_3570)"/>
  <path fill-rule="evenodd" clip-rule="evenodd" d="M8.56395 10.5026C8.55807 10.4459 8.51033 10.4029 8.45338 10.4029C8.39643 10.4029 8.3487 10.4459 8.34282 10.5026L8.25495 11.349C8.21911 11.6943 7.94621 11.9672 7.60095 12.003L6.75451 12.0909C6.69786 12.0968 6.65482 12.1445 6.65482 12.2015C6.65482 12.2584 6.69786 12.3061 6.75451 12.312L7.60095 12.3999C7.94621 12.4357 8.21911 12.7086 8.25495 13.0539L8.34282 13.9003C8.3487 13.957 8.39643 14 8.45338 14C8.51033 14 8.55807 13.957 8.56395 13.9003L8.65182 13.0539C8.68766 12.7086 8.96056 12.4357 9.30581 12.3999L10.1523 12.312C10.2089 12.3061 10.2519 12.2584 10.2519 12.2015C10.2519 12.1445 10.2089 12.0968 10.1523 12.0909L9.30581 12.003C8.96056 11.9672 8.68766 11.6943 8.65182 11.349L8.56395 10.5026Z" fill="url(#paint1_linear_17322_3570)"/>
  <path fill-rule="evenodd" clip-rule="evenodd" d="M1.90913 8.43483C1.90325 8.37818 1.85551 8.33514 1.79856 8.33514C1.74161 8.33514 1.69387 8.37818 1.68799 8.43483L1.60012 9.28127C1.56428 9.62653 1.29139 9.89943 0.94613 9.93527L0.0996843 10.0231C0.0430393 10.029 0 10.0768 0 10.1337C0 10.1907 0.0430393 10.2384 0.0996843 10.2443L0.94613 10.3321C1.29139 10.368 1.56428 10.6409 1.60012 10.9861L1.68799 11.8326C1.69387 11.8892 1.74161 11.9323 1.79856 11.9323C1.85551 11.9323 1.90325 11.8892 1.90913 11.8326L1.997 10.9861C2.03284 10.6409 2.30573 10.368 2.65099 10.3321L3.49744 10.2443C3.55408 10.2384 3.59712 10.1907 3.59712 10.1337C3.59712 10.0768 3.55408 10.029 3.49744 10.0231L2.65099 9.93527C2.30573 9.89943 2.03284 9.62653 1.997 9.28127L1.90913 8.43483Z" fill="url(#paint2_linear_17322_3570)"/>
  <defs>
    <linearGradient id="paint0_linear_17322_3570" x1="0.0362297" y1="0.0817527" x2="11.5608" y2="0.310966" gradientUnits="userSpaceOnUse">
      <stop stop-color="#8148F9"/>
      <stop offset="0.425" stop-color="#E989C3"/>
      <stop offset="0.96" stop-color="#D83F3F"/>
    </linearGradient>
    <linearGradient id="paint1_linear_17322_3570" x1="6.00212" y1="10.4438" x2="11.7644" y2="10.5584" gradientUnits="userSpaceOnUse">
      <stop stop-color="#8148F9"/>
      <stop offset="0.425" stop-color="#E989C3"/>
      <stop offset="0.96" stop-color="#D83F3F"/>
    </linearGradient>
    <linearGradient id="paint2_linear_17322_3570" x1="-0.652703" y1="8.37602" x2="5.10959" y2="8.49063" gradientUnits="userSpaceOnUse">
      <stop stop-color="#8148F9"/>
      <stop offset="0.425" stop-color="#E989C3"/>
      <stop offset="0.96" stop-color="#D83F3F"/>
    </linearGradient>
  </defs>
</svg>