<svg width="108" height="51" viewBox="0 0 108 51" fill="none" xmlns="http://www.w3.org/2000/svg">
<rect width="46.1823" height="30.8867" transform="matrix(0.958745 -0.284269 0.247909 0.968783 55.126 20.1327)" fill="#84CC17"/>
<path d="M70.1527 36.985L67.6568 27.2315L74.1789 25.2977L74.555 26.7675L69.7691 28.1866L70.3965 30.6385L74.6328 29.3824L75.0107 30.859L70.7743 32.1151L71.8888 36.4702L70.1527 36.985ZM76.0514 35.236L77.4031 24.3418L79.481 23.7257L85.8111 32.3423L83.9476 32.8948L78.7993 25.4581L77.9149 34.6835L76.0514 35.236ZM77.609 31.6845L77.2467 30.2689L82.4081 28.7385L82.7703 30.1541L77.609 31.6845ZM86.9104 32.0163L84.4145 22.2629L86.8812 21.5315L93.7638 28.8694L93.2983 29.0511L91.0572 20.2933L92.7195 19.8004L95.2154 29.5539L92.8425 30.2574L85.8338 22.906L86.3177 22.7115L88.5727 31.5235L86.9104 32.0163Z" fill="#1E293B"/>
<path d="M100.578 4.79677L103.35 18.4766L85.3885 10.7866L100.578 4.79677Z" fill="#2D0D38"/>
<rect x="0.93331" y="0.81869" width="60.3924" height="29.0969" transform="matrix(0.996458 -0.0840908 0.0464516 0.998921 -0.0347238 16.8402)" fill="#C8CC16"/>
<rect x="0.93331" y="0.81869" width="60.3924" height="29.0969" transform="matrix(0.996458 -0.0840908 0.0464516 0.998921 -0.0347238 16.8402)" stroke="#111126" stroke-width="1.78982"/>
<path d="M11.3034 36.3084L10.8358 26.2515L17.7328 25.6695L17.8033 27.185L12.7106 27.6148L12.8266 30.108L17.2017 29.7388L17.2702 31.2124L12.8951 31.5817L13.0373 34.6406L18.2276 34.2026L18.298 35.7181L11.3034 36.3084ZM18.939 35.664L22.4702 25.2697L24.6299 25.0875L29.0825 34.808L27.1458 34.9715L23.6113 26.6458L20.8757 35.5006L18.939 35.664ZM21.1839 32.5018L21.116 31.0421L26.4804 30.5895L26.5483 32.0491L21.1839 32.5018ZM30.225 34.7116L29.7574 24.6548L34.1325 24.2855C36.4965 24.086 37.7221 24.9221 37.8091 26.7938C37.8966 28.6748 36.7049 29.7196 34.234 29.9281L31.8235 30.1315L32.0294 34.5593L30.225 34.7116ZM36.2095 34.2066L33.1799 29.5193L35.1933 29.3494L38.2437 34.0349L36.2095 34.2066ZM31.757 28.6998L34.251 28.4894C34.8316 28.4404 35.2721 28.2863 35.5724 28.0273C35.8772 27.7632 36.0192 27.4076 35.9984 26.9607C35.9776 26.5137 35.8014 26.1827 35.4696 25.9676C35.1426 25.7521 34.6864 25.6691 34.1012 25.7185L31.628 25.9272L31.757 28.6998ZM39.8391 33.9003L39.3715 23.8434L41.1758 23.6912L41.573 32.2325L46.4776 31.8186L46.5481 33.3341L39.8391 33.9003ZM48.8401 33.1407L48.6576 29.2157L44.8891 23.3778L46.798 23.2167L49.6829 27.9513L49.3346 27.9807L51.7583 22.7981L53.6602 22.6376L50.4617 29.0565L50.6445 32.9884L48.8401 33.1407Z" fill="#1E293B"/>
</svg>
