<svg width="149" height="152" viewBox="0 0 149 152" fill="none" xmlns="http://www.w3.org/2000/svg">
<g clip-path="url(#clip0_14118_7915)">
<path d="M69.4622 67.6396C74.0571 70.2417 77.8841 69.4823 83.6063 68.5476C89.3285 67.6129 79.5503 67.4698 74.4214 66.5668C70.6115 65.8918 62.3172 63.5807 69.4622 67.6396Z" fill="#FFDBFB"/>
<path d="M30.0121 54.2657C29.1093 52.8382 38.7666 56.7548 36.1149 56.6597C33.4633 56.5645 31.1257 56.0385 30.0121 54.2657Z" fill="#FFDBFB"/>
<mask id="mask0_14118_7915" style="mask-type:luminance" maskUnits="userSpaceOnUse" x="24" y="51" width="110" height="92">
<path d="M25.6734 56.8191C25.1081 68.2922 23.6028 103.046 26.3904 120.773C26.4872 121.362 26.7106 121.923 27.0451 122.417C27.3797 122.911 27.8174 123.326 28.3282 123.635C32.8555 126.426 46.5977 134.359 67.4829 141.55C69.0913 142.094 70.7838 142.348 72.4811 142.298C79.1773 142.121 97.3147 141.378 109.062 138.506C109.695 138.358 110.282 138.06 110.775 137.636C111.268 137.213 111.651 136.677 111.892 136.074C114.931 128.275 126.983 96.7442 133.237 70.9292C133.513 69.9042 133.385 68.8127 132.88 67.8794C132.374 66.946 131.531 66.2418 130.522 65.9119C122.138 63.2827 100.581 56.6723 81.5347 52.2234L80.8127 52.1067C77.3948 51.9395 51.5989 50.793 29.4182 52.8089C28.4091 52.8971 27.4682 53.3555 26.7769 54.0959C26.0855 54.8363 25.6924 55.8062 25.6734 56.8191Z" fill="white"/>
</mask>
<g mask="url(#mask0_14118_7915)">
<g opacity="0.75">
<path d="M25.6758 56.802C25.1034 68.274 23.6064 103.022 26.3868 120.748C26.4866 121.338 26.7125 121.901 27.0492 122.396C27.3859 122.892 27.8254 123.309 28.3378 123.619C32.993 126.49 47.3681 134.77 69.1905 142.075C69.6403 142.233 70.1145 142.31 70.5912 142.302C74.7365 142.231 95.8795 141.684 109.067 138.474C109.701 138.324 110.289 138.023 110.782 137.597C111.275 137.171 111.658 136.633 111.899 136.028C114.947 128.216 126.989 96.7055 133.242 70.8977C133.52 69.8708 133.392 68.7765 132.885 67.8411C132.379 66.9057 131.532 66.2008 130.521 65.872C122.131 63.2344 100.588 56.6263 81.5444 52.2075L80.8224 52.0908C77.3889 51.9285 51.6085 50.7771 29.4351 52.7942C28.4238 52.879 27.4797 53.3356 26.7854 54.0758C26.0911 54.816 25.6958 55.7873 25.6758 56.802Z" fill="url(#paint0_linear_14118_7915)"/>
<mask id="mask1_14118_7915" style="mask-type:luminance" maskUnits="userSpaceOnUse" x="24" y="51" width="110" height="92">
<path d="M25.6758 56.7949C25.1034 68.2669 23.6064 103.015 26.3868 120.741C26.4866 121.331 26.7125 121.894 27.0492 122.389C27.3859 122.885 27.8254 123.302 28.3378 123.612C32.993 126.483 47.3681 134.763 69.1905 142.068C69.6403 142.226 70.1145 142.303 70.5912 142.294C74.7365 142.224 95.8795 141.677 109.067 138.467C109.701 138.317 110.289 138.016 110.782 137.59C111.275 137.164 111.658 136.626 111.899 136.021C114.947 128.209 126.989 96.6985 133.242 70.8906C133.52 69.8637 133.392 68.7694 132.885 67.834C132.379 66.8987 131.532 66.1937 130.521 65.8649C122.131 63.2273 100.588 56.6193 81.5444 52.2004L80.8224 52.0837C77.3889 51.9214 51.6085 50.77 29.4351 52.7871C28.4238 52.8719 27.4797 53.3285 26.7854 54.0687C26.0911 54.8089 25.6958 55.7802 25.6758 56.7949Z" fill="white"/>
</mask>
<g mask="url(#mask1_14118_7915)">
<g style="mix-blend-mode:screen" opacity="0.51">
<path d="M70.7968 131.217C70.2096 131.121 69.6342 130.964 69.0799 130.747L19.8924 111.515L22.5427 104.742L71.7326 123.96C71.8733 124.013 72.0229 124.037 72.173 124.031L127.672 122.459C127.932 122.451 128.181 122.354 128.378 122.183C128.574 122.012 128.706 121.779 128.749 121.522C128.777 121.361 128.768 121.195 128.723 121.038C128.677 120.88 128.598 120.735 128.489 120.613C128.385 120.486 128.253 120.384 128.103 120.316C127.953 120.249 127.79 120.216 127.626 120.222L72.7873 120.827C71.7872 120.846 70.7917 120.686 69.8488 120.352L18.0443 101.726C16.0664 101.026 14.4241 99.6075 13.4434 97.7527C12.4627 95.8979 12.2154 93.7421 12.7505 91.7134L14.8698 83.551C15.1625 82.4394 15.6794 81.3994 16.3887 80.4948C17.098 79.5903 17.9848 78.8403 18.9945 78.2909C20.0067 77.7434 21.1204 77.4093 22.2668 77.3092C23.4133 77.209 24.568 77.345 25.6598 77.7087L74.4375 94.023C74.5542 94.0605 74.6759 94.0801 74.7985 94.0813L134.763 93.8456C135.05 93.8444 135.325 93.7333 135.532 93.5352C135.739 93.3371 135.862 93.0671 135.876 92.7809L135.969 90.8327C135.976 90.6791 135.951 90.5257 135.897 90.3819C135.842 90.2381 135.759 90.1071 135.652 89.9967C135.545 89.8864 135.416 89.7992 135.274 89.7405C135.132 89.6817 134.979 89.6527 134.826 89.6552L77.0059 90.8747C76.0233 90.8897 75.0457 90.7317 74.1179 90.4079L16.6575 71.0234L18.9862 64.1321L76.4732 83.5357C76.5964 83.5779 76.7257 83.5988 76.8559 83.5976L134.676 82.3781C135.826 82.3546 136.969 82.5677 138.033 83.0042C139.098 83.4408 140.061 84.0914 140.863 84.9158C141.666 85.7402 142.29 86.7207 142.698 87.7965C143.106 88.8724 143.288 90.0205 143.234 91.1697L143.148 93.1191C143.05 95.2664 142.132 97.2941 140.583 98.7845C139.034 100.275 136.972 101.115 134.823 101.13L74.8655 101.367C73.9473 101.374 73.0345 101.227 72.1653 100.931L23.39 84.6021C23.2445 84.5547 23.0909 84.5373 22.9385 84.5508C22.786 84.5644 22.6379 84.6087 22.5031 84.681C22.3678 84.7542 22.2491 84.8544 22.1544 84.9755C22.0596 85.0965 21.9908 85.2359 21.9522 85.3847L19.7968 93.5412C19.7244 93.8125 19.7573 94.1012 19.889 94.3493C20.0207 94.5973 20.2414 94.7863 20.5068 94.8783L72.3208 113.491C72.4464 113.534 72.5781 113.555 72.7107 113.554L127.508 112.972C129.735 112.928 131.887 113.771 133.493 115.314C135.098 116.857 136.025 118.975 136.069 121.201C136.113 123.427 135.27 125.58 133.727 127.185C132.184 128.791 130.066 129.717 127.84 129.761L72.3747 131.31C71.847 131.33 71.3185 131.299 70.7968 131.217Z" fill="#B500E0"/>
</g>
<g style="mix-blend-mode:screen">
<path d="M80.7539 150.153L80.943 148.983C85.5162 117.8 92.1856 70.5748 91.8424 68.2523C91.4991 65.9299 86.593 61.9069 84.4221 60.304C74.9106 62.3154 64.6973 65.1393 63.8561 66.448C62.7514 68.6994 57.7286 114.353 54.6326 144.464L54.542 145.346L47.329 143.128L47.379 142.544C48.9533 124.277 54.262 64.3862 56.1853 62.5709C57.935 60.9127 71.2202 57.8295 76.1396 56.728L75.26 55.845C59.8009 56.4728 43.1904 57.9444 41.9264 59.3477C40.497 61.8207 37.9816 107.82 36.6468 138.127L36.5988 139.112L29.6672 136.666L29.6874 136.128C29.7189 135.933 30.395 115.936 31.3319 96.1591C33.287 55.551 34.1637 55.352 35.0369 55.1745C37.0019 54.7513 64.0006 50.8396 65.1457 50.6765L65.3571 52.1183C65.0844 52.1557 39.1466 55.9202 35.6232 56.5435C34.2361 60.5421 32.2265 105.475 31.1638 135.611L35.249 137.012C35.9001 122.212 38.744 60.841 40.8167 58.3756C42.9801 55.7619 70.11 54.5682 75.5448 54.3575L75.873 54.3439L79.0067 57.5989L77.7323 57.8744C70.4383 59.4589 58.4534 62.4263 57.1704 63.6265C55.8556 65.9403 51.4906 111.604 48.8544 142.078L53.2509 143.434C54.7667 128.921 61.1212 68.0137 62.6343 65.6653C64.2403 63.1541 81.0817 59.5196 84.4401 58.8178L84.762 58.7513L85.019 58.9484C85.807 59.5277 92.7207 64.6975 93.2576 68.0217C93.7439 71.0637 84.2973 135.976 82.5506 148.021L86.2104 146.782C91.1705 120.173 100.402 69.7469 100.388 66.3515C100.378 63.1569 92.5582 59.2853 89.5403 58.0641L90.0119 56.6587C93.0628 57.4925 119.869 64.8551 122.418 66.7338C123.145 67.2737 124.406 68.1813 114.74 109.884C110.03 130.274 104.942 150.706 104.894 150.913L103.469 150.557C111.268 119.221 122.418 71.6382 121.426 67.8256C119.546 66.6698 107.291 63.0147 96.5137 59.9765C99.254 61.7232 101.795 63.9712 101.832 66.3107C101.86 70.716 88.1365 144.308 87.5483 147.443L87.4806 147.862L80.7539 150.153Z" fill="#7483FB"/>
</g>
</g>
</g>
<path style="mix-blend-mode:multiply" opacity="0.33" d="M134.135 67.0739L77.9774 68.4139L25.9035 53.1967C25.9035 53.1967 22.8689 102.18 26.6979 122.631C26.6979 122.631 42.5672 133.308 69.8678 142.38C69.8678 142.38 78.4834 142.291 88.5358 141.471C96.2914 140.835 104.931 139.772 111.14 137.982C111.14 137.982 127.34 97.3355 134.124 67.0944L134.135 67.0739Z" fill="url(#paint1_linear_14118_7915)"/>
<g style="mix-blend-mode:multiply" opacity="0.48">
<path d="M134.135 67.0744L88.1448 68.1685C85.3026 68.2578 82.5876 69.3676 80.4967 71.2948C78.4057 73.222 77.0787 75.8377 76.7584 78.6632C74.9821 93.7337 71.7943 121.571 69.8717 142.359C69.8717 142.359 78.4873 142.27 88.5397 141.45C96.2953 140.814 104.935 139.751 111.144 137.961C111.144 137.961 127.345 97.3072 134.128 67.0733L134.135 67.0744Z" fill="#970060"/>
</g>
<g style="mix-blend-mode:multiply" opacity="0.29">
<path d="M130.514 65.9175C127.948 65.1101 124.167 63.9359 119.553 62.553C124.109 63.9266 127.889 65.1079 130.427 65.9107C131.434 66.2329 132.274 66.9397 132.763 67.8775C133.252 68.8152 133.352 69.9081 133.04 70.9188C126.283 96.3119 113.883 126.831 110.787 134.302C110.537 134.885 110.153 135.4 109.666 135.807C109.18 136.214 108.604 136.5 107.986 136.642C95.1481 139.753 74.5405 140.379 70.5023 140.474C70.0387 140.473 69.5781 140.399 69.1378 140.254C47.8043 133.361 33.662 125.474 29.0965 122.736C28.5926 122.441 28.1584 122.041 27.824 121.562C27.4896 121.083 27.2627 120.538 27.1591 119.963C24.1781 102.746 25.3334 68.4614 25.8227 56.9537C25.8383 55.9502 26.2224 54.9875 26.9019 54.2489C27.5814 53.5104 28.5088 53.0475 29.5075 52.9486C51.7745 50.9022 77.633 52.0292 81.0665 52.1915L81.6007 52.2779L81.5357 52.2674L80.8138 52.1507C77.3803 51.9884 51.5999 50.837 29.4265 52.854C28.4236 52.9396 27.4872 53.3908 26.7954 54.1217C26.1035 54.8527 25.7045 55.8125 25.6742 56.8186C25.1017 68.2906 23.6048 103.039 26.3851 120.764C26.4849 121.355 26.7109 121.917 27.0476 122.413C27.3843 122.908 27.8238 123.325 28.3362 123.636C32.9914 126.507 47.3664 134.786 69.1889 142.092C69.6387 142.25 70.1129 142.326 70.5895 142.318C74.7349 142.247 95.8779 141.701 109.065 138.491C109.699 138.34 110.287 138.039 110.78 137.614C111.273 137.188 111.657 136.65 111.898 136.044C114.946 128.232 126.988 96.7221 133.241 70.9142C133.51 69.8908 133.377 68.8032 132.87 67.8742C132.363 66.9453 131.521 66.2452 130.514 65.9175Z" fill="#724C8D"/>
</g>
<path style="mix-blend-mode:color-dodge" opacity="0.11" d="M72.5041 116.355C72.5041 116.355 76.4088 90.3163 101.562 90.7217C126.902 91.113 116.537 119.812 116.537 119.812L118.387 118.674C123.567 104.272 130.361 83.9673 134.139 67.0498L77.9797 68.4042L25.9058 53.187C25.9058 53.187 24.9543 68.5168 24.7841 85.5212C26.3275 59.9746 74.6486 79.8008 72.5041 116.355Z" fill="url(#paint2_linear_14118_7915)"/>
<path style="mix-blend-mode:color-dodge" opacity="0.69" d="M71.3323 70.4338C74.4436 76.7152 74.0128 102.575 74.0128 102.575C74.0128 102.575 76.6988 75.4128 80.8993 71.8837C84.0438 69.2508 87.2596 68.1926 96.8833 67.9625L130.685 67.158C130.685 67.158 84.2298 67.2287 78.8682 67.1697C73.5067 67.1107 34.6676 55.6772 32.8928 54.1902C31.1181 52.7032 42.1319 52.0311 42.9541 51.9862C38.4281 52.1659 33.8425 52.4397 29.3982 52.8475C28.3998 52.9398 27.4697 53.3946 26.7837 54.1259C26.0977 54.8572 25.7032 55.8144 25.6748 56.8167C25.4831 60.3862 25.2127 66.2767 25.0015 73.2212C25.0109 73.1635 26.5585 59.0043 29.7261 57.19C32.6576 55.5079 68.2867 64.2964 71.3323 70.4338Z" fill="url(#paint3_linear_14118_7915)"/>
</g>
<g style="mix-blend-mode:multiply" opacity="0.67">
<path d="M38.8257 95.4396C32.8069 85.6952 27.0229 65.2393 27.0229 65.2393C27.0229 65.2393 36.2998 92.3198 42.3527 98.0025L42.5399 98.1735C42.9804 98.6276 43.5658 98.9135 44.1947 98.9817C49.8021 98.8953 72.1598 78.5944 72.1598 78.5944C72.1598 78.5944 59.2731 91.5878 50.2183 97.4661L60.2195 117.315L64.5044 125.823C66.5868 129.486 68.9588 133.099 70.7142 134.568L70.363 137.475L48.6492 98.6941L47.2963 99.1348C46.2893 99.7112 45.1794 100.085 44.029 100.237C42.7067 100.304 41.2577 99.0479 39.7466 96.8923L39.6283 96.7991L26.2583 117.367L26.0184 115.78C26.0184 115.78 31.177 108.798 33.6985 104.427L38.8257 95.4396Z" fill="#724C8D"/>
</g>
<g style="mix-blend-mode:color-dodge" opacity="0.23">
<path d="M44.1963 98.9834C43.5673 98.9151 42.982 98.6292 42.5415 98.1751L42.3543 98.0041C39.0736 94.9254 34.7749 85.3109 31.564 77.3539C31.789 77.8866 40.181 97.3787 44.0116 97.6052C47.8422 97.8316 66.1764 83.8148 66.2999 83.7384C59.3111 89.7136 47.9317 98.9277 44.1963 98.9834Z" fill="#7483FB"/>
</g>
<g style="mix-blend-mode:color-dodge" opacity="0.23">
<path d="M48.6509 98.694L64.0897 126.244C64.0897 126.244 56.2734 115.017 53.0943 110.347C49.9152 105.677 48.6509 98.694 48.6509 98.694Z" fill="#7483FB"/>
</g>
<g style="mix-blend-mode:color-dodge" opacity="0.23">
<path d="M39.4464 97.0572C39.4464 97.0572 36.8534 102.787 34.2488 107.122C32.5762 109.853 30.5169 112.328 28.1349 114.469L39.4464 97.0572Z" fill="#7483FB"/>
</g>
<path style="mix-blend-mode:multiply" d="M45.3373 52.1268C41.2091 52.2745 46.5731 52.8229 42.159 55.7025C37.7449 58.5822 46.6218 58.5722 48.8766 57.9143C51.1313 57.2564 55.5989 58.4007 55.5989 58.4007C55.5989 58.4007 51.3596 63.8201 49.1658 66.1177C46.9719 68.4153 55.6265 66.71 62.1611 69.3663C68.6956 72.0227 63.351 64.8914 65.4473 61.8223C67.5435 58.7532 81.6776 63.2527 84.9311 64.712C88.1846 66.1713 94.6912 72.4384 96.1353 75.1462C97.5794 77.854 100.592 74.4811 99.263 83.2972C97.9345 92.1133 91.8696 121.434 90.1873 127.763C88.5051 134.092 86.0978 141.652 86.0978 141.652L88.9788 141.428L106.057 78.4833L105.947 60.8261L114.991 61.2061L112.272 60.3815L107.546 59.0472C105.512 58.4741 68.9265 48.7753 68.9265 48.7753L45.3373 52.1268Z" fill="url(#paint4_linear_14118_7915)"/>
<path d="M118.358 67.4779C118.197 66.6443 112.133 63.7307 106.512 61.1998C105.786 60.6795 105.009 60.2337 104.193 59.8693L112.263 60.3587L113.688 58.7887C111.542 57.4928 109.256 56.4448 106.873 55.6648C117.615 39.6208 103.727 35.0203 103.727 35.0203C103.727 35.0203 109.802 25.7191 99.9855 20.0803C90.1695 14.4414 84.257 21.4128 84.257 21.4128C84.257 21.4128 82.8119 15.3192 72.3106 17.7707C61.8093 20.2221 66.2181 30.9435 66.2181 30.9435C66.2181 30.9435 56.949 28.7045 53.1532 35.3217C49.3575 41.9388 54.633 47.2513 54.633 47.2513C44.7751 42.3761 38.3748 47.0017 38.3748 47.0017L38.0248 49.1677C38.0248 49.1677 46.3252 48.5534 45.6405 51.1394C45.1018 52.9586 44.3636 54.7126 43.4395 56.3696L45.3919 58.0409C51.4779 53.3423 56.3514 54.404 56.3514 54.404C49.642 58.0092 48.2165 65.6836 48.2165 65.6836L49.7218 66.4084L56.1665 64.4866C56.1665 64.4866 58.5525 65.0797 63.9336 68.8683C63.9336 68.8683 63.6238 61.6173 66.8779 59.0391C66.8779 59.0391 71.6809 61.4082 76.6319 60.6155L76.6824 60.6237L79.2671 61.0414C91.9799 62.3256 95.8969 73.7972 95.8969 73.7972C95.8969 73.7972 99.3063 69.5253 102.307 68.5139C104.59 71.1646 88.5534 141.42 88.5534 141.42L86.6111 141.565C86.7621 141.879 86.988 142.15 87.2687 142.356C87.5494 142.561 87.8764 142.694 88.2208 142.744C92.8741 142.473 97.5107 141.967 102.113 141.226C103.883 140.771 113.029 96.5985 115.015 88.1627C117.001 79.7269 118.675 69.0478 118.358 67.4779Z" fill="url(#paint5_linear_14118_7915)"/>
<path style="mix-blend-mode:multiply" d="M55.6823 52.0332C51.4761 51.6585 47.2828 52.8796 43.9353 55.4539C43.9353 55.4539 47.4284 49.8843 45.4271 48.2866C42.8755 46.2888 38.3773 46.9842 38.3773 46.9842L38.0273 49.1501C38.0273 49.1501 46.3277 48.5358 45.643 51.1218C45.1043 52.941 44.3661 54.6951 43.442 56.352L45.3944 58.0233C51.4804 53.3247 56.3539 54.3865 56.3539 54.3865C57.9791 54.0491 62.8967 52.5917 55.6823 52.0332Z" fill="url(#paint6_linear_14118_7915)"/>
<path style="mix-blend-mode:multiply" d="M112.031 70.4865C112.031 70.4865 106.678 67.3542 102.982 67.3495C102.389 67.3537 101.8 67.4379 101.23 67.5998C99.315 68.2233 97.5871 69.3169 96.204 70.7806C96.204 70.7806 91.966 61.2945 83.8306 60.2463C83.8306 60.2463 85.2776 59.1319 85.4153 58.2799C85.4153 58.2799 95.4101 63.3624 104.173 59.9336L112.243 60.423L113.667 58.8529C113.667 58.8529 110.003 56.4975 104.056 59.0997C104.056 59.0997 110.371 52.4305 109.631 49.2215C109.631 49.2215 108.143 58.975 93.0899 59.5203C93.0899 59.5203 98.8759 58.833 96.025 50.2526C93.1742 41.6723 88.1691 36.8406 83.8322 42.4516C83.8322 42.4516 86.8908 34.1151 103.695 35.0233C103.695 35.0233 93.5112 32.2069 85.9635 38.2028C85.9635 38.2028 91.2298 31.8382 89.7077 26.7249C88.1857 21.6116 81.9154 19.1535 79.206 34.2214C79.206 29.4712 81.004 24.897 84.2386 21.4181C84.2386 21.4181 78.9144 24.7952 78.5889 32.9512C78.5889 32.9512 77.4295 22.8439 71.1272 22.1883C64.8249 21.5328 65.3029 27.559 66.1997 30.9488C67.0965 34.3386 70.5117 40.0691 70.5117 40.0691C68.2116 39.9521 65.9337 40.5669 64.0048 41.8252C64.0048 41.8252 62.4697 36.7468 57.4545 35.7362C52.7813 34.8105 51.9139 39.1228 51.8171 39.722C51.7581 42.5012 52.7642 45.1976 54.6291 47.259C55.2823 47.572 52.026 53.3725 60.4585 51.7572C60.6448 54.1802 62.061 56.602 66.1046 58.0778C64.8196 60.6162 63.8574 63.3054 63.2402 66.0827C63.2402 66.0827 58.4455 63.9372 56.6813 63.1187C54.917 62.3001 48.2403 65.7031 48.2403 65.7031L49.7456 66.4279L56.1903 64.5062C57.3016 64.3228 63.9574 68.8879 63.9574 68.8879C63.9574 68.8879 63.5516 61.9102 66.9029 59.0514C66.9029 59.0514 72.9214 61.4169 76.6569 60.6279L79.2921 61.0538C91.9759 62.3333 95.893 73.8049 95.893 73.8049C97.2814 72.1215 98.8948 70.6373 100.688 69.3939C100.944 69.228 101.213 69.0788 101.501 68.9475L101.544 68.9545C101.802 68.8246 102.068 68.7116 102.34 68.6163C104.623 71.2671 88.586 141.522 88.586 141.522L86.6437 141.668C86.7948 141.981 87.0206 142.252 87.3013 142.458C87.5821 142.664 87.909 142.797 88.2535 142.846C88.7515 142.856 89.2497 142.835 89.7453 142.784C90.6648 142.732 91.1753 140.674 93.1381 130.271C95.101 119.868 102.153 84.3956 103.785 77.2289C104.962 72.0554 104.577 69.4891 104.276 68.418C107.027 68.8626 109.669 71.7196 109.669 71.7196L112.031 70.4865ZM60.4709 51.5888C58.8721 51.3971 54.6869 50.7058 55.4035 48.7473C55.4035 48.7473 58.3602 38.2459 63.1452 43.7977C63.1452 43.7977 60.2654 47.681 60.4709 51.5888ZM77.012 45.0461C71.1742 45.4583 68.1717 60.0936 76.3614 60.2097C76.3614 60.2097 61.0572 60.0625 61.3781 50.2389C61.6048 43.5191 68.7896 37.5682 76.5556 41.7275C84.3216 45.8867 83.4055 51.7839 83.4055 51.7839C83.4055 51.7839 82.8486 44.6411 77.012 45.0461Z" fill="url(#paint7_linear_14118_7915)"/>
<g style="mix-blend-mode:multiply">
<path d="M71.303 40.3551C71.303 40.3551 75.1261 40.5359 77.4742 42.2341C77.4742 42.2341 79.9258 32.9328 74.5683 27.5774C69.2108 22.222 66.868 24.0659 67.2935 29.4094C67.7189 34.753 71.303 40.3551 71.303 40.3551Z" fill="#AA2EC5"/>
</g>
<g style="mix-blend-mode:multiply">
<path d="M78.3145 42.8108C78.3145 42.8108 79.6524 31.9663 82.6147 27.7555C85.577 23.5448 88.0118 25.257 87.3525 30.8031C86.6932 36.3491 80.768 44.9113 80.768 44.9113L78.3145 42.8108Z" fill="#AA2EC5"/>
</g>
<g style="mix-blend-mode:multiply">
<path d="M81.7093 46.0524C81.7093 46.0524 84.7586 40.9371 88.2218 41.5116C91.685 42.0862 95.167 52.8577 94.2934 56.3837C93.4197 59.9097 88.1388 58.3894 88.1388 58.3894C88.1388 58.3894 92.8828 59.5191 93.0176 56.1182C93.1524 52.7173 89.2939 49.5008 83.8435 52.65C83.5535 50.3362 82.8295 48.0978 81.7093 46.0524Z" fill="#AA2EC5"/>
</g>
<g style="mix-blend-mode:multiply">
<path d="M55.758 47.6696C55.758 47.6696 58.3066 38.7766 63.1479 43.7966C63.0495 42.4658 62.5743 41.1905 61.7778 40.1198C60.9814 39.0491 59.8966 38.2273 58.6502 37.7505C54.2628 36.019 52.9381 39.9981 53.2294 42.2751C53.5208 44.5521 55.758 47.6696 55.758 47.6696Z" fill="#AA2EC5"/>
</g>
<g style="mix-blend-mode:multiply">
<path d="M82.793 55.2915C82.793 55.2915 80.8379 59.917 76.7054 59.175C72.5729 58.433 72.1057 50.9639 74.4706 47.7456C76.8354 44.5273 83.2306 46.9463 82.793 55.2915Z" fill="#AA2EC5"/>
</g>
<g style="mix-blend-mode:multiply">
<path d="M76.9352 31.2715C76.4067 29.8916 75.6014 28.6345 74.5689 27.5775C69.2042 22.2209 66.8687 24.066 67.2941 29.4095C67.6427 32.3446 68.5203 35.1923 69.8844 37.8144C67.2225 30.9982 75.1146 27.5471 76.9352 31.2715Z" fill="#AA2EC5"/>
</g>
<g style="mix-blend-mode:multiply">
<path d="M85.5922 36.4295C86.4561 34.6462 87.0551 32.7464 87.3704 30.7901C88.0297 25.2441 85.5805 23.5295 82.6326 27.7426C79.6847 31.9557 78.3157 42.81 78.3157 42.81C78.3157 42.81 80.1695 35.9235 83.7063 33.6132C87.2431 31.303 85.6241 36.3235 85.5922 36.4295Z" fill="#AA2EC5"/>
</g>
<g style="mix-blend-mode:multiply">
<path d="M89.8693 46.9489C92.1134 46.8153 93.3777 49.6274 94.0365 51.8304C93.1252 47.4307 90.667 41.9216 88.2218 41.5116C84.7563 40.9515 81.7093 46.0524 81.7093 46.0524C82.8295 48.0977 83.5535 50.3361 83.8435 52.65C83.8435 52.65 86.2249 47.1749 89.8693 46.9489Z" fill="#AA2EC5"/>
</g>
<g style="mix-blend-mode:multiply">
<path d="M63.1471 43.7959C63.0487 42.4651 62.5735 41.1898 61.7771 40.1191C60.9806 39.0484 59.8958 38.2266 58.6495 37.7498C55.0005 36.308 53.475 38.8248 53.2309 41.0227C54.9944 39.2334 61.7225 41.3802 63.1471 43.7959Z" fill="#AA2EC5"/>
</g>
<g style="mix-blend-mode:multiply">
<path d="M74.4723 47.7474C72.4966 50.3914 72.5037 55.9859 74.9087 58.2489C71.771 54.4228 79.9046 48.2401 82.7951 54.8785C82.9987 46.8807 76.8122 44.5917 74.4723 47.7474Z" fill="#AA2EC5"/>
</g>
<path style="mix-blend-mode:multiply" opacity="0.51" d="M60.6291 49.4699C62.4118 43.5276 67.1358 45.2394 72.788 53.5391C78.4401 61.8387 80.0622 61.3823 72.2079 60.5203C64.3535 59.6584 58.8759 55.3207 60.6291 49.4699Z" fill="url(#paint8_linear_14118_7915)"/>
<path style="mix-blend-mode:multiply" opacity="0.51" d="M93.2688 48.9297C93.8401 40.3987 109.972 36.7533 110.731 42.9212C111.49 49.0891 107.515 59.1518 96.8454 59.6203C86.1757 60.0887 94.4254 57.9549 94.3682 53.9081C94.311 49.8612 93.0952 51.5168 93.2688 48.9297Z" fill="url(#paint9_linear_14118_7915)"/>
<path style="mix-blend-mode:multiply" opacity="0.51" d="M88.3143 29.1668C90.083 21.3405 103.39 22.2466 105.279 26.4191C107.168 30.5916 103.691 35.0525 103.691 35.0525C103.691 35.0525 91.8673 33.586 85.9117 39.6318C79.9561 45.6776 87.1635 34.2704 88.3143 29.1668Z" fill="url(#paint10_linear_14118_7915)"/>
<path style="mix-blend-mode:multiply" opacity="0.51" d="M73.6732 26.7475C71.5938 23.2036 80.142 17.4805 82.2171 18.6678C84.2922 19.8552 84.2686 21.4219 84.2686 21.4219C81.9 23.5817 80.2582 26.422 79.5689 29.5525C78.6648 34.4589 78.9029 40.0907 77.9134 35.2116C76.924 30.3325 75.0992 29.2005 73.6732 26.7475Z" fill="url(#paint11_linear_14118_7915)"/>
<path style="mix-blend-mode:multiply" opacity="0.51" d="M58.6506 37.7477C56.0455 36.5858 63.2915 29.3855 66.3948 31.5909C66.3948 31.5909 69.2348 39.688 70.5159 40.0581C71.7971 40.4281 68.0652 40.2324 64.1776 43.5676C60.2899 46.9028 66.9522 41.5268 58.6506 37.7477Z" fill="url(#paint12_linear_14118_7915)"/>
<path style="mix-blend-mode:color-dodge" opacity="0.6" d="M68.7884 22.3069C65.5387 22.8411 78.7909 17.4412 74.4525 17.3771C74.4525 17.3771 79.0724 16.7533 82.0137 18.5399C82.0137 18.5399 80.7814 17.8222 77.2418 20.2875C73.7022 22.7529 74.4924 23.5474 73.7063 23.0944C72.9201 22.6413 71.9985 21.7886 68.7884 22.3069Z" fill="url(#paint13_linear_14118_7915)"/>
<path style="mix-blend-mode:color-dodge" opacity="0.6" d="M85.0899 22.8499C85.0899 22.8499 87.7908 21.9529 89.62 26.4491C89.62 26.4491 91.9614 22.8714 97.5399 23.2841C103.118 23.6967 105.159 26.1527 105.159 26.1527C105.159 26.1527 104.65 22.7442 100.193 20.2087C95.7353 17.6732 92.6106 17.709 91.2207 17.9659C89.8309 18.2228 93.9775 17.9151 96.0017 19.2794C98.0259 20.6437 97.8513 22.7788 92.2417 21.9166C86.6321 21.0544 85.0899 22.8499 85.0899 22.8499Z" fill="url(#paint14_linear_14118_7915)"/>
<path style="mix-blend-mode:color-dodge" opacity="0.6" d="M54.3264 36.0264C54.3264 36.0264 59.0016 32.9518 59.5614 31.8718C60.1212 30.7917 59.0211 31.0436 59.0211 31.0436C59.0211 31.0436 64.2021 29.8363 66.0758 31.3985C66.0758 31.3985 64.2323 30.8413 61.8114 32.4354C60.4022 33.338 59.2143 34.5463 58.3359 35.9706C58.3359 35.9706 57.2966 34.884 54.3264 36.0264Z" fill="url(#paint15_linear_14118_7915)"/>
<path style="mix-blend-mode:color-dodge" opacity="0.6" d="M74.5693 45.9086C74.5693 45.9086 68.2286 45.7654 67.4747 44.2878C66.7208 42.8102 71.6978 40.7105 72.7883 40.7015C73.8788 40.6926 65.8294 37.8284 62.13 46.6911C62.13 46.6911 63.9499 44.8738 66.9244 47.0511C68.6996 48.342 70.1989 49.9747 71.3341 51.8532C71.3861 50.6816 71.7045 49.5373 72.2651 48.5073C72.8257 47.4772 73.6137 46.5884 74.5693 45.9086Z" fill="url(#paint16_linear_14118_7915)"/>
<path style="mix-blend-mode:color-dodge" opacity="0.6" d="M55.4063 48.7362C55.3105 49.0541 58.7631 45.7524 60.3567 45.6099C61.9503 45.4674 62.1289 45.6 62.1289 45.6L63.1228 44.0344C62.838 43.5102 62.42 43.0704 61.911 42.7592C61.402 42.448 60.82 42.2765 60.2236 42.262C58.2399 42.297 56.4807 45.2057 55.4063 48.7362Z" fill="url(#paint17_linear_14118_7915)"/>
<path style="mix-blend-mode:color-dodge" opacity="0.6" d="M89.7356 40.536C89.7356 40.536 97.7827 39.7474 101.239 38.9874C104.696 38.2274 101.901 34.8938 101.901 34.8938L103.365 35.0044C104.934 35.5424 106.371 36.4094 107.578 37.5474C108.786 38.6855 109.736 40.0683 110.366 41.6033C110.366 41.6033 108.676 38.3076 102.316 40.3023C95.9556 42.297 94.2104 45.8525 94.2104 45.8525C93.8967 44.6939 93.3336 43.6179 92.5607 42.6996C91.7878 41.7813 90.8236 41.0429 89.7356 40.536Z" fill="url(#paint18_linear_14118_7915)"/>
<path style="mix-blend-mode:color-dodge" opacity="0.6" d="M56.681 63.1263C58.4452 63.9448 63.2399 66.0903 63.2399 66.0903C63.6427 64.2575 64.2102 62.4647 64.9354 60.734C64.9354 60.734 62.9808 62.0553 59.8019 61.097C56.623 60.1387 54.7974 55.3912 57.8445 54.002C57.296 54.1874 56.7304 54.3405 56.3449 54.4338C49.6355 58.0389 48.2099 65.7133 48.2099 65.7133C48.2099 65.7133 54.9228 62.3161 56.681 63.1263Z" fill="url(#paint19_linear_14118_7915)"/>
<path style="mix-blend-mode:color-dodge" opacity="0.6" d="M38.3737 47.0044C38.3737 47.0044 42.8719 46.3089 45.4235 48.3067C47.4283 49.8828 43.9317 55.474 43.9317 55.474C47.2791 52.8997 51.4724 51.6786 55.6786 52.0534C55.6786 52.0534 50.0778 51.5038 47.7399 47.9551C45.7942 44.9588 49.0089 45.3746 50.1088 45.582C42.8776 43.7984 38.3737 47.0044 38.3737 47.0044Z" fill="url(#paint20_linear_14118_7915)"/>
<path style="mix-blend-mode:color-dodge" opacity="0.6" d="M90.0519 62.9289C92.6433 65.0575 94.7402 67.7247 96.197 70.7452C96.197 70.7452 99.2786 67.3094 102.975 67.3141C106.671 67.3188 112.034 70.4823 112.034 70.4823C111.732 65.2475 108.114 62.1957 105.909 60.8022C111.692 65.493 94.3812 65.7993 90.0519 62.9289Z" fill="url(#paint21_linear_14118_7915)"/>
<path style="mix-blend-mode:multiply" opacity="0.51" d="M50.2501 55.1452C48.2266 55.6553 46.6102 52.1344 53.4582 52.0262C60.3063 51.918 61.4747 52.8477 58.8409 53.6963C58.0398 54.0045 57.2151 54.2478 56.3749 54.4238C56.3749 54.4238 54.5287 54.0661 50.2501 55.1452Z" fill="url(#paint22_linear_14118_7915)"/>
<path style="mix-blend-mode:multiply" d="M77.1137 59.959C77.1137 59.959 83.5322 59.2999 84.0092 55.7987C84.4861 52.2975 86.168 57.1552 85.7553 57.8293C85.3426 58.5035 98.8955 61.694 103.766 59.5179L104.202 59.8476C104.202 59.8476 99.939 63.8555 95.6535 62.8221C91.3681 61.7887 87.9289 63.4035 85.3521 62.387C82.7753 61.3704 81.7339 61.58 78.9243 60.9036C76.3664 60.3198 74.5104 60.894 77.1137 59.959Z" fill="url(#paint23_linear_14118_7915)"/>
<path style="mix-blend-mode:multiply" opacity="0.61" d="M105.908 60.8029C105.908 60.8029 111.773 64.2104 112.038 70.4541L109.619 71.6707C109.619 71.6707 106.646 67.9232 104.278 67.4515C101.909 66.9798 98.6777 68.0874 96.2104 70.7483L95.8947 73.8014C97.6361 71.6135 99.8223 69.8205 102.309 68.5409C102.309 68.5409 102.905 71.2228 102.273 79.1217C101.641 87.0206 116.816 72.471 116.538 69.196C116.26 65.9209 115.373 65.3554 112.607 64.0416C109.842 62.7278 105.908 60.8029 105.908 60.8029Z" fill="url(#paint24_linear_14118_7915)"/>
<path style="mix-blend-mode:multiply" opacity="0.51" d="M96.2449 109.04C105.791 83.2086 117.568 73.7772 113.412 95.3233C109.255 116.869 105.533 131.329 102.37 134.581C99.2071 137.834 87.3882 132.99 96.2449 109.04Z" fill="url(#paint25_linear_14118_7915)"/>
<path style="mix-blend-mode:color-dodge" opacity="0.6" d="M102.812 81.3245C102.566 82.5221 108.981 80.0991 114.245 73.3341C119.51 66.5691 119.205 65.1566 118.203 71.2622C117.201 77.3679 114.496 90.7176 115.337 86.7938C116.179 82.87 114.922 78.6367 111.139 79.5366C107.356 80.4365 99.32 100.592 100.915 93.064C101.792 89.1943 102.425 85.2735 102.812 81.3245Z" fill="url(#paint26_linear_14118_7915)"/>
<path style="mix-blend-mode:color-dodge" opacity="0.6" d="M93.7802 117.131L112.332 100.208L110.942 107.481L92.5282 124.878L93.7802 117.131Z" fill="url(#paint27_linear_14118_7915)"/>
<path style="mix-blend-mode:color-dodge" opacity="0.6" d="M91.9729 128.32L109.808 112.577L108.985 116.067L90.9753 130.596L91.9729 128.32Z" fill="url(#paint28_linear_14118_7915)"/>
<path d="M69.4382 67.6625C74.6502 70.5718 79.0203 69.752 85.5622 68.7423C92.104 67.7327 80.9561 67.5385 75.1292 66.5079C70.7573 65.7346 61.3591 63.1489 69.4382 67.6625Z" fill="#FFFCFB"/>
<path d="M27.7556 54.7077C26.2142 52.7398 40.5223 56.208 36.7835 56.7891C33.0446 57.3701 29.647 57.1692 27.7556 54.7077Z" fill="#FFFCFB"/>
</g>
<defs>
<linearGradient id="paint0_linear_14118_7915" x1="66.865" y1="141.796" x2="81.3448" y2="52.2049" gradientUnits="userSpaceOnUse">
<stop offset="0.01" stop-color="#7B00C6"/>
<stop offset="1" stop-color="#EF71C3"/>
</linearGradient>
<linearGradient id="paint1_linear_14118_7915" x1="66.1018" y1="146.246" x2="81.263" y2="52.439" gradientUnits="userSpaceOnUse">
<stop stop-color="#8800FC"/>
<stop offset="1" stop-color="#4E78F1"/>
</linearGradient>
<linearGradient id="paint2_linear_14118_7915" x1="67.5534" y1="137.269" x2="80.8208" y2="55.18" gradientUnits="userSpaceOnUse">
<stop offset="0.41"/>
<stop offset="0.45" stop-color="#100615"/>
<stop offset="0.61" stop-color="#4F1C65"/>
<stop offset="0.75" stop-color="#812EA6"/>
<stop offset="0.86" stop-color="#A53AD4"/>
<stop offset="0.95" stop-color="#BC42F0"/>
<stop offset="1" stop-color="#C445FB"/>
</linearGradient>
<linearGradient id="paint3_linear_14118_7915" x1="227.672" y1="104.629" x2="26.0225" y2="72.0379" gradientUnits="userSpaceOnUse">
<stop offset="0.48"/>
<stop offset="0.51" stop-color="#0A0B15"/>
<stop offset="0.65" stop-color="#2F3565"/>
<stop offset="0.77" stop-color="#4D56A6"/>
<stop offset="0.88" stop-color="#626FD4"/>
<stop offset="0.95" stop-color="#6F7DF0"/>
<stop offset="1" stop-color="#7483FB"/>
</linearGradient>
<linearGradient id="paint4_linear_14118_7915" x1="158.765" y1="108.338" x2="32.079" y2="87.8631" gradientUnits="userSpaceOnUse">
<stop stop-color="#7B00C6"/>
<stop offset="0.47" stop-color="#B539B5"/>
</linearGradient>
<linearGradient id="paint5_linear_14118_7915" x1="66.1241" y1="134.431" x2="85.9307" y2="11.882" gradientUnits="userSpaceOnUse">
<stop stop-color="#FF7C13"/>
<stop offset="0.15" stop-color="#FF8214"/>
<stop offset="0.34" stop-color="#FF9117"/>
<stop offset="0.56" stop-color="#FFAB1C"/>
<stop offset="0.74" stop-color="#FFC721"/>
</linearGradient>
<linearGradient id="paint6_linear_14118_7915" x1="37.6387" y1="51.5543" x2="59.1754" y2="55.0351" gradientUnits="userSpaceOnUse">
<stop stop-color="#EF71A4"/>
<stop offset="0.29" stop-color="#D153AD"/>
<stop offset="0.94" stop-color="#8308C4"/>
<stop offset="1" stop-color="#7B00C6"/>
</linearGradient>
<linearGradient id="paint7_linear_14118_7915" x1="68.2783" y1="139.559" x2="87.2926" y2="21.9117" gradientUnits="userSpaceOnUse">
<stop stop-color="#7B00C6"/>
<stop offset="0.06" stop-color="#8308C4"/>
<stop offset="0.71" stop-color="#D153AD"/>
<stop offset="1" stop-color="#EF71A4"/>
</linearGradient>
<linearGradient id="paint8_linear_14118_7915" x1="67.9617" y1="61.8566" x2="70.0621" y2="48.8609" gradientUnits="userSpaceOnUse">
<stop offset="0.05" stop-color="white"/>
<stop offset="0.07" stop-color="#FEF8FC"/>
<stop offset="0.19" stop-color="#F9C8E8"/>
<stop offset="0.31" stop-color="#F5A2D8"/>
<stop offset="0.42" stop-color="#F187CC"/>
<stop offset="0.51" stop-color="#F077C5"/>
<stop offset="0.59" stop-color="#EF71C3"/>
</linearGradient>
<linearGradient id="paint9_linear_14118_7915" x1="99.1308" y1="64.4569" x2="102.6" y2="42.9924" gradientUnits="userSpaceOnUse">
<stop offset="0.05" stop-color="white"/>
<stop offset="0.07" stop-color="#FEF8FC"/>
<stop offset="0.19" stop-color="#F9C8E8"/>
<stop offset="0.31" stop-color="#F5A2D8"/>
<stop offset="0.42" stop-color="#F187CC"/>
<stop offset="0.51" stop-color="#F077C5"/>
<stop offset="0.59" stop-color="#EF71C3"/>
</linearGradient>
<linearGradient id="paint10_linear_14118_7915" x1="93.1483" y1="45.1872" x2="96.377" y2="25.21" gradientUnits="userSpaceOnUse">
<stop offset="0.05" stop-color="white"/>
<stop offset="0.07" stop-color="#FEF8FC"/>
<stop offset="0.19" stop-color="#F9C8E8"/>
<stop offset="0.31" stop-color="#F5A2D8"/>
<stop offset="0.42" stop-color="#F187CC"/>
<stop offset="0.51" stop-color="#F077C5"/>
<stop offset="0.59" stop-color="#EF71C3"/>
</linearGradient>
<linearGradient id="paint11_linear_14118_7915" x1="75.9252" y1="41.1874" x2="78.9334" y2="22.5747" gradientUnits="userSpaceOnUse">
<stop offset="0.05" stop-color="white"/>
<stop offset="0.07" stop-color="#FEF8FC"/>
<stop offset="0.19" stop-color="#F9C8E8"/>
<stop offset="0.31" stop-color="#F5A2D8"/>
<stop offset="0.42" stop-color="#F187CC"/>
<stop offset="0.51" stop-color="#F077C5"/>
<stop offset="0.59" stop-color="#EF71C3"/>
</linearGradient>
<linearGradient id="paint12_linear_14118_7915" x1="63.0653" y1="46.9661" x2="65.2415" y2="33.5011" gradientUnits="userSpaceOnUse">
<stop offset="0.05" stop-color="white"/>
<stop offset="0.07" stop-color="#FEF8FC"/>
<stop offset="0.19" stop-color="#F9C8E8"/>
<stop offset="0.31" stop-color="#F5A2D8"/>
<stop offset="0.42" stop-color="#F187CC"/>
<stop offset="0.51" stop-color="#F077C5"/>
<stop offset="0.59" stop-color="#EF71C3"/>
</linearGradient>
<linearGradient id="paint13_linear_14118_7915" x1="74.6634" y1="23.3602" x2="75.6996" y2="16.949" gradientUnits="userSpaceOnUse">
<stop/>
<stop offset="0.13" stop-color="#13162A"/>
<stop offset="0.37" stop-color="#353C73"/>
<stop offset="0.59" stop-color="#505BAD"/>
<stop offset="0.77" stop-color="#6471D8"/>
<stop offset="0.91" stop-color="#707EF1"/>
<stop offset="1" stop-color="#7483FB"/>
</linearGradient>
<linearGradient id="paint14_linear_14118_7915" x1="94.6739" y1="27.2659" x2="96.1266" y2="18.2772" gradientUnits="userSpaceOnUse">
<stop/>
<stop offset="0.13" stop-color="#13162A"/>
<stop offset="0.37" stop-color="#353C73"/>
<stop offset="0.59" stop-color="#505BAD"/>
<stop offset="0.77" stop-color="#6471D8"/>
<stop offset="0.91" stop-color="#707EF1"/>
<stop offset="1" stop-color="#7483FB"/>
</linearGradient>
<linearGradient id="paint15_linear_14118_7915" x1="59.6907" y1="36.8934" x2="60.7864" y2="30.1139" gradientUnits="userSpaceOnUse">
<stop/>
<stop offset="0.13" stop-color="#13162A"/>
<stop offset="0.37" stop-color="#353C73"/>
<stop offset="0.59" stop-color="#505BAD"/>
<stop offset="0.77" stop-color="#6471D8"/>
<stop offset="0.91" stop-color="#707EF1"/>
<stop offset="1" stop-color="#7483FB"/>
</linearGradient>
<linearGradient id="paint16_linear_14118_7915" x1="66.0417" y1="41.6485" x2="72.7" y2="50.8738" gradientUnits="userSpaceOnUse">
<stop stop-color="#7483FB"/>
<stop offset="0.09" stop-color="#707EF1"/>
<stop offset="0.23" stop-color="#6471D8"/>
<stop offset="0.41" stop-color="#505BAD"/>
<stop offset="0.63" stop-color="#353C73"/>
<stop offset="0.87" stop-color="#13162A"/>
<stop offset="1"/>
</linearGradient>
<linearGradient id="paint17_linear_14118_7915" x1="58.7806" y1="49.3112" x2="59.9346" y2="42.1708" gradientUnits="userSpaceOnUse">
<stop/>
<stop offset="0.13" stop-color="#13162A"/>
<stop offset="0.37" stop-color="#353C73"/>
<stop offset="0.59" stop-color="#505BAD"/>
<stop offset="0.77" stop-color="#6471D8"/>
<stop offset="0.91" stop-color="#707EF1"/>
<stop offset="1" stop-color="#7483FB"/>
</linearGradient>
<linearGradient id="paint18_linear_14118_7915" x1="106.826" y1="36.1861" x2="93.5248" y2="45.7861" gradientUnits="userSpaceOnUse">
<stop stop-color="#7483FB"/>
<stop offset="0.09" stop-color="#707EF1"/>
<stop offset="0.23" stop-color="#6471D8"/>
<stop offset="0.41" stop-color="#505BAD"/>
<stop offset="0.63" stop-color="#353C73"/>
<stop offset="0.87" stop-color="#13162A"/>
<stop offset="1"/>
</linearGradient>
<linearGradient id="paint19_linear_14118_7915" x1="55.9868" y1="66.9628" x2="58.0755" y2="54.0393" gradientUnits="userSpaceOnUse">
<stop stop-color="#7483FB"/>
<stop offset="0.09" stop-color="#707EF1"/>
<stop offset="0.23" stop-color="#6471D8"/>
<stop offset="0.41" stop-color="#505BAD"/>
<stop offset="0.63" stop-color="#353C73"/>
<stop offset="0.87" stop-color="#13162A"/>
<stop offset="1"/>
</linearGradient>
<linearGradient id="paint20_linear_14118_7915" x1="51.5238" y1="46.27" x2="42.1798" y2="53.0202" gradientUnits="userSpaceOnUse">
<stop/>
<stop offset="0.13" stop-color="#13162A"/>
<stop offset="0.37" stop-color="#353C73"/>
<stop offset="0.59" stop-color="#505BAD"/>
<stop offset="0.77" stop-color="#6471D8"/>
<stop offset="0.91" stop-color="#707EF1"/>
<stop offset="1" stop-color="#7483FB"/>
</linearGradient>
<linearGradient id="paint21_linear_14118_7915" x1="100.283" y1="71.4057" x2="102.097" y2="60.1861" gradientUnits="userSpaceOnUse">
<stop stop-color="#7483FB"/>
<stop offset="0.09" stop-color="#707EF1"/>
<stop offset="0.23" stop-color="#6471D8"/>
<stop offset="0.41" stop-color="#505BAD"/>
<stop offset="0.63" stop-color="#353C73"/>
<stop offset="0.87" stop-color="#13162A"/>
<stop offset="1"/>
</linearGradient>
<linearGradient id="paint22_linear_14118_7915" x1="52.2664" y1="50.7371" x2="56.0676" y2="56.004" gradientUnits="userSpaceOnUse">
<stop offset="0.05" stop-color="white"/>
<stop offset="0.07" stop-color="#FEF8FC"/>
<stop offset="0.19" stop-color="#F9C8E8"/>
<stop offset="0.31" stop-color="#F5A2D8"/>
<stop offset="0.42" stop-color="#F187CC"/>
<stop offset="0.51" stop-color="#F077C5"/>
<stop offset="0.59" stop-color="#EF71C3"/>
</linearGradient>
<linearGradient id="paint23_linear_14118_7915" x1="89.2973" y1="64.6545" x2="90.5342" y2="57.0015" gradientUnits="userSpaceOnUse">
<stop stop-color="white"/>
<stop offset="0.06" stop-color="#F5E4E5"/>
<stop offset="0.21" stop-color="#E1A9AB"/>
<stop offset="0.35" stop-color="#CF797B"/>
<stop offset="0.48" stop-color="#C25356"/>
<stop offset="0.61" stop-color="#B8373B"/>
<stop offset="0.71" stop-color="#B2272B"/>
<stop offset="0.8" stop-color="#B02125"/>
</linearGradient>
<linearGradient id="paint24_linear_14118_7915" x1="104.634" y1="80.8295" x2="107.947" y2="60.3324" gradientUnits="userSpaceOnUse">
<stop stop-color="white"/>
<stop offset="0.06" stop-color="#F5E4E5"/>
<stop offset="0.21" stop-color="#E1A9AB"/>
<stop offset="0.35" stop-color="#CF797B"/>
<stop offset="0.48" stop-color="#C25356"/>
<stop offset="0.61" stop-color="#B8373B"/>
<stop offset="0.71" stop-color="#B2272B"/>
<stop offset="0.8" stop-color="#B02125"/>
</linearGradient>
<linearGradient id="paint25_linear_14118_7915" x1="99.226" y1="133.362" x2="107.756" y2="80.585" gradientUnits="userSpaceOnUse">
<stop offset="0.05" stop-color="white"/>
<stop offset="0.07" stop-color="#FEF8FC"/>
<stop offset="0.19" stop-color="#F9C8E8"/>
<stop offset="0.31" stop-color="#F5A2D8"/>
<stop offset="0.42" stop-color="#F187CC"/>
<stop offset="0.51" stop-color="#F077C5"/>
<stop offset="0.59" stop-color="#EF71C3"/>
</linearGradient>
<linearGradient id="paint26_linear_14118_7915" x1="125.744" y1="83.6454" x2="102.315" y2="79.8589" gradientUnits="userSpaceOnUse">
<stop stop-color="#7483FB"/>
<stop offset="0.09" stop-color="#707EF1"/>
<stop offset="0.23" stop-color="#6471D8"/>
<stop offset="0.41" stop-color="#505BAD"/>
<stop offset="0.63" stop-color="#353C73"/>
<stop offset="0.87" stop-color="#13162A"/>
<stop offset="1"/>
</linearGradient>
<linearGradient id="paint27_linear_14118_7915" x1="120.758" y1="115.505" x2="93.9217" y2="111.168" gradientUnits="userSpaceOnUse">
<stop stop-color="#7483FB"/>
<stop offset="0.16" stop-color="#606DD0"/>
<stop offset="0.75" stop-color="#1C1F3C"/>
<stop offset="1"/>
</linearGradient>
<linearGradient id="paint28_linear_14118_7915" x1="118.834" y1="124.571" x2="91.832" y2="120.207" gradientUnits="userSpaceOnUse">
<stop stop-color="#7483FB"/>
<stop offset="0.16" stop-color="#606DD0"/>
<stop offset="0.75" stop-color="#1C1F3C"/>
<stop offset="1"/>
</linearGradient>
<clipPath id="clip0_14118_7915">
<rect width="129.04" height="132.66" fill="white" transform="translate(21.166) rotate(9.18083)"/>
</clipPath>
</defs>
</svg>
